<?xml version="1.0" encoding="utf-8"?>
<!-- Generator: Adobe Illustrator 16.0.0, SVG Export Plug-In . SVG Version: 6.00 Build 0)  -->
<!DOCTYPE svg PUBLIC "-//W3C//DTD SVG 1.1//EN" "http://www.w3.org/Graphics/SVG/1.1/DTD/svg11.dtd">
<svg version="1.1" id="Capa_1" xmlns="http://www.w3.org/2000/svg" xmlns:xlink="http://www.w3.org/1999/xlink" x="0px" y="0px"
	 width="64px" height="50px" viewBox="0 0 64 50" enable-background="new 0 0 64 50" xml:space="preserve">
<path fill="#616161" d="M38.6,25.6c-0.4-0.4-0.4-0.9,0-1.3l13.5-13.5c0.4-0.4,0.5-0.9,0.5-1.3c0-0.4-0.2-0.9-0.5-1.3l-2.5-2.5
	c-0.4-0.4-0.9-0.5-1.3-0.5c-0.5,0-0.9,0.2-1.3,0.5L33.6,19.3c-0.4,0.4-0.9,0.4-1.3,0L18.8,5.7c-0.4-0.4-0.9-0.5-1.3-0.5
	c-0.4,0-0.9,0.2-1.3,0.5l-2.5,2.5c-0.4,0.4-0.5,0.9-0.5,1.3c0,0.4,0.2,0.9,0.5,1.3l13.5,13.5c0.4,0.4,0.4,0.9,0,1.3L13.7,39.1
	c-0.4,0.4-0.5,0.9-0.5,1.3s0.2,0.9,0.5,1.3l2.5,2.5c0.4,0.4,0.9,0.5,1.3,0.5c0.4,0,0.9-0.2,1.3-0.5l13.5-13.5c0.4-0.4,0.9-0.4,1.3,0
	l13.5,13.5c0.4,0.4,0.9,0.5,1.3,0.5s0.9-0.2,1.3-0.5l2.5-2.5c0.4-0.4,0.5-0.9,0.5-1.3s-0.2-0.9-0.5-1.3L38.6,25.6z"/>
</svg>
