<?xml version="1.0" encoding="utf-8"?>
<!-- Generator: Adobe Illustrator 19.2.0, SVG Export Plug-In . SVG Version: 6.00 Build 0)  -->
<svg version="1.1" id="Isolation_Mode" xmlns="http://www.w3.org/2000/svg" xmlns:xlink="http://www.w3.org/1999/xlink" x="0px"
	 y="0px" viewBox="0 0 681 316" style="enable-background:new 0 0 681 316;" xml:space="preserve">
<style type="text/css">
	.st0{fill:#FFFFFF;}
	.st1{fill:#EFC24B;}
</style>
<g>
	<g>
		<path class="st0" d="M88.2,153.9l0,3.8c-0.7,22.3-5.8,50.5-33.1,53.8c-25.7,3.1-33.2-19.2-32.5-42.1c0.7-22.4,9.8-48.2,35.3-51.4
			c14.1-1.7,24.3,6.2,29,18.7l-23.1,11.5c-0.1-3.6-2.2-8.9-6.4-8.4c-10.9,1.3-10.6,22-10.9,28.8c0.1,6.4-0.8,22.3,8.3,21.2
			c6.2-0.8,8.5-8.7,8.5-13.9l-8.7,1.1l0.6-19.1L88.2,153.9z"/>
		<path class="st0" d="M134.9,200.3l-1.4-11.4l-15.8,1.9l-2.3,11.9l-24.3,3l23.9-93l28.8-3.5l15.5,88.1L134.9,200.3z M131.4,170
			l-1.9-20.7c-0.5-5.5-0.8-11.2-1.2-16.8l-0.2,0c-0.9,5.7-1.6,11.5-2.8,17.3l-3.9,21.4L131.4,170z"/>
		<path class="st0" d="M170,105.9l22.4-2.7l17.1,52.1l0.2-0.3c-0.6-10.3-2-20.4-1.6-30.8l0.8-23l22.7-2.8l-3,90.4l-22.7,2.8
			l-15.9-50l-0.2,0.3c0.3,8.4,1.1,16.7,0.8,25.2l-0.9,26.5l-22.7,2.8L170,105.9z"/>
		<path class="st0" d="M280.3,182.5l-1.4-11.4l-15.8,1.9l-2.3,11.9l-24.3,3l23.9-93l28.8-3.5l15.5,88.1L280.3,182.5z M276.8,152.2
			l-1.9-20.7c-0.5-5.6-0.8-11.2-1.2-16.8l-0.2,0c-0.9,5.7-1.6,11.5-2.8,17.3l-3.9,21.4L276.8,152.2z"/>
		<path class="st0" d="M315.4,88.2l19-2.3c26.8-3.3,40.7,12.5,39.8,39.8c-1.4,41.7-26.8,48.7-41.2,50.4l-20.6,2.5L315.4,88.2z
			 M336.8,153.8c10.8-1.4,13.1-15.6,13.3-24.1c0.3-9.8-1.1-23.3-11.8-22L336.8,153.8z"/>
		<path class="st0" d="M417.7,74.1c23.9-2.9,32.5,20.6,31.8,42.7c-0.7,22.1-10.9,47.9-34.9,50.8s-32.5-20.6-31.8-42.7
			C383.6,102.9,393.8,77,417.7,74.1z M415.4,144.8c8.9-1.1,9.9-19.5,10-25.1c0.2-5.6,0.4-23.9-8.5-22.8c-8.9,1.1-9.9,19.5-10,25.1
			S406.5,145.9,415.4,144.8z"/>
		<path class="st0" d="M495.9,156.1l-11.8-36l-0.2,0.3c0,4.4,0.1,8.8-0.1,13.3l-0.8,24.1l-23.6,2.9l3-90.4l22.8-2.8
			c20.5-2.5,35.1,1.9,34.3,25.8c-0.3,9.9-4.8,19.3-14.3,24.3l16.3,35.5L495.9,156.1z M486.1,108.9c6.2-0.8,9.8-6.8,10-12.7
			c0.3-7.9-4.3-10.7-10.7-9.5l-0.7,22.3L486.1,108.9z"/>
		<path class="st0" d="M532.2,61.6l43.8-5.4l-0.7,21.3l-20.2,2.5l-0.4,12.6l18.2-2.2l-0.7,21.3L554,114l-0.5,13.8l20.2-2.5
			l-0.7,21.3l-43.8,5.4L532.2,61.6z"/>
		<path class="st0" d="M585.8,114.8c3.1,4.6,8.6,9,14.6,8.2c3.2-0.4,7-2.9,7.1-6.8c0.1-2.2-0.6-3.6-1.7-4.8c-1-1.2-2.3-2.1-3.8-3
			c-4.5-3.2-8.4-6.1-11.3-10.1c-2.8-3.8-4.4-8.7-4.2-15.2c0.3-10.5,7.5-30.5,27.6-33c5.7-0.7,11.7,0.4,16.6,2.5L629.8,80
			c-2.6-4.2-8.1-8.7-13.6-8c-2.8,0.3-6.2,2.8-6.3,6.3c-0.1,1.9,0.9,3.5,2.1,4.8c1.2,1.3,2.9,2.3,4.2,3.2c4.9,3,8.7,5.9,11.2,9.6
			c2.6,3.7,4,8.3,3.8,15.2c-0.6,16.8-12.3,31.6-28.8,33.6c-6,0.7-12.1,0.2-17.6-1.6L585.8,114.8z"/>
		<path class="st0" d="M282.7,198.4l22.7-2.8l-1.1,32.5l-0.6,8.7l0.2,0.2c2.9-6.7,7.4-11.3,14.5-12.2c16.5-2,18.9,18.1,18.4,31.2
			c-0.3,8.8-2.8,32.6-20.6,34.8c-6.9,0.8-10.6-2.8-13.4-8.1l-0.2,0.3l0.2,8.2l-23.1,2.8L282.7,198.4z M313.4,257.9
			c0.1-4,0.1-13-5.6-12.3c-4.6,0.6-5.3,10.3-5.4,13.6c-0.1,3.7-0.3,13.3,5,12.6C312.7,271.1,313.3,261.4,313.4,257.9z"/>
		<path class="st0" d="M345.4,285.9l2.1-63.3l22.7-2.8l-2.1,63.3L345.4,285.9z M346.2,202.9c0.2-7.4,6.3-14.4,13.5-15.3
			c7.3-0.9,13.2,4.2,13,11.9c-0.2,7.6-6.2,14.6-13.6,15.5C351.8,216,346,210.6,346.2,202.9z"/>
		<path class="st0" d="M404.2,224.4l0.2,0.2c2.7-6.4,7.3-11.2,14.1-12c15.5-1.9,19.2,17.8,18.8,30.5c-0.4,12.5-4.7,33.4-20.3,35.3
			c-6.9,0.8-11.1-2.7-14.1-8.2l-0.2,0.3c0.1,3.9,0.3,7.7,0.2,11.7l-0.8,24.9l-22.7,2.8l3-91.6l22.7-2.8L404.2,224.4z M414,244.9
			c0.1-4.6-0.5-12.5-5-11.9c-4.4,0.5-5.5,8.3-5.6,13.7c-0.2,6,0.2,13.7,4.6,13.2C413.1,259.2,413.8,249.5,414,244.9z"/>
	</g>
</g>
<g>
	<path class="st1" d="M466.7,253.6c4.7,0.8,8.2,2.9,10.5,6.4c2.4,3.5,3.2,7.2,2.4,11.3c-0.8,4.2-2.9,7.5-6.4,9.9
		c-3.5,2.4-7.3,3.2-11.4,2.5c-4.2-0.7-7.5-2.8-9.9-6.2c-2.4-3.4-3.2-7.2-2.5-11.3c0.8-4.2,3-7.5,6.6-9.9
		C459.7,253.8,463.2,252.9,466.7,253.6z"/>
	<polygon class="st1" points="497,172.4 480.1,246.1 457.8,242.2 467,167.1 	"/>
</g>
<path class="st0" d="M109.4,283.4c0.2,2,1.8,3.4,3.8,3.6c0.3,0,0.6,0,0.9,0l134.5-16.4l0.7-8.4L113,278.8
	C110.7,279,109.1,281.1,109.4,283.4z"/>
<path class="st0" d="M4.2,89.8c0.2,2,1.8,3.4,3.8,3.6c0.3,0,0.6,0,0.9,0l667.4-81l0.7-8.4L7.8,85.2C5.5,85.5,3.9,87.5,4.2,89.8z"/>
<path class="st0" d="M513.5,214.4c0.2,2,1.8,3.4,3.8,3.6c0.3,0,0.6,0,0.9,0l134.5-16.4l0.7-8.4l-136.3,16.6
	C514.9,210.1,513.3,212.1,513.5,214.4z"/>
</svg>
