<?xml version="1.0" encoding="utf-8"?>
<!-- Generator: Adobe Illustrator 16.0.0, SVG Export Plug-In . SVG Version: 6.00 Build 0)  -->
<!DOCTYPE svg PUBLIC "-//W3C//DTD SVG 1.1//EN" "http://www.w3.org/Graphics/SVG/1.1/DTD/svg11.dtd">
<svg version="1.1" id="Capa_1" xmlns="http://www.w3.org/2000/svg" xmlns:xlink="http://www.w3.org/1999/xlink" x="0px" y="0px"
	 width="64px" height="50px" viewBox="0 0 64 50" enable-background="new 0 0 64 50" xml:space="preserve">
<g>
	<path fill="#616161" d="M20.9,7.5c-3.2,0-5.8,2.5-5.8,5.8c0,3.2,2.5,5.8,5.8,5.8c3.2,0,5.8-2.5,5.8-5.8C26.6,10,24,7.5,20.9,7.5z
		 M20.9,16.4c-1.8,0-3.2-1.4-3.2-3.2c0-1.8,1.4-3.2,3.2-3.2c1.8,0,3.2,1.4,3.2,3.2C24,15,22.6,16.4,20.9,16.4z"/>
	<path fill="#616161" d="M53.6,39L36.6,21.9c0.8-1.8,1.2-3.7,1.2-5.5c0-8.1-6.6-14.7-14.7-14.7c-8.1,0-14.7,6.6-14.7,14.7
		S14.9,31.1,23,31.1c1.1,0,2.3-0.1,3.6-0.4l8.6,8.7h3.8v4.5h4.5v4.5h8.7l3.5-3.5L53.6,39z M46.2,45.9v-4.5h-4.5v-4.5h-5.3l-8.9-8.9
		l-0.8,0.2c-1.1,0.4-2.3,0.6-3.6,0.6c-6.7,0-12.1-5.4-12.1-12.1S16.3,4.4,23,4.4s12.1,5.4,12.1,12.1c0,1.9-0.4,3.7-1.2,5.3l-0.4,0.8
		l17.9,17.9l1.2,3.2L31.9,23.1l-0.7-0.7l-1.9,1.9L51,45.9H46.2z"/>
</g>
</svg>
