<?xml version="1.0" encoding="utf-8"?>
<!-- Generator: Adobe Illustrator 16.0.0, SVG Export Plug-In . SVG Version: 6.00 Build 0)  -->
<!DOCTYPE svg PUBLIC "-//W3C//DTD SVG 1.1//EN" "http://www.w3.org/Graphics/SVG/1.1/DTD/svg11.dtd">
<svg version="1.1" id="Capa_1" xmlns="http://www.w3.org/2000/svg" xmlns:xlink="http://www.w3.org/1999/xlink" x="0px" y="0px"
	 width="64px" height="50px" viewBox="0 0 64 50" enable-background="new 0 0 64 50" xml:space="preserve">
<path fill="#FFFFFF" d="M54.6,2c0.6,0.4,0.8,1,0.7,1.7l-6.7,40c-0.1,0.5-0.4,0.9-0.8,1.2C47.6,44.9,47.3,45,47,45
	c-0.2,0-0.4,0-0.6-0.1L34.6,40l-6.3,7.7c-0.3,0.4-0.7,0.6-1.3,0.6c-0.2,0-0.4,0-0.6-0.1c-0.3-0.1-0.6-0.3-0.8-0.6
	c-0.2-0.3-0.3-0.6-0.3-0.9v-9.1L47.8,10L20,34.1L9.7,29.9c-0.6-0.2-1-0.7-1-1.4c0-0.7,0.2-1.2,0.8-1.5l43.3-25
	c0.3-0.2,0.5-0.2,0.8-0.2C54,1.7,54.3,1.8,54.6,2z"/>
</svg>
