<?xml version="1.0" encoding="utf-8"?>
<!-- Generator: Adobe Illustrator 19.2.0, SVG Export Plug-In . SVG Version: 6.00 Build 0)  -->
<svg version="1.1" id="Isolation_Mode" xmlns="http://www.w3.org/2000/svg" xmlns:xlink="http://www.w3.org/1999/xlink" x="0px"
	 y="0px" viewBox="0 0 1053.6 479.6" style="enable-background:new 0 0 1053.6 479.6;" xml:space="preserve">
<style type="text/css">
	.st0{fill:#FFFFFF;}
	.st1{fill:#216BB3;}
	.st2{fill:#F1C930;}
</style>
<g>
	<g>
		<path class="st0" d="M997.3,346.5l-31.9,4.8l-0.7,8.4l33.6-5c2.3-0.3,3.9-2.3,3.6-4.6C1001.7,347.8,999.6,346.2,997.3,346.5z"/>
		<g>
			<g>
				<path class="st0" d="M26,265.6l-17-87.9l24.8-3l4.3,36.5c0.8,7.2,1.1,14.3,1.8,21.5l0.2,0c1.3-7.4,1.9-14.7,3.4-22.1l7.7-38
					l25.6-3.1l-26.7,93.3L26,265.6z"/>
				<path class="st0" d="M114.4,163.2c23.9-2.9,32.5,20.6,31.8,42.7c-0.7,22.1-10.9,47.9-34.9,50.8c-23.9,2.9-32.5-20.6-31.8-42.7
					C80.3,191.9,90.4,166.1,114.4,163.2z M112.1,233.9c8.9-1.1,9.9-19.5,10-25.1c0.2-5.6,0.4-23.9-8.5-22.8
					c-8.9,1.1-9.9,19.5-10,25.1C103.4,216.7,103.2,235,112.1,233.9z"/>
				<path class="st0" d="M164.7,248.6l2.2-68.3l-13,1.6l0.7-22.1l50.1-6.1l-0.7,22.1l-13.5,1.7l-2.2,68.3L164.7,248.6z"/>
				<path class="st0" d="M242.8,239l-1.4-11.4l-15.8,1.9l-2.3,11.9l-24.3,3l23.9-93l28.8-3.5l15.5,88.1L242.8,239z M239.3,208.8
					l-1.9-20.7c-0.5-5.5-0.8-11.2-1.2-16.8l-0.2,0c-0.9,5.7-1.6,11.5-2.8,17.3l-3.9,21.4L239.3,208.8z"/>
				<path class="st0" d="M309.9,230.8l3-90.4l21.5-2.6c20.6-2.5,36.2,2.5,35.4,26.2c-0.8,23.5-14.9,32.4-35.3,34.3l-1,29.6
					L309.9,230.8z M337.6,156.8l-1.7,0.3l-0.7,20.9c6.5-0.4,10.6-4.6,10.9-11.4C346.2,160.8,343.3,156.1,337.6,156.8z"/>
				<path class="st0" d="M411.1,126.9c23.9-2.9,32.5,20.6,31.8,42.7c-0.7,22.1-10.9,47.9-34.9,50.8c-23.9,2.9-32.5-20.6-31.8-42.7
					C377,155.6,387.2,129.8,411.1,126.9z M408.8,197.6c8.9-1.1,9.9-19.5,10-25.1c0.2-5.6,0.4-23.9-8.5-22.8
					c-8.9,1.1-9.9,19.5-10,25.1C400.1,180.4,399.9,198.7,408.8,197.6z"/>
				<path class="st0" d="M489.3,208.9l-11.8-36l-0.2,0.3c0,4.4,0.1,8.8-0.1,13.3l-0.8,24.1l-23.6,2.9l3-90.4l22.8-2.8
					c20.5-2.5,35.1,1.9,34.3,25.8c-0.3,10-4.8,19.3-14.3,24.3l16.3,35.5L489.3,208.9z M479.5,161.7c6.2-0.8,9.8-6.8,10-12.7
					c0.3-7.9-4.3-10.7-10.7-9.5l-0.7,22.3L479.5,161.7z"/>
				<path class="st0" d="M560.5,110.1l43.8-5.4l-0.7,21.3l-20.2,2.5l-0.4,12.6l18.2-2.2l-0.7,21.3l-18.2,2.2l-0.5,13.8l20.2-2.5
					l-0.7,21.3l-43.8,5.4L560.5,110.1z"/>
				<path class="st0" d="M615.3,193.5l3-90.4l23.6-2.9l-2.3,69.1l17.7-2.2l-0.7,21.3L615.3,193.5z"/>
				<path class="st0" d="M763.4,175.4l-0.3-56.6l-0.2,0c-1.3,6.7-2.3,13.4-3.7,20.1l-7.9,37.9l-19.2,2.3l-6.3-55.8l-0.2,0
					c-0.3,6.7-0.4,13.3-1,20.1l-3.2,37l-25.3,3.1L709.1,92l29.4-3.6l5.1,47.3l0.2,0c0.9-5.7,1.6-11.3,2.9-17.1l6.7-32l29-3.6
					l5.5,89.4L763.4,175.4z"/>
				<path class="st0" d="M799.5,80.9l43.8-5.4l-0.7,21.3l-20.2,2.5l-0.4,12.6l18.2-2.2l-0.7,21.3l-18.2,2.2l-0.5,13.8l20.2-2.5
					l-0.7,21.3l-43.8,5.4L799.5,80.9z"/>
				<path class="st0" d="M851,138.1c2.1,2.8,5.5,4.6,9.4,4.1c6.6-0.8,7.1-8.1,7.2-13.4l1.9-56.5l23.6-2.9l-2,61.3
					c-0.4,12.1-2.5,30.9-25.4,33.7c-5.4,0.7-10.5,0.2-15.5-1L851,138.1z"/>
				<path class="st0" d="M937.7,62.5c23.9-2.9,32.5,20.6,31.8,42.7c-0.7,22.1-10.9,47.9-34.9,50.8c-23.9,2.9-32.5-20.6-31.8-42.7
					C903.6,91.2,913.8,65.4,937.7,62.5z M935.4,133.2c8.9-1.1,9.9-19.5,10-25.1c0.2-5.6,0.4-23.9-8.5-22.8
					c-8.9,1.1-9.9,19.5-10,25.1C926.7,116,926.5,134.3,935.4,133.2z"/>
				<path class="st0" d="M1015.9,144.5l-11.8-36l-0.2,0.3c0,4.4,0.1,8.8-0.1,13.3l-0.8,24.1l-23.6,2.9l3-90.4l22.8-2.8
					c20.5-2.5,35.1,1.9,34.3,25.8c-0.3,9.9-4.8,19.3-14.3,24.3l16.3,35.5L1015.9,144.5z M1006,97.3c6.2-0.8,9.8-6.8,10-12.7
					c0.3-7.9-4.3-10.7-10.7-9.5l-0.7,22.3L1006,97.3z"/>
				<path class="st0" d="M104.5,315.8c-3.2-2.9-6-4.5-10.8-3.9c-12.3,1.5-15.7,15.9-16.1,25.8c-0.3,10.5,2.2,23.6,14,22.2
					c5.3-0.7,8.7-3.2,12.7-7.3l-2.2,25.5c-4.8,2.7-9.1,4.3-14.3,5c-19.3,2.4-35.2-10.9-34.2-41.8c1.3-40.5,28.4-50.6,39.8-52
					c4.2-0.5,8.2-0.4,12,0.7L104.5,315.8z"/>
				<path class="st0" d="M154.2,373.3l-1.4-11.4l-15.8,1.9l-2.3,11.9l-24.3,3l23.9-93l28.8-3.5l15.5,88.1L154.2,373.3z M150.7,343.1
					l-1.9-20.7c-0.5-5.5-0.8-11.2-1.2-16.8l-0.2,0c-0.9,5.7-1.6,11.5-2.8,17.3l-3.9,21.4L150.7,343.1z"/>
				<path class="st0" d="M189.4,279l22.4-2.7l17.1,52.1l0.2-0.3c-0.6-10.3-2-20.4-1.6-30.8l0.8-23l22.7-2.8l-3,90.4l-22.7,2.8
					l-15.9-50l-0.2,0.3c0.3,8.4,1.1,16.7,0.8,25.2l-0.9,26.5l-22.7,2.8L189.4,279z"/>
				<path class="st0" d="M270.5,359.1l2.2-68.3l-13,1.6l0.7-22.1l50.1-6.1l-0.7,22.1l-13.5,1.7l-2.2,68.3L270.5,359.1z"/>
				<path class="st0" d="M348.6,349.6l-1.4-11.4l-15.8,1.9L329,352l-24.3,3l23.9-93l28.8-3.5l15.5,88.1L348.6,349.6z M345.1,319.3
					l-1.9-20.7c-0.5-5.5-0.8-11.2-1.2-16.8l-0.2,0c-0.9,5.7-1.6,11.5-2.8,17.3l-3.9,21.4L345.1,319.3z"/>
				<path class="st0" d="M383.7,255.2l22.4-2.7l17.1,52.1l0.2-0.3c-0.6-10.3-2-20.4-1.6-30.8l0.8-23l22.7-2.8l-3,90.4l-22.7,2.8
					l-15.9-50l-0.2,0.3c0.3,8.4,1.1,16.7,0.8,25.2l-0.9,26.5l-22.7,2.8L383.7,255.2z"/>
				<path class="st0" d="M464.9,335.3l2.2-68.3l-13,1.6l0.7-22.1l50.1-6.1l-0.7,22.1l-13.5,1.7l-2.2,68.3L464.9,335.3z"/>
				<path class="st0" d="M514.4,239.3l43.8-5.4l-0.7,21.3l-20.2,2.5l-0.4,12.6l18.2-2.2l-0.7,21.3l-18.2,2.2l-0.5,13.8l20.2-2.5
					l-0.7,21.3l-43.8,5.4L514.4,239.3z"/>
				<path class="st0" d="M665.8,220.7l-1.9,59.1c-0.4,10.9-3.4,33.1-30.7,36.5c-27.3,3.3-28.9-18.3-28.5-29.2l1.9-59.1l23.6-2.9
					l-1.9,56.8c-0.1,2.4-0.3,5.5,0.3,7.8c0.6,2.4,2.1,4.2,5.3,3.8c3.4-0.4,4.9-2.5,5.6-5c0.8-2.6,0.8-5.7,0.8-8l1.9-56.9
					L665.8,220.7z"/>
				<path class="st0" d="M712.7,305l-11.8-36l-0.2,0.3c0,4.4,0.1,8.8-0.1,13.3l-0.8,24.1l-23.6,2.9l3-90.4l22.8-2.8
					c20.5-2.5,35.1,1.9,34.3,25.8c-0.3,10-4.8,19.3-14.3,24.3l16.3,35.5L712.7,305z M702.8,257.9c6.2-0.8,9.8-6.8,10-12.7
					c0.3-7.9-4.3-10.7-10.7-9.6l-0.7,22.3L702.8,257.9z"/>
				<path class="st0" d="M748.9,210.6l27.8-3.4c13.9-1.7,29.9,2.6,29.2,22.1c-0.3,10.2-7,18.9-16.9,20.1l0,0.2
					c11.5-0.5,17.4,6.2,17,18.3c-0.4,11.1-7.3,26.6-28.4,29.1L746,301L748.9,210.6z M772.2,278.3c5.2-0.6,9.9-3.8,10.1-10
					s-4.2-8.1-9.7-7.4l-1.9,0.2l-0.6,17.4L772.2,278.3z M772.8,242.6c4.9-0.6,9.4-3.2,9.6-9.1c0.2-5.4-3.3-7.2-8.2-6.6l-2.3,0.3
					l-0.5,15.6L772.8,242.6z"/>
				<path class="st0" d="M854.4,287.7l-1.4-11.4l-15.8,1.9l-2.3,11.9l-24.3,3l23.9-93l28.8-3.5l15.5,88.1L854.4,287.7z M850.9,257.4
					l-1.9-20.7c-0.5-5.5-0.8-11.2-1.2-16.8l-0.2,0c-0.9,5.7-1.6,11.5-2.8,17.3l-3.9,21.4L850.9,257.4z"/>
				<path class="st0" d="M889.5,193.4l22.4-2.7l17.1,52.1l0.2-0.3c-0.6-10.3-2-20.4-1.6-30.8l0.8-23l22.7-2.8l-3,90.4l-22.7,2.8
					l-15.9-50l-0.2,0.3c0.3,8.4,1.1,16.7,0.8,25.2l-0.9,26.5l-22.7,2.8L889.5,193.4z"/>
				<path class="st0" d="M995.6,178.8c23.9-2.9,32.5,20.6,31.8,42.7c-0.7,22.1-10.9,47.9-34.9,50.8c-23.9,2.9-32.5-20.6-31.8-42.7
					C961.5,207.6,971.7,181.8,995.6,178.8z M993.3,249.6c8.9-1.1,9.9-19.5,10-25.1c0.2-5.6,0.4-23.9-8.5-22.8s-9.9,19.5-10,25.1
					C984.6,232.4,984.4,250.7,993.3,249.6z"/>
			</g>
		</g>
		<path class="st0" d="M68.3,464.4c0.2,2,1.8,3.4,3.8,3.6c0.3,0,0.6,0,0.9,0l269.8-32.9l0.7-8.4L71.9,459.8
			C69.7,460.1,68.1,462.2,68.3,464.4z"/>
		<path class="st0" d="M901.3,12.2c-0.3-2.3-2.3-3.9-4.6-3.6l-643.1,79l0,0l-167,20.5c-2.3,0.3-3.9,2.3-3.6,4.6
			c0.2,2,1.8,3.5,3.8,3.6c0.3,0,0.6,0,0.9,0l151.6-18.6l0,0l658.5-80.9C899.9,16.5,901.6,14.5,901.3,12.2z"/>
	</g>
</g>
<g>
	<path class="st1" d="M792.4,336.8l14.6-1.7l2.9,24.6c1.2-2,2.6-3.5,4.1-4.6c1.5-1.1,3.2-1.7,4.9-1.9c4.5-0.5,8.4,1.2,11.7,5.3
		c3.3,4,5.3,9,6,14.9c0.8,6.6-0.2,12.4-3,17.4c-2.8,5-6.4,7.8-10.9,8.3c-1.7,0.2-3.3,0-4.9-0.6c-1.6-0.6-3.2-1.6-4.8-3l-3.6,4.2
		l-9.5,1.1L792.4,336.8z M812.8,385.3c0.7,0.7,1.4,1.2,2.1,1.6c0.7,0.3,1.4,0.4,2.2,0.3c1.7-0.2,2.9-1.3,3.8-3.4
		c0.8-2,1.1-4.8,0.6-8.2c-0.4-3.1-1.1-5.5-2.2-7.2c-1.1-1.7-2.5-2.4-4.1-2.2c-1.5,0.2-2.6,1-3.2,2.4c-0.6,1.4-0.8,3.6-0.4,6.3
		L812.8,385.3z"/>
	<path class="st1" d="M843.7,329.7c2-0.2,3.9,0.3,5.7,1.5c1.8,1.2,2.9,3,3.1,5.3c0.3,2.2-0.3,4.1-1.7,5.8c-1.4,1.7-3.2,2.6-5.3,2.9
		c-2.2,0.3-4.2-0.3-5.9-1.7c-1.7-1.4-2.7-3.1-2.9-5.2c-0.3-2.1,0.3-4.1,1.7-5.7C839.8,330.9,841.5,330,843.7,329.7z M838.7,351.9
		l14.8-1.7l5.1,43.7l-14.8,1.7L838.7,351.9z"/>
	<path class="st1" d="M874.1,352.7c1.1-2.1,2.4-3.8,4-5c1.5-1.2,3.3-1.9,5.4-2.1c4.7-0.6,8.7,1.2,12,5.3c3.3,4.1,5.3,9.1,6,15.1
		c0.5,4.4,0.3,8.5-0.7,12.1c-1,3.7-2.6,6.7-4.9,9.1c-2.2,2.4-4.9,3.8-8,4.1c-1.5,0.2-3,0-4.5-0.4c-1.5-0.4-3-1.2-4.4-2.3l2.7,23
		l-14.6,1.7l-7.5-64.1L872,348L874.1,352.7z M877.5,377.6c0.6,0.7,1.3,1.3,2.1,1.6c0.7,0.3,1.5,0.4,2.3,0.4c1.8-0.2,3.1-1.3,3.8-3.3
		c0.8-2,1-4.7,0.6-7.9c-0.4-3.3-1.2-5.8-2.3-7.5c-1.2-1.7-2.5-2.4-4.1-2.2c-1.5,0.2-2.6,1-3.2,2.4c-0.6,1.4-0.8,3.4-0.5,6
		L877.5,377.6z"/>
	<g>
		<path class="st1" d="M919.6,375.8c3.4,1,5.8,2.9,7.3,5.6c1.5,2.8,1.8,5.6,0.9,8.6c-0.9,3-2.8,5.3-5.6,6.8
			c-2.8,1.5-5.7,1.8-8.7,0.9c-3-0.9-5.3-2.7-6.8-5.5c-1.5-2.7-1.8-5.6-0.9-8.6c0.9-3.1,2.8-5.3,5.7-6.8
			C914.4,375.4,917.1,375,919.6,375.8z"/>
		<polygon class="st1" points="948.8,318.1 930.2,371.4 913.9,366.6 927,311.8 		"/>
	</g>
	<g>
		<g>
			<path class="st2" d="M454.7,454.5l-13.2,1.6l-2-17.4c-0.9,1-2,1.9-3.2,2.7c-2.2,1.3-4.9,2.2-7.9,2.5c-2.6,0.3-4.9,0-6.7-1
				c-1.8-0.9-3.3-2.3-4.4-4.1c-1.1-1.7-2-3.8-2.6-6.2c-0.6-2.3-1-4.8-1.3-7.5l-0.6-4.8c-0.4-3.1-0.5-5.9-0.5-8.4
				c0-2.6,0.4-4.9,1.1-6.9c0.8-2,2.1-3.7,3.9-5c1.8-1.2,4.2-2,7.2-2.4c3.1-0.4,5.8-0.1,8,0.9c1.3,0.6,2.5,1.3,3.6,2.2l0.1-2.6
				l11.9-1.4L454.7,454.5z M430.2,408.1c-1.2,0.1-2.1,0.4-2.8,0.9c-0.6,0.4-1,1-1.3,1.7c-0.3,0.8-0.5,1.9-0.4,3.2
				c0,1.4,0.1,3.1,0.4,4.9l0.6,4.8c0.2,1.4,0.4,2.7,0.7,3.9c0.3,1.1,0.7,2.1,1.2,2.9c0.5,0.7,1.1,1.3,1.8,1.6
				c0.7,0.4,1.6,0.5,2.8,0.3c1.2-0.1,2.2-0.4,2.8-0.9c0.6-0.5,1.1-1,1.4-1.6c0.3-0.7,0.5-1.3,0.5-2.1c0-0.9,0-1.7-0.1-2.5l-1.2-10.4
				c-0.1-0.8-0.3-1.7-0.5-2.7c-0.2-0.9-0.5-1.6-1-2.3c-0.4-0.6-1-1.1-1.7-1.4C432.5,408,431.5,407.9,430.2,408.1z"/>
		</g>
		<g>
			<path class="st2" d="M470.6,439.1c-2.3,0.3-4.5,0.2-6.3-0.2c-1.9-0.5-3.6-1.4-4.9-2.8c-1.3-1.4-2.4-3.3-3.2-5.6
				c-0.8-2.3-1.4-5.1-1.8-8.5l-3-25.5l13.4-1.6l2.8,24c0.2,2.1,0.5,3.8,0.8,5.2c0.3,1.2,0.7,2.2,1.1,2.9c0.4,0.6,0.8,0.9,1.4,1
				c0.7,0.2,1.7,0.2,2.9,0.1c1.1-0.1,2-0.4,2.6-0.9c0.7-0.5,1.2-1,1.5-1.7c0.4-0.7,0.6-1.4,0.7-2.2c0.1-0.9,0.1-1.8,0.1-2.7l-3.2-27
				l13.4-1.6l5.1,43.6l-11.8,1.4l-1-3.6c-0.9,1.1-1.9,2.2-3.1,3C476.1,437.8,473.6,438.7,470.6,439.1z"/>
		</g>
		<g>
			<path class="st2" d="M515.5,433.7c-3.5,0.4-6.5,0.2-8.9-0.6c-2.4-0.8-4.5-2.1-6.1-3.7c-1.6-1.6-2.8-3.6-3.6-5.8
				c-0.8-2.1-1.3-4.4-1.6-6.7l-1-8.3c-0.3-2.2-0.3-4.5,0-6.7c0.3-2.3,1-4.4,2.1-6.3c1.2-2,2.9-3.6,5.1-5c2.2-1.4,5.1-2.3,8.6-2.7
				c3.2-0.4,6-0.2,8.3,0.5c2.3,0.7,4.3,1.9,6,3.5c1.6,1.6,2.8,3.5,3.7,5.8c0.8,2.2,1.4,4.6,1.7,7.2l0.7,5.7l0.1,1.5l-22,2.6l0,0.1
				c0.4,3.8,1.1,6.5,2,8c0.4,0.8,1.3,1.7,3.9,1.4c1.9-0.2,2.4-1,2.6-1.6c0.4-1.2,0.6-3,0.5-5.3l0-0.8l2.7-0.2l10.7-1.2l0.1,1.6
				c0.1,1.8-0.2,3.6-0.7,5.4c-0.5,1.9-1.4,3.6-2.7,5.2c-1.2,1.6-2.9,3-4.8,4.2C520.8,432.6,518.3,433.4,515.5,433.7z M507.6,406.5
				l8.6-1c-0.2-1.5-0.4-2.8-0.6-3.9c-0.2-1.2-0.5-2.1-0.9-2.8c-0.3-0.6-0.7-1-1.3-1.3c-0.5-0.3-1.3-0.3-2.2-0.2
				c-2.6,0.3-3.2,1.4-3.5,2.2C507.3,401,507.3,403.3,507.6,406.5z"/>
		</g>
		<g>
			<path class="st1" d="M634.3,419.7c-3.5,0.4-6.5,0.2-8.9-0.6c-2.4-0.8-4.5-2.1-6.1-3.7c-1.6-1.6-2.8-3.6-3.6-5.8
				c-0.8-2.1-1.3-4.4-1.6-6.7l-1-8.3c-0.3-2.2-0.3-4.5,0-6.7c0.3-2.3,1-4.4,2.1-6.3c1.2-2,2.9-3.6,5.1-5c2.2-1.4,5.1-2.3,8.6-2.7
				c3.2-0.4,6-0.2,8.3,0.5c2.3,0.7,4.3,1.9,6,3.5c1.6,1.6,2.8,3.5,3.7,5.8c0.8,2.2,1.4,4.6,1.7,7.2l0.7,5.7l0.1,1.5l-22,2.6l0,0.1
				c0.4,3.8,1.1,6.5,2,8c0.4,0.8,1.3,1.7,3.9,1.4c1.9-0.2,2.4-1,2.6-1.6c0.4-1.2,0.6-3,0.5-5.3l0-0.8l2.7-0.2l10.7-1.2l0.1,1.6
				c0.1,1.8-0.2,3.6-0.7,5.4c-0.5,1.9-1.4,3.6-2.7,5.2c-1.2,1.6-2.9,3-4.8,4.2C639.5,418.7,637.1,419.4,634.3,419.7z M626.4,392.5
				l8.6-1c-0.2-1.5-0.4-2.8-0.6-3.9c-0.2-1.2-0.5-2.1-0.9-2.8c-0.3-0.6-0.7-1-1.3-1.3c-0.5-0.3-1.3-0.3-2.2-0.2
				c-2.6,0.3-3.2,1.4-3.5,2.2C626.1,387,626.1,389.4,626.4,392.5z"/>
		</g>
		<g>
			<path class="st1" d="M714.1,410.4c-3.5,0.4-6.5,0.2-8.9-0.6c-2.4-0.8-4.5-2.1-6.1-3.7c-1.6-1.6-2.8-3.6-3.6-5.8
				c-0.8-2.1-1.3-4.4-1.6-6.7l-1-8.3c-0.3-2.2-0.3-4.5,0-6.7c0.3-2.3,1-4.4,2.1-6.3c1.2-2,2.9-3.6,5.1-5c2.2-1.4,5.1-2.3,8.6-2.7
				c3.2-0.4,6-0.2,8.3,0.5c2.3,0.7,4.3,1.9,6,3.5c1.6,1.6,2.8,3.5,3.7,5.8c0.8,2.2,1.4,4.6,1.7,7.2l0.7,5.7l0.1,1.5l-22,2.6l0,0.1
				c0.4,3.8,1.1,6.5,2,8c0.4,0.8,1.3,1.7,3.9,1.4c1.9-0.2,2.4-1,2.6-1.6c0.4-1.2,0.6-3,0.5-5.3l0-0.8l2.7-0.2l10.7-1.2l0.1,1.6
				c0.1,1.8-0.2,3.6-0.7,5.4c-0.5,1.9-1.4,3.6-2.7,5.2c-1.2,1.6-2.9,3-4.8,4.2C719.4,409.3,717,410,714.1,410.4z M706.2,383.2l8.6-1
				c-0.2-1.5-0.4-2.8-0.6-3.9c-0.2-1.2-0.5-2.1-0.9-2.8c-0.3-0.6-0.7-1-1.3-1.3c-0.5-0.3-1.3-0.3-2.2-0.2c-2.6,0.3-3.2,1.4-3.5,2.2
				C706,377.6,705.9,380,706.2,383.2z"/>
		</g>
		<g>
			<path class="st1" d="M553.9,429.2c-2.8,0.3-5.4,0.2-7.7-0.3c-2.3-0.5-4.4-1.4-6.1-2.7c-1.8-1.3-3.1-3-4.1-5c-1-2-1.5-4.3-1.5-6.9
				l0-1.1l11.8-1.4l1.8,1.6l0,0.5c0.1,1.9,0.5,3.5,1.2,4.7c0.2,0.3,0.8,1.4,3.5,1.1c1.9-0.2,3.1-0.7,3.7-1.4c0.6-0.8,0.8-1.7,0.6-3
				c-0.1-0.9-0.4-1.6-0.8-2.1c-0.5-0.6-1.2-1.1-2.1-1.5c-0.9-0.4-2-0.8-3.1-1.1c-1.2-0.3-2.5-0.6-3.8-1c-1.4-0.3-2.9-0.7-4.3-1
				c-1.5-0.4-2.9-1-4.2-1.7c-1.3-0.7-2.4-1.6-3.4-2.7c-1-1.2-1.6-2.6-2-4.4c-0.4-1.9-0.4-3.9,0-5.8c0.5-1.9,1.4-3.6,2.7-5.2
				c1.3-1.5,3.1-2.7,5.3-3.8c2.1-1,4.8-1.7,7.8-2.1c5.2-0.6,9.4,0.2,12.6,2.4c3.3,2.2,5.2,5.6,5.6,10l0.1,1.1l-10.4,2.8l-2.6-1.2
				l-0.1-0.7c-0.3-1.8-0.7-3.1-1.3-4.1c-0.4-0.7-1.5-0.9-3.1-0.7c-1.1,0.1-2.6,0.5-3.1,1.3c-0.5,0.8-0.7,1.7-0.5,2.7
				c0.1,1,0.4,1.7,1,2.3c0.6,0.6,1.4,1.1,2.4,1.5c1,0.4,2.2,0.7,3.6,1c1.4,0.3,2.9,0.5,4.4,0.9c1.4,0.3,2.8,0.6,4.1,1
				c1.4,0.4,2.7,1,3.9,1.8c1.2,0.8,2.2,1.8,3,3c0.8,1.3,1.4,2.8,1.6,4.7c0.2,1.7,0.1,3.4-0.4,5.2c-0.5,1.8-1.4,3.5-2.7,5
				c-1.3,1.5-3.1,2.8-5.3,3.8C559.8,428.1,557.1,428.8,553.9,429.2z"/>
		</g>
		<g>
			<path class="st1" d="M589.4,425.1c-2.3,0.3-4.5,0.2-6.3-0.2c-1.9-0.5-3.6-1.4-4.9-2.8c-1.3-1.4-2.4-3.3-3.2-5.6
				c-0.8-2.3-1.4-5.1-1.8-8.5l-3-25.5l13.4-1.6l2.8,24c0.2,2.1,0.5,3.8,0.8,5.2c0.3,1.2,0.7,2.2,1.1,2.9c0.4,0.6,0.8,0.9,1.4,1
				c0.7,0.2,1.7,0.2,2.9,0.1c1.1-0.1,2-0.4,2.6-0.9c0.7-0.5,1.2-1,1.5-1.7c0.4-0.7,0.6-1.4,0.7-2.2c0.1-0.9,0.1-1.8,0.1-2.7l-3.2-27
				l13.4-1.6l5.1,43.6l-11.8,1.4l-1-3.6c-0.9,1.1-1.9,2.2-3.1,3C595,423.8,592.4,424.7,589.4,425.1z"/>
		</g>
		<g>
			<path class="st1" d="M692.6,412.2l-13.4,1.6l-3.2-27.1c-0.4-3.5-1.2-5.1-1.8-5.8c-0.9-1.1-3-1.1-4.6-0.9c-1.1,0.1-2,0.4-2.6,0.8
				c-0.6,0.4-1.1,0.9-1.4,1.5c-0.3,0.6-0.5,1.3-0.6,2.1c-0.1,0.9,0,1.7,0.1,2.6l3.3,28l-13.4,1.6l-5.1-43.6l11.8-1.4l1,3.1
				c2.5-3.7,6.4-5.9,11.6-6.5c3-0.3,5.3-0.2,7.2,0.5c1.9,0.7,3.4,1.8,4.5,3.5c1,1.5,1.8,3.4,2.3,5.7c0.4,2.1,0.8,4.5,1.1,7.2
				L692.6,412.2z"/>
		</g>
		<g>
			<path class="st2" d="M749.1,406.4c-3.1,0.4-5.8-0.2-7.9-1.7c-3.3-2.3-5.3-7.1-6.2-14.4l-2-17.2l-3.9,0.5l-1.1-9.6l3.9-0.5
				l-1.1-9.5l9.3-3.6l3.8-0.4l1.4,11.9l5.2-0.6l1.1,9.6l-5.2,0.6l2,16.7c0.2,1.7,0.4,3,0.7,4c0.2,0.9,0.5,1.5,0.9,1.9
				c0.3,0.3,0.6,0.5,1,0.6c0.5,0.1,1.3,0.1,2.2-0.1l1.3-0.2l1.2,10.2l-0.9,0.3C752.6,405.7,750.7,406.2,749.1,406.4z"/>
		</g>
		<g>
			<path class="st2" d="M772.3,403.6c-2.3,0.3-4.5,0.2-6.3-0.2c-1.9-0.5-3.6-1.4-4.9-2.8c-1.3-1.4-2.4-3.3-3.2-5.6
				c-0.8-2.3-1.4-5.1-1.8-8.5l-3-25.5l13.4-1.6l2.8,24c0.2,2.1,0.5,3.8,0.8,5.2c0.3,1.2,0.6,2.2,1.1,2.9c0.4,0.6,0.8,0.9,1.4,1
				c0.7,0.2,1.7,0.2,2.9,0.1c1.1-0.1,2-0.4,2.6-0.9c0.7-0.5,1.2-1,1.5-1.7c0.4-0.7,0.6-1.4,0.7-2.2c0.1-0.9,0.1-1.8,0.1-2.7l-3.2-27
				l13.4-1.6l5.1,43.6l-11.8,1.4l-1-3.6c-0.9,1.2-1.9,2.2-3.1,3C777.9,402.3,775.3,403.3,772.3,403.6z"/>
		</g>
	</g>
	<g>
		<g>
			<path class="st1" d="M397.7,463.5l-8.9,1l0.3-17.8l-5.8,0.7l-0.2,17.8l-8.9,1l0.3-17.8l-7.2,0.8l-1-8.8l8.5-1l0.1-9.7l-7.6,0.9
				l-1-8.8l8.7-1l0.3-17.4l8.8-1l-0.3,17.4l5.9-0.7l0.2-17.4l8.8-1l-0.2,17.4l7.1-0.8l1,8.8l-8.4,1l-0.1,9.7l7.5-0.9l1,8.8l-8.7,1
				L397.7,463.5z M383.6,438.5l5.8-0.7l0.1-9.7l-5.8,0.7L383.6,438.5z"/>
		</g>
	</g>
</g>
</svg>
