<?xml version="1.0" encoding="utf-8"?>
<!-- Generator: Adobe Illustrator 19.2.0, SVG Export Plug-In . SVG Version: 6.00 Build 0)  -->
<svg version="1.1" id="Isolation_Mode" xmlns="http://www.w3.org/2000/svg" xmlns:xlink="http://www.w3.org/1999/xlink" x="0px"
	 y="0px" viewBox="0 0 1053.6 479.6" style="enable-background:new 0 0 1053.6 479.6;" xml:space="preserve">
<style type="text/css">
	.st0{fill:#FFFFFF;}
	.st1{fill:#0061A8;}
	.st2{fill:#F1C930;}
</style>
<g>
	<g>
		<g>
			<path class="st0" d="M931.3,373.3l-26.9,4l-0.6,7.1l28.4-4.2c1.9-0.2,3.3-2,3-3.9C934.9,374.4,933.2,373,931.3,373.3z"/>
			<g>
				<g>
					<path class="st0" d="M27.7,226.6l-14.4-74.2l20.9-2.6l3.7,30.8c0.7,6.1,1,12.1,1.5,18.2l0.2,0c1.1-6.3,1.6-12.4,2.9-18.7
						l6.5-32l21.6-2.6l-22.5,78.8L27.7,226.6z"/>
					<path class="st0" d="M102.4,140.1c20.2-2.5,27.4,17.4,26.8,36c-0.6,18.6-9.2,40.4-29.4,42.9c-20.2,2.5-27.4-17.4-26.8-36
						S82.1,142.6,102.4,140.1z M100.4,199.9c7.5-0.9,8.3-16.4,8.5-21.2c0.2-4.8,0.4-20.2-7.1-19.3c-7.5,0.9-8.3,16.4-8.5,21.2
						C93.1,185.3,92.9,200.8,100.4,199.9z"/>
					<path class="st0" d="M144.8,212.3l1.9-57.7l-10.9,1.3l0.6-18.6l42.3-5.2l-0.6,18.6l-11.4,1.4l-1.9,57.7L144.8,212.3z"/>
					<path class="st0" d="M210.8,204.2l-1.1-9.6l-13.4,1.6l-2,10l-20.5,2.5l20.2-78.5l24.3-3l13.1,74.4L210.8,204.2z M207.8,178.6
						l-1.6-17.4c-0.4-4.7-0.7-9.5-1-14.2l-0.2,0c-0.7,4.8-1.4,9.7-2.3,14.6l-3.3,18L207.8,178.6z"/>
					<path class="st0" d="M267.4,197.3l2.5-76.3l18.2-2.2c17.4-2.1,30.6,2.1,29.9,22.1c-0.7,19.8-12.6,27.3-29.8,29l-0.8,25
						L267.4,197.3z M290.8,134.7l-1.5,0.3l-0.6,17.6c5.5-0.4,9-3.9,9.2-9.6C298,138.2,295.6,134.1,290.8,134.7z"/>
					<path class="st0" d="M352.9,109.5c20.2-2.5,27.4,17.4,26.8,36c-0.6,18.6-9.2,40.4-29.4,42.9c-20.2,2.5-27.4-17.4-26.8-36
						S332.7,112,352.9,109.5z M350.9,169.2c7.5-0.9,8.3-16.4,8.5-21.2c0.2-4.8,0.4-20.2-7.1-19.3c-7.5,0.9-8.3,16.4-8.5,21.2
						C343.6,154.7,343.4,170.1,350.9,169.2z"/>
					<path class="st0" d="M418.9,178.7l-10-30.4l-0.2,0.2c0,3.7,0,7.5-0.1,11.2l-0.7,20.3l-19.9,2.4l2.5-76.3l19.2-2.4
						c17.3-2.1,29.6,1.6,29,21.8c-0.3,8.4-4,16.3-12.1,20.5l13.8,30L418.9,178.7z M410.6,138.9c5.3-0.6,8.3-5.7,8.4-10.7
						c0.2-6.7-3.6-9-9.1-8.1l-0.6,18.8L410.6,138.9z"/>
					<path class="st0" d="M483.8,170.8l1.9-57.7l-10.9,1.3l0.6-18.6l42.3-5.2l-0.6,18.6l-11.4,1.4l-1.9,57.7L483.8,170.8z"/>
					<path class="st0" d="M575.2,83.6l-1.6,49.9c-0.3,9.2-2.9,28-25.9,30.8s-24.4-15.5-24.1-24.7l1.6-49.9l19.9-2.4l-1.6,48
						c-0.1,2-0.3,4.7,0.3,6.6c0.5,2.1,1.7,3.5,4.5,3.2c2.8-0.3,4.2-2.1,4.7-4.2c0.7-2.2,0.6-4.8,0.7-6.7l1.6-48.1L575.2,83.6z"/>
					<path class="st0" d="M655.5,96.1c-2.7-2.5-5-3.8-9.1-3.3c-10.4,1.3-13.3,13.4-13.6,21.8c-0.3,8.9,1.9,19.9,11.8,18.7
						c4.5-0.5,7.4-2.7,10.7-6.1l-1.9,21.5c-4.1,2.3-7.7,3.7-12.1,4.2c-16.3,2-29.8-9.2-28.9-35.3c1.1-34.2,24-42.7,33.6-43.9
						c3.5-0.4,6.9-0.3,10.1,0.6L655.5,96.1z"/>
					<path class="st0" d="M697.5,144.6l-1.1-9.6l-13.4,1.6l-2,10l-20.5,2.5l20.2-78.5l24.3-3l13.1,74.4L697.5,144.6z M694.6,119.1
						l-1.6-17.4c-0.4-4.7-0.7-9.5-1-14.2l-0.2,0c-0.7,4.8-1.4,9.7-2.3,14.6l-3.3,18L694.6,119.1z"/>
					<path class="st0" d="M727.2,65l18.9-2.3l14.4,44l0.2-0.2c-0.5-8.7-1.7-17.2-1.4-26L760,61l19.1-2.3l-2.5,76.3l-19.1,2.3
						l-13.4-42.2l-0.2,0.2c0.3,7.1,0.9,14.1,0.7,21.3l-0.7,22.4l-19.1,2.3L727.2,65z"/>
					<path class="st0" d="M795.7,132.6l1.9-57.7l-10.9,1.3l0.6-18.6l42.3-5.2l-0.6,18.6l-11.4,1.4l-1.9,57.7L795.7,132.6z"/>
					<path class="st0" d="M861.6,124.6l-1.1-9.6l-13.4,1.6l-2,10l-20.5,2.5l20.2-78.5l24.3-3l13.1,74.4L861.6,124.6z M858.6,99
						l-1.6-17.4c-0.4-4.7-0.7-9.5-1-14.2l-0.2,0c-0.7,4.8-1.4,9.7-2.3,14.6l-3.3,18L858.6,99z"/>
					<path class="st0" d="M891.2,44.9l18.9-2.3l14.4,44l0.2-0.2c-0.5-8.7-1.7-17.2-1.4-26l0.6-19.4l19.1-2.3l-2.5,76.3l-19.1,2.3
						L908.2,75l-0.2,0.2c0.3,7.1,0.9,14.1,0.7,21.3l-0.7,22.4l-19.1,2.3L891.2,44.9z"/>
					<path class="st0" d="M959.7,112.6l1.9-57.7l-10.9,1.3l0.6-18.6l42.3-5.2L993,51l-11.4,1.4l-1.9,57.7L959.7,112.6z"/>
					<path class="st0" d="M1001.6,31.4l37-4.5l-0.6,18l-17.1,2.1l-0.3,10.6l15.3-1.9l-0.6,18l-15.3,1.9l-0.4,11.6l17.1-2.1l-0.6,18
						l-37,4.5L1001.6,31.4z"/>
					<path class="st0" d="M118.4,243.7l-1.6,49.9c-0.3,9.2-2.9,28-25.9,30.8c-23,2.8-24.4-15.5-24.1-24.7l1.6-49.9l19.9-2.4l-1.6,48
						c-0.1,2-0.3,4.7,0.3,6.6c0.5,2.1,1.7,3.5,4.5,3.2c2.8-0.3,4.2-2.1,4.7-4.2c0.7-2.2,0.6-4.8,0.7-6.7l1.6-48.1L118.4,243.7z"/>
					<path class="st0" d="M158,314.9l-10-30.4l-0.2,0.2c0,3.7,0,7.5-0.1,11.2l-0.7,20.3l-19.9,2.4l2.5-76.3l19.2-2.4
						c17.3-2.1,29.6,1.6,29,21.8c-0.3,8.4-4,16.3-12.1,20.5l13.8,30L158,314.9z M149.7,275.1c5.3-0.6,8.3-5.7,8.4-10.7
						c0.2-6.7-3.6-9-9.1-8.1l-0.6,18.8L149.7,275.1z"/>
					<path class="st0" d="M188.6,235.1l23.4-2.9c11.7-1.4,25.2,2.2,24.7,18.7c-0.3,8.6-5.9,15.9-14.3,17l0,0.2
						c9.7-0.4,14.7,5.3,14.4,15.5c-0.3,9.4-6.2,22.4-24,24.6l-26.8,3.3L188.6,235.1z M208.2,292.3c4.4-0.5,8.4-3.2,8.5-8.4
						c0.2-5.2-3.6-6.8-8.2-6.3l-1.6,0.2l-0.5,14.7L208.2,292.3z M208.7,262.2c4.1-0.5,8-2.7,8.1-7.6c0.1-4.6-2.8-6.1-6.9-5.6l-2,0.2
						l-0.4,13.2L208.7,262.2z"/>
					<path class="st0" d="M277.6,300.2l-1.1-9.6l-13.4,1.6l-2,10l-20.5,2.5l20.2-78.5l24.3-3l13.1,74.4L277.6,300.2z M274.7,274.7
						l-1.6-17.4c-0.4-4.7-0.7-9.5-1-14.2l-0.2,0c-0.7,4.8-1.4,9.7-2.3,14.6l-3.3,18L274.7,274.7z"/>
					<path class="st0" d="M307.3,220.6l18.9-2.3l14.4,44l0.2-0.2c-0.5-8.7-1.7-17.2-1.4-26l0.6-19.4l19.1-2.3l-2.5,76.3l-19.1,2.3
						l-13.4-42.2l-0.2,0.2c0.3,7.1,0.9,14.1,0.7,21.3l-0.7,22.4l-19.1,2.3L307.3,220.6z"/>
					<path class="st0" d="M396.9,208.3c20.2-2.5,27.4,17.4,26.8,36c-0.6,18.6-9.2,40.4-29.4,42.9c-20.2,2.5-27.4-17.4-26.8-36
						C368.1,232.6,376.7,210.8,396.9,208.3z M394.9,268.1c7.5-0.9,8.3-16.4,8.5-21.2c0.2-4.8,0.4-20.2-7.1-19.3
						c-7.5,0.9-8.3,16.4-8.5,21.2C387.6,253.5,387.4,269,394.9,268.1z"/>
					<path class="st0" d="M474.6,276.1l1.1-32.4l-16.7-41.7l20.7-2.5l6.1,22.7l0.2,0l7.7-24.4l20.6-2.5l-18.6,46l-1.1,32.4
						L474.6,276.1z"/>
					<path class="st0" d="M602.2,216.6l0,3.2c-0.6,18.8-4.9,42.6-27.9,45.5c-21.7,2.7-28.1-16.2-27.4-35.6
						c0.6-18.9,8.2-40.7,29.8-43.4c11.9-1.5,20.5,5.2,24.5,15.8l-19.5,9.7c-0.1-3-1.9-7.5-5.4-7.1c-9.2,1.1-9,18.5-9.2,24.3
						c0.1,5.4-0.7,18.8,7,17.9c5.3-0.6,7.1-7.3,7.2-11.8l-7.3,0.9l0.5-16.1L602.2,216.6z"/>
					<path class="st0" d="M641.6,255.7l-1.1-9.6l-13.4,1.6l-2,10l-20.5,2.5l20.2-78.5l24.3-3l13.1,74.4L641.6,255.7z M638.7,230.2
						l-1.6-17.4c-0.4-4.7-0.7-9.5-1-14.2l-0.2,0c-0.7,4.8-1.4,9.7-2.3,14.6l-3.3,18L638.7,230.2z"/>
					<path class="st0" d="M671.3,176.1l18.9-2.3l14.4,44l0.2-0.2c-0.5-8.7-1.7-17.2-1.4-26l0.6-19.4l19.1-2.3l-2.5,76.3l-19.1,2.3
						l-13.4-42.2l-0.2,0.2c0.3,7.1,0.9,14.1,0.7,21.3l-0.7,22.4l-19.1,2.3L671.3,176.1z"/>
					<path class="st0" d="M764.4,240.7l-1.1-9.6l-13.4,1.6l-2,10l-20.5,2.5l20.2-78.5l24.3-3l13.1,74.4L764.4,240.7z M761.4,215.2
						l-1.6-17.4c-0.4-4.7-0.7-9.5-1-14.2l-0.2,0c-0.7,4.8-1.4,9.7-2.3,14.6l-3.3,18L761.4,215.2z"/>
					<path class="st0" d="M873,151.4l-1.6,49.9c-0.3,9.2-2.9,28-25.9,30.8c-23,2.8-24.4-15.5-24.1-24.7l1.6-49.9l19.9-2.4l-1.6,48
						c-0.1,2-0.2,4.7,0.3,6.6c0.5,2.1,1.7,3.5,4.5,3.2c2.8-0.3,4.2-2.1,4.7-4.2c0.7-2.2,0.6-4.8,0.7-6.7l1.6-48.1L873,151.4z"/>
					<path class="st0" d="M884.3,150l18.9-2.3l14.4,44l0.2-0.2c-0.5-8.7-1.7-17.2-1.4-26l0.6-19.4l19.1-2.3l-2.5,76.3l-19.1,2.3
						l-13.4-42.2l-0.2,0.2c0.3,7.1,0.9,14.1,0.7,21.3l-0.7,22.4l-19.1,2.3L884.3,150z"/>
					<path class="st0" d="M977.4,214.6l-1.1-9.6l-13.4,1.6l-2,10l-20.5,2.5l20.2-78.5l24.3-3l13.1,74.4L977.4,214.6z M974.4,189.1
						l-1.6-17.4c-0.4-4.7-0.7-9.5-1-14.2l-0.2,0c-0.7,4.8-1.4,9.7-2.3,14.6l-3.3,18L974.4,189.1z"/>
					<path class="st0" d="M204,333.2l19.1-2.3l-0.9,27.4l-0.5,7.3l0.2,0.2c2.4-5.6,6.2-9.5,12.2-10.3c14-1.7,15.9,15.3,15.6,26.3
						c-0.2,7.4-2.4,27.5-17.4,29.3c-5.9,0.7-9-2.3-11.3-6.9l-0.2,0.2l0.2,6.9l-19.5,2.4L204,333.2z M229.9,383.4
						c0.1-3.3,0.1-11-4.7-10.4c-3.9,0.5-4.5,8.7-4.6,11.4c-0.1,3.1-0.3,11.2,4.2,10.7C229.3,394.6,229.8,386.3,229.9,383.4z"/>
					<path class="st0" d="M256.9,407l1.8-53.4l19.1-2.3l-1.8,53.4L256.9,407z M257.6,337c0.2-6.3,5.4-12.1,11.4-12.9
						c6.2-0.8,11.2,3.6,11,10c-0.2,6.4-5.3,12.3-11.5,13.1C262.3,348,257.4,343.4,257.6,337z"/>
					<path class="st0" d="M306.5,355.1l0.2,0.2c2.3-5.4,6.1-9.4,11.9-10.1c13.1-1.6,16.2,15,15.9,25.8c-0.3,10.5-3.9,28.2-17.1,29.8
						c-5.9,0.7-9.4-2.3-11.9-6.9l-0.2,0.2c0.1,3.3,0.3,6.5,0.2,9.9l-0.7,21.1l-19.1,2.3l2.5-77.3l19.1-2.3L306.5,355.1z
						 M314.8,372.4c0.1-3.8-0.4-10.5-4.2-10.1c-3.7,0.5-4.6,7-4.8,11.6c-0.2,5.1,0.2,11.6,3.9,11.1
						C314,384.5,314.7,376.3,314.8,372.4z"/>
					<path class="st0" d="M403.9,313l16-2c22.7-2.8,34.4,10.5,33.6,33.6c-1.2,35.2-22.7,41.1-34.8,42.6l-17.4,2.1L403.9,313z
						 M421.9,368.5c9.1-1.2,11-13.1,11.3-20.3c0.3-8.3-0.9-19.6-10-18.5L421.9,368.5z"/>
					<path class="st0" d="M464.4,305.6l37-4.5l-0.6,18l-17.1,2.1l-0.3,10.6l15.3-1.9l-0.6,18l-15.3,1.9l-0.4,11.6l17.1-2.1l-0.6,18
						l-37,4.5L464.4,305.6z"/>
					<path class="st0" d="M563.4,282.4l8.9-1.1l-0.3,9.8c4.2-0.1,8,0.7,11.7,2.6l-0.8,22.9c-2.8-3.6-6.7-7.5-11.8-6.8
						c-2.4,0.3-4.9,2.2-5,5.2c-0.1,3.6,4.2,5.8,6.4,7.4c7.3,5.3,11.7,9.7,11.4,20.2c-0.3,10.5-5.5,20.6-15,25.8l-0.4,11.2l-9,1.1
						l0.3-9.4c-5.3,0.5-10.5,0.3-15.2-1.5l0.8-23.9c2.5,4.1,7.4,7.7,12.5,7c3-0.4,5.8-2.2,5.9-6.1c0.1-3.5-3.1-5.5-5.5-7.1
						c-7-5.2-12.4-9.9-12.1-20.2c0.4-11.4,6.4-21.7,16.8-26.8L563.4,282.4z"/>
					<path class="st0" d="M615.5,363.1l1.9-58.7l-7.9,1l0.6-17.6l27.8-3.4l-2.5,76.3L615.5,363.1z"/>
					<path class="st0" d="M709,313.7c-0.6,16.9-6.9,40.2-27.4,42.7c-20.5,2.5-25.3-19.4-24.8-36.3c0.6-16.9,6.9-40.2,27.4-42.7
						C704.8,274.9,709.6,296.8,709,313.7z M676.5,317.7c-0.3,8.6-0.3,21.8,5.7,21.1c6.1-0.7,6.9-14,7.2-22.6
						c0.3-8.6,0.3-21.8-5.7-21.1C677.6,295.8,676.8,309.1,676.5,317.7z"/>
					<path class="st0" d="M715.2,340.4c0.2-6.2,5.4-12,11.1-12.7c6.3-0.8,11.5,3.5,11.2,10.3c-0.2,6.4-5.5,12.1-11.6,12.8
						C719.7,351.5,715,346.8,715.2,340.4z"/>
					<path class="st0" d="M797.5,302.9c-0.6,16.9-6.9,40.2-27.4,42.7c-20.5,2.5-25.3-19.4-24.8-36.3c0.6-16.9,6.9-40.2,27.4-42.7
						C793.2,264.1,798.1,286,797.5,302.9z M765,306.9c-0.3,8.6-0.3,21.8,5.7,21.1c6.1-0.7,6.9-14,7.2-22.6
						c0.3-8.6,0.3-21.8-5.7-21.1C766.1,284.9,765.3,298.3,765,306.9z"/>
					<path class="st0" d="M856.5,295.7c-0.6,16.9-6.9,40.2-27.4,42.7c-20.5,2.5-25.3-19.4-24.8-36.3c0.6-16.9,6.9-40.2,27.4-42.7
						C852.2,256.9,857.1,278.8,856.5,295.7z M824,299.6c-0.3,8.6-0.3,21.8,5.7,21.1c6.1-0.7,6.9-14,7.2-22.6
						c0.3-8.6,0.3-21.8-5.7-21.1C825.1,277.7,824.3,291,824,299.6z"/>
					<path class="st0" d="M915.5,288.4c-0.6,16.9-6.9,40.2-27.4,42.7s-25.3-19.4-24.8-36.3c0.6-16.9,6.9-40.2,27.4-42.7
						C911.2,249.7,916,271.5,915.5,288.4z M883,292.4c-0.3,8.6-0.3,21.8,5.7,21.1c6.1-0.7,6.9-14,7.2-22.6
						c0.3-8.6,0.3-21.8-5.7-21.1C884.1,270.5,883.3,283.8,883,292.4z"/>
				</g>
			</g>
			<g>
				<g>
					<path class="st0" d="M342.2,385.1c1.1-6.1,7.1-11.1,12.9-10.9c6.4,0.2,10.8,5.2,9.5,11.9c-1.2,6.3-7.2,11.1-13.4,10.9
						C345,396.8,341,391.5,342.2,385.1z M347.2,368.8l9.8-52.5l19.6,0.6l-9.8,52.5L347.2,368.8z"/>
				</g>
			</g>
			<path class="st0" d="M147,472.8c0.2,1.7,1.6,2.9,3.2,3.1c0.2,0,0.5,0,0.7,0l227.7-27.8l0.6-7.1l-229.2,28
				C148.1,469.2,146.7,470.9,147,472.8z"/>
			<path class="st0" d="M850.2,7.4c-0.2-1.9-2-3.3-3.9-3l-683.9,84c-1.9,0.2-3.3,2-3,3.9c0.2,1.7,1.6,2.9,3.2,3.1c0.2,0,0.5,0,0.7,0
				l684-84C849,11.1,850.4,9.4,850.2,7.4z"/>
		</g>
	</g>
	<g>
		<path class="st1" d="M758.2,365.1l12.3-1.4l2.4,20.8c1.1-1.7,2.2-3,3.5-3.9c1.3-0.9,2.7-1.4,4.2-1.6c3.8-0.4,7.1,1,9.9,4.5
			c2.8,3.4,4.5,7.6,5.1,12.5c0.7,5.6-0.2,10.5-2.5,14.7c-2.3,4.2-5.4,6.6-9.2,7c-1.4,0.2-2.8,0-4.2-0.5c-1.4-0.5-2.7-1.4-4.1-2.5
			l-3,3.5l-8,0.9L758.2,365.1z M775.5,406c0.6,0.6,1.2,1,1.8,1.3c0.6,0.3,1.2,0.4,1.8,0.3c1.4-0.2,2.5-1.1,3.2-2.8
			c0.7-1.7,0.9-4,0.5-6.9c-0.3-2.7-0.9-4.7-1.9-6.1c-0.9-1.4-2.1-2-3.4-1.9c-1.3,0.2-2.2,0.8-2.7,2.1c-0.5,1.2-0.6,3-0.4,5.3
			L775.5,406z"/>
		<path class="st1" d="M801.5,359.1c1.7-0.2,3.3,0.2,4.8,1.3c1.5,1,2.4,2.5,2.6,4.5c0.2,1.8-0.3,3.5-1.4,4.9
			c-1.2,1.4-2.7,2.2-4.5,2.5c-1.9,0.2-3.6-0.2-5-1.4c-1.4-1.2-2.3-2.6-2.5-4.4c-0.2-1.8,0.3-3.4,1.5-4.8
			C798.2,360.1,799.7,359.3,801.5,359.1z M797.3,377.8l12.5-1.5l4.3,36.9l-12.5,1.5L797.3,377.8z"/>
		<path class="st1" d="M827.2,378.5c0.9-1.8,2-3.2,3.4-4.2c1.3-1,2.8-1.6,4.5-1.8c4-0.5,7.3,1,10.1,4.4c2.8,3.4,4.5,7.7,5.1,12.8
			c0.4,3.7,0.2,7.1-0.6,10.3c-0.9,3.1-2.2,5.7-4.1,7.7c-1.9,2-4.1,3.2-6.8,3.5c-1.3,0.1-2.5,0-3.8-0.3c-1.3-0.4-2.5-1-3.8-1.9
			l2.3,19.4l-12.3,1.4l-6.4-54.1l10.7-1.3L827.2,378.5z M830.1,399.5c0.5,0.6,1.1,1.1,1.8,1.3c0.6,0.3,1.3,0.4,2,0.3
			c1.5-0.2,2.6-1.1,3.2-2.8c0.7-1.7,0.8-3.9,0.5-6.7c-0.3-2.8-1-4.9-2-6.3c-1-1.4-2.1-2-3.4-1.9c-1.3,0.2-2.2,0.8-2.7,2
			c-0.5,1.2-0.6,2.9-0.4,5.1L830.1,399.5z"/>
		<g>
			<path class="st1" d="M865.7,398c2.9,0.8,4.9,2.4,6.1,4.7c1.2,2.3,1.5,4.7,0.7,7.2c-0.8,2.6-2.3,4.5-4.7,5.7
				c-2.3,1.3-4.8,1.5-7.3,0.8c-2.6-0.8-4.5-2.3-5.7-4.6c-1.3-2.3-1.5-4.7-0.8-7.3c0.8-2.6,2.4-4.5,4.8-5.7
				C861.2,397.7,863.5,397.4,865.7,398z"/>
			<polygon class="st1" points="890.3,349.3 874.6,394.3 860.9,390.3 871.9,344 			"/>
		</g>
		<g>
			<g>
				<path class="st2" d="M473.2,464.5l-11.2,1.3l-1.7-14.7c-0.8,0.9-1.7,1.6-2.7,2.3c-1.9,1.1-4.1,1.8-6.7,2.1
					c-2.2,0.3-4.1,0-5.7-0.8c-1.5-0.8-2.8-2-3.8-3.5c-0.9-1.4-1.7-3.2-2.2-5.2c-0.5-1.9-0.9-4.1-1.1-6.3l-0.5-4.1
					c-0.3-2.6-0.5-5-0.4-7.1c0-2.2,0.3-4.2,1-5.8c0.7-1.7,1.8-3.1,3.3-4.2c1.5-1,3.5-1.7,6.1-2c2.6-0.3,4.9,0,6.8,0.8
					c1.1,0.5,2.1,1.1,3,1.9l0.1-2.2l10-1.2L473.2,464.5z M452.5,425.3c-1,0.1-1.8,0.4-2.3,0.7c-0.5,0.3-0.8,0.8-1.1,1.4
					c-0.3,0.7-0.4,1.6-0.4,2.7c0,1.2,0.1,2.6,0.3,4.2l0.5,4.1c0.1,1.2,0.3,2.3,0.6,3.3c0.2,0.9,0.6,1.8,1,2.4
					c0.4,0.6,0.9,1.1,1.5,1.4c0.6,0.3,1.4,0.4,2.4,0.3c1-0.1,1.8-0.4,2.4-0.8c0.5-0.4,0.9-0.8,1.2-1.4c0.3-0.6,0.4-1.1,0.4-1.8
					c0-0.7,0-1.4-0.1-2.1l-1-8.8c-0.1-0.7-0.2-1.5-0.4-2.3c-0.2-0.7-0.5-1.4-0.8-2c-0.4-0.5-0.8-0.9-1.5-1.2
					C454.4,425.2,453.6,425.2,452.5,425.3z"/>
			</g>
			<g>
				<path class="st2" d="M486.6,451.4c-2,0.2-3.8,0.2-5.3-0.2c-1.6-0.4-3-1.2-4.2-2.4c-1.1-1.2-2-2.7-2.7-4.7
					c-0.7-1.9-1.2-4.3-1.5-7.1l-2.5-21.5l11.3-1.3l2.4,20.3c0.2,1.8,0.4,3.2,0.7,4.4c0.2,1,0.5,1.9,0.9,2.4c0.3,0.5,0.7,0.8,1.2,0.9
					c0.6,0.2,1.5,0.2,2.5,0.1c0.9-0.1,1.7-0.4,2.2-0.7c0.6-0.4,1-0.9,1.3-1.4c0.3-0.6,0.5-1.2,0.6-1.9c0.1-0.8,0.1-1.5,0.1-2.3
					l-2.7-22.8l11.3-1.3l4.3,36.8l-10,1.2l-0.8-3.1c-0.7,1-1.6,1.8-2.6,2.5C491.2,450.3,489.1,451.1,486.6,451.4z"/>
			</g>
			<g>
				<path class="st2" d="M524.5,446.9c-3,0.3-5.5,0.2-7.5-0.5c-2.1-0.7-3.8-1.8-5.2-3.2c-1.3-1.4-2.4-3-3.1-4.9
					c-0.7-1.8-1.1-3.7-1.3-5.6l-0.8-7c-0.2-1.9-0.2-3.8,0-5.7c0.2-1.9,0.9-3.7,1.8-5.4c1-1.7,2.4-3.1,4.3-4.2
					c1.9-1.2,4.3-1.9,7.3-2.3c2.7-0.3,5.1-0.2,7,0.5c2,0.6,3.7,1.6,5,3c1.3,1.3,2.4,3,3.1,4.9c0.7,1.9,1.2,3.9,1.4,6.1l0.6,4.8
					l0.1,1.3l-18.6,2.2l0,0.1c0.4,3.2,0.9,5.5,1.7,6.7c0.4,0.6,1.1,1.5,3.3,1.2c1.6-0.2,2-0.8,2.2-1.3c0.4-1,0.5-2.5,0.4-4.4l0-0.7
					l2.2-0.2l9-1l0.1,1.3c0.1,1.5-0.1,3-0.6,4.6c-0.5,1.6-1.2,3.1-2.3,4.4c-1.1,1.4-2.4,2.5-4.1,3.5
					C528.9,446,526.9,446.6,524.5,446.9z M517.8,423.9l7.3-0.9c-0.2-1.3-0.3-2.4-0.5-3.3c-0.2-1-0.4-1.8-0.8-2.4
					c-0.3-0.5-0.6-0.9-1.1-1.1c-0.4-0.2-1.1-0.3-1.9-0.2c-2.2,0.3-2.7,1.2-2.9,1.8C517.6,419.3,517.5,421.2,517.8,423.9z"/>
			</g>
			<g>
				<path class="st1" d="M624.8,435.1c-3,0.3-5.5,0.2-7.5-0.5c-2.1-0.7-3.8-1.8-5.2-3.2c-1.3-1.4-2.4-3-3.1-4.9
					c-0.7-1.8-1.1-3.7-1.3-5.6l-0.8-7c-0.2-1.9-0.2-3.8,0-5.7c0.2-1.9,0.9-3.7,1.8-5.4c1-1.7,2.4-3.1,4.3-4.2
					c1.9-1.2,4.3-1.9,7.3-2.3c2.7-0.3,5.1-0.2,7,0.5c2,0.6,3.7,1.6,5,3c1.3,1.3,2.4,3,3.1,4.9c0.7,1.9,1.2,3.9,1.4,6.1l0.6,4.8
					l0.1,1.3l-18.6,2.2l0,0.1c0.4,3.2,0.9,5.5,1.7,6.7c0.4,0.6,1.1,1.5,3.3,1.2c1.6-0.2,2-0.8,2.2-1.3c0.4-1,0.5-2.5,0.4-4.4l0-0.7
					l2.2-0.2l9-1l0.1,1.3c0.1,1.5-0.1,3-0.6,4.6c-0.5,1.6-1.2,3.1-2.3,4.4c-1.1,1.4-2.4,2.5-4.1,3.5
					C629.2,434.2,627.1,434.8,624.8,435.1z M618.1,412.2l7.3-0.9c-0.2-1.3-0.3-2.4-0.5-3.3c-0.2-1-0.4-1.8-0.8-2.4
					c-0.3-0.5-0.6-0.9-1.1-1.1c-0.4-0.2-1.1-0.3-1.9-0.2c-2.2,0.3-2.7,1.2-2.9,1.8C617.9,407.5,617.8,409.5,618.1,412.2z"/>
			</g>
			<g>
				<path class="st1" d="M692.2,427.2c-3,0.3-5.5,0.2-7.5-0.5c-2.1-0.7-3.8-1.8-5.2-3.2c-1.3-1.4-2.4-3-3.1-4.9
					c-0.7-1.8-1.1-3.7-1.3-5.6l-0.8-7c-0.2-1.9-0.2-3.8,0-5.7c0.2-1.9,0.9-3.7,1.8-5.4c1-1.7,2.4-3.1,4.3-4.2
					c1.9-1.2,4.3-1.9,7.3-2.3c2.7-0.3,5.1-0.2,7,0.5c2,0.6,3.7,1.6,5,3c1.3,1.3,2.4,3,3.1,4.9c0.7,1.9,1.2,3.9,1.4,6.1l0.6,4.8
					l0.1,1.3l-18.6,2.2l0,0.1c0.4,3.2,0.9,5.5,1.7,6.7c0.4,0.6,1.1,1.5,3.3,1.2c1.6-0.2,2-0.8,2.2-1.3c0.4-1,0.5-2.5,0.4-4.4l0-0.7
					l2.2-0.2l9-1l0.1,1.3c0.1,1.5-0.1,3-0.6,4.6c-0.5,1.6-1.2,3.1-2.3,4.4c-1.1,1.4-2.4,2.5-4.1,3.5
					C696.6,426.3,694.6,426.9,692.2,427.2z M685.5,404.2l7.3-0.9c-0.2-1.3-0.3-2.4-0.5-3.3c-0.2-1-0.4-1.8-0.8-2.4
					c-0.3-0.5-0.6-0.9-1.1-1.1c-0.4-0.2-1.1-0.3-1.9-0.2c-2.2,0.3-2.7,1.2-2.9,1.8C685.3,399.6,685.2,401.5,685.5,404.2z"/>
			</g>
			<g>
				<path class="st1" d="M556.9,443.1c-2.4,0.3-4.6,0.2-6.5-0.2c-2-0.4-3.7-1.2-5.2-2.3c-1.5-1.1-2.6-2.5-3.5-4.2
					c-0.8-1.7-1.2-3.6-1.3-5.8l0-0.9l10-1.2l1.5,1.3l0,0.5c0.1,1.6,0.4,3,1,4c0.2,0.3,0.7,1.2,3,0.9c1.6-0.2,2.7-0.6,3.1-1.2
					c0.5-0.7,0.7-1.5,0.5-2.5c-0.1-0.7-0.3-1.3-0.7-1.8c-0.4-0.5-1-0.9-1.7-1.3c-0.8-0.4-1.7-0.7-2.6-0.9c-1.1-0.3-2.1-0.5-3.2-0.8
					c-1.2-0.3-2.4-0.6-3.6-0.9c-1.3-0.3-2.5-0.8-3.5-1.4c-1.1-0.6-2-1.4-2.8-2.3c-0.8-1-1.4-2.2-1.7-3.7c-0.4-1.6-0.3-3.3,0-4.9
					c0.4-1.6,1.2-3.1,2.3-4.4c1.1-1.2,2.6-2.3,4.5-3.2c1.8-0.9,4-1.4,6.6-1.8c4.4-0.5,8,0.2,10.7,2c2.8,1.9,4.3,4.7,4.7,8.5l0.1,0.9
					l-8.8,2.4l-2.2-1l-0.1-0.6c-0.2-1.5-0.6-2.7-1.1-3.4c-0.4-0.6-1.3-0.8-2.7-0.6c-0.9,0.1-2.2,0.4-2.6,1.1
					c-0.4,0.7-0.6,1.4-0.5,2.3c0.1,0.8,0.4,1.5,0.8,1.9c0.5,0.5,1.2,1,2,1.3c0.9,0.3,1.9,0.6,3,0.8c1.2,0.2,2.5,0.5,3.7,0.7
					c1.2,0.2,2.3,0.5,3.5,0.9c1.2,0.4,2.3,0.9,3.3,1.5c1,0.7,1.9,1.5,2.6,2.6c0.7,1.1,1.2,2.4,1.3,4c0.2,1.4,0.1,2.9-0.3,4.4
					c-0.4,1.5-1.2,2.9-2.3,4.2c-1.1,1.2-2.6,2.3-4.5,3.2C561.9,442.1,559.6,442.8,556.9,443.1z"/>
			</g>
			<g>
				<path class="st1" d="M586.9,439.6c-2,0.2-3.8,0.2-5.3-0.2c-1.6-0.4-3-1.2-4.2-2.4c-1.1-1.2-2-2.7-2.7-4.7
					c-0.7-1.9-1.2-4.3-1.5-7.1l-2.5-21.5l11.3-1.3l2.4,20.3c0.2,1.8,0.4,3.2,0.7,4.4c0.2,1,0.5,1.9,0.9,2.4c0.3,0.5,0.7,0.8,1.2,0.9
					c0.6,0.2,1.5,0.2,2.5,0.1c0.9-0.1,1.7-0.4,2.2-0.7c0.6-0.4,1-0.9,1.3-1.4c0.3-0.6,0.5-1.2,0.6-1.9c0.1-0.8,0.1-1.5,0.1-2.3
					l-2.7-22.8l11.3-1.3l4.3,36.8l-10,1.2l-0.8-3.1c-0.7,1-1.6,1.8-2.6,2.5C591.6,438.6,589.4,439.3,586.9,439.6z"/>
			</g>
			<g>
				<path class="st1" d="M674,428.8l-11.3,1.3l-2.7-22.9c-0.4-3-1-4.3-1.5-4.9c-0.8-0.9-2.5-0.9-3.8-0.8c-0.9,0.1-1.7,0.3-2.2,0.7
					c-0.5,0.4-0.9,0.8-1.2,1.3c-0.3,0.5-0.4,1.1-0.5,1.8c-0.1,0.7,0,1.5,0,2.2l2.8,23.7l-11.3,1.3l-4.3-36.8l9.9-1.2l0.8,2.6
					c2.1-3.1,5.4-5,9.8-5.5c2.5-0.3,4.5-0.2,6,0.4c1.6,0.6,2.9,1.6,3.8,2.9c0.9,1.3,1.5,2.9,1.9,4.8c0.4,1.8,0.7,3.8,1,6.1
					L674,428.8z"/>
			</g>
			<g>
				<path class="st2" d="M721.7,423.8c-2.6,0.3-4.9-0.2-6.7-1.5c-2.8-2-4.5-6-5.2-12.2l-1.7-14.5l-3.3,0.4l-0.9-8.1l3.3-0.4l-0.9-8
					l7.9-3l3.2-0.4l1.2,10.1l4.4-0.5l0.9,8.1l-4.4,0.5l1.7,14.1c0.2,1.4,0.4,2.5,0.6,3.4c0.2,0.7,0.4,1.3,0.7,1.6
					c0.2,0.3,0.5,0.4,0.8,0.5c0.4,0.1,1.1,0.1,1.8-0.1l1.1-0.2l1,8.6l-0.8,0.3C724.7,423.3,723.1,423.7,721.7,423.8z"/>
			</g>
			<g>
				<path class="st2" d="M741.3,421.5c-2,0.2-3.8,0.2-5.3-0.2c-1.6-0.4-3-1.2-4.2-2.4c-1.1-1.2-2-2.8-2.7-4.7
					c-0.7-1.9-1.2-4.3-1.5-7.1l-2.5-21.5l11.3-1.3l2.4,20.3c0.2,1.8,0.4,3.2,0.7,4.4c0.2,1,0.5,1.9,0.9,2.4c0.3,0.5,0.7,0.8,1.2,0.9
					c0.6,0.2,1.5,0.2,2.5,0.1c0.9-0.1,1.7-0.4,2.2-0.7c0.6-0.4,1-0.9,1.3-1.4c0.3-0.6,0.5-1.2,0.6-1.9c0.1-0.8,0.1-1.5,0.1-2.3
					l-2.7-22.8l11.3-1.3l4.3,36.8l-10,1.2l-0.8-3.1c-0.7,1-1.6,1.8-2.6,2.5C746,420.4,743.8,421.2,741.3,421.5z"/>
			</g>
		</g>
		<g>
			<g>
				<path class="st1" d="M425.1,472l-7.5,0.9l0.2-15.1l-4.9,0.6l-0.1,15l-7.5,0.9l0.2-15.1l-6.1,0.7l-0.9-7.4l7.1-0.8l0.1-8.2
					l-6.4,0.7l-0.9-7.4l7.4-0.9l0.3-14.7l7.4-0.9l-0.3,14.7l5-0.6l0.2-14.7l7.4-0.9l-0.2,14.7l6-0.7l0.9,7.4l-7.1,0.8l-0.1,8.2
					l6.3-0.7l0.9,7.4l-7.4,0.9L425.1,472z M413.1,450.9l4.9-0.6l0.1-8.2l-4.9,0.6L413.1,450.9z"/>
			</g>
		</g>
	</g>
</g>
</svg>
