<?xml version="1.0" encoding="utf-8"?>
<!-- Generator: Adobe Illustrator 19.2.0, SVG Export Plug-In . SVG Version: 6.00 Build 0)  -->
<svg version="1.1" id="Capa_1" xmlns="http://www.w3.org/2000/svg" xmlns:xlink="http://www.w3.org/1999/xlink" x="0px" y="0px"
	 viewBox="0 0 394 176.5" style="enable-background:new 0 0 394 176.5;" xml:space="preserve">
<style type="text/css">
	.st0{fill:#FFFFFF;}
	.st1{fill:#0061A8;}
</style>
<g>
	<g>
		<path class="st0" d="M373.6,128.6l-11.9,1.8l-0.3,3.1l12.5-1.9c0.8-0.1,1.4-0.9,1.3-1.7C375.2,129.1,374.4,128.5,373.6,128.6"/>
		<g>
			<path class="st0" d="M9.7,98.5L3.3,65.6l9.2-1.1l1.6,13.6c0.3,2.7,0.4,5.3,0.7,8l0.1,0c0.5-2.8,0.7-5.5,1.3-8.3l2.9-14.2l9.5-1.2
				l-10,34.9L9.7,98.5z"/>
			<path class="st0" d="M42.7,60.2c8.9-1.1,12.1,7.7,11.9,15.9c-0.3,8.2-4.1,17.9-13,19c-8.9,1.1-12.1-7.7-11.9-15.9
				C29.9,71,33.8,61.3,42.7,60.2z M41.8,86.7c3.3-0.4,3.7-7.3,3.8-9.4c0.1-2.1,0.2-8.9-3.2-8.5c-3.3,0.4-3.7,7.3-3.8,9.4
				C38.6,80.2,38.5,87.1,41.8,86.7z"/>
			<path class="st0" d="M61.5,92.1l0.8-25.5l-4.8,0.6l0.3-8.2l18.7-2.3l-0.3,8.2l-5.1,0.6l-0.8,25.5L61.5,92.1z"/>
			<path class="st0" d="M93,88.3L92.5,84l-5.9,0.7l-0.9,4.4l-9.1,1.1l8.9-34.7l10.8-1.3l5.8,32.9L93,88.3z M91.7,77L91,69.3
				c-0.2-2.1-0.3-4.2-0.4-6.3l-0.1,0c-0.3,2.1-0.6,4.3-1,6.5l-1.5,8L91.7,77z"/>
			<path class="st0" d="M118.1,85.2l1.1-33.8l8-1c7.7-0.9,13.5,0.9,13.2,9.8c-0.3,8.8-5.6,12.1-13.2,12.8l-0.4,11.1L118.1,85.2z
				 M128.4,57.5l-0.6,0.1l-0.3,7.8c2.4-0.2,4-1.7,4.1-4.2C131.6,59.1,130.6,57.3,128.4,57.5z"/>
			<path class="st0" d="M155.9,46.4c8.9-1.1,12.1,7.7,11.9,15.9c-0.3,8.2-4.1,17.9-13,19s-12.1-7.7-11.9-15.9
				C143.1,57.1,146.9,47.5,155.9,46.4z M155,72.8c3.3-0.4,3.7-7.3,3.8-9.4c0.1-2.1,0.2-8.9-3.2-8.5c-3.3,0.4-3.7,7.3-3.8,9.4
				C151.8,66.4,151.7,73.2,155,72.8z"/>
			<path class="st0" d="M185.1,77l-4.4-13.5l-0.1,0.1c0,1.7,0,3.3,0,5l-0.3,9l-8.8,1.1l1.1-33.8l8.5-1c7.6-0.9,13.1,0.7,12.8,9.6
				c-0.1,3.7-1.8,7.2-5.3,9.1l6.1,13.3L185.1,77z M181.4,59.4c2.3-0.3,3.7-2.5,3.7-4.7c0.1-3-1.6-4-4-3.6l-0.3,8.3L181.4,59.4z"/>
			<path class="st0" d="M211.7,40.1l16.4-2l-0.3,8l-7.6,0.9l-0.2,4.7l6.8-0.8l-0.3,8l-6.8,0.8l-0.2,5.2l7.6-0.9l-0.3,8l-16.4,2
				L211.7,40.1z"/>
			<path class="st0" d="M232.1,71.3l1.1-33.8l8.8-1.1l-0.8,25.8l6.6-0.8l-0.3,8L232.1,71.3z"/>
			<path class="st0" d="M287.4,64.5l-0.1-21.1l-0.1,0c-0.5,2.5-0.9,5-1.4,7.5l-3,14.1l-7.2,0.9l-2.4-20.9l-0.1,0
				c-0.1,2.5-0.2,5-0.4,7.5l-1.2,13.8l-9.5,1.2l4.9-34.2l11-1.3l1.9,17.7l0.1,0c0.3-2.1,0.6-4.2,1.1-6.4l2.5-12l10.8-1.3l2,33.4
				L287.4,64.5z"/>
			<path class="st0" d="M300.9,29.2l16.4-2l-0.3,8l-7.6,0.9l-0.2,4.7l6.8-0.8l-0.3,8l-6.8,0.8l-0.2,5.2l7.6-0.9l-0.3,8l-16.4,2
				L300.9,29.2z"/>
			<path class="st0" d="M320.1,50.6c0.8,1.1,2.1,1.7,3.5,1.5c2.5-0.3,2.6-3,2.7-5L327,26l8.8-1.1l-0.8,22.9
				c-0.1,4.5-0.9,11.5-9.5,12.6c-2,0.2-3.9,0.1-5.8-0.4L320.1,50.6z"/>
			<path class="st0" d="M352.5,22.3c8.9-1.1,12.1,7.7,11.9,15.9c-0.3,8.2-4.1,17.9-13,19s-12.1-7.7-11.9-15.9
				C339.8,33.1,343.6,23.4,352.5,22.3z M351.6,48.7c3.3-0.4,3.7-7.3,3.8-9.4c0.1-2.1,0.2-8.9-3.2-8.5c-3.3,0.4-3.7,7.3-3.8,9.4
				C348.4,42.3,348.3,49.1,351.6,48.7z"/>
			<path class="st0" d="M381.7,53l-4.4-13.5l-0.1,0.1c0,1.7,0,3.3,0,5l-0.3,9l-8.8,1.1l1.1-33.8l8.5-1c7.6-0.9,13.1,0.7,12.8,9.6
				c-0.1,3.7-1.8,7.2-5.3,9.1l6.1,13.3L381.7,53z M378,35.3c2.3-0.3,3.7-2.5,3.7-4.7c0.1-3-1.6-4-4-3.6l-0.3,8.3L378,35.3z"/>
		</g>
	</g>
	<g>
		<path class="st0" d="M39,117.2c-1.2-1.1-2.2-1.7-4-1.5c-4.6,0.6-5.9,5.9-6,9.7c-0.1,3.9,0.8,8.8,5.2,8.3c2-0.2,3.3-1.2,4.7-2.7
			l-0.8,9.5c-1.8,1-3.4,1.6-5.4,1.9c-7.2,0.9-13.2-4.1-12.8-15.6c0.5-15.1,10.6-18.9,14.9-19.4c1.6-0.2,3.1-0.2,4.5,0.3L39,117.2z"
			/>
		<path class="st0" d="M57.6,138.8l-0.5-4.3l-5.9,0.7l-0.9,4.4l-9.1,1.1l8.9-34.7l10.8-1.3l5.8,32.9L57.6,138.8z M56.3,127.4
			l-0.7-7.7c-0.2-2.1-0.3-4.2-0.4-6.3l-0.1,0c-0.3,2.1-0.6,4.3-1,6.5l-1.5,8L56.3,127.4z"/>
		<path class="st0" d="M70.7,103.5l8.4-1l6.4,19.5l0.1-0.1c-0.2-3.9-0.7-7.6-0.6-11.5l0.3-8.6l8.5-1l-1.1,33.8l-8.5,1l-5.9-18.7
			l-0.1,0.1c0.1,3.2,0.4,6.2,0.3,9.4l-0.3,9.9l-8.5,1L70.7,103.5z"/>
		<path class="st0" d="M101,133.4l0.8-25.5l-4.8,0.6l0.3-8.2L116,98l-0.3,8.2l-5.1,0.6l-0.8,25.5L101,133.4z"/>
		<path class="st0" d="M132.5,129.6l-0.5-4.3l-5.9,0.7l-0.9,4.4l-9.1,1.1l8.9-34.7l10.8-1.3l5.8,32.9L132.5,129.6z M131.2,118.3
			l-0.7-7.7c-0.2-2.1-0.3-4.2-0.4-6.3l-0.1,0c-0.3,2.1-0.6,4.3-1,6.5l-1.5,8L131.2,118.3z"/>
		<path class="st0" d="M145.6,94.3l8.4-1l6.4,19.5l0.1-0.1c-0.2-3.9-0.7-7.6-0.6-11.5l0.3-8.6l8.5-1l-1.1,33.8l-8.5,1l-5.9-18.7
			l-0.1,0.1c0.1,3.2,0.4,6.2,0.3,9.4l-0.3,9.9l-8.5,1L145.6,94.3z"/>
		<path class="st0" d="M175.9,124.3l0.8-25.5l-4.8,0.6l0.3-8.2l18.7-2.3l-0.3,8.2l-5.1,0.6l-0.8,25.5L175.9,124.3z"/>
		<path class="st0" d="M194.5,88.4l16.4-2l-0.3,8l-7.6,0.9l-0.2,4.7l6.8-0.8l-0.3,8l-6.8,0.8l-0.2,5.2l7.6-0.9l-0.3,8l-16.4,2
			L194.5,88.4z"/>
		<path class="st0" d="M251,81.4l-0.7,22.1c-0.1,4.1-1.3,12.4-11.5,13.6c-10.2,1.2-10.8-6.8-10.7-10.9l0.7-22.1l8.8-1.1l-0.7,21.2
			c0,0.9-0.1,2.1,0.1,2.9c0.2,0.9,0.8,1.6,2,1.4c1.3-0.2,1.8-0.9,2.1-1.9c0.3-1,0.3-2.1,0.3-3l0.7-21.3L251,81.4z"/>
		<path class="st0" d="M268.5,112.9L264,99.5l-0.1,0.1c0,1.7,0,3.3,0,5l-0.3,9l-8.8,1.1l1.1-33.8l8.5-1c7.6-0.9,13.1,0.7,12.8,9.6
			c-0.1,3.7-1.8,7.2-5.3,9.1l6.1,13.3L268.5,112.9z M264.8,95.3c2.3-0.3,3.7-2.5,3.7-4.7c0.1-3-1.6-4-4-3.6l-0.3,8.3L264.8,95.3z"/>
		<path class="st0" d="M282,77.6l10.4-1.3c5.2-0.6,11.2,1,10.9,8.3c-0.1,3.8-2.6,7.1-6.3,7.5l0,0.1c4.3-0.2,6.5,2.3,6.4,6.9
			c-0.1,4.2-2.7,9.9-10.6,10.9l-11.8,1.4L282,77.6z M290.7,102.9c1.9-0.2,3.7-1.4,3.8-3.7s-1.6-3-3.6-2.8l-0.7,0.1L290,103
			L290.7,102.9z M290.9,89.6c1.8-0.2,3.5-1.2,3.6-3.4c0.1-2-1.2-2.7-3.1-2.5l-0.9,0.1l-0.2,5.8L290.9,89.6z"/>
		<path class="st0" d="M321.4,106.5l-0.5-4.3l-5.9,0.7l-0.9,4.4l-9.1,1.1l8.9-34.7l10.8-1.3l5.8,32.9L321.4,106.5z M320.1,95.2
			l-0.7-7.7c-0.2-2.1-0.3-4.2-0.4-6.3l-0.1,0c-0.3,2.1-0.6,4.3-1,6.5l-1.5,8L320.1,95.2z"/>
		<path class="st0" d="M334.5,71.2l8.4-1l6.4,19.5l0.1-0.1c-0.2-3.9-0.7-7.6-0.6-11.5l0.3-8.6l8.5-1l-1.1,33.8l-8.5,1L342,84.5
			l-0.1,0.1c0.1,3.2,0.4,6.2,0.3,9.4l-0.3,9.9l-8.5,1L334.5,71.2z"/>
		<path class="st0" d="M374.1,65.8c8.9-1.1,12.1,7.7,11.9,15.9c-0.3,8.2-4.1,17.9-13,19c-8.9,1.1-12.1-7.7-11.9-15.9
			C361.4,76.5,365.2,66.9,374.1,65.8z M373.3,92.2c3.3-0.4,3.7-7.3,3.7-9.4c0.1-2.1,0.2-8.9-3.2-8.5s-3.7,7.3-3.8,9.4
			C370,85.8,369.9,92.6,373.3,92.2z"/>
	</g>
	<g>
		<path class="st0" d="M26.7,172.6c0.1,0.7,0.7,1.3,1.4,1.3c0.1,0,0.2,0,0.3,0l100.7-12.3l0.3-3.1L28,170.9
			C27.2,171,26.6,171.8,26.7,172.6"/>
		<path class="st0" d="M337.7,3.7c-0.1-0.8-0.9-1.4-1.7-1.3L33.5,39.5c-0.8,0.1-1.4,0.9-1.3,1.7c0.1,0.7,0.7,1.3,1.4,1.4
			c0.1,0,0.2,0,0.3,0L336.4,5.4C337.2,5.3,337.8,4.5,337.7,3.7z"/>
		<path class="st0" d="M297.1,125l5.4-0.6l1.1,9.2c0.5-0.7,1-1.3,1.5-1.7c0.6-0.4,1.2-0.6,1.8-0.7c1.7-0.2,3.1,0.5,4.4,2
			c1.2,1.5,2,3.4,2.2,5.6c0.3,2.5-0.1,4.6-1.1,6.5c-1,1.9-2.4,2.9-4.1,3.1c-0.6,0.1-1.2,0-1.8-0.2c-0.6-0.2-1.2-0.6-1.8-1.1
			l-1.3,1.6l-3.5,0.4L297.1,125z M304.7,143.1c0.3,0.3,0.5,0.5,0.8,0.6c0.3,0.1,0.5,0.2,0.8,0.1c0.6-0.1,1.1-0.5,1.4-1.3
			c0.3-0.8,0.4-1.8,0.2-3.1c-0.1-1.2-0.4-2.1-0.8-2.7c-0.4-0.6-0.9-0.9-1.5-0.8c-0.6,0.1-1,0.4-1.2,0.9c-0.2,0.5-0.3,1.3-0.2,2.4
			L304.7,143.1z"/>
		<path class="st0" d="M316.2,122.3c0.8-0.1,1.5,0.1,2.1,0.6c0.7,0.5,1.1,1.1,1.2,2c0.1,0.8-0.1,1.5-0.6,2.2c-0.5,0.6-1.2,1-2,1.1
			c-0.8,0.1-1.6-0.1-2.2-0.6c-0.6-0.5-1-1.2-1.1-1.9c-0.1-0.8,0.1-1.5,0.6-2.1C314.7,122.8,315.4,122.4,316.2,122.3 M314.3,130.6
			l5.5-0.7l1.9,16.3l-5.5,0.7L314.3,130.6z"/>
		<path class="st0" d="M327.5,130.9c0.4-0.8,0.9-1.4,1.5-1.9c0.6-0.4,1.2-0.7,2-0.8c1.8-0.2,3.2,0.4,4.5,2c1.2,1.5,2,3.4,2.3,5.6
			c0.2,1.6,0.1,3.2-0.3,4.5c-0.4,1.4-1,2.5-1.8,3.4c-0.8,0.9-1.8,1.4-3,1.5c-0.6,0.1-1.1,0-1.7-0.2c-0.6-0.2-1.1-0.4-1.7-0.8l1,8.6
			l-5.5,0.6l-2.8-23.9l4.7-0.6L327.5,130.9z M328.9,140.2c0.2,0.3,0.5,0.5,0.8,0.6c0.3,0.1,0.6,0.2,0.9,0.1c0.7-0.1,1.1-0.5,1.4-1.2
			c0.3-0.8,0.4-1.7,0.2-3c-0.1-1.2-0.4-2.2-0.9-2.8c-0.4-0.6-0.9-0.9-1.5-0.8c-0.6,0.1-1,0.4-1.2,0.9c-0.2,0.5-0.3,1.3-0.2,2.3
			L328.9,140.2z"/>
		<path class="st0" d="M344.6,139.5c1.3,0.4,2.2,1.1,2.7,2.1c0.5,1,0.7,2.1,0.3,3.2c-0.3,1.1-1,2-2.1,2.5c-1,0.6-2.1,0.7-3.2,0.4
			c-1.1-0.3-2-1-2.5-2c-0.6-1-0.7-2.1-0.3-3.2c0.4-1.1,1.1-2,2.1-2.5C342.6,139.4,343.6,139.2,344.6,139.5"/>
		<polygon class="st0" points="355.5,118 348.5,137.9 342.4,136.1 347.3,115.6 		"/>
		<path class="st1" d="M171,168.9l-4.9,0.6l-0.8-6.5c-0.3,0.4-0.7,0.7-1.2,1c-0.8,0.5-1.8,0.8-2.9,0.9c-1,0.1-1.8,0-2.5-0.4
			c-0.7-0.4-1.2-0.9-1.7-1.5c-0.4-0.6-0.7-1.4-1-2.3c-0.2-0.9-0.4-1.8-0.5-2.8l-0.2-1.8c-0.1-1.2-0.2-2.2-0.2-3.2
			c0-1,0.1-1.8,0.4-2.6c0.3-0.8,0.8-1.4,1.4-1.9c0.7-0.5,1.6-0.8,2.7-0.9c1.1-0.1,2.2,0,3,0.3c0.5,0.2,0.9,0.5,1.3,0.8l0-1l4.4-0.5
			L171,168.9z M161.8,151.6c-0.5,0.1-0.8,0.2-1,0.3c-0.2,0.2-0.4,0.4-0.5,0.6c-0.1,0.3-0.2,0.7-0.2,1.2c0,0.5,0.1,1.1,0.1,1.8
			l0.2,1.8c0.1,0.5,0.1,1,0.3,1.5c0.1,0.4,0.2,0.8,0.4,1.1c0.2,0.3,0.4,0.5,0.7,0.6c0.3,0.1,0.6,0.2,1,0.1c0.5-0.1,0.8-0.2,1-0.3
			c0.2-0.2,0.4-0.4,0.5-0.6c0.1-0.2,0.2-0.5,0.2-0.8c0-0.3,0-0.6,0-0.9l-0.5-3.9c0-0.3-0.1-0.7-0.2-1c-0.1-0.3-0.2-0.6-0.4-0.9
			c-0.2-0.2-0.4-0.4-0.7-0.5C162.7,151.6,162.3,151.5,161.8,151.6"/>
		<path class="st1" d="M176.9,163.2c-0.9,0.1-1.7,0.1-2.3-0.1c-0.7-0.2-1.3-0.5-1.8-1.1c-0.5-0.5-0.9-1.2-1.2-2.1
			c-0.3-0.8-0.5-1.9-0.7-3.2l-1.1-9.5l5-0.6l1.1,9c0.1,0.8,0.2,1.4,0.3,1.9c0.1,0.5,0.2,0.8,0.4,1.1c0.1,0.2,0.3,0.3,0.5,0.4
			c0.3,0.1,0.6,0.1,1.1,0c0.4,0,0.7-0.2,1-0.3c0.2-0.2,0.4-0.4,0.6-0.6c0.1-0.2,0.2-0.5,0.2-0.8c0-0.3,0-0.7,0-1l-1.2-10.1l5-0.6
			l1.9,16.3l-4.4,0.5l-0.4-1.4c-0.3,0.4-0.7,0.8-1.2,1.1C179,162.7,178,163,176.9,163.2"/>
		<path class="st1" d="M193.7,161.1c-1.3,0.2-2.4,0.1-3.3-0.2c-0.9-0.3-1.7-0.8-2.3-1.4c-0.6-0.6-1.1-1.3-1.4-2.2
			c-0.3-0.8-0.5-1.6-0.6-2.5l-0.4-3.1c-0.1-0.8-0.1-1.7,0-2.5c0.1-0.9,0.4-1.6,0.8-2.4c0.4-0.7,1.1-1.4,1.9-1.9
			c0.8-0.5,1.9-0.8,3.2-1c1.2-0.1,2.2-0.1,3.1,0.2c0.9,0.3,1.6,0.7,2.2,1.3c0.6,0.6,1.1,1.3,1.4,2.2c0.3,0.8,0.5,1.7,0.6,2.7
			l0.2,2.1l0,0.6l-8.2,1l0,0c0.2,1.4,0.4,2.4,0.7,3c0.2,0.3,0.5,0.6,1.4,0.5c0.7-0.1,0.9-0.4,1-0.6c0.2-0.4,0.2-1.1,0.2-2l0-0.3
			l1-0.1l4-0.4l0,0.6c0,0.7-0.1,1.3-0.3,2c-0.2,0.7-0.5,1.4-1,2c-0.5,0.6-1.1,1.1-1.8,1.6C195.6,160.7,194.7,161,193.7,161.1
			 M190.7,151l3.2-0.4c-0.1-0.6-0.1-1-0.2-1.5c-0.1-0.4-0.2-0.8-0.3-1c-0.1-0.2-0.3-0.4-0.5-0.5c-0.2-0.1-0.5-0.1-0.8-0.1
			c-1,0.1-1.2,0.5-1.3,0.8C190.6,148.9,190.6,149.8,190.7,151"/>
		<path class="st0" d="M238,155.9c-1.3,0.2-2.4,0.1-3.3-0.2c-0.9-0.3-1.7-0.8-2.3-1.4c-0.6-0.6-1-1.3-1.4-2.2
			c-0.3-0.8-0.5-1.6-0.6-2.5l-0.4-3.1c-0.1-0.8-0.1-1.7,0-2.5c0.1-0.9,0.4-1.6,0.8-2.4c0.4-0.7,1.1-1.4,1.9-1.9
			c0.8-0.5,1.9-0.8,3.2-1c1.2-0.1,2.2-0.1,3.1,0.2c0.9,0.3,1.6,0.7,2.2,1.3c0.6,0.6,1.1,1.3,1.4,2.2c0.3,0.8,0.5,1.7,0.6,2.7
			l0.2,2.1l0,0.6l-8.2,1l0,0c0.2,1.4,0.4,2.4,0.7,3c0.2,0.3,0.5,0.6,1.4,0.5c0.7-0.1,0.9-0.4,1-0.6c0.2-0.4,0.2-1.1,0.2-2l0-0.3
			l1-0.1l4-0.4l0,0.6c0,0.7-0.1,1.3-0.3,2c-0.2,0.7-0.5,1.4-1,2c-0.5,0.6-1.1,1.1-1.8,1.6C240,155.5,239.1,155.8,238,155.9
			 M235.1,145.8l3.2-0.4c-0.1-0.6-0.1-1-0.2-1.5c-0.1-0.4-0.2-0.8-0.3-1c-0.1-0.2-0.3-0.4-0.5-0.5c-0.2-0.1-0.5-0.1-0.8-0.1
			c-1,0.1-1.2,0.5-1.3,0.8C235,143.7,234.9,144.6,235.1,145.8"/>
		<path class="st0" d="M267.8,152.4c-1.3,0.2-2.4,0.1-3.3-0.2c-0.9-0.3-1.7-0.8-2.3-1.4c-0.6-0.6-1-1.3-1.4-2.2
			c-0.3-0.8-0.5-1.6-0.6-2.5l-0.4-3.1c-0.1-0.8-0.1-1.7,0-2.5c0.1-0.9,0.4-1.6,0.8-2.4c0.4-0.7,1.1-1.4,1.9-1.9
			c0.8-0.5,1.9-0.8,3.2-1c1.2-0.1,2.2-0.1,3.1,0.2c0.9,0.3,1.6,0.7,2.2,1.3c0.6,0.6,1.1,1.3,1.4,2.2c0.3,0.8,0.5,1.7,0.6,2.7
			l0.2,2.1l0,0.6l-8.2,1l0,0c0.2,1.4,0.4,2.4,0.7,3c0.2,0.3,0.5,0.6,1.4,0.5c0.7-0.1,0.9-0.4,1-0.6c0.2-0.4,0.2-1.1,0.2-2l0-0.3
			l1-0.1l4-0.4l0,0.6c0,0.7-0.1,1.3-0.3,2c-0.2,0.7-0.5,1.4-1,2c-0.5,0.6-1.1,1.1-1.8,1.6C269.8,152,268.9,152.3,267.8,152.4
			 M264.9,142.3l3.2-0.4c-0.1-0.6-0.1-1-0.2-1.5c-0.1-0.4-0.2-0.8-0.3-1c-0.1-0.2-0.3-0.4-0.5-0.5c-0.2-0.1-0.5-0.1-0.8-0.1
			c-1,0.1-1.2,0.5-1.3,0.8C264.8,140.2,264.8,141.1,264.9,142.3"/>
		<path class="st0" d="M208,159.5c-1.1,0.1-2,0.1-2.9-0.1c-0.9-0.2-1.6-0.5-2.3-1c-0.7-0.5-1.2-1.1-1.5-1.9
			c-0.4-0.7-0.5-1.6-0.6-2.6l0-0.4l4.4-0.5l0.7,0.6l0,0.2c0,0.7,0.2,1.3,0.4,1.8c0.1,0.1,0.3,0.5,1.3,0.4c0.7-0.1,1.2-0.3,1.4-0.5
			c0.2-0.3,0.3-0.7,0.2-1.1c0-0.3-0.1-0.6-0.3-0.8c-0.2-0.2-0.5-0.4-0.8-0.6c-0.3-0.2-0.7-0.3-1.2-0.4c-0.5-0.1-0.9-0.2-1.4-0.4
			c-0.5-0.1-1.1-0.2-1.6-0.4c-0.6-0.1-1.1-0.4-1.6-0.6c-0.5-0.3-0.9-0.6-1.3-1c-0.4-0.4-0.6-1-0.7-1.6c-0.2-0.7-0.2-1.4,0-2.1
			c0.2-0.7,0.5-1.4,1-1.9c0.5-0.5,1.2-1,2-1.4c0.8-0.4,1.8-0.6,2.9-0.8c1.9-0.2,3.5,0.1,4.7,0.9c1.2,0.8,1.9,2.1,2.1,3.7l0,0.4
			l-3.9,1.1l-1-0.5l0-0.2c-0.1-0.7-0.3-1.2-0.5-1.5c-0.2-0.2-0.6-0.3-1.2-0.3c-0.4,0-1,0.2-1.1,0.5c-0.2,0.3-0.2,0.6-0.2,1
			c0,0.4,0.2,0.6,0.4,0.9c0.2,0.2,0.5,0.4,0.9,0.6c0.4,0.2,0.8,0.3,1.3,0.4c0.5,0.1,1.1,0.2,1.6,0.3c0.5,0.1,1,0.2,1.5,0.4
			c0.5,0.2,1,0.4,1.5,0.7c0.4,0.3,0.8,0.7,1.1,1.1c0.3,0.5,0.5,1.1,0.6,1.8c0.1,0.6,0,1.3-0.1,1.9c-0.2,0.7-0.5,1.3-1,1.9
			c-0.5,0.5-1.2,1-2,1.4C210.2,159.1,209.2,159.3,208,159.5"/>
		<path class="st0" d="M221.3,157.9c-0.9,0.1-1.7,0.1-2.3-0.1c-0.7-0.2-1.3-0.5-1.8-1.1c-0.5-0.5-0.9-1.2-1.2-2.1
			c-0.3-0.8-0.5-1.9-0.7-3.2l-1.1-9.5l5-0.6l1.1,9c0.1,0.8,0.2,1.4,0.3,1.9c0.1,0.5,0.2,0.8,0.4,1.1c0.1,0.2,0.3,0.3,0.5,0.4
			c0.3,0.1,0.6,0.1,1.1,0c0.4,0,0.7-0.2,1-0.3c0.2-0.2,0.4-0.4,0.6-0.6c0.1-0.2,0.2-0.5,0.2-0.8c0-0.3,0-0.7,0-1l-1.2-10.1l5-0.6
			l1.9,16.3l-4.4,0.5l-0.4-1.4c-0.3,0.4-0.7,0.8-1.2,1.1C223.3,157.5,222.4,157.8,221.3,157.9"/>
		<path class="st0" d="M259.8,153.1l-5,0.6l-1.2-10.1c-0.2-1.3-0.4-1.9-0.7-2.2c-0.3-0.4-1.1-0.4-1.7-0.3c-0.4,0-0.7,0.2-1,0.3
			c-0.2,0.2-0.4,0.3-0.5,0.6c-0.1,0.2-0.2,0.5-0.2,0.8c0,0.3,0,0.7,0,1l1.2,10.5l-5,0.6l-1.9-16.3l4.4-0.5l0.4,1.2
			c0.9-1.4,2.4-2.2,4.3-2.4c1.1-0.1,2-0.1,2.7,0.2c0.7,0.3,1.3,0.7,1.7,1.3c0.4,0.6,0.7,1.3,0.8,2.1c0.2,0.8,0.3,1.7,0.4,2.7
			L259.8,153.1z"/>
		<path class="st1" d="M280.9,150.9c-1.2,0.1-2.2-0.1-3-0.6c-1.2-0.9-2-2.6-2.3-5.4l-0.8-6.4l-1.4,0.2l-0.4-3.6l1.4-0.2l-0.4-3.5
			l3.5-1.3l1.4-0.2l0.5,4.5l1.9-0.2l0.4,3.6l-1.9,0.2l0.7,6.2c0.1,0.6,0.2,1.1,0.3,1.5c0.1,0.3,0.2,0.6,0.3,0.7
			c0.1,0.1,0.2,0.2,0.4,0.2c0.2,0,0.5,0,0.8,0l0.5-0.1l0.4,3.8l-0.3,0.1C282.2,150.7,281.5,150.9,280.9,150.9"/>
		<path class="st1" d="M289.5,149.9c-0.9,0.1-1.7,0.1-2.3-0.1c-0.7-0.2-1.3-0.5-1.8-1.1c-0.5-0.5-0.9-1.2-1.2-2.1
			c-0.3-0.8-0.5-1.9-0.7-3.2l-1.1-9.5l5-0.6l1.1,9c0.1,0.8,0.2,1.4,0.3,1.9c0.1,0.5,0.2,0.8,0.4,1.1c0.1,0.2,0.3,0.3,0.5,0.4
			c0.3,0.1,0.6,0.1,1.1,0c0.4,0,0.7-0.2,1-0.3c0.2-0.2,0.4-0.4,0.6-0.6c0.1-0.2,0.2-0.5,0.2-0.8c0-0.3,0-0.7,0-1l-1.2-10.1l5-0.6
			l1.9,16.3l-4.4,0.5l-0.4-1.4c-0.3,0.4-0.7,0.8-1.2,1.1C291.6,149.4,290.7,149.8,289.5,149.9"/>
		<path class="st0" d="M149.7,172.3l-3.3,0.4l0.1-6.7l-2.2,0.3l-0.1,6.7l-3.3,0.4l0.1-6.7l-2.7,0.3l-0.4-3.3l3.2-0.4l0-3.6l-2.8,0.3
			l-0.4-3.3l3.3-0.4l0.1-6.5l3.3-0.4l-0.1,6.5l2.2-0.3l0.1-6.5l3.3-0.4l-0.1,6.5l2.7-0.3l0.4,3.3l-3.1,0.4l0,3.6l2.8-0.3l0.4,3.3
			l-3.3,0.4L149.7,172.3z M144.4,162.9l2.2-0.3l0-3.6l-2.2,0.3L144.4,162.9z"/>
	</g>
</g>
</svg>
