<?xml version="1.0" encoding="utf-8"?>
<!-- Generator: Adobe Illustrator 19.2.0, SVG Export Plug-In . SVG Version: 6.00 Build 0)  -->
<svg version="1.1" id="Isolation_Mode" xmlns="http://www.w3.org/2000/svg" xmlns:xlink="http://www.w3.org/1999/xlink" x="0px"
	 y="0px" viewBox="0 0 55.7 83.6" style="enable-background:new 0 0 55.7 83.6;" xml:space="preserve">
<style type="text/css">
	.st0{fill:#CF4245;}
	.st1{fill:#F4F4F4;}
	.st2{fill:#FFFFFF;}
</style>
<g>
	<g>
		<rect x="0.1" y="78.1" class="st0" width="55.6" height="5.5"/>
		<g>
			<rect x="0.1" class="st0" width="55.6" height="61"/>
			<g>
				<path class="st1" d="M9.4,21.1H6.7v13.3c0.6,0.2,2,0.4,3.3,0.4c2.4,0,4.7-1.2,4.7-7.2C14.7,22.9,13.4,21.1,9.4,21.1 M9.7,39.1
					c-3.4,0-6-0.6-8.1-1.2V17h7.9c6.5,0,10.6,2.6,10.6,10.7C20.1,34.7,17.1,39.1,9.7,39.1"/>
				<polygon class="st1" points="31.6,21.3 31.6,38.8 26.3,38.8 26.3,21.3 21.1,21.3 21.1,17 36.8,17 36.8,21.3 				"/>
				<path class="st1" d="M46,21.3h-1.9v6.4H46c2.1,0,3.2-1.6,3.2-3.4S48.1,21.3,46,21.3 M44.1,31.6v7.2H39V17h7c4.6,0,8.6,2.2,8.6,7
					c0,4.1-3.1,7.6-8.6,7.6H44.1z"/>
			</g>
			<g>
				<path class="st2" d="M7,54l-0.1-4.7l0,0c-0.1,0.6-0.2,1-0.3,1.3l-0.8,3.3H4.2l-0.8-3.3c-0.1-0.3-0.2-0.7-0.3-1.3l0,0L3,54H2
					l0.2-5.5h1.9c0,0,0.6,2.8,0.9,4.6l0,0c0.4-1.8,1.1-4.6,1.1-4.6h1.8L8.1,54H7z"/>
				<path class="st2" d="M10.8,50.7c-0.5,0-0.8,0.5-0.8,1h1.5C11.5,51.1,11.4,50.7,10.8,50.7 M10.1,52.3c0,0.6,0.4,1,1,1
					c0.4,0,0.8-0.2,1.2-0.3l0.2,0.8c-0.3,0.2-0.9,0.4-1.5,0.4c-1.2,0-2-0.8-2-2.1c0-1.2,0.6-2.1,1.9-2.1c1.2,0,1.7,0.9,1.7,1.9v0.5
					h-2.5V52.3z"/>
				<path class="st2" d="M14.9,54.1c-0.7,0-1.2-0.3-1.2-1.3v-2h-0.6V50h0.6v-0.7l1.1-0.3v1h1.1v0.8h-1.2v2c0,0.3,0.1,0.5,0.4,0.5
					c0.2,0,0.5-0.1,0.6-0.1l0.2,0.8C15.7,54,15.3,54.1,14.9,54.1"/>
				<path class="st2" d="M18.9,50.9c-0.1,0-0.3-0.1-0.5-0.1c-0.3,0-0.5,0.1-0.7,0.3V54h-1.1v-4h0.7l0.1,0.5l0,0
					c0.1-0.3,0.5-0.6,1-0.6c0.2,0,0.4,0,0.5,0.1V50.9z"/>
				<path class="st2" d="M21.9,52c0-1-0.3-1.3-0.8-1.3S20.3,51,20.3,52c0,0.9,0.3,1.3,0.8,1.3S21.9,52.9,21.9,52 M23,52
					c0,1.4-0.7,2.1-1.9,2.1s-1.9-0.7-1.9-2.1c0-1.2,0.7-2.1,1.9-2.1S23,50.8,23,52"/>
				<path class="st2" d="M24.9,52.9c0.2,0.2,0.4,0.4,0.7,0.4c0.5,0,0.8-0.3,0.8-1.3s-0.3-1.3-0.8-1.3c-0.3,0-0.6,0.1-0.7,0.3V52.9z
					 M24.9,54.4v1.2h-1.1V50h0.9l0.1,0.4c0.2-0.3,0.6-0.5,1.1-0.5c0.9,0,1.6,0.7,1.6,2.1c0,1.4-0.8,2.1-1.8,2.1
					c-0.5,0-0.7-0.2-1-0.5C24.7,53.6,24.9,54.1,24.9,54.4"/>
				<path class="st2" d="M30.8,52c0-1-0.3-1.3-0.8-1.3S29.2,51,29.2,52c0,0.9,0.3,1.3,0.8,1.3S30.8,52.9,30.8,52 M31.9,52
					c0,1.4-0.7,2.1-1.9,2.1s-1.9-0.7-1.9-2.1c0-1.2,0.7-2.1,1.9-2.1S31.9,50.8,31.9,52"/>
				<path class="st2" d="M32.7,52.9v-4.6h1.1v4.5c0,0.3,0.2,0.4,0.6,0.4V54c0,0-0.3,0.1-0.6,0.1C33,54.1,32.7,53.7,32.7,52.9"/>
				<path class="st2" d="M35.4,48.3h1.1v1h-1.1V48.3z M35.5,54v-3.3L35,50.6V50h1.5v4H35.5z"/>
				<path class="st2" d="M39,54.1c-0.7,0-1.2-0.3-1.2-1.3v-2h-0.6V50h0.6v-0.7l1.1-0.3v1H40v0.8h-1.1v2c0,0.3,0.1,0.5,0.4,0.5
					c0.2,0,0.5-0.1,0.6-0.1l0.2,0.8C39.8,54,39.4,54.1,39,54.1"/>
				<path class="st2" d="M42.8,52.2h-0.7c-0.4,0-0.6,0.2-0.6,0.5c0,0.4,0.2,0.6,0.6,0.6c0.3,0,0.5-0.1,0.7-0.3V52.2z M43.1,54
					L43,53.5c-0.2,0.3-0.6,0.6-1.2,0.6c-0.8,0-1.3-0.5-1.3-1.3c0-0.7,0.6-1.2,1.5-1.2h0.8v-0.2c0-0.5-0.3-0.7-0.7-0.7
					c-0.5,0-0.9,0.1-1.2,0.3l-0.3-0.8c0.4-0.2,1-0.3,1.6-0.3c1.1,0,1.6,0.5,1.6,1.6V54H43.1z"/>
				<path class="st2" d="M47.3,54v-2.4c0-0.6-0.2-0.9-0.7-0.9c-0.3,0-0.5,0.1-0.7,0.2v3h-1.1v-4h0.7l0.2,0.5
					c0.2-0.3,0.7-0.5,1.3-0.5c1,0,1.4,0.6,1.4,1.6V54H47.3z"/>
				<path class="st2" d="M51.8,52c0-1-0.3-1.3-0.8-1.3S50.2,51,50.2,52c0,0.9,0.3,1.3,0.8,1.3S51.8,52.9,51.8,52 M52.9,52
					c0,1.4-0.7,2.1-1.9,2.1s-1.9-0.7-1.9-2.1c0-1.2,0.7-2.1,1.9-2.1S52.9,50.8,52.9,52"/>
			</g>
			<g>
				<path class="st2" d="M2.7,44.8H2.4v1.7c0.1,0,0.3,0.1,0.4,0.1c0.3,0,0.6-0.2,0.6-0.9C3.4,45,3.2,44.8,2.7,44.8 M2.8,47
					c-0.4,0-0.7-0.1-0.9-0.1v-2.4h0.8c0.7,0,1.2,0.3,1.2,1.2C3.9,46.5,3.5,47,2.8,47"/>
				<path class="st2" d="M4.4,44.4h0.5v0.4H4.4V44.4z M4.5,46.9v-1.5H4.3v-0.3H5v1.8H4.5z"/>
				<path class="st2" d="M6.4,45.5c-0.1,0-0.1,0-0.2,0c-0.1,0-0.2,0.1-0.3,0.1v1.3H5.4v-1.8h0.3l0.1,0.2l0,0C5.9,45.2,6,45,6.2,45
					c0.1,0,0.2,0,0.2,0V45.5z"/>
				<path class="st2" d="M7.4,45.4c-0.2,0-0.3,0.2-0.3,0.4h0.7C7.7,45.6,7.6,45.4,7.4,45.4 M7,46.2c0,0.3,0.2,0.5,0.5,0.5
					c0.2,0,0.4-0.1,0.5-0.2l0.1,0.3C7.9,46.9,7.7,47,7.4,47c-0.6,0-0.9-0.3-0.9-1c0-0.6,0.3-0.9,0.9-0.9c0.6,0,0.8,0.4,0.8,0.9v0.2
					H7z"/>
				<path class="st2" d="M10,46.8C9.9,46.9,9.6,47,9.4,47c-0.5,0-0.9-0.3-0.9-0.9c0-0.6,0.3-0.9,0.9-0.9c0.2,0,0.4,0,0.6,0.2
					l-0.1,0.3c-0.1-0.1-0.3-0.1-0.5-0.1c-0.3,0-0.4,0.2-0.4,0.6c0,0.4,0.2,0.6,0.4,0.6s0.4-0.1,0.5-0.1L10,46.8z"/>
				<path class="st2" d="M11,47c-0.3,0-0.5-0.2-0.5-0.6v-0.9h-0.3v-0.3h0.3v-0.3l0.5-0.2v0.5h0.5v0.3H11v0.9c0,0.1,0.1,0.2,0.2,0.2
					c0.1,0,0.2,0,0.3-0.1l0.1,0.4C11.4,46.9,11.2,47,11,47"/>
				<path class="st2" d="M12.8,46c0-0.4-0.1-0.6-0.4-0.6c-0.2,0-0.4,0.2-0.4,0.6c0,0.4,0.1,0.6,0.4,0.6S12.8,46.5,12.8,46 M13.3,46
					c0,0.6-0.3,1-0.9,1c-0.5,0-0.9-0.3-0.9-1c0-0.5,0.3-0.9,0.9-0.9S13.3,45.5,13.3,46"/>
				<path class="st2" d="M14.7,45.5c-0.1,0-0.1,0-0.2,0c-0.1,0-0.2,0.1-0.3,0.1v1.3h-0.5v-1.8H14l0.1,0.2l0,0
					c0.1-0.1,0.2-0.3,0.4-0.3c0.1,0,0.2,0,0.2,0V45.5z"/>
				<path class="st2" d="M15.2,44.4h0.5v0.4h-0.5V44.4z M15.2,46.9v-1.5H15v-0.3h0.7v1.8H15.2z"/>
				<path class="st2" d="M17.2,46c0-0.4-0.1-0.6-0.4-0.6c-0.2,0-0.4,0.2-0.4,0.6c0,0.4,0.1,0.6,0.4,0.6S17.2,46.5,17.2,46 M17.7,46
					c0,0.6-0.3,1-0.9,1c-0.5,0-0.9-0.3-0.9-1c0-0.5,0.3-0.9,0.9-0.9S17.7,45.5,17.7,46"/>
				<path class="st2" d="M20,45.5c-0.1,0-0.2-0.1-0.3-0.1c-0.2,0-0.4,0.2-0.4,0.6c0,0.4,0.1,0.6,0.4,0.6c0.1,0,0.2-0.1,0.3-0.2V45.5
					z M20.1,45.3c0-0.1,0-0.2,0-0.3v-0.5h0.5v2.6h-0.4l-0.1-0.2c-0.1,0.1-0.2,0.2-0.5,0.2c-0.4,0-0.7-0.3-0.7-0.9
					c0-0.6,0.3-0.9,0.8-0.9C19.8,45.1,20,45.1,20.1,45.3"/>
				<path class="st2" d="M21.7,45.4c-0.2,0-0.3,0.2-0.3,0.4h0.7C22,45.6,22,45.4,21.7,45.4 M21.4,46.2c0,0.3,0.2,0.5,0.5,0.5
					c0.2,0,0.4-0.1,0.5-0.2l0.1,0.3c-0.2,0.1-0.4,0.2-0.7,0.2c-0.6,0-0.9-0.3-0.9-1c0-0.6,0.3-0.9,0.9-0.9c0.5,0,0.8,0.4,0.8,0.9
					v0.2H21.4z"/>
				<polygon class="st2" points="24.6,44.8 24.6,46.9 24.1,46.9 24.1,44.8 23.5,44.8 23.5,44.4 25.3,44.4 25.3,44.8 				"/>
				<path class="st2" d="M26.2,45.5c-0.1,0-0.1,0-0.2,0c-0.1,0-0.2,0.1-0.3,0.1v1.3h-0.5v-1.8h0.3l0.1,0.2l0,0
					c0.1-0.1,0.2-0.3,0.4-0.3c0.1,0,0.2,0,0.2,0V45.5z"/>
				<path class="st2" d="M27.5,46.1h-0.3c-0.2,0-0.3,0.1-0.3,0.2c0,0.2,0.1,0.3,0.3,0.3c0.1,0,0.2-0.1,0.3-0.1V46.1z M27.6,46.9
					l-0.1-0.2C27.4,46.8,27.2,47,27,47c-0.4,0-0.6-0.2-0.6-0.6c0-0.3,0.2-0.5,0.7-0.5h0.4v-0.1c0-0.2-0.1-0.3-0.3-0.3
					s-0.4,0.1-0.5,0.1l-0.1-0.3c0.2-0.1,0.4-0.2,0.7-0.2c0.5,0,0.7,0.2,0.7,0.7V47h-0.4V46.9z"/>
				<path class="st2" d="M29.5,46.9v-1.1c0-0.3-0.1-0.4-0.3-0.4c-0.1,0-0.2,0.1-0.3,0.1v1.4h-0.5v-1.8h0.3l0.1,0.2
					c0.1-0.1,0.3-0.2,0.6-0.2c0.5,0,0.6,0.3,0.6,0.7v1.1H29.5z"/>
				<path class="st2" d="M30.8,45.6c0,0.3,0.8,0.2,0.8,0.8c0,0.3-0.2,0.6-0.7,0.6c-0.2,0-0.4-0.1-0.5-0.1l0.1-0.3
					c0.1,0.1,0.3,0.1,0.4,0.1c0.2,0,0.3-0.1,0.3-0.2c0-0.3-0.8-0.2-0.8-0.8c0-0.3,0.2-0.5,0.7-0.5c0.2,0,0.4,0,0.5,0.1l-0.1,0.4
					c-0.1-0.1-0.3-0.1-0.4-0.1C30.9,45.4,30.8,45.5,30.8,45.6"/>
				<path class="st2" d="M32.5,46.4c0.1,0.1,0.2,0.2,0.3,0.2c0.2,0,0.4-0.2,0.4-0.6c0-0.4-0.1-0.6-0.4-0.6c-0.1,0-0.3,0.1-0.3,0.1
					V46.4z M32.5,47.1v0.5H32v-2.5h0.4v0.2c0.1-0.1,0.3-0.2,0.5-0.2c0.4,0,0.7,0.3,0.7,0.9c0,0.6-0.4,1-0.8,1
					c-0.2,0-0.3-0.1-0.4-0.2C32.4,46.8,32.5,47,32.5,47.1"/>
				<path class="st2" d="M35.2,46c0-0.4-0.1-0.6-0.4-0.6c-0.2,0-0.4,0.2-0.4,0.6c0,0.4,0.1,0.6,0.4,0.6C35,46.6,35.2,46.5,35.2,46
					 M35.7,46c0,0.6-0.3,1-0.9,1c-0.5,0-0.9-0.3-0.9-1c0-0.5,0.3-0.9,0.9-0.9S35.7,45.5,35.7,46"/>
				<path class="st2" d="M37.1,45.5c-0.1,0-0.1,0-0.2,0c-0.1,0-0.2,0.1-0.3,0.1v1.3h-0.5v-1.8h0.3l0.1,0.2l0,0
					c0.1-0.1,0.2-0.3,0.4-0.3c0.1,0,0.2,0,0.2,0V45.5z"/>
				<path class="st2" d="M38,47c-0.3,0-0.5-0.2-0.5-0.6v-0.9h-0.3v-0.3h0.3v-0.3l0.5-0.2v0.5h0.5v0.3H38v0.9c0,0.1,0.1,0.2,0.2,0.2
					c0.1,0,0.2,0,0.3-0.1l0.1,0.4C38.4,46.9,38.2,47,38,47"/>
				<path class="st2" d="M39.5,45.4c-0.2,0-0.3,0.2-0.3,0.4h0.7C39.8,45.6,39.7,45.4,39.5,45.4 M39.2,46.2c0,0.3,0.2,0.5,0.5,0.5
					c0.2,0,0.4-0.1,0.5-0.2l0.1,0.3c-0.2,0.1-0.4,0.2-0.7,0.2c-0.6,0-0.9-0.3-0.9-1c0-0.6,0.3-0.9,0.9-0.9c0.6,0,0.8,0.4,0.8,0.9
					v0.2H39.2z"/>
				<path class="st2" d="M42.2,44.8h-0.3v0.8h0.3c0.3,0,0.4-0.2,0.4-0.4C42.7,45,42.5,44.8,42.2,44.8 M42.2,46.1h-0.3V47h-0.5v-2.5
					h0.8c0.5,0,1,0.2,1,0.8C43.2,45.7,42.8,46.1,42.2,46.1"/>
				<path class="st2" d="M43.8,44.8v-0.3l0.9-0.3l0.1,0.4L43.8,44.8z M44.7,46.9l-0.1-0.2C44.5,46.8,44.3,47,44,47
					c-0.5,0-0.7-0.3-0.7-0.8v-1.1h0.5v1.1c0,0.3,0.1,0.4,0.3,0.4c0.1,0,0.2,0,0.3-0.1v-1.4h0.5v1.8H44.7z"/>
				<path class="st2" d="M45.9,46.4c0.1,0.1,0.2,0.2,0.3,0.2c0.2,0,0.4-0.2,0.4-0.6c0-0.4-0.1-0.6-0.4-0.6c-0.1,0-0.3,0.1-0.3,0.1
					V46.4z M45.9,45.3c0.1-0.1,0.3-0.2,0.5-0.2c0.4,0,0.7,0.3,0.7,0.9c0,0.6-0.4,1-0.8,1c-0.3,0-0.4-0.1-0.5-0.3l-0.1,0.2h-0.3v-2.6
					h0.5V45L45.9,45.3z"/>
				<path class="st2" d="M47.5,46.5v-2.1H48v2.1c0,0.2,0.1,0.2,0.3,0.2V47c0,0-0.1,0-0.3,0C47.6,47,47.5,46.8,47.5,46.5"/>
				<path class="st2" d="M48.7,44.4h0.5v0.4h-0.5V44.4z M48.7,46.9v-1.5h-0.2v-0.3h0.7v1.8H48.7z"/>
				<path class="st2" d="M51.1,46.8C51,46.9,50.7,47,50.5,47c-0.5,0-0.9-0.3-0.9-0.9c0-0.6,0.3-0.9,0.9-0.9c0.2,0,0.4,0,0.6,0.2
					L51,45.7c-0.1-0.1-0.3-0.1-0.5-0.1c-0.3,0-0.4,0.2-0.4,0.6c0,0.4,0.2,0.6,0.4,0.6s0.4-0.1,0.5-0.1L51.1,46.8z"/>
				<path class="st2" d="M52.6,46c0-0.4-0.1-0.6-0.4-0.6c-0.2,0-0.4,0.2-0.4,0.6c0,0.4,0.1,0.6,0.4,0.6C52.4,46.6,52.6,46.5,52.6,46
					 M53.1,46c0,0.6-0.3,1-0.9,1c-0.5,0-0.9-0.3-0.9-1c0-0.5,0.3-0.9,0.9-0.9C52.8,45.1,53.1,45.5,53.1,46"/>
			</g>
		</g>
		<g>
			<path d="M18.5,74.6c-0.3,0-0.6-0.3-0.6-0.6c0-0.3,0.3-0.6,0.6-0.6s0.6,0.3,0.6,0.6C19.1,74.3,18.8,74.6,18.5,74.6 M18.5,71.8
				c-0.3,0-0.6-0.3-0.6-0.6c0-0.3,0.3-0.6,0.6-0.6s0.6,0.3,0.6,0.6C19.1,71.6,18.8,71.8,18.5,71.8 M18.5,68.9
				c-0.3,0-0.6-0.3-0.6-0.6c0-0.3,0.3-0.6,0.6-0.6s0.6,0.3,0.6,0.6C19.1,68.6,18.8,68.9,18.5,68.9 M18.5,66c-0.3,0-0.6-0.3-0.6-0.6
				c0-0.3,0.3-0.6,0.6-0.6s0.6,0.3,0.6,0.6C19.1,65.8,18.8,66,18.5,66"/>
			<path d="M38.1,74.6c-0.3,0-0.6-0.3-0.6-0.6c0-0.3,0.3-0.6,0.6-0.6s0.6,0.3,0.6,0.6C38.7,74.3,38.5,74.6,38.1,74.6 M38.1,71.8
				c-0.3,0-0.6-0.3-0.6-0.6c0-0.3,0.3-0.6,0.6-0.6s0.6,0.3,0.6,0.6C38.7,71.6,38.5,71.8,38.1,71.8 M38.1,68.9
				c-0.3,0-0.6-0.3-0.6-0.6c0-0.3,0.3-0.6,0.6-0.6s0.6,0.3,0.6,0.6S38.5,68.9,38.1,68.9 M38.1,66c-0.3,0-0.6-0.3-0.6-0.6
				c0-0.3,0.3-0.6,0.6-0.6s0.6,0.3,0.6,0.6C38.7,65.8,38.5,66,38.1,66"/>
			<path d="M6,74.8h6.2v1c0,0.2,0.2,0.3,0.3,0.3h1c0.2,0,0.3-0.2,0.3-0.3v-1h0.3c0.1,0,0.2-0.1,0.3-0.2c0.1-0.5,0.2-1.9,0.2-3.4
				c0-2.4-0.1-4.5-0.4-6c-0.2-1.1-0.6-1.9-1-2.2c-0.3-0.2-1.3-0.4-4-0.4s-3.7,0.2-4,0.4c-0.4,0.3-0.8,1-1,2.2
				c-0.3,1.4-0.4,3.6-0.4,6c0,1.5,0.1,2.9,0.2,3.4c0,0.1,0.1,0.2,0.3,0.2h0.3v1c0,0.2,0.1,0.3,0.3,0.3h1c0.2,0,0.3-0.2,0.3-0.3v-1H6
				z M9.1,71.5c-2.3,0-4.2-0.2-4.3-0.4c0-0.1-0.1-0.6-0.1-1.1c0-1.7,0.2-4.2,0.4-4.8c0.1-0.2,1.3-0.4,4-0.4s3.9,0.2,4,0.4
				c0.2,0.6,0.4,3.1,0.4,4.8c0,0.5-0.1,1-0.1,1.1C13.3,71.3,11.4,71.5,9.1,71.5 M9.1,64c-2,0-3.3,0.1-3.8,0.3
				c0.1-0.2,0.2-0.4,0.4-0.6c0.2-0.1,1-0.3,3.4-0.3s3.2,0.1,3.4,0.3c0.2,0.1,0.3,0.4,0.4,0.6C12.4,64.1,11.2,64,9.1,64 M4.8,73.1
				c0-0.4,0.3-0.7,0.7-0.7s0.7,0.3,0.7,0.7c0,0.4-0.3,0.7-0.7,0.7C5.1,73.8,4.8,73.5,4.8,73.1 M13.5,73.1c0,0.4-0.3,0.7-0.7,0.7
				s-0.7-0.3-0.7-0.7c0-0.4,0.3-0.7,0.7-0.7S13.5,72.7,13.5,73.1 M11.8,65.8c0,0.1,0.1,0.2,0.2,0.2c0.1,0,0.2-0.1,0.2-0.2
				s-0.1-0.2-0.2-0.2C12,65.6,11.8,65.7,11.8,65.8 M10.7,65.8c0,0.1,0.1,0.2,0.2,0.2c0.1,0,0.2-0.1,0.2-0.2s-0.1-0.2-0.2-0.2
				C10.8,65.6,10.7,65.7,10.7,65.8 M9.5,65.8c0,0.1,0.1,0.2,0.2,0.2c0.1,0,0.2-0.1,0.2-0.2s-0.1-0.2-0.2-0.2
				C9.6,65.6,9.5,65.7,9.5,65.8 M8.3,65.8c0,0.1,0.1,0.2,0.2,0.2c0.1,0,0.2-0.1,0.2-0.2s-0.1-0.2-0.2-0.2
				C8.4,65.6,8.3,65.7,8.3,65.8 M7.1,65.8c0,0.1,0.1,0.2,0.2,0.2c0.1,0,0.2-0.1,0.2-0.2s-0.1-0.2-0.2-0.2
				C7.2,65.6,7.1,65.7,7.1,65.8 M10.7,66.8c0,0.1,0.1,0.2,0.2,0.2c0.1,0,0.2-0.1,0.2-0.2s-0.1-0.2-0.2-0.2
				C10.8,66.5,10.7,66.6,10.7,66.8 M5.9,66.8C5.9,66.9,6,67,6.1,67c0.1,0,0.2-0.1,0.2-0.2s-0.1-0.2-0.2-0.2
				C6,66.5,5.9,66.6,5.9,66.8 M7.1,66.8c0,0.1,0.1,0.2,0.2,0.2c0.1,0,0.2-0.1,0.2-0.2s-0.1-0.2-0.2-0.2C7.2,66.5,7.1,66.6,7.1,66.8
				 M5.9,65.8C5.9,65.9,6,66,6.1,66c0.1,0,0.2-0.1,0.2-0.2s-0.1-0.2-0.2-0.2C6,65.6,5.9,65.7,5.9,65.8 M9.5,66.8
				c0,0.1,0.1,0.2,0.2,0.2c0.1,0,0.2-0.1,0.2-0.2s-0.1-0.2-0.2-0.2C9.6,66.5,9.5,66.6,9.5,66.8 M8.3,66.8c0,0.1,0.1,0.2,0.2,0.2
				c0.1,0,0.2-0.1,0.2-0.2s-0.1-0.2-0.2-0.2C8.4,66.5,8.3,66.6,8.3,66.8 M11.8,66.8c0,0.1,0.1,0.2,0.2,0.2c0.1,0,0.2-0.1,0.2-0.2
				s-0.1-0.2-0.2-0.2C12,66.5,11.8,66.6,11.8,66.8"/>
			<path d="M52.2,71c0,1.2-0.3,3.1-0.4,3.5c0,0.1-0.1,0.2-0.3,0.2h-0.3l-0.4-0.5c-0.1-0.1-0.1-0.1-0.3-0.1h-1.8
				c-0.1,0-0.2,0.1-0.2,0.2v0.4h-1.3h-1.3v-0.4c0-0.1-0.1-0.2-0.2-0.2h-1.8c-0.2,0-0.2,0-0.3,0.1l-0.4,0.5h-0.3
				c-0.1,0-0.2-0.1-0.2-0.2c-0.1-0.4-0.4-2.3-0.4-3.5c0-2.3,0.2-3.2,0.5-4.5c0.2-1,0.6-1.6,1-1.8c0.1-0.1,0.4-0.2,0.9-0.3
				c0-0.2,0-0.3,0.1-0.4s0.3-0.3,2.5-0.3s2.4,0.2,2.5,0.3c0,0.1,0.1,0.2,0.1,0.4c0.5,0.1,0.8,0.2,0.9,0.3c0.3,0.2,0.7,0.8,1,1.8
				C51.9,67.8,52.2,68.7,52.2,71 M44,71.4c0-0.3-0.2-0.5-0.5-0.5S43,71.1,43,71.4s0.2,0.5,0.5,0.5S44,71.6,44,71.4 M45.1,72.5
				c0-0.3-0.2-0.5-0.5-0.5s-0.5,0.2-0.5,0.5s0.2,0.5,0.5,0.5S45.1,72.8,45.1,72.5 M50.9,68.4c0-1-0.3-1.8-0.5-2.3
				c-0.1-0.2-0.2-0.4-0.5-0.5s-0.6-0.2-2.6-0.2s-2.4,0.1-2.6,0.3c-0.3,0.1-0.4,0.3-0.5,0.5c-0.2,0.4-0.5,1.3-0.5,2.2
				c0,1.9,1.3,3.4,3.6,3.4C49.6,71.7,50.9,70.3,50.9,68.4 M48.7,66.2c0,0.1,0.1,0.2,0.2,0.2c0.1,0,0.2-0.1,0.2-0.2S49,66,48.9,66
				S48.7,66.1,48.7,66.2 M47.6,66.2c0,0.1,0.1,0.2,0.2,0.2c0.1,0,0.2-0.1,0.2-0.2S47.9,66,47.8,66S47.6,66.1,47.6,66.2 M46.5,66.2
				c0,0.1,0.1,0.2,0.2,0.2c0.1,0,0.2-0.1,0.2-0.2S46.8,66,46.7,66C46.6,66,46.5,66.1,46.5,66.2 M45.4,66.2c0,0.1,0.1,0.2,0.2,0.2
				c0.1,0,0.2-0.1,0.2-0.2S45.7,66,45.6,66S45.4,66.1,45.4,66.2 M48.7,67.1c0,0.1,0.1,0.2,0.2,0.2c0.1,0,0.2-0.1,0.2-0.2
				s-0.1-0.2-0.2-0.2S48.7,67,48.7,67.1 M47.6,67.1c0,0.1,0.1,0.2,0.2,0.2c0.1,0,0.2-0.1,0.2-0.2s-0.1-0.2-0.2-0.2
				S47.6,67,47.6,67.1 M46.5,67.1c0,0.1,0.1,0.2,0.2,0.2c0.1,0,0.2-0.1,0.2-0.2s-0.1-0.2-0.2-0.2C46.6,66.9,46.5,67,46.5,67.1
				 M45.4,67.1c0,0.1,0.1,0.2,0.2,0.2c0.1,0,0.2-0.1,0.2-0.2s-0.1-0.2-0.2-0.2S45.4,67,45.4,67.1 M50.5,74.5h-1.4v0.3l0.3,0.5h-2.1
				h-2.1l0.3-0.5v-0.3h-1.4l-0.9,1.3v0.4h1.5l0.2-0.4h2.3h2.3l0.2,0.4h1.5v-0.4L50.5,74.5z M51,71.8c0.3,0,0.5-0.2,0.5-0.5
				s-0.2-0.5-0.5-0.5s-0.5,0.2-0.5,0.5C50.5,71.6,50.7,71.8,51,71.8 M49.9,73c0.3,0,0.5-0.2,0.5-0.5S50.2,72,49.9,72
				s-0.5,0.2-0.5,0.5S49.6,73,49.9,73 M50.7,63.1c0-0.2-0.9-0.5-2.2-0.5h-1.2h-1.2c-1.3,0-2.2,0.4-2.2,0.5s0,0.3,0.1,0.5
				c0.2-0.1,0.5-0.3,1.4-0.4l0.3,0.4h0.8l-0.4-0.4c0.3,0,0.6,0,0.9,0h0.3h0.3c0.3,0,0.6,0,0.9,0l-0.4,0.4h0.8l0.3-0.4
				c0.8,0.1,1.2,0.3,1.4,0.4C50.7,63.4,50.7,63.2,50.7,63.1"/>
			<g>
				<circle cx="26.6" cy="66.6" r="0.2"/>
				<circle cx="27.7" cy="66.6" r="0.2"/>
				<path d="M28.6,62.6h-0.3H28c-4.1,0-5.9,1.6-5.9,8.2c0,2.8,0.6,5.4,0.6,5.4h5.6h5.6c0,0,0.6-2.6,0.6-5.4
					C34.5,64.3,32.7,62.6,28.6,62.6z M33.2,75.4h-2v-1.1h-1.1v1.1h-1.8h-1.8v-1.1h-1.1v1.1h-2c0,0-0.5-2.4-0.5-4.5
					c0-5.7,1.2-7.6,5.1-7.6h0.3h0.3c3.9,0,5.1,1.9,5.1,7.6C33.7,73,33.2,75.4,33.2,75.4z"/>
				<circle cx="30" cy="66.6" r="0.2"/>
				<polygon points="30.3,66 30.1,64.9 28.3,64.9 26.5,64.9 26.3,66 28.3,66 				"/>
				<path d="M30.6,64.9c0,0,0.7,2.1,0.7,4.7v0.8c0,0.2-0.1,0.3-0.4,0.3h-2.6l0,0h-2.6c-0.3,0-0.4-0.1-0.4-0.3v-0.8
					c0-2.6,0.7-4.7,0.7-4.7c-0.8,0-1.1,0.3-1.4,1.7c-0.3,1.1-0.4,2.2-0.4,4.5c0,2.1,0.3,3.7,0.3,3.7c0,0.1,0.1,0.1,0.2,0.1H25V74
					c0-0.2,0-0.2,0.3-0.2h1.6L27,75h2.6l0.1-1.2h1.6c0.2,0,0.3,0.1,0.3,0.2v0.9h0.3c0.1,0,0.1,0,0.2-0.1c0,0,0.3-1.6,0.3-3.7
					c0-2.3-0.1-3.4-0.4-4.5C31.6,65.2,31.3,64.9,30.6,64.9z M26.7,72.2c-0.2,0-0.4-0.2-0.4-0.4c0-0.2,0.2-0.4,0.4-0.4
					s0.4,0.2,0.4,0.4C27.1,72.1,27,72.2,26.7,72.2z M28.3,72.2c-0.2,0-0.4-0.2-0.4-0.4c0-0.2,0.2-0.4,0.4-0.4s0.4,0.2,0.4,0.4
					C28.7,72.1,28.5,72.2,28.3,72.2z M29.9,72.2c-0.2,0-0.4-0.2-0.4-0.4c0-0.2,0.2-0.4,0.4-0.4s0.4,0.2,0.4,0.4
					C30.3,72.1,30.1,72.2,29.9,72.2z"/>
				<circle cx="28.9" cy="66.6" r="0.2"/>
			</g>
		</g>
	</g>
</g>
</svg>
