<?xml version="1.0" encoding="utf-8"?>
<!-- Generator: Adobe Illustrator 16.0.0, SVG Export Plug-In . SVG Version: 6.00 Build 0)  -->
<!DOCTYPE svg PUBLIC "-//W3C//DTD SVG 1.1//EN" "http://www.w3.org/Graphics/SVG/1.1/DTD/svg11.dtd">
<svg version="1.1" id="Capa_1" xmlns="http://www.w3.org/2000/svg" xmlns:xlink="http://www.w3.org/1999/xlink" x="0px" y="0px"
	 width="64px" height="50px" viewBox="0 0 64 50" enable-background="new 0 0 64 50" xml:space="preserve">
<g>
	<g>
		<path fill="#616161" d="M54.3,2.5H9.7c-4,0-7.2,3.2-7.2,7.2v30.5c0,4,3.2,7.2,7.2,7.2h44.7c4,0,7.2-3.2,7.2-7.2V9.7
			C61.6,5.8,58.3,2.5,54.3,2.5z M58.3,40.3c0,2.2-1.8,3.9-3.9,3.9H9.7c-2.2,0-3.9-1.8-3.9-3.9V9.7c0-2.2,1.8-3.9,3.9-3.9h44.7
			c2.2,0,3.9,1.8,3.9,3.9V40.3L58.3,40.3z"/>
		<path fill="#616161" d="M39.7,24.6l14.5-13c0.7-0.6,0.7-1.7,0.1-2.3c-0.6-0.7-1.7-0.7-2.3-0.1L32,27.1l-3.9-3.5l0,0
			c-0.1-0.1-0.2-0.2-0.3-0.2L12,9.2c-0.7-0.6-1.7-0.5-2.3,0.1C9.1,10,9.1,11,9.8,11.6l14.6,13.1L9.9,38.4C9.2,39,9.2,40,9.8,40.7
			c0.3,0.3,0.8,0.5,1.2,0.5s0.8-0.1,1.1-0.4L26.9,27l4,3.6c0.3,0.3,0.7,0.4,1.1,0.4s0.8-0.1,1.1-0.4l4.1-3.7l14.7,14
			c0.3,0.3,0.7,0.5,1.1,0.5s0.9-0.2,1.2-0.5c0.6-0.7,0.6-1.7-0.1-2.3L39.7,24.6z"/>
	</g>
</g>
</svg>
