<?xml version="1.0" encoding="utf-8"?>
<!-- Generator: Adobe Illustrator 19.2.0, SVG Export Plug-In . SVG Version: 6.00 Build 0)  -->
<svg version="1.1" id="Capa_1" xmlns="http://www.w3.org/2000/svg" xmlns:xlink="http://www.w3.org/1999/xlink" x="0px" y="0px"
	 viewBox="0 0 792 159.1" style="enable-background:new 0 0 792 159.1;" xml:space="preserve">
<style type="text/css">
	.st0{fill:#FFFFFF;}
	.st1{fill:#0064AA;}
</style>
<path class="st0" d="M559.3,39h17.3v29.2c1.7-2.1,3.6-3.7,5.5-4.8c1.9-1,3.9-1.6,6-1.6c5.3,0,9.6,2.6,13,7.8c3.3,5.2,5,11.2,5,18.2
	c0,7.9-2,14.5-5.9,20c-3.9,5.5-8.6,8.2-13.9,8.2c-2,0-3.9-0.5-5.7-1.4c-1.8-0.9-3.5-2.3-5.2-4.2l-4.7,4.4h-11.2V39z M576.6,98.5
	c0.7,0.9,1.5,1.6,2.3,2.1c0.8,0.5,1.6,0.7,2.5,0.7c2,0,3.6-1.1,4.9-3.4c1.3-2.3,1.9-5.5,1.9-9.5c0-3.7-0.5-6.6-1.6-8.7
	c-1.1-2.1-2.6-3.1-4.5-3.1c-1.8,0-3.2,0.8-4.1,2.4c-0.9,1.6-1.4,4.1-1.4,7.3V98.5z"/>
<path class="st0" d="M620.3,37.7c2.4,0,4.6,0.9,6.5,2.6c1.9,1.7,2.9,3.9,2.9,6.6c0,2.6-0.9,4.7-2.8,6.5c-1.9,1.8-4.1,2.7-6.6,2.7
	c-2.6,0-4.9-0.9-6.7-2.7c-1.8-1.8-2.7-4-2.7-6.5c0-2.5,0.9-4.7,2.8-6.5C615.5,38.6,617.7,37.7,620.3,37.7z M611.4,63H629v51.8h-17.6
	V63z"/>
<path class="st0" d="M652.6,68.8c1.6-2.4,3.4-4.1,5.3-5.3c2-1.2,4.2-1.7,6.5-1.7c5.6,0,10,2.6,13.3,7.8c3.3,5.2,5,11.4,5,18.5
	c0,5.2-0.8,9.9-2.5,14.1c-1.7,4.2-4,7.5-6.9,10c-2.9,2.5-6.3,3.7-10,3.7c-1.8,0-3.5-0.4-5.2-1.1c-1.7-0.7-3.3-1.8-4.9-3.3V139H636
	V63h15L652.6,68.8z M653.3,98.3c0.7,0.9,1.4,1.7,2.2,2.2c0.8,0.5,1.7,0.7,2.7,0.7c2.1,0,3.8-1.1,4.9-3.4c1.2-2.2,1.8-5.3,1.8-9.2
	c0-4-0.6-7-1.7-9.1c-1.1-2.1-2.6-3.2-4.5-3.2c-1.8,0-3.2,0.8-4.1,2.3c-0.9,1.5-1.4,3.9-1.4,7V98.3z"/>
<g>
	<path class="st0" d="M702.8,102.1c3.8,1.6,6.4,4.1,7.7,7.6c1.3,3.4,1.3,6.8-0.2,10.1c-1.5,3.4-4,5.8-7.5,7.2
		c-3.5,1.4-6.9,1.3-10.3-0.1c-3.4-1.5-5.8-3.9-7.2-7.3c-1.4-3.4-1.3-6.8,0.1-10.2c1.5-3.5,4-5.9,7.6-7.2
		C696.7,100.9,699.9,100.8,702.8,102.1z"/>
	<polygon class="st0" points="744.8,38.6 715.8,98.3 697.4,90.6 720.2,28.2 	"/>
</g>
<g>
	<g>
		<path class="st1" d="M148.2,130.3h-15.7v-20.6c-1.2,1.1-2.6,2-4.1,2.7c-2.8,1.2-6,1.9-9.6,1.9c-3.1,0-5.7-0.7-7.7-2.1
			c-2-1.3-3.5-3.2-4.6-5.4c-1.1-2.2-1.8-4.7-2.2-7.6c-0.4-2.8-0.5-5.8-0.5-9v-5.7c0-3.7,0.2-7,0.5-10c0.4-3.1,1.1-5.7,2.3-7.9
			c1.2-2.3,2.9-4,5.2-5.3c2.2-1.2,5.2-1.8,8.7-1.8c3.6,0,6.7,0.7,9.2,2.2c1.5,0.8,2.8,1.9,3.9,3.1l0.5-3h14.1V130.3z M125.9,72.6
			c-1.4,0-2.6,0.2-3.3,0.6c-0.7,0.4-1.3,1-1.7,1.8c-0.5,0.9-0.8,2.2-1,3.7c-0.2,1.6-0.3,3.6-0.3,5.8v5.7c0,1.6,0.1,3.2,0.3,4.7
			c0.2,1.3,0.5,2.5,1,3.5c0.5,0.9,1.1,1.6,1.8,2.2c0.7,0.5,1.8,0.8,3.2,0.8c1.4,0,2.6-0.2,3.4-0.7c0.8-0.5,1.4-1,1.9-1.7
			c0.5-0.7,0.8-1.5,0.9-2.4c0.2-1,0.2-2,0.2-2.9V81.4c0-1-0.1-2.1-0.2-3.2c-0.1-1-0.4-2-0.9-2.8c-0.4-0.8-1-1.4-1.8-1.9
			C128.6,72.9,127.4,72.6,125.9,72.6z"/>
	</g>
	<g>
		<path class="st1" d="M168.8,114.4c-2.8,0-5.2-0.4-7.3-1.2c-2.2-0.8-4-2.1-5.4-4c-1.4-1.8-2.4-4.1-3-7c-0.6-2.7-0.9-6.2-0.9-10.2
			V61.8h15.9v28.5c0,2.5,0.1,4.6,0.3,6.2c0.2,1.5,0.5,2.7,0.9,3.5c0.4,0.7,0.9,1.2,1.5,1.4c0.8,0.3,2,0.5,3.4,0.5
			c1.3,0,2.3-0.2,3.1-0.7c0.8-0.5,1.5-1,2-1.8c0.5-0.7,0.9-1.6,1.1-2.5c0.2-1,0.4-2.1,0.4-3.1v-32h15.9v51.7h-14l-0.6-4.4
			c-1.2,1.2-2.5,2.3-4,3.1C175.5,113.6,172.4,114.4,168.8,114.4z"/>
	</g>
	<g>
		<path class="st1" d="M222.1,114.3c-4.2,0-7.6-0.7-10.4-1.9c-2.7-1.3-5-3.1-6.6-5.2c-1.6-2.1-2.8-4.6-3.4-7.3
			c-0.6-2.6-0.9-5.3-0.9-8v-9.9c0-2.7,0.3-5.3,0.9-7.8c0.6-2.6,1.8-5,3.4-7.1c1.6-2.1,3.9-3.9,6.6-5.2c2.8-1.3,6.3-1.9,10.4-1.9
			c3.8,0,7,0.6,9.7,1.8c2.6,1.2,4.8,2.9,6.5,4.9c1.6,2.1,2.8,4.5,3.5,7.3c0.7,2.7,1,5.6,1,8.7v6.7l0,1.8h-26.1v0.1
			c0,4.5,0.4,7.8,1.2,9.6c0.4,0.9,1.3,2.2,4.3,2.2c2.2,0,2.9-0.8,3.3-1.5c0.7-1.3,1.1-3.4,1.3-6.1l0.1-1l3.1,0.1l12.7,0.1l-0.1,1.9
			c-0.2,2.1-0.7,4.2-1.5,6.2c-0.9,2.1-2.2,4.1-3.9,5.8c-1.7,1.7-3.8,3.1-6.2,4.2C228.4,113.7,225.5,114.3,222.1,114.3z M216.6,81.4
			h10.2c0-1.8-0.1-3.3-0.2-4.7c-0.1-1.4-0.3-2.5-0.7-3.4c-0.3-0.7-0.7-1.3-1.3-1.7c-0.6-0.4-1.4-0.6-2.5-0.6c-3.1,0-3.9,1.2-4.3,2.1
			C217.1,74.9,216.7,77.6,216.6,81.4z"/>
	</g>
	<g>
		<path class="st0" d="M363,114.3c-4.2,0-7.6-0.7-10.4-1.9c-2.7-1.3-5-3.1-6.6-5.2c-1.6-2.1-2.8-4.6-3.4-7.3c-0.6-2.6-0.9-5.3-0.9-8
			v-9.9c0-2.7,0.3-5.3,0.9-7.8c0.6-2.6,1.8-5,3.4-7.1c1.6-2.1,3.9-3.9,6.6-5.2c2.8-1.3,6.3-1.9,10.4-1.9c3.8,0,7,0.6,9.7,1.8
			c2.6,1.2,4.8,2.9,6.5,4.9c1.6,2.1,2.8,4.5,3.5,7.3c0.7,2.7,1,5.6,1,8.7v6.7l0,1.8h-26.1v0.1c0,4.5,0.4,7.8,1.2,9.6
			c0.4,0.9,1.3,2.2,4.3,2.2c2.2,0,2.9-0.8,3.3-1.5c0.7-1.3,1.1-3.4,1.3-6.1l0.1-1l3.1,0.1l12.7,0.1l-0.1,1.9
			c-0.2,2.1-0.7,4.2-1.5,6.2c-0.9,2.1-2.2,4.1-3.9,5.8c-1.7,1.7-3.8,3.1-6.2,4.2C369.3,113.7,366.3,114.3,363,114.3z M357.5,81.4
			h10.2c0-1.8-0.1-3.3-0.2-4.7c-0.1-1.4-0.3-2.5-0.7-3.4c-0.3-0.7-0.7-1.3-1.3-1.7c-0.6-0.4-1.4-0.6-2.5-0.6c-3.1,0-3.9,1.2-4.3,2.1
			C357.9,74.9,357.5,77.6,357.5,81.4z"/>
	</g>
	<g>
		<path class="st0" d="M457.6,114.3c-4.2,0-7.6-0.7-10.4-1.9c-2.7-1.3-5-3.1-6.6-5.2c-1.6-2.1-2.8-4.6-3.4-7.3
			c-0.6-2.6-0.9-5.3-0.9-8v-9.9c0-2.7,0.3-5.3,0.9-7.8c0.6-2.6,1.8-5,3.4-7.1c1.6-2.1,3.9-3.9,6.6-5.2c2.8-1.3,6.3-1.9,10.4-1.9
			c3.8,0,7,0.6,9.7,1.8c2.6,1.2,4.8,2.9,6.5,4.9c1.6,2.1,2.8,4.5,3.5,7.3c0.7,2.7,1,5.6,1,8.7v6.7l0,1.8h-26.1v0.1
			c0,4.5,0.4,7.8,1.2,9.6c0.4,0.9,1.3,2.2,4.3,2.2c2.2,0,2.9-0.8,3.3-1.5c0.7-1.3,1.1-3.4,1.3-6.1l0.1-1l3.1,0.1l12.7,0.1l-0.1,1.9
			c-0.2,2.1-0.7,4.2-1.5,6.2c-0.9,2.1-2.2,4.1-3.9,5.8c-1.7,1.7-3.8,3.1-6.2,4.2C464,113.7,461,114.3,457.6,114.3z M452.2,81.4h10.2
			c0-1.8-0.1-3.3-0.2-4.7c-0.1-1.4-0.3-2.5-0.7-3.4c-0.3-0.7-0.7-1.3-1.3-1.7c-0.6-0.4-1.4-0.6-2.5-0.6c-3.1,0-3.9,1.2-4.3,2.1
			C452.6,74.9,452.2,77.6,452.2,81.4z"/>
	</g>
	<g>
		<path class="st0" d="M267.6,114.3c-3.3,0-6.4-0.5-9-1.4c-2.7-0.9-5-2.3-6.8-4c-1.9-1.8-3.2-3.9-4.1-6.4c-0.8-2.5-1.1-5.2-0.8-8.3
			l0.1-1.3h14l1.9,2.1l-0.1,0.6c-0.2,2.3,0.1,4.2,0.7,5.7c0.2,0.4,0.8,1.7,4,1.7c2.2,0,3.8-0.4,4.5-1.2c0.8-0.8,1.1-1.9,1.1-3.4
			c0-1-0.2-1.9-0.7-2.6c-0.5-0.8-1.3-1.4-2.2-2c-1-0.6-2.2-1.2-3.5-1.7c-1.4-0.5-2.9-1.1-4.4-1.6c-1.6-0.5-3.2-1.2-4.9-1.8
			c-1.7-0.7-3.3-1.5-4.7-2.5c-1.4-1-2.6-2.3-3.5-3.7c-1-1.5-1.6-3.3-1.7-5.4c-0.2-2.3,0-4.6,0.8-6.7c0.8-2.2,2.1-4.1,3.9-5.7
			c1.8-1.5,4-2.8,6.7-3.7c2.7-0.9,5.8-1.4,9.4-1.4c6.1,0,11,1.5,14.5,4.5c3.5,3,5.3,7.2,5.2,12.5l0,1.2l-12.6,1.9l-2.8-1.8l0-0.8
			c-0.1-2.1-0.4-3.8-1-5c-0.4-0.8-1.6-1.3-3.6-1.3c-1.3,0-3.1,0.2-3.8,1.1c-0.7,0.9-1,1.9-1,3.1c0,1.2,0.3,2.1,0.9,2.8
			c0.7,0.8,1.5,1.5,2.6,2.1c1.1,0.6,2.5,1.2,4,1.6c1.6,0.5,3.3,1,5,1.6c1.6,0.5,3.2,1.1,4.7,1.7c1.6,0.7,3.1,1.6,4.3,2.6
			c1.3,1.1,2.3,2.4,3.1,4c0.8,1.6,1.2,3.5,1.2,5.7c0,2-0.4,4-1.2,6.1c-0.8,2.1-2.1,3.9-3.8,5.5c-1.7,1.5-4,2.8-6.7,3.7
			C274.7,113.8,271.4,114.3,267.6,114.3z"/>
	</g>
	<g>
		<path class="st0" d="M309.8,114.4c-2.8,0-5.2-0.4-7.3-1.2c-2.2-0.8-4-2.1-5.4-4c-1.4-1.8-2.4-4.1-3-7c-0.6-2.7-0.9-6.2-0.9-10.2
			V61.8H309v28.5c0,2.5,0.1,4.6,0.3,6.2c0.2,1.5,0.5,2.7,0.9,3.5c0.4,0.7,0.9,1.2,1.5,1.4c0.8,0.3,2,0.5,3.4,0.5
			c1.3,0,2.3-0.2,3.1-0.7c0.8-0.5,1.5-1,2-1.8c0.5-0.7,0.9-1.6,1.1-2.5c0.2-1,0.4-2.1,0.4-3.1v-32h15.9v51.7h-14l-0.6-4.4
			c-1.2,1.2-2.5,2.3-4,3.1C316.5,113.6,313.3,114.4,309.8,114.4z"/>
	</g>
	<g>
		<path class="st0" d="M432.3,113.5h-15.9V81.4c0-4.2-0.7-6.2-1.3-7.1c-0.9-1.4-3.3-1.7-5.2-1.7c-1.3,0-2.4,0.2-3.1,0.6
			c-0.8,0.4-1.4,0.9-1.8,1.6c-0.5,0.7-0.8,1.5-0.9,2.4c-0.2,1-0.3,2-0.3,3.1v33.2h-15.9V61.8h13.9l0.7,3.8c3.5-4,8.3-6,14.5-6
			c3.5,0,6.2,0.5,8.3,1.5c2.1,1.1,3.7,2.6,4.8,4.7c1,1.9,1.6,4.3,1.9,6.9c0.2,2.5,0.3,5.4,0.3,8.6V113.5z"/>
	</g>
	<g>
		<path class="st1" d="M499.1,114.4c-3.7,0-6.7-1-9-3.1c-3.5-3.2-5.3-9-5.3-17.7V73.2h-4.6V61.8h4.6V50.6l11.4-2.9h4.5v14.1h6.2
			v11.3h-6.2v19.8c0,2,0.1,3.6,0.3,4.8c0.1,1,0.4,1.9,0.7,2.4c0.3,0.4,0.6,0.7,1.1,0.8c0.6,0.2,1.5,0.3,2.6,0.2l1.5-0.1v12.1
			l-1.1,0.3C503.3,114.1,501.1,114.4,499.1,114.4z"/>
	</g>
	<g>
		<path class="st1" d="M526.6,114.4c-2.8,0-5.2-0.4-7.3-1.2c-2.2-0.8-4-2.1-5.4-4c-1.4-1.8-2.4-4.1-3-7c-0.6-2.7-0.9-6.2-0.9-10.2
			V61.8h15.9v28.5c0,2.5,0.1,4.6,0.3,6.2c0.2,1.5,0.5,2.7,0.9,3.5c0.4,0.7,0.9,1.2,1.5,1.4c0.8,0.3,2,0.5,3.4,0.5
			c1.3,0,2.3-0.2,3.1-0.7c0.8-0.5,1.5-1,2-1.8c0.5-0.7,0.9-1.6,1.1-2.5c0.2-1,0.4-2.1,0.4-3.1v-32h15.9v51.7h-14l-0.6-4.4
			c-1.2,1.2-2.5,2.3-4,3.1C533.3,113.6,530.2,114.4,526.6,114.4z"/>
	</g>
</g>
<g>
	<g>
		<path class="st0" d="M80.3,132.9H69.8l2.8-20.8h-6.9L63,132.9H52.4l2.8-20.8h-8.5v-10.4h10l1.5-11.3h-9V80h10.4l2.8-20.3h10.4
			L70,80h7l2.7-20.3h10.4L87.4,80h8.4v10.4h-9.9l-1.4,11.3h8.9v10.4H83L80.3,132.9z M67.1,101.7H74l1.5-11.3h-6.9L67.1,101.7z"/>
	</g>
</g>
</svg>
