<?xml version="1.0" encoding="utf-8"?>
<!-- Generator: Adobe Illustrator 19.2.0, SVG Export Plug-In . SVG Version: 6.00 Build 0)  -->
<svg version="1.1" id="Capa_1" xmlns="http://www.w3.org/2000/svg" xmlns:xlink="http://www.w3.org/1999/xlink" x="0px" y="0px"
	 viewBox="0 0 544.3 190.9" style="enable-background:new 0 0 544.3 190.9;" xml:space="preserve">
<style type="text/css">
	.st0{fill:#FFFFFF;}
</style>
<g>
	<path class="st0" d="M9,117.3l2.7-47.4l-9,0.9l0.9-15.3L38.4,52l-0.9,15.3l-9.4,0.9l-2.7,47.4L9,117.3z"/>
	<path class="st0" d="M66.8,111.7l-7.6-25.3L59,86.6c-0.1,3.1-0.1,6.1-0.3,9.2l-1,16.7l-16.4,1.6L45,51.4l15.8-1.5
		C75,48.5,85,51.8,84.1,68.4c-0.4,6.9-3.6,13.3-10.3,16.6L84.5,110L66.8,111.7z M60.7,78.7c4.3-0.4,6.9-4.6,7.1-8.6
		c0.3-5.5-2.8-7.5-7.3-6.8l-0.9,15.5L60.7,78.7z"/>
	<path class="st0" d="M116.2,106.9l-0.7-8l-11,1.1l-1.8,8.2l-16.9,1.6l18.1-64.2l20-1.9l9.3,61.5L116.2,106.9z M114.2,85.8
		l-0.9-14.4c-0.3-3.9-0.4-7.8-0.5-11.7l-0.2,0c-0.7,4-1.3,8-2.2,12l-3.1,14.8L114.2,85.8z"/>
	<path class="st0" d="M142.1,42l15.6-1.5L168.6,77l0.2-0.2c-0.2-7.2-1-14.2-0.6-21.5l0.9-16l15.7-1.5l-3.6,62.8l-15.7,1.5l-10.1-35
		l-0.2,0.2c0.1,5.9,0.5,11.6,0.1,17.5l-1.1,18.4l-15.7,1.5L142.1,42z"/>
	<path class="st0" d="M190.5,78.6c2,3.3,5.8,6.4,10,6c2.2-0.2,4.9-1.9,5.1-4.6c0.1-1.5-0.3-2.5-1.1-3.4c-0.7-0.8-1.6-1.5-2.6-2.1
		c-3.1-2.3-5.7-4.4-7.7-7.2c-1.8-2.7-2.9-6.1-2.7-10.7c0.4-7.3,5.7-21.1,19.7-22.4c3.9-0.4,8.1,0.5,11.5,2l-1.1,19.1
		c-1.7-3-5.5-6.2-9.3-5.8c-1.9,0.2-4.3,1.8-4.5,4.2c-0.1,1.3,0.6,2.4,1.4,3.3c0.8,0.9,2,1.6,2.8,2.3c3.3,2.2,5.9,4.2,7.6,6.9
		c1.8,2.6,2.6,5.9,2.3,10.6c-0.7,11.7-9.1,21.7-20.5,22.8c-4.2,0.4-8.4-0.1-12.1-1.4L190.5,78.6z"/>
	<path class="st0" d="M255,93.4l-0.7-8l-11,1.1l-1.8,8.2l-16.9,1.6l18.1-64.2l20-1.9l9.3,61.5L255,93.4z M253.1,72.3l-0.9-14.4
		c-0.3-3.9-0.4-7.8-0.5-11.7l-0.2,0c-0.7,4-1.3,8-2.2,12L246.2,73L253.1,72.3z"/>
	<path class="st0" d="M280.9,28.5l15.6-1.5l10.9,36.5l0.2-0.2c-0.2-7.2-1-14.2-0.6-21.5l0.9-16l15.7-1.5l-3.6,62.8l-15.7,1.5
		l-10.1-35l-0.2,0.2c0.1,5.9,0.5,11.6,0.1,17.5l-1.1,18.4l-15.7,1.5L280.9,28.5z"/>
	<path class="st0" d="M335.7,85.6l2.7-47.4l-9,0.9l0.9-15.3l34.8-3.4l-0.9,15.3l-9.4,0.9L352.1,84L335.7,85.6z"/>
	<path class="st0" d="M368.1,82.4l3.6-62.8l16.4-1.6l-3.6,62.8L368.1,82.4z"/>
	<path class="st0" d="M420.4,77.3l-0.7-8l-11,1.1l-1.8,8.2l-16.9,1.6l18.1-64.2l20-1.9l9.3,61.5L420.4,77.3z M418.5,56.2l-0.9-14.4
		c-0.3-3.9-0.4-7.8-0.5-11.7l-0.2,0c-0.7,4-1.3,8-2.2,12l-3.1,14.8L418.5,56.2z"/>
	<path class="st0" d="M488.4,34.6l-0.1,2.7c-0.9,15.5-4.9,35-23.8,36.8c-17.8,1.7-22.7-13.9-21.8-29.8c0.9-15.6,7.6-33.3,25.3-35.1
		c9.8-1,16.7,4.7,19.8,13.5l-16.2,7.6c0-2.5-1.4-6.2-4.3-6c-7.5,0.7-7.7,15.1-8,19.8c0,4.5-1,15.5,5.4,14.9c4.3-0.4,6-5.9,6.1-9.5
		l-6,0.6l0.8-13.2L488.4,34.6z"/>
	<path class="st0" d="M518.6,4.3c16.6-1.6,22.1,14.9,21.3,30.2c-0.9,15.3-8.4,33.1-25,34.7S492.7,54.3,493.6,39
		C494.5,23.7,501.9,5.9,518.6,4.3z M515.8,53.4c6.2-0.6,7.2-13.4,7.4-17.3c0.2-3.9,0.7-16.6-5.5-16c-6.2,0.6-7.2,13.4-7.4,17.3
		C510.1,41.3,509.6,54,515.8,53.4z"/>
	<path class="st0" d="M107.8,185.8l3.6-62.8l14.9-1.5c14.3-1.4,25,2.4,24.1,18.8c-0.9,16.3-10.9,22.2-25,23.2l-1.2,20.6L107.8,185.8
		z M128.2,134.8L127,135l-0.8,14.5c4.5-0.2,7.4-3,7.7-7.7C134.1,137.8,132.2,134.4,128.2,134.8z"/>
	<path class="st0" d="M180,178.8l-7.6-25.3l-0.2,0.2c-0.1,3.1-0.1,6.1-0.3,9.2l-1,16.7l-16.4,1.6l3.6-62.8l15.8-1.5
		c14.2-1.4,24.2,1.9,23.3,18.5c-0.4,6.9-3.6,13.3-10.3,16.6l10.7,25L180,178.8z M174,145.8c4.3-0.4,6.9-4.6,7.1-8.6
		c0.3-5.5-2.8-7.5-7.3-6.8l-0.9,15.5L174,145.8z"/>
	<path class="st0" d="M206.8,113.8l30.4-3l-0.8,14.8l-14.1,1.4l-0.5,8.7l12.6-1.2l-0.8,14.8l-12.6,1.2l-0.5,9.6l14.1-1.4l-0.8,14.8
		l-30.4,3L206.8,113.8z"/>
	<path class="st0" d="M242.9,151.6c2,3.3,5.8,6.4,10,6c2.2-0.2,4.9-1.9,5.1-4.6c0.1-1.5-0.3-2.5-1.1-3.4c-0.7-0.8-1.6-1.5-2.6-2.1
		c-3.1-2.3-5.7-4.4-7.7-7.2c-1.8-2.7-2.9-6.1-2.7-10.7c0.4-7.3,5.7-21.1,19.7-22.4c3.9-0.4,8.1,0.5,11.5,2l-1.1,19.1
		c-1.7-3-5.5-6.2-9.3-5.8c-1.9,0.2-4.3,1.8-4.5,4.2c-0.1,1.3,0.6,2.4,1.4,3.3c0.8,0.9,2,1.6,2.8,2.3c3.3,2.2,5.9,4.2,7.6,6.9
		c1.8,2.6,2.6,5.9,2.3,10.6c-0.7,11.7-9.1,21.7-20.5,22.8c-4.2,0.4-8.4-0.1-12.1-1.4L242.9,151.6z"/>
	<path class="st0" d="M284.8,106.2l30.4-3l-0.8,14.8l-14.1,1.4l-0.5,8.7l12.6-1.2l-0.8,14.8l-12.6,1.2l-0.5,9.6l14.1-1.4l-0.8,14.8
		l-30.4,3L284.8,106.2z"/>
	<path class="st0" d="M324.8,102.3l15.6-1.5l10.9,36.5l0.2-0.2c-0.2-7.2-1-14.2-0.6-21.5l0.9-16l15.7-1.5l-3.6,62.8l-15.7,1.5
		l-10.1-35l-0.2,0.2c0.1,5.9,0.5,11.6,0.1,17.5l-1.1,18.4l-15.7,1.5L324.8,102.3z"/>
	<path class="st0" d="M379.6,159.4l2.7-47.4l-9,0.9l0.9-15.3l34.8-3.4l-0.9,15.3l-9.4,0.9l-2.7,47.4L379.6,159.4z"/>
	<path class="st0" d="M433.8,154.1l-0.7-8l-11,1.1l-1.8,8.2l-16.9,1.6l18.1-64.2l20-1.9l9.3,61.5L433.8,154.1z M431.9,133l-0.9-14.4
		c-0.3-3.9-0.4-7.8-0.5-11.7l-0.2,0c-0.7,4-1.3,8-2.2,12l-3.1,14.8L431.9,133z"/>
</g>
</svg>
