<?xml version="1.0" encoding="utf-8"?>
<!-- Generator: Adobe Illustrator 19.2.0, SVG Export Plug-In . SVG Version: 6.00 Build 0)  -->
<svg version="1.1" id="Isolation_Mode" xmlns="http://www.w3.org/2000/svg" xmlns:xlink="http://www.w3.org/1999/xlink" x="0px"
	 y="0px" viewBox="0 0 809 479.6" style="enable-background:new 0 0 809 479.6;" xml:space="preserve">
<style type="text/css">
	.st0{fill:#FFFFFF;}
	.st1{fill:#0061A8;}
	.st2{fill:#F1C930;}
</style>
<g>
	<g>
		<path class="st0" d="M795,375.1l-26.4,3.9l-0.6,7l27.8-4.1c1.9-0.2,3.2-1.9,3-3.8C798.6,376.2,796.9,374.9,795,375.1z"/>
		<g>
			<g>
				<path class="st0" d="M13,220.9l1.8-56.5l-10.7,1.3l0.6-18.2l41.4-5.1l-0.6,18.2L34.4,162l-1.8,56.5L13,220.9z"/>
				<path class="st0" d="M102.5,135.5l-1.6,48.9c-0.3,9-2.8,27.4-25.4,30.2c-22.6,2.8-23.9-15.1-23.6-24.2l1.6-48.9l19.5-2.4
					l-1.5,47c-0.1,2-0.2,4.6,0.3,6.5c0.5,2,1.7,3.4,4.4,3.1c2.8-0.3,4.1-2.1,4.6-4.1c0.6-2.2,0.6-4.7,0.7-6.6l1.5-47.1L102.5,135.5z
					 M77.8,116.6l14.8-1.8l-10,17.8l-10.5,1.3L77.8,116.6z"/>
				<path class="st0" d="M152.8,203.8l1-31.7l-16.4-40.9l20.3-2.5l5.9,22.3l0.2,0l7.5-23.9l20.2-2.5l-18.2,45.1l-1,31.7L152.8,203.8
					z"/>
				<path class="st0" d="M231.6,194.2l1.8-56.5l-10.7,1.3l0.6-18.2l41.4-5.1l-0.6,18.2l-11.2,1.4l-1.8,56.5L231.6,194.2z"/>
				<path class="st0" d="M321.1,108.8l-1.6,48.9c-0.3,9-2.8,27.4-25.4,30.2s-23.9-15.1-23.6-24.2l1.6-48.9l19.5-2.4l-1.5,47
					c-0.1,2-0.2,4.6,0.3,6.5c0.5,2,1.7,3.4,4.4,3.1c2.8-0.3,4.1-2.1,4.6-4.1c0.6-2.2,0.6-4.7,0.7-6.6l1.5-47.1L321.1,108.8z"/>
				<path class="st0" d="M399.8,121c-2.7-2.4-4.9-3.7-8.9-3.3c-10.1,1.2-13,13.1-13.3,21.4c-0.3,8.7,1.8,19.5,11.6,18.3
					c4.4-0.5,7.2-2.7,10.5-6l-1.8,21.1c-4,2.3-7.6,3.6-11.9,4.1c-16,2-29.2-9-28.3-34.6c1.1-33.5,23.5-41.9,33-43
					c3.4-0.4,6.8-0.3,9.9,0.6L399.8,121z"/>
				<path class="st0" d="M441,168.6l-1.1-9.4l-13.1,1.6l-1.9,9.8l-20.1,2.5l19.8-76.9l23.8-2.9l12.9,72.9L441,168.6z M438.1,143.5
					l-1.5-17.1c-0.4-4.6-0.6-9.3-1-13.9l-0.2,0c-0.7,4.7-1.4,9.5-2.3,14.3l-3.2,17.7L438.1,143.5z"/>
				<path class="st0" d="M470,90.6l18.6-2.3l14.1,43.1l0.2-0.2c-0.5-8.5-1.6-16.9-1.4-25.5l0.6-19l18.8-2.3l-2.4,74.8l-18.8,2.3
					L486.6,120l-0.2,0.2c0.2,7,0.9,13.8,0.7,20.9l-0.7,21.9l-18.8,2.3L470,90.6z"/>
				<path class="st0" d="M537.1,156.8l1.8-56.5l-10.7,1.3l0.6-18.2l41.4-5.1l-0.6,18.2l-11.2,1.4l-1.8,56.5L537.1,156.8z"/>
				<path class="st0" d="M601.7,148.9l-1.1-9.4l-13.1,1.6l-1.9,9.8l-20.1,2.5l19.8-76.9l23.8-2.9l12.9,72.9L601.7,148.9z
					 M598.8,123.9l-1.5-17.1c-0.4-4.6-0.6-9.3-1-13.9l-0.2,0c-0.7,4.7-1.4,9.5-2.3,14.3l-3.2,17.7L598.8,123.9z"/>
				<path class="st0" d="M630.7,70.9l18.6-2.3l14.1,43.1l0.2-0.2c-0.5-8.5-1.6-16.9-1.4-25.5l0.6-19l18.8-2.3l-2.4,74.8l-18.8,2.3
					l-13.1-41.4l-0.2,0.2c0.2,7,0.9,13.8,0.7,20.9l-0.7,21.9l-18.8,2.3L630.7,70.9z"/>
				<path class="st0" d="M697.8,137.1l1.8-56.5L689,81.9l0.6-18.2l41.4-5.1l-0.6,18.2l-11.2,1.4l-1.8,56.5L697.8,137.1z"/>
				<path class="st0" d="M738.8,57.7l36.3-4.4l-0.6,17.6l-16.7,2l-0.3,10.4l15-1.8l-0.6,17.6l-15,1.8l-0.4,11.4l16.7-2l-0.6,17.6
					l-36.3,4.4L738.8,57.7z"/>
				<path class="st0" d="M59.6,242.9L58,291.8c-0.3,9-2.8,27.4-25.4,30.2C10,324.7,8.7,306.8,9,297.7l1.6-48.9l19.5-2.4l-1.5,47
					c-0.1,2-0.2,4.6,0.3,6.5c0.5,2,1.7,3.4,4.4,3.1c2.8-0.3,4.1-2.1,4.6-4.1c0.6-2.2,0.6-4.7,0.7-6.6l1.5-47.1L59.6,242.9z"/>
				<path class="st0" d="M98.4,312.6l-9.8-29.8l-0.2,0.2c0,3.7,0,7.3-0.1,11l-0.7,19.9l-19.5,2.4l2.4-74.8l18.8-2.3
					c16.9-2.1,29,1.6,28.4,21.3c-0.3,8.2-4,16-11.8,20.1l13.5,29.4L98.4,312.6z M90.2,273.6c5.2-0.6,8.1-5.6,8.3-10.5
					c0.2-6.5-3.5-8.9-8.9-7.9L89,273.6L90.2,273.6z"/>
				<path class="st0" d="M128.4,234.5l23-2.8c11.5-1.4,24.7,2.1,24.2,18.3c-0.3,8.4-5.8,15.6-14,16.6l0,0.2
					c9.5-0.4,14.4,5.2,14.1,15.2c-0.3,9.2-6.1,22-23.5,24.1l-26.2,3.2L128.4,234.5z M147.6,290.5c4.3-0.5,8.2-3.2,8.4-8.2
					c0.2-5.1-3.5-6.7-8-6.1l-1.5,0.2l-0.5,14.4L147.6,290.5z M148.1,261c4-0.5,7.8-2.6,8-7.5c0.1-4.5-2.8-6-6.8-5.5l-1.9,0.2
					l-0.4,12.9L148.1,261z"/>
				<path class="st0" d="M215.6,298.3l-1.1-9.4l-13.1,1.6l-1.9,9.8l-20.1,2.5l19.8-76.9l23.8-2.9l12.9,72.9L215.6,298.3z
					 M212.7,273.2l-1.5-17.1c-0.4-4.6-0.6-9.3-1-13.9l-0.2,0c-0.7,4.7-1.4,9.5-2.3,14.3l-3.2,17.7L212.7,273.2z"/>
				<path class="st0" d="M244.6,220.2l18.6-2.3l14.1,43.1l0.2-0.2c-0.5-8.5-1.6-16.9-1.4-25.5l0.6-19l18.8-2.3l-2.4,74.8l-18.8,2.3
					l-13.1-41.4l-0.2,0.2c0.2,7,0.9,13.8,0.7,20.9l-0.7,21.9l-18.8,2.3L244.6,220.2z"/>
				<path class="st0" d="M332.4,208.2c19.8-2.4,26.9,17.1,26.3,35.3c-0.6,18.2-9,39.6-28.8,42c-19.8,2.4-26.9-17.1-26.3-35.3
					C304.2,232,312.6,210.6,332.4,208.2z M330.5,266.7c7.4-0.9,8.1-16.1,8.3-20.8c0.2-4.7,0.4-19.8-7-18.9
					c-7.4,0.9-8.1,16.1-8.3,20.8C323.3,252.5,323.1,267.6,330.5,266.7z"/>
				<path class="st0" d="M395.7,276.2l2.4-74.8l34.4-4.2l-0.6,17.6l-14.9,1.8l-0.4,10.8l14-1.7l-0.6,17.6l-14,1.7l-0.9,28.7
					L395.7,276.2z"/>
				<path class="st0" d="M467.8,267.4l-1.1-9.4l-13.1,1.6l-1.9,9.8l-20.1,2.5l19.8-76.9l23.8-2.9l12.9,72.9L467.8,267.4z
					 M464.9,242.4l-1.5-17.1c-0.4-4.6-0.6-9.3-1-13.9l-0.2,0c-0.7,4.7-1.4,9.5-2.3,14.3l-3.2,17.7L464.9,242.4z"/>
				<path class="st0" d="M501.6,263.3l-14.1-72.7L508,188l3.6,30.2c0.7,5.9,0.9,11.8,1.5,17.8l0.2,0c1.1-6.2,1.5-12.1,2.8-18.3
					l6.4-31.4l21.1-2.6l-22.1,77.2L501.6,263.3z"/>
				<path class="st0" d="M574.7,178.6c19.8-2.4,26.9,17.1,26.3,35.3c-0.6,18.2-9,39.6-28.8,42s-26.9-17.1-26.3-35.3
					C546.5,202.4,554.9,181,574.7,178.6z M572.8,237.1c7.4-0.9,8.2-16.1,8.3-20.8c0.2-4.7,0.4-19.8-7-18.9
					c-7.4,0.9-8.2,16.1-8.3,20.8C565.7,222.8,565.4,238,572.8,237.1z"/>
				<path class="st0" d="M639.4,246.4l-9.8-29.8l-0.2,0.2c0,3.7,0,7.3-0.1,11l-0.7,19.9l-19.5,2.4l2.4-74.8l18.8-2.3
					c16.9-2.1,29,1.6,28.4,21.3c-0.3,8.2-4,16-11.8,20.1l13.5,29.4L639.4,246.4z M631.2,207.4c5.2-0.6,8.1-5.6,8.3-10.5
					c0.2-6.5-3.5-8.9-8.9-7.9l-0.6,18.4L631.2,207.4z"/>
				<path class="st0" d="M667,243l2.4-74.8l19.5-2.4l-2.4,74.8L667,243z"/>
				<path class="st0" d="M705.1,238.4l1.8-56.5l-10.7,1.3l0.6-18.2l41.4-5.1l-0.6,18.2l-11.2,1.4l-1.8,56.5L705.1,238.4z"/>
				<path class="st0" d="M771.5,154.5c19.8-2.4,26.9,17.1,26.3,35.3c-0.6,18.2-9,39.6-28.8,42s-26.9-17.1-26.3-35.3
					C743.3,178.3,751.7,156.9,771.5,154.5z M769.6,213c7.4-0.9,8.2-16.1,8.3-20.8c0.2-4.7,0.4-19.8-7-18.9s-8.1,16.1-8.3,20.8
					C762.4,198.8,762.2,213.9,769.6,213z"/>
				<path class="st0" d="M105.1,413.9l2.4-74.8l17.8-2.2c17-2.1,30,2.1,29.3,21.7c-0.6,19.4-12.3,26.8-29.2,28.4l-0.8,24.5
					L105.1,413.9z M128,352.6l-1.4,0.3l-0.6,17.3c5.3-0.4,8.8-3.8,9-9.4C135.1,356,132.7,352,128,352.6z"/>
				<path class="st0" d="M211.9,326.3l-1.6,48.9c-0.3,9-2.8,27.4-25.4,30.2c-22.6,2.8-23.9-15.1-23.6-24.2l1.6-48.9l19.5-2.4
					l-1.5,47c-0.1,2-0.2,4.6,0.3,6.5c0.5,2,1.7,3.4,4.4,3.1c2.8-0.3,4.1-2.1,4.6-4.1c0.6-2.2,0.6-4.7,0.7-6.6l1.5-47.1L211.9,326.3z
					"/>
				<path class="st0" d="M222.9,325l36.3-4.4l-0.6,17.6l-16.7,2l-0.3,10.4l15-1.8l-0.6,17.6l-15,1.8l-0.4,11.4l16.7-2l-0.6,17.6
					l-36.3,4.4L222.9,325z"/>
				<path class="st0" d="M270.6,319.2l15.7-1.9c22.2-2.7,33.7,10.3,32.9,32.9c-1.1,34.5-22.2,40.2-34,41.7l-17,2.1L270.6,319.2z
					 M288.3,373.5c8.9-1.2,10.8-12.9,11-19.9c0.3-8.1-0.9-19.2-9.8-18.2L288.3,373.5z"/>
				<path class="st0" d="M329.9,311.9l36.3-4.4l-0.6,17.6l-16.7,2l-0.3,10.4l15-1.8l-0.6,17.6l-15,1.8l-0.4,11.4l16.7-2l-0.6,17.6
					l-36.3,4.4L329.9,311.9z"/>
				<path class="st0" d="M377.6,306.1l18.6-2.3l14.1,43.1l0.2-0.2c-0.5-8.5-1.6-16.9-1.4-25.5l0.6-19l18.8-2.3l-2.4,74.8l-18.8,2.3
					l-13.1-41.4l-0.2,0.2c0.2,7,0.9,13.8,0.7,20.9l-0.7,21.9l-18.8,2.3L377.6,306.1z"/>
				<path class="st0" d="M519.8,320.1l0,3.2c-0.6,18.4-4.8,41.8-27.4,44.5c-21.2,2.6-27.5-15.9-26.9-34.8
					c0.6-18.5,8.1-39.9,29.2-42.5c11.7-1.4,20.1,5.1,24,15.4l-19.1,9.5c-0.1-3-1.9-7.4-5.3-7c-9,1.1-8.8,18.2-9,23.8
					c0.1,5.3-0.7,18.5,6.9,17.5c5.2-0.6,7-7.2,7-11.5l-7.2,0.9l0.5-15.8L519.8,320.1z"/>
				<path class="st0" d="M558.4,358.4l-1.1-9.4l-13.1,1.6l-1.9,9.8l-20.1,2.5l19.8-76.9l23.8-2.9l12.9,72.9L558.4,358.4z
					 M555.5,333.4l-1.5-17.1c-0.4-4.6-0.6-9.3-1-13.9l-0.2,0c-0.7,4.7-1.4,9.5-2.3,14.3l-3.2,17.7L555.5,333.4z"/>
				<path class="st0" d="M587.4,280.4l18.6-2.3l14.1,43.1l0.2-0.2c-0.5-8.5-1.6-16.9-1.4-25.5l0.6-19l18.8-2.3l-2.4,74.8l-18.8,2.3
					L604,309.9l-0.2,0.2c0.2,7,0.9,13.8,0.7,20.9l-0.7,21.9l-18.8,2.3L587.4,280.4z"/>
				<path class="st0" d="M678.6,343.7l-1.1-9.4l-13.1,1.6l-1.9,9.8l-20.1,2.5l19.8-76.9l23.8-2.9l12.9,72.9L678.6,343.7z
					 M675.7,318.7l-1.5-17.1c-0.4-4.6-0.6-9.3-1-13.9l-0.2,0c-0.7,4.7-1.4,9.5-2.3,14.3l-3.2,17.7L675.7,318.7z"/>
				<path class="st0" d="M735.5,336.8l-9.8-29.8l-0.2,0.2c0,3.7,0,7.3-0.1,11l-0.7,19.9l-19.5,2.4l2.4-74.8l18.8-2.3
					c16.9-2.1,29,1.6,28.4,21.3c-0.3,8.2-4,16-11.8,20.1l13.5,29.4L735.5,336.8z M727.3,297.8c5.2-0.6,8.1-5.6,8.3-10.5
					c0.2-6.5-3.5-8.9-8.9-7.9l-0.6,18.4L727.3,297.8z"/>
			</g>
		</g>
		<path class="st0" d="M26.7,472.7c0.2,1.6,1.5,2.9,3.1,3c0.2,0,0.5,0,0.7,0l223.1-27.2l0.6-7L29.7,468.9
			C27.9,469.1,26.5,470.8,26.7,472.7z"/>
		<path class="st0" d="M715.6,13c-0.2-1.9-1.9-3.2-3.8-3l-670,82.3c-1.9,0.2-3.2,1.9-3,3.8c0.2,1.6,1.5,2.9,3.1,3c0.2,0,0.5,0,0.7,0
			l670-82.3C714.5,16.6,715.8,14.9,715.6,13z"/>
	</g>
</g>
<g>
	<path class="st1" d="M625.5,367.1l12-1.4l2.4,20.3c1-1.6,2.2-2.9,3.4-3.8c1.3-0.9,2.6-1.4,4.1-1.6c3.7-0.4,6.9,1,9.7,4.4
		c2.7,3.3,4.4,7.4,5,12.3c0.6,5.5-0.2,10.3-2.5,14.4c-2.3,4.1-5.3,6.4-9,6.9c-1.4,0.2-2.7,0-4.1-0.5c-1.3-0.5-2.7-1.3-4-2.5
		l-2.9,3.5l-7.8,0.9L625.5,367.1z M642.5,407.2c0.6,0.6,1.2,1,1.8,1.3c0.6,0.3,1.2,0.4,1.8,0.3c1.4-0.2,2.4-1.1,3.1-2.8
		c0.7-1.7,0.9-4,0.5-6.8c-0.3-2.6-0.9-4.6-1.8-6c-0.9-1.4-2-2-3.4-1.8c-1.3,0.1-2.1,0.8-2.6,2c-0.5,1.2-0.6,2.9-0.4,5.2L642.5,407.2
		z"/>
	<path class="st1" d="M668,361.3c1.7-0.2,3.3,0.2,4.7,1.3c1.5,1,2.4,2.5,2.6,4.4c0.2,1.8-0.3,3.4-1.4,4.8c-1.2,1.4-2.6,2.2-4.4,2.4
		c-1.8,0.2-3.5-0.2-4.9-1.4c-1.4-1.1-2.2-2.6-2.4-4.3c-0.2-1.8,0.3-3.4,1.4-4.7C664.7,362.3,666.2,361.5,668,361.3z M663.8,379.6
		l12.3-1.4l4.2,36.1l-12.3,1.4L663.8,379.6z"/>
	<path class="st1" d="M693.1,380.3c0.9-1.8,2-3.1,3.3-4.1c1.3-1,2.8-1.6,4.4-1.7c3.9-0.5,7.2,1,9.9,4.3c2.7,3.4,4.4,7.5,5,12.5
		c0.4,3.6,0.2,7-0.6,10c-0.8,3.1-2.2,5.6-4,7.6c-1.8,2-4.1,3.1-6.7,3.4c-1.2,0.1-2.5,0-3.7-0.3c-1.2-0.4-2.5-1-3.7-1.9l2.2,19
		l-12.1,1.4l-6.2-53l10.4-1.2L693.1,380.3z M696,400.8c0.5,0.6,1.1,1,1.7,1.3c0.6,0.3,1.2,0.4,1.9,0.3c1.5-0.2,2.5-1.1,3.2-2.8
		c0.6-1.7,0.8-3.8,0.5-6.6c-0.3-2.8-1-4.8-1.9-6.2c-1-1.4-2.1-2-3.4-1.8c-1.3,0.2-2.2,0.8-2.7,1.9c-0.5,1.2-0.6,2.8-0.4,5L696,400.8
		z"/>
	<g>
		<path class="st1" d="M730.8,399.4c2.8,0.8,4.8,2.4,6,4.6c1.2,2.3,1.5,4.6,0.7,7.1c-0.8,2.5-2.3,4.4-4.6,5.6
			c-2.3,1.2-4.7,1.5-7.2,0.8c-2.5-0.7-4.4-2.2-5.6-4.5c-1.2-2.3-1.5-4.6-0.7-7.1c0.8-2.5,2.3-4.4,4.7-5.6
			C726.4,399,728.7,398.7,730.8,399.4z"/>
		<polygon class="st1" points="754.9,351.7 739.5,395.7 726.1,391.8 736.9,346.4 		"/>
	</g>
	<g>
		<g>
			<path class="st2" d="M346.3,464.5l-10.9,1.3l-1.7-14.4c-0.8,0.9-1.7,1.6-2.7,2.2c-1.8,1.1-4,1.8-6.5,2.1c-2.2,0.3-4,0-5.6-0.8
				c-1.5-0.8-2.7-1.9-3.7-3.4c-0.9-1.4-1.6-3.1-2.1-5.1c-0.5-1.9-0.9-4-1.1-6.2l-0.5-4c-0.3-2.6-0.4-4.9-0.4-7
				c0-2.2,0.3-4.1,0.9-5.7c0.6-1.7,1.7-3.1,3.2-4.1c1.5-1,3.5-1.7,5.9-2c2.5-0.3,4.8,0,6.6,0.8c1.1,0.5,2.1,1.1,3,1.9l0.1-2.2
				l9.8-1.2L346.3,464.5z M326,426.1c-1,0.1-1.8,0.4-2.3,0.7c-0.5,0.3-0.8,0.8-1.1,1.4c-0.3,0.7-0.4,1.6-0.4,2.6
				c0,1.2,0.1,2.5,0.3,4.1l0.5,4c0.1,1.1,0.3,2.2,0.6,3.2c0.2,0.9,0.5,1.7,1,2.4c0.4,0.6,0.9,1,1.5,1.3c0.6,0.3,1.3,0.4,2.3,0.3
				c1-0.1,1.8-0.4,2.3-0.7c0.5-0.4,0.9-0.8,1.2-1.3c0.3-0.5,0.4-1.1,0.4-1.8c0-0.7,0-1.4-0.1-2l-1-8.6c-0.1-0.7-0.2-1.4-0.4-2.2
				c-0.2-0.7-0.4-1.3-0.8-1.9c-0.3-0.5-0.8-0.9-1.4-1.2C327.9,426,327.1,426,326,426.1z"/>
		</g>
		<g>
			<path class="st2" d="M359.4,451.7c-1.9,0.2-3.7,0.2-5.2-0.2c-1.6-0.4-3-1.2-4.1-2.3c-1.1-1.1-2-2.7-2.7-4.6
				c-0.7-1.9-1.2-4.2-1.5-7l-2.5-21.1l11.1-1.3l2.3,19.8c0.2,1.7,0.4,3.2,0.7,4.3c0.2,1,0.5,1.8,0.9,2.4c0.3,0.5,0.7,0.7,1.2,0.9
				c0.6,0.2,1.4,0.2,2.4,0.1c0.9-0.1,1.6-0.3,2.1-0.7c0.5-0.4,1-0.8,1.3-1.4c0.3-0.5,0.5-1.2,0.5-1.8c0.1-0.7,0.1-1.5,0.1-2.2
				l-2.6-22.3l11.1-1.3l4.2,36.1L369,450l-0.8-3c-0.7,1-1.6,1.8-2.6,2.5C364,450.6,361.9,451.4,359.4,451.7z"/>
		</g>
		<g>
			<path class="st2" d="M396.5,447.3c-2.9,0.3-5.4,0.2-7.4-0.5c-2-0.7-3.7-1.7-5.1-3.1c-1.3-1.4-2.3-3-3-4.8
				c-0.6-1.8-1.1-3.6-1.3-5.5l-0.8-6.9c-0.2-1.9-0.2-3.7,0-5.5c0.2-1.9,0.8-3.7,1.8-5.2c1-1.6,2.4-3,4.2-4.1
				c1.8-1.1,4.2-1.9,7.1-2.2c2.6-0.3,5-0.2,6.9,0.4c1.9,0.6,3.6,1.6,4.9,2.9c1.3,1.3,2.3,2.9,3,4.8c0.7,1.8,1.2,3.8,1.4,6l0.5,4.7
				l0.1,1.2l-18.2,2.1l0,0.1c0.4,3.2,0.9,5.4,1.6,6.6c0.4,0.6,1.1,1.4,3.2,1.2c1.6-0.2,2-0.8,2.2-1.3c0.4-1,0.5-2.5,0.4-4.3l0-0.7
				l2.2-0.2l8.8-1l0.1,1.3c0.1,1.5-0.1,3-0.6,4.5c-0.4,1.5-1.2,3-2.2,4.3c-1,1.3-2.4,2.5-4,3.4C400.9,446.4,398.9,447,396.5,447.3z
				 M390,424.8l7.1-0.8c-0.2-1.2-0.3-2.3-0.5-3.2c-0.2-1-0.4-1.7-0.8-2.3c-0.3-0.5-0.6-0.8-1-1c-0.4-0.2-1-0.3-1.8-0.2
				c-2.1,0.2-2.7,1.2-2.9,1.8C389.8,420.2,389.7,422.1,390,424.8z"/>
		</g>
		<g>
			<path class="st1" d="M494.8,435.7c-2.9,0.3-5.4,0.2-7.4-0.5c-2-0.7-3.7-1.7-5.1-3.1c-1.3-1.4-2.3-3-3-4.8
				c-0.6-1.8-1.1-3.6-1.3-5.5l-0.8-6.9c-0.2-1.9-0.2-3.7,0-5.5c0.2-1.9,0.8-3.7,1.8-5.2c1-1.6,2.4-3,4.2-4.1
				c1.8-1.1,4.2-1.9,7.1-2.2c2.6-0.3,5-0.2,6.9,0.4c1.9,0.6,3.6,1.6,4.9,2.9c1.3,1.3,2.3,2.9,3,4.8c0.7,1.8,1.2,3.8,1.4,6l0.5,4.7
				l0.1,1.2l-18.2,2.1l0,0.1c0.4,3.2,0.9,5.4,1.6,6.6c0.4,0.6,1.1,1.4,3.2,1.2c1.6-0.2,2-0.8,2.2-1.3c0.4-1,0.5-2.5,0.4-4.3l0-0.7
				l2.2-0.2l8.8-1l0.1,1.3c0.1,1.5-0.1,3-0.6,4.5c-0.4,1.5-1.2,3-2.2,4.3c-1,1.3-2.4,2.5-4,3.4C499.1,434.8,497.1,435.4,494.8,435.7
				z M488.3,413.2l7.1-0.8c-0.2-1.2-0.3-2.3-0.5-3.2c-0.2-1-0.4-1.7-0.8-2.3c-0.3-0.5-0.6-0.8-1-1c-0.4-0.2-1-0.3-1.8-0.2
				c-2.1,0.3-2.7,1.2-2.9,1.8C488,408.6,488,410.6,488.3,413.2z"/>
		</g>
		<g>
			<path class="st1" d="M560.8,428c-2.9,0.3-5.4,0.2-7.4-0.5c-2-0.7-3.7-1.7-5.1-3.1c-1.3-1.4-2.3-3-3-4.8c-0.6-1.8-1.1-3.6-1.3-5.5
				l-0.8-6.9c-0.2-1.9-0.2-3.7,0-5.5c0.2-1.9,0.8-3.7,1.8-5.2c1-1.6,2.4-3,4.2-4.1c1.8-1.1,4.2-1.9,7.1-2.2c2.6-0.3,5-0.2,6.9,0.4
				c1.9,0.6,3.6,1.6,4.9,2.9c1.3,1.3,2.3,2.9,3,4.8c0.7,1.8,1.2,3.8,1.4,6l0.5,4.7l0.1,1.2l-18.2,2.1l0,0.1c0.4,3.2,0.9,5.4,1.6,6.6
				c0.4,0.6,1.1,1.4,3.2,1.2c1.6-0.2,2-0.8,2.2-1.3c0.4-1,0.5-2.5,0.4-4.3l0-0.7l2.2-0.2l8.8-1l0.1,1.3c0.1,1.5-0.1,3-0.6,4.5
				c-0.4,1.5-1.2,3-2.2,4.3c-1,1.3-2.4,2.5-4,3.4C565.2,427.1,563.2,427.7,560.8,428z M554.3,405.5l7.1-0.8
				c-0.2-1.2-0.3-2.3-0.5-3.2c-0.2-1-0.4-1.7-0.8-2.3c-0.3-0.5-0.6-0.8-1-1c-0.4-0.2-1-0.3-1.8-0.2c-2.1,0.2-2.7,1.2-2.9,1.8
				C554.1,400.9,554,402.8,554.3,405.5z"/>
		</g>
		<g>
			<path class="st1" d="M428.3,443.5c-2.3,0.3-4.5,0.2-6.4-0.2c-1.9-0.4-3.6-1.2-5.1-2.2c-1.4-1.1-2.6-2.5-3.4-4.1
				c-0.8-1.6-1.2-3.6-1.2-5.7l0-0.9l9.8-1.1l1.5,1.3l0,0.4c0.1,1.6,0.4,2.9,1,3.9c0.2,0.3,0.7,1.1,2.9,0.9c1.6-0.2,2.6-0.6,3-1.2
				c0.5-0.6,0.6-1.4,0.5-2.5c-0.1-0.7-0.3-1.3-0.7-1.7c-0.4-0.5-1-0.9-1.7-1.2c-0.8-0.4-1.6-0.7-2.6-0.9c-1-0.3-2.1-0.5-3.2-0.8
				c-1.2-0.3-2.4-0.5-3.6-0.9c-1.3-0.3-2.4-0.8-3.5-1.4c-1.1-0.6-2-1.4-2.8-2.3c-0.8-1-1.4-2.2-1.6-3.6c-0.3-1.6-0.3-3.2,0-4.8
				c0.4-1.6,1.1-3,2.3-4.3c1.1-1.2,2.6-2.3,4.4-3.1c1.8-0.8,4-1.4,6.5-1.7c4.3-0.5,7.8,0.2,10.4,2c2.7,1.8,4.3,4.6,4.6,8.3l0.1,0.9
				l-8.6,2.3l-2.1-1l-0.1-0.5c-0.2-1.5-0.6-2.6-1.1-3.4c-0.4-0.6-1.2-0.8-2.6-0.6c-0.9,0.1-2.1,0.4-2.5,1.1
				c-0.4,0.7-0.6,1.4-0.5,2.3c0.1,0.8,0.4,1.4,0.8,1.9c0.5,0.5,1.2,1,2,1.3c0.9,0.3,1.8,0.6,2.9,0.8c1.2,0.2,2.4,0.5,3.6,0.7
				c1.1,0.2,2.3,0.5,3.4,0.8c1.2,0.3,2.3,0.8,3.2,1.5c1,0.6,1.8,1.5,2.5,2.5c0.7,1,1.1,2.3,1.3,3.9c0.2,1.4,0.1,2.9-0.3,4.3
				c-0.4,1.5-1.1,2.9-2.2,4.1c-1.1,1.2-2.6,2.3-4.4,3.2C433.2,442.6,431,443.2,428.3,443.5z"/>
		</g>
		<g>
			<path class="st1" d="M457.7,440.1c-1.9,0.2-3.7,0.2-5.2-0.2c-1.6-0.4-3-1.2-4.1-2.3c-1.1-1.1-2-2.7-2.7-4.6
				c-0.7-1.9-1.2-4.2-1.5-7l-2.5-21.1l11.1-1.3l2.3,19.8c0.2,1.7,0.4,3.2,0.7,4.3c0.2,1,0.5,1.8,0.9,2.4c0.3,0.5,0.7,0.7,1.2,0.9
				c0.6,0.2,1.4,0.2,2.4,0.1c0.9-0.1,1.6-0.3,2.1-0.7c0.5-0.4,1-0.8,1.3-1.4c0.3-0.5,0.5-1.2,0.5-1.8c0.1-0.7,0.1-1.5,0.1-2.2
				l-2.6-22.3l11.1-1.3l4.2,36.1l-9.8,1.1l-0.8-3c-0.7,1-1.6,1.8-2.6,2.5C462.3,439.1,460.2,439.9,457.7,440.1z"/>
		</g>
		<g>
			<path class="st1" d="M543,429.5l-11.1,1.3l-2.6-22.4c-0.3-2.9-1-4.2-1.5-4.8c-0.8-0.9-2.5-0.9-3.8-0.7c-0.9,0.1-1.6,0.3-2.1,0.7
				c-0.5,0.4-0.9,0.8-1.1,1.3c-0.3,0.5-0.4,1.1-0.5,1.7c-0.1,0.7,0,1.4,0,2.2l2.7,23.2l-11.1,1.3l-4.2-36.1l9.7-1.1l0.8,2.6
				c2.1-3.1,5.3-4.9,9.6-5.4c2.5-0.3,4.4-0.2,5.9,0.4c1.6,0.6,2.8,1.5,3.7,2.9c0.9,1.3,1.5,2.8,1.9,4.7c0.4,1.7,0.7,3.8,0.9,6
				L543,429.5z"/>
		</g>
		<g>
			<path class="st2" d="M589.7,424.7c-2.6,0.3-4.8-0.2-6.5-1.4c-2.7-1.9-4.4-5.8-5.1-11.9l-1.7-14.2l-3.2,0.4l-0.9-7.9l3.2-0.4
				l-0.9-7.8l7.7-2.9l3.2-0.4l1.2,9.9l4.3-0.5l0.9,7.9l-4.3,0.5l1.6,13.8c0.2,1.4,0.4,2.5,0.6,3.3c0.2,0.7,0.4,1.3,0.7,1.6
				c0.2,0.3,0.5,0.4,0.8,0.5c0.4,0.1,1.1,0.1,1.8-0.1l1.1-0.2l1,8.5l-0.7,0.3C592.6,424.1,591.1,424.5,589.7,424.7z"/>
		</g>
		<g>
			<path class="st2" d="M608.9,422.4c-1.9,0.2-3.7,0.2-5.2-0.2c-1.6-0.4-3-1.2-4.1-2.3c-1.1-1.1-2-2.7-2.7-4.6
				c-0.7-1.9-1.2-4.2-1.5-7l-2.5-21.1l11.1-1.3l2.3,19.8c0.2,1.7,0.4,3.2,0.7,4.3c0.2,1,0.5,1.8,0.9,2.4c0.3,0.5,0.7,0.7,1.2,0.9
				c0.6,0.2,1.4,0.2,2.4,0.1c0.9-0.1,1.6-0.3,2.1-0.7c0.5-0.4,1-0.8,1.3-1.4c0.3-0.5,0.5-1.2,0.5-1.8c0.1-0.7,0.1-1.5,0.1-2.2
				l-2.6-22.3l11.1-1.3l4.2,36.1l-9.8,1.1l-0.8-3c-0.7,1-1.6,1.8-2.6,2.5C613.5,421.3,611.4,422.1,608.9,422.4z"/>
		</g>
	</g>
	<g>
		<g>
			<path class="st1" d="M299.2,471.9l-7.3,0.9l0.2-14.7l-4.8,0.6l-0.1,14.7l-7.3,0.9l0.2-14.7l-5.9,0.7l-0.8-7.2l7-0.8l0.1-8
				l-6.2,0.7l-0.8-7.2l7.2-0.8l0.3-14.4l7.3-0.9l-0.3,14.4l4.9-0.6l0.2-14.4l7.3-0.9l-0.2,14.4l5.9-0.7l0.8,7.2l-6.9,0.8l-0.1,8
				l6.2-0.7l0.9,7.2l-7.2,0.8L299.2,471.9z M287.4,451.2l4.8-0.6l0.1-8l-4.8,0.6L287.4,451.2z"/>
		</g>
	</g>
</g>
</svg>
