<?xml version="1.0" encoding="utf-8"?>
<!-- Generator: Adobe Illustrator 19.2.0, SVG Export Plug-In . SVG Version: 6.00 Build 0)  -->
<svg version="1.1" id="Capa_1" xmlns="http://www.w3.org/2000/svg" xmlns:xlink="http://www.w3.org/1999/xlink" x="0px" y="0px"
	 viewBox="0 0 462 214.5" style="enable-background:new 0 0 462 214.5;" xml:space="preserve">
<style type="text/css">
	.st0{fill:#FFFFFF;}
	.st1{font-family:'Futura-CondExtraBoldObl';}
	.st2{font-size:43.3312px;}
	.st3{fill:#216BB3;}
</style>
<path class="st0" d="M407.2,165.7l-11.8,1.8l-0.3,3.1l12.5-1.8c0.8-0.1,1.4-0.9,1.3-1.7C408.8,166.2,408,165.6,407.2,165.7"/>
<g>
	<path class="st0" d="M9.3,101.1L2.9,68.4l9.2-1.1l1.6,13.6c0.3,2.7,0.4,5.3,0.7,8l0.1,0c0.5-2.8,0.7-5.5,1.3-8.2l2.9-14.1l9.5-1.2
		L18.2,100L9.3,101.1z"/>
	<path class="st0" d="M42.1,63c8.9-1.1,12.1,7.7,11.8,15.9c-0.3,8.2-4.1,17.8-13,18.9s-12.1-7.7-11.8-15.9
		C29.4,73.7,33.2,64.1,42.1,63z M41.3,89.3c3.3-0.4,3.7-7.2,3.7-9.3s0.2-8.9-3.1-8.5s-3.7,7.2-3.7,9.3C38,82.9,37.9,89.7,41.3,89.3z
		"/>
	<path class="st0" d="M60.8,94.8l0.8-25.4l-4.8,0.6l0.3-8.2l18.6-2.3l-0.3,8.2l-5,0.6l-0.8,25.4L60.8,94.8z"/>
	<path class="st0" d="M92.2,90.9l-0.5-4.2l-5.9,0.7L85,91.8l-9,1.1l8.9-34.6L95.5,57l5.8,32.8L92.2,90.9z M90.9,79.7L90.2,72
		c-0.2-2.1-0.3-4.2-0.4-6.3l-0.1,0c-0.3,2.1-0.6,4.3-1,6.4l-1.5,7.9L90.9,79.7z"/>
	<path class="st0" d="M117.2,87.9l1.1-33.6l8-1c7.7-0.9,13.5,0.9,13.2,9.8c-0.3,8.7-5.5,12-13.1,12.8l-0.4,11L117.2,87.9z
		 M127.5,60.3l-0.6,0.1l-0.3,7.8c2.4-0.2,4-1.7,4-4.2C130.7,61.8,129.6,60.1,127.5,60.3z"/>
	<path class="st0" d="M154.8,49.2c8.9-1.1,12.1,7.7,11.8,15.9c-0.3,8.2-4.1,17.8-13,18.9c-8.9,1.1-12.1-7.7-11.8-15.9
		C142.1,59.9,145.9,50.3,154.8,49.2z M153.9,75.5c3.3-0.4,3.7-7.2,3.7-9.3c0.1-2.1,0.2-8.9-3.1-8.5c-3.3,0.4-3.7,7.2-3.7,9.3
		C150.7,69.1,150.6,75.9,153.9,75.5z"/>
	<path class="st0" d="M183.9,79.7l-4.4-13.4l-0.1,0.1c0,1.6,0,3.3,0,4.9l-0.3,9l-8.8,1.1l1.1-33.6l8.5-1c7.6-0.9,13,0.7,12.8,9.6
		c-0.1,3.7-1.8,7.2-5.3,9l6.1,13.2L183.9,79.7z M180.2,62.2c2.3-0.3,3.6-2.5,3.7-4.7c0.1-2.9-1.6-4-4-3.6l-0.3,8.3L180.2,62.2z"/>
	<path class="st0" d="M212.5,76.2l0.8-25.4l-4.8,0.6l0.3-8.2l18.6-2.3l-0.3,8.2l-5,0.6l-0.8,25.4L212.5,76.2z"/>
	<path class="st0" d="M252.7,37.8l-0.7,22c-0.1,4.1-1.3,12.3-11.4,13.6s-10.7-6.8-10.6-10.9l0.7-22l8.8-1.1l-0.7,21.1
		c0,0.9-0.1,2.1,0.1,2.9c0.2,0.9,0.8,1.5,2,1.4c1.2-0.2,1.8-0.9,2.1-1.9c0.3-1,0.3-2.1,0.3-3l0.7-21.2L252.7,37.8z"/>
	<path class="st0" d="M288.1,43.3c-1.2-1.1-2.2-1.7-4-1.5c-4.6,0.6-5.8,5.9-6,9.6c-0.1,3.9,0.8,8.8,5.2,8.2c2-0.2,3.3-1.2,4.7-2.7
		l-0.8,9.5c-1.8,1-3.4,1.6-5.3,1.9c-7.2,0.9-13.1-4-12.7-15.5c0.5-15.1,10.6-18.8,14.8-19.3c1.5-0.2,3-0.1,4.4,0.3L288.1,43.3z"/>
	<path class="st0" d="M306.6,64.7l-0.5-4.2l-5.9,0.7l-0.9,4.4l-9,1.1l8.9-34.6l10.7-1.3l5.8,32.8L306.6,64.7z M305.3,53.4l-0.7-7.7
		c-0.2-2.1-0.3-4.2-0.4-6.3l-0.1,0c-0.3,2.1-0.6,4.3-1,6.4l-1.5,7.9L305.3,53.4z"/>
	<path class="st0" d="M319.6,29.6l8.3-1l6.3,19.4l0.1-0.1c-0.2-3.8-0.7-7.6-0.6-11.5l0.3-8.6l8.4-1l-1.1,33.6l-8.4,1l-5.9-18.6
		L327,43c0.1,3.1,0.4,6.2,0.3,9.4l-0.3,9.9l-8.4,1L319.6,29.6z"/>
	<path class="st0" d="M349.8,59.4l0.8-25.4l-4.8,0.6l0.3-8.2l18.6-2.3l-0.3,8.2l-5,0.6l-0.8,25.4L349.8,59.4z"/>
	<path class="st0" d="M381.2,55.6l-0.5-4.2l-5.9,0.7l-0.9,4.4l-9,1.1l8.9-34.6l10.7-1.3l5.8,32.8L381.2,55.6z M379.9,44.3l-0.7-7.7
		c-0.2-2.1-0.3-4.2-0.4-6.3l-0.1,0c-0.3,2.1-0.6,4.3-1,6.4l-1.5,7.9L379.9,44.3z"/>
	<path class="st0" d="M394.3,20.5l8.3-1l6.3,19.4l0.1-0.1c-0.2-3.8-0.7-7.6-0.6-11.5l0.3-8.6l8.4-1L416,51.3l-8.4,1l-5.9-18.6
		l-0.1,0.1c0.1,3.1,0.4,6.2,0.3,9.4l-0.3,9.9l-8.4,1L394.3,20.5z"/>
	<path class="st0" d="M424.4,50.3l0.8-25.4l-4.8,0.6l0.3-8.2l18.6-2.3l-0.3,8.2l-5,0.6l-0.8,25.4L424.4,50.3z"/>
	<path class="st0" d="M442.9,14.5l16.3-2l-0.3,7.9l-7.5,0.9l-0.2,4.7l6.8-0.8l-0.3,7.9L451,34l-0.2,5.1l7.5-0.9l-0.3,7.9l-16.3,2
		L442.9,14.5z"/>
</g>
<g>
	<path class="st0" d="M49.2,108.6l-0.7,22c-0.1,4.1-1.3,12.3-11.4,13.6s-10.7-6.8-10.6-10.9l0.7-22l8.8-1.1l-0.7,21.1
		c0,0.9-0.1,2.1,0.1,2.9c0.2,0.9,0.8,1.6,2,1.4c1.2-0.2,1.8-0.9,2.1-1.9c0.3-1,0.3-2.1,0.3-3l0.7-21.2L49.2,108.6z"/>
	<path class="st0" d="M66.6,140l-4.4-13.4l-0.1,0.1c0,1.6,0,3.3,0,4.9l-0.3,9l-8.8,1.1l1.1-33.6l8.5-1c7.6-0.9,13,0.7,12.8,9.6
		c-0.1,3.7-1.8,7.2-5.3,9l6.1,13.2L66.6,140z M62.9,122.4c2.3-0.3,3.6-2.5,3.7-4.7c0.1-2.9-1.6-4-4-3.6l-0.3,8.3L62.9,122.4z"/>
	<path class="st0" d="M80.1,104.8l10.3-1.3c5.2-0.6,11.1,0.9,10.9,8.2c-0.1,3.8-2.6,7-6.3,7.5l0,0.1c4.3-0.2,6.5,2.3,6.3,6.8
		c-0.1,4.1-2.7,9.9-10.6,10.8L79,138.4L80.1,104.8z M88.7,130c1.9-0.2,3.7-1.4,3.8-3.7c0.1-2.3-1.6-3-3.6-2.8l-0.7,0.1l-0.2,6.5
		L88.7,130z M89,116.8c1.8-0.2,3.5-1.2,3.6-3.4c0.1-2-1.2-2.7-3-2.5l-0.9,0.1l-0.2,5.8L89,116.8z"/>
	<path class="st0" d="M119.3,133.5l-0.5-4.2l-5.9,0.7l-0.9,4.4l-9,1.1l8.9-34.6l10.7-1.3l5.8,32.8L119.3,133.5z M118,122.3l-0.7-7.7
		c-0.2-2.1-0.3-4.2-0.4-6.2l-0.1,0c-0.3,2.1-0.6,4.3-1,6.4l-1.5,7.9L118,122.3z"/>
	<path class="st0" d="M132.4,98.4l8.3-1l6.3,19.4l0.1-0.1c-0.2-3.8-0.7-7.6-0.6-11.5l0.3-8.6l8.4-1l-1.1,33.6l-8.4,1l-5.9-18.6
		l-0.1,0.1c0.1,3.1,0.4,6.2,0.3,9.4l-0.3,9.9l-8.4,1L132.4,98.4z"/>
	<path class="st0" d="M171.8,93c8.9-1.1,12.1,7.7,11.8,15.9c-0.3,8.2-4.1,17.8-13,18.9c-8.9,1.1-12.1-7.7-11.8-15.9
		C159.1,103.7,162.9,94.1,171.8,93z M171,119.3c3.3-0.4,3.7-7.2,3.7-9.3c0.1-2.1,0.2-8.9-3.1-8.5c-3.3,0.4-3.7,7.2-3.7,9.3
		C167.7,112.9,167.6,119.7,171,119.3z"/>
	<path class="st0" d="M206.1,122.9l0.5-14.3l-7.4-18.4l9.1-1.1l2.7,10l0.1,0l3.4-10.8l9.1-1.1l-8.2,20.3l-0.5,14.3L206.1,122.9z"/>
	<path class="st0" d="M262.3,96.7l0,1.4c-0.3,8.3-2.2,18.8-12.3,20c-9.5,1.2-12.4-7.1-12.1-15.7c0.3-8.3,3.6-17.9,13.1-19.1
		c5.2-0.6,9,2.3,10.8,6.9l-8.6,4.3c0-1.3-0.8-3.3-2.4-3.1c-4,0.5-4,8.2-4,10.7c0,2.4-0.3,8.3,3.1,7.9c2.3-0.3,3.1-3.2,3.2-5.2
		l-3.2,0.4l0.2-7.1L262.3,96.7z"/>
	<path class="st0" d="M279.6,113.9l-0.5-4.2l-5.9,0.7l-0.9,4.4l-9,1.1l8.9-34.6l10.7-1.3l5.8,32.8L279.6,113.9z M278.3,102.6
		l-0.7-7.7c-0.2-2.1-0.3-4.2-0.4-6.3l-0.1,0c-0.3,2.1-0.6,4.3-1,6.4l-1.5,7.9L278.3,102.6z"/>
	<path class="st0" d="M292.7,78.8l8.3-1l6.3,19.4l0.1-0.1c-0.2-3.8-0.7-7.6-0.6-11.5l0.3-8.6l8.4-1l-1.1,33.6l-8.4,1l-5.9-18.6
		l-0.1,0.1c0.1,3.1,0.4,6.2,0.3,9.4l-0.3,9.9l-8.4,1L292.7,78.8z"/>
	<path class="st0" d="M333.7,107.3l-0.5-4.2l-5.9,0.7l-0.9,4.4l-9,1.1l8.9-34.6l10.7-1.3l5.8,32.8L333.7,107.3z M332.4,96l-0.7-7.7
		c-0.2-2.1-0.3-4.2-0.4-6.2l-0.1,0c-0.3,2.1-0.6,4.3-1,6.4l-1.5,7.9L332.4,96z"/>
	<path class="st0" d="M381.5,68l-0.7,22c-0.1,4.1-1.3,12.3-11.4,13.6c-10.2,1.2-10.7-6.8-10.6-10.9l0.7-22l8.8-1.1l-0.7,21.1
		c0,0.9-0.1,2.1,0.1,2.9c0.2,0.9,0.8,1.6,2,1.4c1.2-0.2,1.8-0.9,2.1-1.9c0.3-1,0.3-2.1,0.3-3l0.7-21.2L381.5,68z"/>
	<path class="st0" d="M386.5,67.4l8.3-1l6.3,19.4l0.1-0.1c-0.2-3.8-0.7-7.6-0.6-11.5l0.3-8.6l8.4-1l-1.1,33.6l-8.4,1l-5.9-18.6
		l-0.1,0.1c0.1,3.1,0.4,6.2,0.3,9.4l-0.3,9.9l-8.4,1L386.5,67.4z"/>
	<path class="st0" d="M427.5,95.8l-0.5-4.2l-5.9,0.7l-0.9,4.4l-9,1.1l8.9-34.6l10.7-1.3l5.8,32.8L427.5,95.8z M426.2,84.6l-0.7-7.7
		c-0.2-2.1-0.3-4.2-0.4-6.2l-0.1,0c-0.3,2.1-0.6,4.3-1,6.4l-1.5,7.9L426.2,84.6z"/>
</g>
<g>
	<path class="st0" d="M86.9,148l8.4-1L94.9,159l-0.2,3.2l0.1,0.1c1.1-2.5,2.8-4.2,5.4-4.5c6.2-0.8,7,6.7,6.9,11.6
		c-0.1,3.3-1,12.1-7.7,12.9c-2.6,0.3-4-1-5-3l-0.1,0.1l0.1,3.1l-8.6,1.1L86.9,148z M98.3,170.1c0-1.5,0-4.8-2.1-4.6
		c-1.7,0.2-2,3.8-2,5c0,1.4-0.1,4.9,1.9,4.7C98,175,98.3,171.4,98.3,170.1z"/>
	<path class="st0" d="M110.2,180.5l0.8-23.5l8.4-1l-0.8,23.5L110.2,180.5z M110.5,149.7c0.1-2.8,2.4-5.3,5-5.7
		c2.7-0.3,4.9,1.6,4.8,4.4c-0.1,2.8-2.3,5.4-5.1,5.8C112.6,154.5,110.4,152.5,110.5,149.7z"/>
	<path class="st0" d="M132,157.7L132,157.7c1.1-2.3,2.8-4.1,5.3-4.4c5.8-0.7,7.2,6.6,7,11.4c-0.2,4.6-1.7,12.4-7.5,13.1
		c-2.6,0.3-4.1-1-5.3-3l-0.1,0.1c0,1.5,0.1,2.9,0.1,4.3l-0.3,9.3l-8.4,1l1.1-34.1l8.4-1L132,157.7z M135.7,165.3
		c0.1-1.7-0.2-4.6-1.9-4.4c-1.6,0.2-2,3.1-2.1,5.1c-0.1,2.2,0.1,5.1,1.7,4.9C135.3,170.6,135.6,167,135.7,165.3z"/>
	<path class="st0" d="M174.9,139.1l7.1-0.9c10-1.2,15.1,4.6,14.8,14.8c-0.5,15.5-10,18.1-15.3,18.7l-7.7,0.9L174.9,139.1z
		 M182.9,163.6c4-0.5,4.9-5.8,5-9c0.1-3.7-0.4-8.7-4.4-8.2L182.9,163.6z"/>
	<path class="st0" d="M201.5,135.9l16.3-2l-0.3,7.9l-7.5,0.9l-0.2,4.7l6.8-0.8l-0.3,7.9l-6.8,0.8l-0.2,5.1l7.5-0.9l-0.3,7.9l-16.3,2
		L201.5,135.9z"/>
	<path class="st0" d="M245.1,125.7l3.9-0.5l-0.1,4.3c1.8,0,3.5,0.3,5.1,1.1l-0.3,10.1c-1.2-1.6-2.9-3.3-5.2-3
		c-1.1,0.1-2.2,1-2.2,2.3c-0.1,1.6,1.8,2.6,2.8,3.3c3.2,2.3,5.2,4.3,5,8.9c-0.2,4.6-2.4,9.1-6.6,11.4l-0.2,4.9l-4,0.5l0.1-4.1
		c-2.3,0.2-4.6,0.1-6.7-0.6l0.3-10.5c1.1,1.8,3.3,3.4,5.5,3.1c1.3-0.2,2.6-1,2.6-2.7c0.1-1.6-1.4-2.4-2.4-3.1
		c-3.1-2.3-5.5-4.3-5.3-8.9c0.2-5,2.8-9.6,7.4-11.8L245.1,125.7z"/>
	<path class="st0" d="M268.1,161.2l0.8-25.9l-3.5,0.4l0.3-7.8l12.3-1.5l-1.1,33.6L268.1,161.2z"/>
	<path class="st0" d="M309.3,139.4c-0.2,7.4-3,17.7-12.1,18.8c-9,1.1-11.2-8.5-10.9-16c0.2-7.4,3-17.7,12.1-18.8
		C307.4,122.3,309.5,132,309.3,139.4z M295,141.2c-0.1,3.8-0.1,9.6,2.5,9.3c2.7-0.3,3-6.2,3.2-10c0.1-3.8,0.1-9.6-2.5-9.3
		C295.5,131.5,295.1,137.4,295,141.2z"/>
	<path class="st0" d="M312,151.2c0.1-2.7,2.4-5.3,4.9-5.6c2.8-0.3,5,1.6,4.9,4.5c-0.1,2.8-2.4,5.3-5.1,5.6
		C314,156.1,311.9,154,312,151.2z"/>
	<path class="st0" d="M348.3,134.7c-0.2,7.4-3,17.7-12.1,18.8s-11.2-8.5-10.9-16c0.2-7.4,3-17.7,12.1-18.8
		C346.4,117.6,348.5,127.2,348.3,134.7z M333.9,136.4c-0.1,3.8-0.1,9.6,2.5,9.3s3-6.2,3.2-10c0.1-3.8,0.1-9.6-2.5-9.3
		C334.4,126.8,334.1,132.6,333.9,136.4z"/>
	<path class="st0" d="M374.2,131.5c-0.2,7.4-3,17.7-12.1,18.8c-9,1.1-11.2-8.5-10.9-16c0.2-7.4,3-17.7,12.1-18.8
		C372.4,114.4,374.5,124,374.2,131.5z M359.9,133.2c-0.1,3.8-0.1,9.6,2.5,9.3s3-6.2,3.2-10c0.1-3.8,0.1-9.6-2.5-9.3
		C360.4,123.6,360,129.5,359.9,133.2z"/>
	<path class="st0" d="M400.2,128.3c-0.2,7.4-3,17.7-12.1,18.8c-9,1.1-11.2-8.5-10.9-16c0.2-7.4,3-17.7,12.1-18.8
		C398.3,111.2,400.5,120.9,400.2,128.3z M385.9,130.1c-0.1,3.8-0.1,9.6,2.5,9.3s3-6.2,3.2-10c0.1-3.8,0.1-9.6-2.5-9.3
		S386,126.3,385.9,130.1z"/>
</g>
<text transform="matrix(0.9995 3.034998e-02 -3.086441e-02 1.0165 145.3336 175.4494)" class="st0 st1 st2">!</text>
<path class="st0" d="M61.8,209.5c0.1,0.7,0.7,1.3,1.4,1.3c0.1,0,0.2,0,0.3,0l100.3-12.2l0.3-3.1L63.1,207.8
	C62.3,207.9,61.7,208.7,61.8,209.5"/>
<path class="st0" d="M371.4,4.6c-0.1-0.8-0.9-1.4-1.7-1.3l-301.2,37c-0.8,0.1-1.4,0.9-1.3,1.7c0.1,0.7,0.7,1.3,1.4,1.3
	c0.1,0,0.2,0,0.3,0l301.2-37C371,6.2,371.6,5.4,371.4,4.6z"/>
<path class="st0" d="M331,162.1l5.4-0.6l1.1,9.1c0.5-0.7,1-1.3,1.5-1.7c0.6-0.4,1.2-0.6,1.8-0.7c1.7-0.2,3.1,0.5,4.4,2
	c1.2,1.5,2,3.3,2.2,5.5c0.3,2.5-0.1,4.6-1.1,6.5c-1,1.9-2.4,2.9-4.1,3.1c-0.6,0.1-1.2,0-1.8-0.2c-0.6-0.2-1.2-0.6-1.8-1.1l-1.3,1.6
	l-3.5,0.4L331,162.1z M338.6,180.1c0.3,0.3,0.5,0.5,0.8,0.6c0.3,0.1,0.5,0.2,0.8,0.1c0.6-0.1,1.1-0.5,1.4-1.3
	c0.3-0.8,0.4-1.8,0.2-3.1c-0.1-1.2-0.4-2.1-0.8-2.7c-0.4-0.6-0.9-0.9-1.5-0.8c-0.6,0.1-1,0.4-1.2,0.9c-0.2,0.5-0.3,1.3-0.2,2.3
	L338.6,180.1z"/>
<path class="st0" d="M350,159.4c0.7-0.1,1.5,0.1,2.1,0.6c0.7,0.5,1.1,1.1,1.2,2c0.1,0.8-0.1,1.5-0.6,2.1c-0.5,0.6-1.2,1-2,1.1
	c-0.8,0.1-1.6-0.1-2.2-0.6c-0.6-0.5-1-1.2-1.1-1.9c-0.1-0.8,0.1-1.5,0.6-2.1C348.6,159.9,349.2,159.5,350,159.4 M348.2,167.7
	l5.5-0.6l1.9,16.3l-5.5,0.6L348.2,167.7z"/>
<path class="st0" d="M361.3,168c0.4-0.8,0.9-1.4,1.5-1.8c0.6-0.4,1.2-0.7,2-0.8c1.7-0.2,3.2,0.4,4.5,2c1.2,1.5,2,3.4,2.2,5.6
	c0.2,1.6,0.1,3.1-0.3,4.5c-0.4,1.4-1,2.5-1.8,3.4c-0.8,0.9-1.8,1.4-3,1.5c-0.6,0.1-1.1,0-1.7-0.1c-0.6-0.2-1.1-0.4-1.7-0.8l1,8.6
	l-5.4,0.6l-2.8-23.8l4.7-0.6L361.3,168z M362.6,177.2c0.2,0.3,0.5,0.5,0.8,0.6c0.3,0.1,0.6,0.2,0.9,0.1c0.7-0.1,1.1-0.5,1.4-1.2
	c0.3-0.7,0.4-1.7,0.2-2.9c-0.1-1.2-0.4-2.2-0.9-2.8c-0.4-0.6-0.9-0.9-1.5-0.8c-0.6,0.1-1,0.4-1.2,0.9c-0.2,0.5-0.3,1.3-0.2,2.2
	L362.6,177.2z"/>
<path class="st0" d="M378.3,176.6c1.3,0.4,2.2,1.1,2.7,2.1c0.5,1,0.7,2.1,0.3,3.2c-0.3,1.1-1,2-2.1,2.5c-1,0.6-2.1,0.7-3.2,0.3
	c-1.1-0.3-2-1-2.5-2c-0.6-1-0.7-2.1-0.3-3.2c0.3-1.1,1.1-2,2.1-2.5C376.3,176.4,377.3,176.3,378.3,176.6"/>
<polygon class="st0" points="389.1,155.1 382.2,174.9 376.2,173.2 381,152.8 "/>
<path class="st3" d="M205.4,205.8l-4.9,0.6l-0.8-6.5c-0.3,0.4-0.7,0.7-1.2,1c-0.8,0.5-1.8,0.8-2.9,0.9c-1,0.1-1.8,0-2.5-0.4
	c-0.7-0.3-1.2-0.9-1.7-1.5c-0.4-0.6-0.7-1.4-1-2.3c-0.2-0.9-0.4-1.8-0.5-2.8l-0.2-1.8c-0.1-1.1-0.2-2.2-0.2-3.1c0-1,0.1-1.8,0.4-2.6
	c0.3-0.8,0.8-1.4,1.4-1.8c0.7-0.5,1.6-0.8,2.7-0.9c1.1-0.1,2.1,0,3,0.3c0.5,0.2,0.9,0.5,1.3,0.8l0-1l4.4-0.5L205.4,205.8z
	 M196.3,188.6c-0.5,0.1-0.8,0.2-1,0.3c-0.2,0.1-0.4,0.4-0.5,0.6c-0.1,0.3-0.2,0.7-0.2,1.2c0,0.5,0.1,1.1,0.1,1.8l0.2,1.8
	c0.1,0.5,0.1,1,0.3,1.5c0.1,0.4,0.2,0.8,0.4,1.1c0.2,0.3,0.4,0.5,0.7,0.6c0.2,0.1,0.6,0.2,1,0.1c0.5-0.1,0.8-0.2,1-0.3
	c0.2-0.2,0.4-0.4,0.5-0.6c0.1-0.2,0.2-0.5,0.2-0.8c0-0.3,0-0.6,0-0.9l-0.5-3.9c0-0.3-0.1-0.7-0.2-1c-0.1-0.3-0.2-0.6-0.4-0.9
	c-0.2-0.2-0.4-0.4-0.6-0.5C197.2,188.6,196.8,188.5,196.3,188.6"/>
<path class="st3" d="M211.3,200.1c-0.9,0.1-1.7,0.1-2.3-0.1c-0.7-0.2-1.3-0.5-1.8-1.1c-0.5-0.5-0.9-1.2-1.2-2.1
	c-0.3-0.8-0.5-1.9-0.7-3.1l-1.1-9.5l5-0.6l1,8.9c0.1,0.8,0.2,1.4,0.3,1.9c0.1,0.5,0.2,0.8,0.4,1.1c0.1,0.2,0.3,0.3,0.5,0.4
	c0.3,0.1,0.6,0.1,1.1,0c0.4,0,0.7-0.2,1-0.3c0.2-0.2,0.4-0.4,0.6-0.6c0.1-0.2,0.2-0.5,0.2-0.8c0-0.3,0-0.7,0-1l-1.2-10l5-0.6
	l1.9,16.2l-4.4,0.5l-0.4-1.4c-0.3,0.4-0.7,0.8-1.1,1.1C213.4,199.6,212.4,200,211.3,200.1"/>
<path class="st3" d="M228,198.1c-1.3,0.2-2.4,0.1-3.3-0.2c-0.9-0.3-1.7-0.8-2.3-1.4c-0.6-0.6-1-1.3-1.3-2.2
	c-0.3-0.8-0.5-1.6-0.6-2.5l-0.4-3.1c-0.1-0.8-0.1-1.7,0-2.5c0.1-0.8,0.4-1.6,0.8-2.4c0.4-0.7,1.1-1.4,1.9-1.9c0.8-0.5,1.9-0.8,3.2-1
	c1.2-0.1,2.2-0.1,3.1,0.2c0.9,0.3,1.6,0.7,2.2,1.3c0.6,0.6,1.1,1.3,1.4,2.2c0.3,0.8,0.5,1.7,0.6,2.7l0.2,2.1l0,0.6l-8.2,1l0,0
	c0.2,1.4,0.4,2.4,0.7,3c0.2,0.3,0.5,0.6,1.4,0.5c0.7-0.1,0.9-0.4,1-0.6c0.2-0.4,0.2-1.1,0.2-2l0-0.3l1-0.1l4-0.4l0,0.6
	c0,0.7-0.1,1.3-0.3,2c-0.2,0.7-0.5,1.4-1,2c-0.5,0.6-1.1,1.1-1.8,1.5C230,197.7,229.1,198,228,198.1 M225.1,188l3.2-0.4
	c-0.1-0.6-0.1-1-0.2-1.5c-0.1-0.4-0.2-0.8-0.3-1c-0.1-0.2-0.3-0.4-0.5-0.5c-0.2-0.1-0.5-0.1-0.8-0.1c-1,0.1-1.2,0.5-1.3,0.8
	C225,185.9,225,186.8,225.1,188"/>
<path class="st0" d="M272.2,192.9c-1.3,0.2-2.4,0.1-3.3-0.2c-0.9-0.3-1.7-0.8-2.3-1.4c-0.6-0.6-1-1.3-1.3-2.2
	c-0.3-0.8-0.5-1.6-0.6-2.5l-0.4-3.1c-0.1-0.8-0.1-1.7,0-2.5c0.1-0.8,0.4-1.6,0.8-2.4c0.4-0.7,1.1-1.4,1.9-1.9c0.8-0.5,1.9-0.8,3.2-1
	c1.2-0.1,2.2-0.1,3.1,0.2c0.9,0.3,1.6,0.7,2.2,1.3c0.6,0.6,1.1,1.3,1.4,2.2c0.3,0.8,0.5,1.7,0.6,2.7l0.2,2.1l0,0.6l-8.2,1l0,0
	c0.2,1.4,0.4,2.4,0.7,3c0.2,0.3,0.5,0.6,1.4,0.5c0.7-0.1,0.9-0.4,1-0.6c0.2-0.4,0.2-1.1,0.2-2l0-0.3l1-0.1l4-0.4l0,0.6
	c0,0.7-0.1,1.3-0.3,2c-0.2,0.7-0.5,1.4-1,2c-0.5,0.6-1.1,1.1-1.8,1.5C274.1,192.5,273.2,192.8,272.2,192.9 M269.2,182.8l3.2-0.4
	c-0.1-0.6-0.1-1-0.2-1.5c-0.1-0.4-0.2-0.8-0.3-1c-0.1-0.2-0.3-0.4-0.5-0.5c-0.2-0.1-0.5-0.1-0.8-0.1c-1,0.1-1.2,0.5-1.3,0.8
	C269.1,180.7,269.1,181.6,269.2,182.8"/>
<path class="st0" d="M301.9,189.4c-1.3,0.2-2.4,0.1-3.3-0.2c-0.9-0.3-1.7-0.8-2.3-1.4c-0.6-0.6-1-1.3-1.3-2.2
	c-0.3-0.8-0.5-1.6-0.6-2.5l-0.4-3.1c-0.1-0.8-0.1-1.7,0-2.5c0.1-0.8,0.4-1.6,0.8-2.4c0.4-0.7,1.1-1.4,1.9-1.9c0.8-0.5,1.9-0.8,3.2-1
	c1.2-0.1,2.2-0.1,3.1,0.2c0.9,0.3,1.6,0.7,2.2,1.3c0.6,0.6,1.1,1.3,1.4,2.2c0.3,0.8,0.5,1.7,0.6,2.7l0.2,2.1l0,0.6l-8.2,1l0,0
	c0.2,1.4,0.4,2.4,0.7,3c0.2,0.3,0.5,0.6,1.4,0.5c0.7-0.1,0.9-0.4,1-0.6c0.2-0.4,0.2-1.1,0.2-2l0-0.3l1-0.1l4-0.4l0,0.6
	c0,0.7-0.1,1.3-0.3,2c-0.2,0.7-0.5,1.4-1,2c-0.5,0.6-1.1,1.1-1.8,1.5C303.8,189,302.9,189.3,301.9,189.4 M298.9,179.3l3.2-0.4
	c-0.1-0.6-0.1-1-0.2-1.5c-0.1-0.4-0.2-0.8-0.3-1c-0.1-0.2-0.3-0.4-0.5-0.5c-0.2-0.1-0.5-0.1-0.8-0.1c-1,0.1-1.2,0.5-1.3,0.8
	C298.8,177.3,298.8,178.1,298.9,179.3"/>
<path class="st0" d="M242.3,196.4c-1,0.1-2,0.1-2.9-0.1c-0.9-0.2-1.6-0.5-2.3-1c-0.7-0.5-1.2-1.1-1.5-1.9c-0.4-0.7-0.5-1.6-0.6-2.6
	l0-0.4l4.4-0.5l0.7,0.6l0,0.2c0,0.7,0.2,1.3,0.4,1.8c0.1,0.1,0.3,0.5,1.3,0.4c0.7-0.1,1.2-0.3,1.4-0.5c0.2-0.3,0.3-0.7,0.2-1.1
	c0-0.3-0.1-0.6-0.3-0.8c-0.2-0.2-0.4-0.4-0.8-0.6c-0.3-0.2-0.7-0.3-1.2-0.4c-0.5-0.1-0.9-0.2-1.4-0.4c-0.5-0.1-1.1-0.2-1.6-0.4
	c-0.6-0.1-1.1-0.4-1.6-0.6c-0.5-0.3-0.9-0.6-1.2-1c-0.4-0.4-0.6-1-0.7-1.6c-0.2-0.7-0.2-1.4,0-2.1c0.2-0.7,0.5-1.4,1-1.9
	c0.5-0.5,1.2-1,2-1.4c0.8-0.4,1.8-0.6,2.9-0.8c1.9-0.2,3.5,0.1,4.7,0.9c1.2,0.8,1.9,2.1,2.1,3.7l0,0.4l-3.9,1l-0.9-0.4l0-0.2
	c-0.1-0.7-0.3-1.2-0.5-1.5c-0.2-0.2-0.6-0.3-1.2-0.3c-0.4,0-0.9,0.2-1.1,0.5c-0.2,0.3-0.2,0.6-0.2,1c0,0.4,0.2,0.6,0.4,0.8
	c0.2,0.2,0.5,0.4,0.9,0.6c0.4,0.2,0.8,0.3,1.3,0.4c0.5,0.1,1.1,0.2,1.6,0.3c0.5,0.1,1,0.2,1.5,0.4c0.5,0.2,1,0.4,1.4,0.7
	c0.4,0.3,0.8,0.7,1.1,1.1c0.3,0.5,0.5,1.1,0.6,1.7c0.1,0.6,0,1.3-0.1,1.9c-0.2,0.7-0.5,1.3-1,1.9c-0.5,0.5-1.1,1-2,1.4
	C244.5,196,243.5,196.3,242.3,196.4"/>
<path class="st0" d="M255.5,194.9c-0.9,0.1-1.7,0.1-2.3-0.1c-0.7-0.2-1.3-0.5-1.8-1.1c-0.5-0.5-0.9-1.2-1.2-2.1
	c-0.3-0.8-0.5-1.9-0.7-3.1l-1.1-9.5l5-0.6l1,8.9c0.1,0.8,0.2,1.4,0.3,1.9c0.1,0.5,0.2,0.8,0.4,1.1c0.1,0.2,0.3,0.3,0.5,0.4
	c0.3,0.1,0.6,0.1,1.1,0c0.4,0,0.7-0.2,1-0.3c0.2-0.2,0.4-0.4,0.6-0.6c0.1-0.2,0.2-0.5,0.2-0.8c0-0.3,0-0.7,0-1l-1.2-10l5-0.6
	l1.9,16.2l-4.4,0.5l-0.4-1.4c-0.3,0.4-0.7,0.8-1.1,1.1C257.6,194.4,256.6,194.8,255.5,194.9"/>
<path class="st0" d="M293.9,190.1l-5,0.6l-1.2-10.1c-0.2-1.3-0.4-1.9-0.7-2.2c-0.3-0.4-1.1-0.4-1.7-0.3c-0.4,0-0.7,0.2-1,0.3
	c-0.2,0.2-0.4,0.3-0.5,0.6c-0.1,0.2-0.2,0.5-0.2,0.8c0,0.3,0,0.6,0,1l1.2,10.4l-5,0.6l-1.9-16.2l4.4-0.5l0.4,1.2
	c0.9-1.4,2.4-2.2,4.3-2.4c1.1-0.1,2-0.1,2.7,0.2c0.7,0.3,1.3,0.7,1.7,1.3c0.4,0.6,0.7,1.3,0.8,2.1c0.2,0.8,0.3,1.7,0.4,2.7
	L293.9,190.1z"/>
<path class="st3" d="M314.9,187.9c-1.2,0.1-2.1-0.1-2.9-0.6c-1.2-0.9-2-2.6-2.3-5.4l-0.8-6.4l-1.4,0.2l-0.4-3.6l1.4-0.2l-0.4-3.5
	l3.5-1.3l1.4-0.2l0.5,4.4l1.9-0.2l0.4,3.6l-1.9,0.2l0.7,6.2c0.1,0.6,0.2,1.1,0.3,1.5c0.1,0.3,0.2,0.6,0.3,0.7
	c0.1,0.1,0.2,0.2,0.4,0.2c0.2,0,0.5,0,0.8,0l0.5-0.1l0.4,3.8l-0.3,0.1C316.2,187.7,315.5,187.9,314.9,187.9"/>
<path class="st3" d="M323.5,186.9c-0.9,0.1-1.7,0.1-2.3-0.1c-0.7-0.2-1.3-0.5-1.8-1.1c-0.5-0.5-0.9-1.2-1.2-2.1
	c-0.3-0.8-0.5-1.9-0.7-3.1l-1.1-9.5l5-0.6l1,8.9c0.1,0.8,0.2,1.4,0.3,1.9c0.1,0.5,0.2,0.8,0.4,1.1c0.1,0.2,0.3,0.3,0.5,0.4
	c0.3,0.1,0.6,0.1,1.1,0c0.4,0,0.7-0.2,1-0.3c0.2-0.2,0.4-0.4,0.6-0.6c0.1-0.2,0.2-0.5,0.2-0.8c0-0.3,0-0.7,0-1l-1.2-10l5-0.6
	l1.9,16.2l-4.4,0.5l-0.4-1.4c-0.3,0.4-0.7,0.8-1.1,1.1C325.6,186.4,324.6,186.8,323.5,186.9"/>
<path class="st0" d="M184.2,209.2l-3.3,0.4l0.1-6.6l-2.2,0.3l-0.1,6.6l-3.3,0.4l0.1-6.6l-2.7,0.3l-0.4-3.3l3.1-0.4l0-3.6l-2.8,0.3
	l-0.4-3.3l3.2-0.4l0.1-6.5l3.3-0.4l-0.1,6.5l2.2-0.3l0.1-6.5l3.3-0.4l-0.1,6.5l2.6-0.3l0.4,3.3l-3.1,0.4l0,3.6l2.8-0.3l0.4,3.3
	l-3.2,0.4L184.2,209.2z M179,199.9l2.2-0.3l0-3.6l-2.2,0.3L179,199.9z"/>
<path class="st0" d="M130,30.5"/>
</svg>
