<?xml version="1.0" encoding="utf-8"?>
<!-- Generator: Adobe Illustrator 19.2.0, SVG Export Plug-In . SVG Version: 6.00 Build 0)  -->
<svg version="1.1" id="Capa_1" xmlns="http://www.w3.org/2000/svg" xmlns:xlink="http://www.w3.org/1999/xlink" x="0px" y="0px"
	 viewBox="0 0 792 612" style="enable-background:new 0 0 792 612;" xml:space="preserve">
<style type="text/css">
	.st0{clip-path:url(#SVGID_2_);fill:none;stroke:#E13222;stroke-width:0.8858;}
	.st1{clip-path:url(#SVGID_2_);}
	.st2{fill:#E13222;}
	.st3{fill:none;stroke:#E13222;stroke-width:1.8186;}
	.st4{fill:#FFFFFF;}
</style>
<g>
	<g>
		<g>
			<defs>
				<circle id="SVGID_1_" cx="260.5" cy="314.9" r="91.5"/>
			</defs>
			<clipPath id="SVGID_2_">
				<use xlink:href="#SVGID_1_"  style="overflow:visible;"/>
			</clipPath>
			<path class="st0" d="M248.7,349.4c0,0-37.4-6.4-22.6-49.7c14.7-34.4,46-37.2,54.1-36.2c9.6,0.8,55.1,11.2,53.4,66.7
				c-12.6,63.5-76.9,66.4-103.6,54.4c-26.7-11.9-72.9-51.5-34.1-122.6"/>
			<g class="st1">
				<path class="st2" d="M184.6,335.5c13.5,33.8,68.9,58.5,102.8,40.9c12.6,29.8,16,98.2-50.7,77.9c-0.2,0.1-2.9-1-5.5-3.1
					c15,3.5,29.9-8,29.9-23.8c0-13.4-11-24.4-24.4-24.4c-34.8,0-31,53.9,5.8,58.8c15.3,2,26.9,0,35.7-4.8c31.4-17,21-54.3,14.2-82.1
					c5.1-3.6,29.6-14.6,34.5-39.3c5.8-43.6-22.6-60.8-56.6-57.4l-9.6-43.8c10.9-9.3,21.7-19.2,29.6-31.3
					c24-36.7,19.2-83.9-7.8-118.5c-2.7-3.4-7.3-3.4-10.1,0c-29.9,37.2-30.7,67.1-27.2,90.4c1.5,9,3.7,18,4.8,27.1
					c-8.7,7.6-18.2,15.8-27.2,24.9C195.6,255.1,170.7,294.8,184.6,335.5z M290.2,368.7c-5.3-24.2-10.1-45.9-15.3-69.7
					C318.3,298.5,322.9,349.5,290.2,368.7z M262.7,125.3c4.9-10.1,10.9-21.8,20.8-19.3c14.2,3.6,17.4,26.2,10,46.1
					c-6.9,18.6-20.8,29.7-23.7,33.4c-5.6,7-11.2,12.4-16.4,13.9C250.4,183.8,251.9,147.5,262.7,125.3z M256.2,238.1l8.8,40
					c-36,6.3-53.8,55-19.4,71.5c3.9,1.9,4.3,0.9,1.5-2.4c-14.7-17.2-3.8-46.6,22.5-48.1c5.5,24.9,10.4,47.2,15.9,72.1
					c-32.5,15.1-73.9,2.1-84.8-34.5c-1.4-2.1-1.5-4.3-1.5-6.6C191.9,285.3,226.8,262.6,256.2,238.1z"/>
			</g>
		</g>
		<circle class="st3" cx="260.6" cy="314.4" r="91.5"/>
	</g>
	<g>
		<path class="st4" d="M501.8,222.8v0.4c-1.2,0-1.8,0.6-1.8,1.8v9.9c0,1.2,0.6,1.8,1.8,1.8v0.4h-6.1v-0.4c1.2,0,1.8-0.6,1.8-1.8V225
			c0-1.2-0.6-1.8-1.8-1.8v-0.4H501.8z"/>
		<path class="st4" d="M510.8,222.8v0.4c-1.2,0-1.8,0.6-1.8,1.8v9.3c0,1.6,1.1,2.4,3.2,2.4c0.8,0,1.5-0.1,2.1-0.3
			c0.6-0.2,1.2-0.6,1.7-1.2c0.5-0.6,0.8-1.3,0.9-2.2l0.4,0l-0.2,4.1h-12.3l0-0.4c1.2,0,1.8-0.6,1.8-1.8V225c0-1.2-0.6-1.8-1.8-1.8
			v-0.4H510.8z"/>
		<path class="st4" d="M387.8,250.3l0.3,5.1l-0.6,0c-0.2-3-1.8-4.5-4.7-4.5h-3.4v17.5c0,1.8,0.9,2.7,2.7,2.7v0.6H373v-0.6
			c1.8,0,2.7-0.9,2.7-2.7v-17.5h-3.4c-3,0-4.5,1.5-4.7,4.5l-0.6-0.1l0.3-5.1H387.8z"/>
		<path class="st4" d="M415.8,250.3l0.3,5.1l-0.6,0.1c-0.2-3-1.9-4.5-5.1-4.5h-5.4v8.9h2.7c2.1,0,3.1-1.1,3.1-3.2h0.6v7.1h-0.6
			c0-2.2-1-3.3-3.1-3.3h-2.7v7c0,2.4,1.6,3.6,4.8,3.6c4.5,0,6.9-1.9,7.1-5.6l0.5,0l-0.4,6.1h-18.5v-0.6c1.8,0,2.7-0.9,2.7-2.7v-14.9
			c0-1.8-0.9-2.7-2.7-2.7v-0.6H415.8z"/>
		<path class="st4" d="M437.1,250.3v0.6c-1.8,0-2.7,0.9-2.7,2.7v14c0,2.4,1.6,3.6,4.8,3.6c1.2,0,2.3-0.2,3.2-0.5
			c0.9-0.3,1.8-0.9,2.5-1.8c0.7-0.9,1.2-2,1.4-3.3l0.6,0l-0.4,6.1H428l0-0.5c1.8,0,2.6-0.9,2.6-2.7v-14.9c0-1.8-0.9-2.7-2.7-2.7
			v-0.6H437.1z"/>
		<path class="st4" d="M474.5,250.3l0.3,5.1l-0.6,0.1c-0.2-3-1.9-4.5-5.1-4.5h-5.4v8.9h2.7c2.1,0,3.1-1.1,3.1-3.2h0.6v7.1h-0.6
			c0-2.2-1-3.3-3.1-3.3h-2.7v7c0,2.4,1.6,3.6,4.8,3.6c4.5,0,6.9-1.9,7.1-5.6l0.5,0l-0.4,6.1h-18.5v-0.6c1.8,0,2.7-0.9,2.7-2.7v-14.9
			c0-1.8-0.9-2.7-2.7-2.7v-0.6H474.5z"/>
		<path class="st4" d="M497.3,250.7c1.4,0.6,2.1,0.5,2.1-0.4h0.6l0.5,6l-0.5,0.1c-0.4-1.7-1-3-1.8-3.9c-1-1.2-2.3-1.8-4-1.7
			c-1.2,0-2.1,0.3-2.8,1c-0.5,0.4-0.8,0.8-0.9,1.4c-0.2,0.6-0.2,1.2-0.1,1.8c0.1,0.5,0.4,1,0.8,1.4c0.5,0.5,1.8,1.2,3.7,1.9
			c1.9,0.7,3.2,1.3,3.9,1.7c1,0.6,1.8,1.3,2.4,2.2c0.5,0.9,0.8,2,0.7,3.3c-0.1,1.9-0.8,3.4-2.2,4.8c-1.5,1.3-3.3,2-5.7,1.8
			c-1.4-0.1-2.7-0.5-4.1-1.3c-0.5-0.3-1-0.5-1.3-0.6c-0.3-0.1-0.6,0-0.9,0.2c-0.3,0.3-0.4,0.7-0.5,1.3h-0.5v-6.6h0.5
			c0.4,1.8,1.1,3.2,2.1,4.2c1.2,1.2,2.7,1.8,4.5,1.8c1.5,0.1,2.6-0.2,3.5-0.9c0.6-0.4,1-0.9,1.2-1.6c0.2-0.5,0.3-1.2,0.2-2
			c-0.1-0.6-0.3-1.2-0.6-1.7c-0.3-0.4-0.9-0.8-1.6-1.3c-0.7-0.4-1.6-0.8-2.7-1.2c-1-0.4-1.8-0.7-2.3-1c-3-1.5-4.5-3.4-4.5-5.7
			c0-1.6,0.6-3,1.7-4.1c1.3-1.2,3-1.7,5.1-1.7C495.1,250,496.2,250.2,497.3,250.7z"/>
		<path class="st4" d="M528.7,250.9c1.3,0.5,2,0.2,2-0.6h0.6l0.4,6.2l-0.6,0.1c-1-3.9-3.3-5.8-7.1-5.8c-2.1,0-3.9,1.1-5.2,3.1
			c-1.3,2-2,4.4-2,7.3c0,6.7,2.5,10,7.6,10c3.5,0,5.9-1.4,7.4-4.2l0.6,0.2c-1.4,3.2-4.1,4.8-8.1,4.8c-2.4,0-4.5-0.5-6.2-1.4
			c-1.7-0.9-3-2.2-4-3.9c-1-1.7-1.5-3.5-1.5-5.5c0-2,0.5-3.9,1.4-5.6c0.9-1.7,2.3-3,4.1-4.1s3.8-1.5,6.1-1.5
			C525.3,250,526.9,250.3,528.7,250.9z"/>
		<path class="st4" d="M562.4,252.9c1.9,2,2.9,4.6,2.9,7.9c0,2.1-0.5,4-1.5,5.8c-1,1.7-2.4,3.1-4.1,4c-1.8,1-3.7,1.5-5.7,1.5
			c-3.1,0-5.8-1-7.9-3.1c-2.1-2.1-3.2-4.7-3.2-7.7c0-2.1,0.5-4,1.4-5.7c1-1.7,2.3-3.1,4.1-4.1c1.8-1,3.8-1.5,6-1.6
			C557.7,249.9,560.4,250.9,562.4,252.9z M550.5,252.2c-1.1,1-1.9,2.2-2.5,3.8c-0.6,1.6-0.9,3.3-0.9,5.2c0,2.8,0.7,5.2,2,7.2
			c1.3,1.9,2.9,2.9,4.8,2.9c1.2,0,2.4-0.5,3.5-1.4c1.1-0.9,1.9-2.1,2.6-3.8c0.6-1.6,1-3.4,1-5.3c0-3.1-0.6-5.5-1.8-7.3
			c-1.2-1.9-2.9-2.8-5-2.8C552.8,250.7,551.6,251.2,550.5,252.2z"/>
		<path class="st4" d="M587.4,250.3c1.7,0,3.2,0.6,4.4,1.8c1.2,1.2,1.8,2.6,1.8,4.3c0,1.7-0.6,3.1-1.8,4.3s-2.7,1.8-4.4,1.8h-5.2
			v5.9c0,1.8,0.9,2.7,2.7,2.7v0.6h-9.1v-0.6c1.8,0,2.7-0.9,2.7-2.7v-14.8c0-1.8-0.9-2.7-2.7-2.7v-0.6H587.4z M582.2,261.8h2.5
			c1.4,0,2.6-0.5,3.6-1.6c1-1.1,1.5-2.3,1.5-3.9c0-1.5-0.5-2.8-1.5-3.9c-1-1-2.2-1.5-3.6-1.5h-2.5V261.8z"/>
		<path class="st4" d="M613.3,250.3v0.6c-1.8,0-2.7,0.9-2.7,2.7v14.8c0,1.8,0.9,2.7,2.7,2.7v0.6h-9.1v-0.6c1.8,0,2.7-0.9,2.7-2.7
			v-14.8c0-1.8-0.9-2.7-2.7-2.7v-0.6H613.3z"/>
		<path class="st4" d="M643.3,252.9c1.9,2,2.9,4.6,2.9,7.9c0,2.1-0.5,4-1.5,5.8c-1,1.7-2.4,3.1-4.1,4c-1.8,1-3.7,1.5-5.7,1.5
			c-3.1,0-5.8-1-7.9-3.1c-2.1-2.1-3.2-4.7-3.2-7.7c0-2.1,0.5-4,1.4-5.7c1-1.7,2.3-3.1,4.1-4.1c1.8-1,3.8-1.5,6-1.6
			C638.7,249.9,641.3,250.9,643.3,252.9z M631.4,252.2c-1.1,1-1.9,2.2-2.5,3.8c-0.6,1.6-0.9,3.3-0.9,5.2c0,2.8,0.7,5.2,2,7.2
			c1.3,1.9,2.9,2.9,4.8,2.9c1.2,0,2.4-0.5,3.5-1.4c1.1-0.9,1.9-2.1,2.6-3.8c0.6-1.6,1-3.4,1-5.3c0-3.1-0.6-5.5-1.8-7.3
			c-1.2-1.9-2.9-2.8-5-2.8C633.7,250.7,632.5,251.2,631.4,252.2z"/>
	</g>
	<g>
		<path class="st2" d="M501.9,289.1c1,0,2,0.2,3,0.6c0.9,0.4,1.8,0.9,2.4,1.5c0.7,0.7,1.2,1.4,1.6,2.2c0.4,0.9,0.6,1.8,0.6,2.8
			c0.1,2-0.6,3.6-1.9,5c-1.3,1.4-2.9,2.1-4.9,2.1h-8.3V303c1.2,0,1.8-0.6,1.8-1.8v-9.9c0-1.2-0.6-1.8-1.8-1.8v-0.4H501.9z
			 M498.7,300.6c0,1.5,0.9,2.3,2.8,2.3c0.7,0,1.4-0.1,2-0.3c0.6-0.2,1.2-0.6,1.8-1.2c0.6-0.6,1-1.3,1.3-2.2c0.3-0.9,0.4-1.9,0.4-3
			c-0.1-1.9-0.7-3.4-1.8-4.7c-0.6-0.6-1.3-1.1-2.1-1.5c-0.9-0.3-1.7-0.5-2.5-0.5h-1.7V300.6z"/>
		<path class="st2" d="M518.7,289.1v0.4c-1.2,0-1.8,0.6-1.8,1.8v9.9c0,1.2,0.6,1.8,1.8,1.8v0.4h-6.1V303c1.2,0,1.8-0.6,1.8-1.8v-9.9
			c0-1.2-0.6-1.8-1.8-1.8v-0.4H518.7z"/>
		<path class="st2" d="M424.9,318.9c1.3,0.5,2,0.2,2.1-0.6h0.6l0.3,6.2l-0.5,0.1c-1-3.9-3.3-5.8-7.2-5.8c-2.1,0-3.9,1.1-5.2,3.1
			c-1.3,2-2,4.5-2,7.3c0,1.9,0.2,3.6,0.7,5.1c0.4,1.4,1.2,2.6,2.3,3.5c1,0.9,2.3,1.4,3.9,1.4c1.4,0,2.6-0.3,3.4-1.1
			c0.8-0.7,1.2-1.7,1.2-3v-0.8c0-1.8-1-2.9-2.9-3.4v-0.6h9.6v0.6c-1.9,0.4-2.9,1.6-2.9,3.4v2.5c-1,0.9-2.2,1.6-3.5,2.1
			c-1.5,0.6-3.1,0.9-4.9,1c-3.2,0.1-5.9-0.9-8-3c-2.1-2.1-3.2-4.7-3.2-7.8c0-2,0.5-3.8,1.5-5.6c0.9-1.7,2.3-3.1,4.1-4.1
			c1.8-1,3.8-1.5,6.2-1.5C421.5,317.9,423,318.2,424.9,318.9z"/>
		<path class="st2" d="M452.8,318.2l7.7,18.4c0.6,1.5,1.7,2.3,3.1,2.3v0.6h-8.8V339c1.7,0,2.2-0.8,1.6-2.3l-1.7-4.1h-7.6l-1.6,4.1
			c-0.6,1.5-0.1,2.3,1.6,2.3v0.6h-5.4V339c1.5,0,2.6-0.7,3.2-2.3l7-18.4H452.8z M447.3,331.9h7.1c-0.3-0.6-1.5-3.6-3.6-9
			C448.6,328.5,447.5,331.5,447.3,331.9z"/>
		<path class="st2" d="M482.4,318.2v0.6c-1.8,0-2.7,0.9-2.7,2.7v14c0,2.4,1.6,3.6,4.8,3.6c1.2,0,2.3-0.2,3.2-0.5
			c0.9-0.3,1.8-0.9,2.5-1.8c0.7-0.9,1.2-2,1.4-3.3l0.6,0l-0.4,6.1h-18.5l0-0.5c1.8,0,2.6-0.9,2.6-2.7v-14.9c0-1.8-0.9-2.7-2.7-2.7
			v-0.6H482.4z"/>
		<path class="st2" d="M511.8,318.2v0.6c-1.8,0-2.7,0.9-2.7,2.7v14.8c0,1.8,0.9,2.7,2.7,2.7v0.6h-9.1V339c1.8,0,2.7-0.9,2.7-2.7
			v-14.8c0-1.8-0.9-2.7-2.7-2.7v-0.6H511.8z"/>
		<path class="st2" d="M531.4,318.2v0.6c-1.8,0-2.7,0.9-2.7,2.7v14c0,2.4,1.6,3.6,4.8,3.6c1.2,0,2.3-0.2,3.2-0.5
			c0.9-0.3,1.8-0.9,2.5-1.8c0.7-0.9,1.2-2,1.4-3.3l0.6,0l-0.4,6.1h-18.5l0-0.5c1.8,0,2.6-0.9,2.6-2.7v-14.9c0-1.8-0.9-2.7-2.7-2.7
			v-0.6H531.4z"/>
		<path class="st2" d="M568.8,318.2l0.3,5.1l-0.6,0.1c-0.2-3-1.9-4.5-5.1-4.5h-5.4v8.9h2.7c2.1,0,3.1-1.1,3.1-3.2h0.6v7.1H564
			c0-2.2-1-3.3-3.1-3.3h-2.7v7c0,2.4,1.6,3.6,4.8,3.6c4.5,0,6.9-1.9,7.1-5.6l0.5,0l-0.4,6.1h-18.5V339c1.8,0,2.7-0.9,2.7-2.7v-14.9
			c0-1.8-0.9-2.7-2.7-2.7v-0.6H568.8z"/>
		<path class="st2" d="M601.6,320.9c1.9,2,2.9,4.6,2.9,7.9c0,2.1-0.5,4-1.5,5.8c-1,1.7-2.4,3.1-4.1,4c-1.8,1-3.7,1.5-5.7,1.5
			c-3.1,0-5.8-1-7.9-3.1c-2.1-2.1-3.2-4.7-3.2-7.7c0-2.1,0.5-4,1.4-5.7c1-1.7,2.3-3.1,4.1-4.1c1.8-1,3.8-1.5,6-1.6
			C597,317.9,599.6,318.9,601.6,320.9z M589.7,320.1c-1.1,1-1.9,2.2-2.5,3.8c-0.6,1.6-0.9,3.3-0.9,5.2c0,2.8,0.7,5.2,2,7.2
			c1.3,1.9,2.9,2.9,4.8,2.9c1.2,0,2.4-0.5,3.5-1.4c1.1-0.9,1.9-2.1,2.6-3.8c0.6-1.6,1-3.4,1-5.3c0-3.1-0.6-5.5-1.8-7.3
			c-1.2-1.9-2.9-2.8-5-2.8C592.1,318.7,590.8,319.2,589.7,320.1z"/>
	</g>
	<g>
		<g>
			<path class="st2" d="M433.2,375.8c0,0.2,0.1,0.4,0.2,0.7l3.1,7l3.1-7.7l2.8,0v0.3c-0.8,0-1.2,0.4-1.2,1.2v6.8
				c0,0.8,0.4,1.2,1.2,1.2v0.3h-4.2v-0.3c0.8,0,1.2-0.4,1.2-1.2v-7.2l-3.6,8.7h-0.5l-3.9-8.7v7.2c0,0.8,0.4,1.3,1.2,1.3v0.2H430
				v-0.2c0.8,0,1.2-0.4,1.2-1.3v-6.8c0-0.8-0.4-1.2-1.2-1.2v-0.3L433.2,375.8z"/>
			<path class="st2" d="M448.3,385.1c-0.4-0.4-0.6-1-0.6-1.7v-3c0-0.9-0.3-1.4-0.9-1.4v-0.2h2.5v4.8c0,0.4,0.1,0.7,0.4,1.1
				c0.2,0.3,0.6,0.4,1,0.4c0.4,0,0.7-0.2,0.9-0.4c0.2-0.3,0.4-0.6,0.4-1l0-3.2c0-0.9-0.3-1.4-0.9-1.4v-0.2l2.6,0v5.2
				c0,0.8,0.3,1.1,0.9,1v0.2l-2.4,0.4c-0.1-0.1-0.2-0.4-0.2-0.9c-0.5,0.6-1.2,0.9-2,0.9C449.3,385.7,448.7,385.5,448.3,385.1z
				 M451,375.9l-1.3,2l0.4,0.3l2.4-2.3H451z"/>
			<path class="st2" d="M462.4,378.8c0.3,0.1,0.5,0.2,0.6,0.1c0.1,0,0.1-0.1,0.1-0.2h0.2l0.2,2h-0.2c-0.1-0.6-0.3-1-0.7-1.3
				c-0.1-0.1-0.3-0.3-0.6-0.3c-0.2-0.1-0.4-0.1-0.7-0.1c-0.3,0-0.6,0.1-0.9,0.3c-0.2,0.2-0.3,0.4-0.3,0.6c0,0.2,0.1,0.5,0.2,0.6
				c0.2,0.1,0.6,0.3,1.2,0.6c0.6,0.2,1,0.4,1.3,0.5c0.7,0.4,1,1,1,1.9c0,0.6-0.3,1.2-0.7,1.6c-0.4,0.4-1.1,0.6-1.9,0.5
				c-0.3,0-0.6-0.1-0.8-0.2c-0.5-0.2-0.9-0.3-1-0.2c-0.1,0-0.2,0.1-0.2,0.3h-0.2l0-2.1h0.2c0,0.2,0.1,0.4,0.2,0.6
				c0.1,0.2,0.2,0.3,0.4,0.5c0.4,0.4,0.9,0.6,1.5,0.7c0.5,0.1,0.9,0,1.2-0.2c0.3-0.2,0.4-0.4,0.5-0.7c0-0.3,0-0.6-0.2-0.8
				c-0.1-0.2-0.3-0.3-0.6-0.4c-0.4-0.2-0.7-0.3-1-0.4c-0.4-0.1-0.7-0.3-0.9-0.3c-0.8-0.4-1.2-1-1.2-1.9c0-0.6,0.2-1,0.6-1.4
				c0.4-0.4,0.9-0.6,1.6-0.6C461.8,378.6,462.1,378.7,462.4,378.8z"/>
			<path class="st2" d="M468.6,379l2.6-0.4v5.3c0,0.9,0.3,1.3,0.9,1.4v0.2h-3.5v-0.2c0.6,0,0.9-0.5,0.9-1.4v-3.8
				c0-0.7-0.3-1.1-0.9-0.9V379z M471.2,376.6c0,0.3-0.1,0.5-0.3,0.7c-0.2,0.2-0.4,0.3-0.7,0.3c-0.3,0-0.5-0.1-0.7-0.3
				c-0.2-0.2-0.3-0.4-0.3-0.7c0-0.3,0.1-0.5,0.3-0.7c0.2-0.2,0.4-0.3,0.7-0.3c0.3,0,0.5,0.1,0.7,0.3
				C471.1,376.1,471.2,376.3,471.2,376.6z"/>
			<path class="st2" d="M482.1,379.2c0.3,0.2,0.4,0.5,0.4,0.8c0,0.2-0.1,0.3-0.3,0.4c-0.1,0.1-0.3,0.1-0.4,0.1
				c-0.1,0-0.3-0.1-0.4-0.2c-0.1-0.1-0.2-0.3-0.3-0.5c-0.1-0.3-0.2-0.5-0.2-0.6c-0.2-0.1-0.4-0.2-0.8-0.2c-0.4,0-0.7,0.2-1,0.5
				c-0.3,0.3-0.5,0.8-0.6,1.2c-0.1,0.5-0.2,1-0.2,1.5c0,0.8,0.2,1.4,0.7,2c0.4,0.6,0.9,0.8,1.6,0.8c1,0,1.7-0.8,2.1-2.2h0.2
				c-0.2,0.9-0.5,1.6-1,2.1c-0.5,0.5-1.1,0.7-1.9,0.7c-0.9,0-1.7-0.3-2.3-1c-0.6-0.7-1-1.5-1-2.5c0-1,0.3-1.9,0.9-2.6
				c0.6-0.7,1.4-1.1,2.5-1.1C480.9,378.6,481.5,378.8,482.1,379.2z"/>
			<path class="st2" d="M492.9,379.7c0.2,0.4,0.3,0.9,0.3,1.4v3.4c0,0.4,0.1,0.7,0.3,0.7c0.3,0.1,0.6,0,0.9-0.3l0.1,0.2
				c-0.5,0.3-1,0.5-1.5,0.5c-0.9,0-1.4-0.3-1.4-1c-0.2,0.3-0.5,0.5-0.8,0.7c-0.4,0.2-0.8,0.3-1.3,0.3c-0.6,0-1.1-0.2-1.4-0.5
				c-0.4-0.3-0.6-0.8-0.6-1.4c0-0.9,0.5-1.6,1.6-1.9c1.7-0.6,2.6-1.3,2.6-2.1c0-0.6-0.5-0.9-1.3-0.9c-0.4,0-0.6,0.1-0.8,0.2
				c0,0-0.1,0.3-0.3,0.6c-0.1,0.2-0.2,0.3-0.3,0.4c-0.1,0.1-0.2,0.2-0.4,0.2c-0.1,0-0.3,0-0.4-0.1c-0.1-0.1-0.2-0.2-0.2-0.4
				c0-0.3,0.1-0.5,0.4-0.7c0.5-0.4,1.1-0.6,2-0.6C491.7,378.6,492.6,379,492.9,379.7z M490,382c-0.3,0.2-0.6,0.4-0.7,0.7
				c-0.2,0.3-0.2,0.6-0.2,1c0,0.4,0.1,0.7,0.3,1c0.2,0.3,0.5,0.4,0.8,0.4c0.4,0,0.8-0.2,1-0.7c0.2-0.4,0.4-1,0.4-1.7V381
				C491.4,381.3,490.8,381.6,490,382z"/>
			<path class="st2" d="M510.5,385.1c-0.3-0.2-0.6-0.3-0.8-0.1c-0.3,0.1-0.4,0.4-0.5,0.9h-0.2V377c0-0.8-0.3-1.1-0.9-1v-0.2l2.5-0.4
				v4c0.6-0.5,1.2-0.8,1.9-0.8c0.9,0,1.6,0.3,2.2,0.9c0.6,0.6,0.8,1.4,0.8,2.5c0,1.1-0.3,2-0.9,2.6c-0.6,0.7-1.3,1-2.2,1
				C511.7,385.7,511.1,385.5,510.5,385.1z M511.1,379.4c-0.3,0.2-0.5,0.3-0.6,0.5v3.6c0,0.5,0.2,0.9,0.5,1.2c0.3,0.3,0.6,0.5,1,0.5
				c0.5,0,1-0.3,1.4-0.9c0.4-0.6,0.5-1.3,0.5-2.3c0-0.9-0.2-1.6-0.5-2.2c-0.3-0.6-0.8-0.8-1.3-0.8
				C511.7,379.2,511.4,379.2,511.1,379.4z"/>
			<path class="st2" d="M525.5,379.7c0.2,0.4,0.3,0.9,0.3,1.4v3.4c0,0.4,0.1,0.7,0.3,0.7c0.3,0.1,0.6,0,0.9-0.3l0.1,0.2
				c-0.5,0.3-1,0.5-1.5,0.5c-0.9,0-1.4-0.3-1.4-1c-0.2,0.3-0.5,0.5-0.8,0.7c-0.4,0.2-0.8,0.3-1.3,0.3c-0.6,0-1.1-0.2-1.4-0.5
				c-0.4-0.3-0.6-0.8-0.6-1.4c0-0.9,0.5-1.6,1.6-1.9c1.7-0.6,2.6-1.3,2.6-2.1c0-0.6-0.5-0.9-1.3-0.9c-0.4,0-0.6,0.1-0.8,0.2
				c0,0-0.1,0.3-0.3,0.6c-0.1,0.2-0.2,0.3-0.3,0.4c-0.1,0.1-0.2,0.2-0.4,0.2c-0.1,0-0.3,0-0.4-0.1c-0.1-0.1-0.2-0.2-0.2-0.4
				c0-0.3,0.1-0.5,0.4-0.7c0.5-0.4,1.1-0.6,2-0.6C524.3,378.6,525.2,379,525.5,379.7z M522.6,382c-0.3,0.2-0.6,0.4-0.7,0.7
				c-0.2,0.3-0.2,0.6-0.2,1c0,0.4,0.1,0.7,0.3,1c0.2,0.3,0.5,0.4,0.8,0.4c0.4,0,0.8-0.2,1-0.7c0.2-0.4,0.4-1,0.4-1.7V381
				C523.9,381.3,523.4,381.6,522.6,382z"/>
			<path class="st2" d="M534,379.6c0.4-0.6,1-1,1.7-1c0.5,0,0.9,0.1,1.2,0.3c0.3,0.2,0.5,0.4,0.5,0.7c0,0.2,0,0.3-0.1,0.4
				c-0.1,0.1-0.2,0.2-0.4,0.2c-0.2,0-0.3,0-0.4-0.1c-0.1-0.1-0.2-0.2-0.3-0.4c-0.1-0.2-0.2-0.4-0.4-0.5c-0.2-0.1-0.3-0.2-0.5-0.1
				c-0.3,0-0.5,0.3-0.8,0.7c-0.3,0.4-0.4,0.9-0.4,1.5v2.7c0,0.9,0.3,1.4,0.9,1.4v0.2h-3.4v-0.2c0.6,0,0.9-0.5,0.9-1.4v-3.6
				c0-0.8-0.3-1.1-0.9-1V379l2.3-0.4C533.9,378.8,534,379.1,534,379.6z"/>
			<path class="st2" d="M544.3,379.6c0.4-0.6,1-1,1.7-1c0.5,0,0.9,0.1,1.2,0.3c0.3,0.2,0.5,0.4,0.5,0.7c0,0.2,0,0.3-0.1,0.4
				c-0.1,0.1-0.2,0.2-0.4,0.2c-0.2,0-0.3,0-0.4-0.1c-0.1-0.1-0.2-0.2-0.3-0.4c-0.1-0.2-0.2-0.4-0.4-0.5c-0.2-0.1-0.3-0.2-0.5-0.1
				c-0.3,0-0.5,0.3-0.8,0.7c-0.3,0.4-0.4,0.9-0.4,1.5v2.7c0,0.9,0.3,1.4,0.9,1.4v0.2h-3.4v-0.2c0.6,0,0.9-0.5,0.9-1.4v-3.6
				c0-0.8-0.3-1.1-0.9-1V379l2.3-0.4C544.3,378.8,544.3,379.1,544.3,379.6z"/>
			<path class="st2" d="M557.6,379.6c0.6,0.6,0.9,1.5,0.9,2.5c0,1-0.3,1.9-1,2.6c-0.7,0.7-1.5,1-2.4,1c-0.9,0-1.7-0.3-2.4-1
				c-0.6-0.7-1-1.5-1-2.5c0-1,0.3-1.9,1-2.6c0.6-0.7,1.5-1.1,2.5-1.1C556.2,378.6,557,378.9,557.6,379.6z M554,379.9
				c-0.3,0.6-0.5,1.4-0.5,2.3c0,0.9,0.2,1.6,0.5,2.2c0.3,0.6,0.7,0.9,1.1,0.9c0.5,0,0.8-0.3,1.2-0.9c0.3-0.6,0.5-1.4,0.5-2.3
				c0-0.9-0.1-1.7-0.4-2.3c-0.3-0.6-0.7-0.9-1.2-0.9C554.7,379,554.3,379.3,554,379.9z"/>
			<path class="st2" d="M568.8,379.2c0.3,0.2,0.4,0.5,0.4,0.8c0,0.2-0.1,0.3-0.3,0.4c-0.1,0.1-0.3,0.1-0.4,0.1
				c-0.1,0-0.3-0.1-0.4-0.2c-0.1-0.1-0.2-0.3-0.3-0.5c-0.1-0.3-0.2-0.5-0.2-0.6c-0.2-0.1-0.4-0.2-0.8-0.2c-0.4,0-0.7,0.2-1,0.5
				c-0.3,0.3-0.5,0.8-0.6,1.2c-0.1,0.5-0.2,1-0.2,1.5c0,0.8,0.2,1.4,0.7,2c0.4,0.6,0.9,0.8,1.6,0.8c1,0,1.7-0.8,2.1-2.2h0.2
				c-0.2,0.9-0.5,1.6-1,2.1c-0.5,0.5-1.1,0.7-1.9,0.7c-0.9,0-1.7-0.3-2.3-1c-0.6-0.7-1-1.5-1-2.5c0-1,0.3-1.9,0.9-2.6
				c0.6-0.7,1.4-1.1,2.5-1.1C567.6,378.6,568.3,378.8,568.8,379.2z"/>
			<path class="st2" d="M579.6,379.7c0.2,0.4,0.3,0.9,0.3,1.4v3.4c0,0.4,0.1,0.7,0.3,0.7c0.3,0.1,0.6,0,0.9-0.3l0.1,0.2
				c-0.5,0.3-1,0.5-1.5,0.5c-0.9,0-1.4-0.3-1.4-1c-0.2,0.3-0.5,0.5-0.8,0.7c-0.4,0.2-0.8,0.3-1.3,0.3c-0.6,0-1.1-0.2-1.4-0.5
				c-0.4-0.3-0.6-0.8-0.6-1.4c0-0.9,0.5-1.6,1.6-1.9c1.7-0.6,2.6-1.3,2.6-2.1c0-0.6-0.5-0.9-1.3-0.9c-0.4,0-0.6,0.1-0.8,0.2
				c0,0-0.1,0.3-0.3,0.6c-0.1,0.2-0.2,0.3-0.3,0.4c-0.1,0.1-0.2,0.2-0.4,0.2c-0.1,0-0.3,0-0.4-0.1c-0.1-0.1-0.2-0.2-0.2-0.4
				c0-0.3,0.1-0.5,0.4-0.7c0.5-0.4,1.1-0.6,2-0.6C578.4,378.6,579.3,379,579.6,379.7z M576.8,382c-0.3,0.2-0.6,0.4-0.7,0.7
				c-0.2,0.3-0.2,0.6-0.2,1c0,0.4,0.1,0.7,0.3,1c0.2,0.3,0.5,0.4,0.8,0.4c0.4,0,0.8-0.2,1-0.7c0.2-0.4,0.4-1,0.4-1.7V381
				C578.1,381.3,577.6,381.6,576.8,382z"/>
			<path class="st2" d="M414.9,395.7c0.3,0.2,0.4,0.5,0.4,0.8c0,0.2-0.1,0.3-0.3,0.4c-0.1,0.1-0.3,0.1-0.4,0.1
				c-0.1,0-0.3-0.1-0.4-0.2c-0.1-0.1-0.2-0.3-0.3-0.5c-0.1-0.3-0.2-0.5-0.2-0.6c-0.2-0.1-0.4-0.2-0.8-0.2c-0.4,0-0.7,0.2-1,0.5
				c-0.3,0.3-0.5,0.8-0.6,1.2c-0.1,0.5-0.2,1-0.2,1.5c0,0.8,0.2,1.4,0.7,2c0.4,0.5,0.9,0.8,1.6,0.8c1,0,1.7-0.8,2.1-2.2h0.2
				c-0.2,0.9-0.5,1.6-1,2.1c-0.5,0.5-1.1,0.7-1.9,0.7c-0.9,0-1.7-0.3-2.3-1c-0.6-0.7-1-1.5-1-2.5c0-1,0.3-1.9,0.9-2.6
				c0.6-0.7,1.4-1.1,2.5-1.1C413.7,395.1,414.4,395.3,414.9,395.7z"/>
			<path class="st2" d="M426.1,396.1c0.6,0.6,0.9,1.5,0.9,2.5c0,1-0.3,1.9-1,2.6c-0.7,0.7-1.5,1-2.4,1c-0.9,0-1.7-0.3-2.4-1
				c-0.6-0.7-1-1.5-1-2.5c0-1,0.3-1.9,1-2.6c0.6-0.7,1.5-1.1,2.5-1.1C424.7,395.1,425.5,395.4,426.1,396.1z M422.5,396.4
				c-0.3,0.6-0.5,1.4-0.5,2.3c0,0.9,0.2,1.6,0.5,2.2c0.3,0.6,0.7,0.9,1.1,0.9c0.5,0,0.8-0.3,1.2-0.9c0.3-0.6,0.5-1.4,0.5-2.3
				c0-0.9-0.1-1.7-0.4-2.3c-0.3-0.6-0.7-0.9-1.2-0.9C423.3,395.4,422.9,395.8,422.5,396.4z"/>
			<path class="st2" d="M437.6,395.7c0.2,0.2,0.3,0.4,0.4,0.6c0.5-0.8,1.2-1.2,2-1.2c0.7,0,1.2,0.2,1.6,0.6c0.4,0.4,0.6,0.9,0.6,1.7
				v3c0,0.9,0.3,1.4,0.9,1.4v0.2h-3.5v-0.2c0.6,0,0.9-0.5,0.9-1.4v-3.2c0-0.4-0.1-0.8-0.3-1c-0.2-0.3-0.5-0.4-0.9-0.4
				c-0.3,0-0.6,0.1-0.8,0.4c-0.2,0.3-0.3,0.6-0.3,1v3.2c0,0.9,0.3,1.4,0.9,1.4v0.2h-3.5v-0.2c0.6,0,1-0.5,0.9-1.4v-3.2
				c0-0.4-0.1-0.8-0.4-1.1c-0.2-0.3-0.5-0.4-0.9-0.4c-0.3,0-0.6,0.1-0.8,0.4c-0.2,0.3-0.4,0.7-0.4,1v3.2c0,0.9,0.3,1.4,0.9,1.4v0.2
				h-3.5v-0.2c0.6,0,0.9-0.5,0.9-1.4v-3.6c0-0.8-0.3-1.1-0.9-1v-0.2l2.4-0.4c0.1,0.1,0.2,0.4,0.2,0.9c0.5-0.6,1.1-0.9,1.9-0.9
				C436.7,395.1,437.2,395.3,437.6,395.7z"/>
			<path class="st2" d="M453.4,396.1c0.6,0.6,0.9,1.5,0.9,2.5c0,1-0.3,1.9-1,2.6c-0.7,0.7-1.5,1-2.4,1c-0.9,0-1.7-0.3-2.4-1
				c-0.6-0.7-1-1.5-1-2.5c0-1,0.3-1.9,1-2.6c0.6-0.7,1.5-1.1,2.5-1.1C452,395.1,452.8,395.4,453.4,396.1z M449.8,396.4
				c-0.3,0.6-0.5,1.4-0.5,2.3c0,0.9,0.2,1.6,0.5,2.2c0.3,0.6,0.7,0.9,1.1,0.9c0.5,0,0.8-0.3,1.2-0.9c0.3-0.6,0.5-1.4,0.5-2.3
				c0-0.9-0.1-1.7-0.4-2.3c-0.3-0.6-0.7-0.9-1.2-0.9C450.6,395.4,450.2,395.8,449.8,396.4z"/>
			<path class="st2" d="M473.7,396c0.6,0.6,0.9,1.4,0.9,2.4h-4.9c-0.1,0.9,0.1,1.6,0.6,2.2c0.4,0.6,1,0.9,1.7,0.9
				c0.6,0,1.1-0.2,1.4-0.6c0.4-0.4,0.7-0.9,0.9-1.6h0.2c-0.2,0.9-0.6,1.6-1.2,2.1c-0.6,0.5-1.3,0.8-2.1,0.8c-0.9,0-1.7-0.3-2.3-1
				c-0.6-0.7-0.9-1.5-0.9-2.5c0-1,0.3-1.9,0.9-2.6c0.6-0.7,1.4-1.1,2.4-1.1C472.3,395.1,473.1,395.4,473.7,396z M470.6,395.7
				c-0.2,0.2-0.4,0.4-0.5,0.7c-0.1,0.3-0.2,0.6-0.3,0.8c-0.1,0.3-0.1,0.5-0.1,0.8h3.1c0-0.3,0-0.7-0.1-1.1c-0.1-0.4-0.2-0.7-0.5-1.1
				c-0.2-0.3-0.6-0.5-0.9-0.5C471.1,395.4,470.8,395.5,470.6,395.7z"/>
			<path class="st2" d="M485.3,395.7c0.4,0.4,0.6,1,0.6,1.7v3c0,0.9,0.3,1.4,0.9,1.4v0.2h-3.4v-0.2c0.6,0,0.9-0.5,0.9-1.4v-3.2
				c0-0.4-0.1-0.8-0.4-1.1c-0.2-0.3-0.6-0.4-1-0.4c-0.4,0-0.7,0.1-0.9,0.4c-0.2,0.3-0.4,0.6-0.4,1v3.2c0,0.9,0.3,1.4,0.9,1.4v0.2
				h-3.5v-0.2c0.6,0,0.9-0.5,0.9-1.4v-3.7c0-0.8-0.3-1.1-0.9-1v-0.2l2.4-0.4c0.1,0.1,0.2,0.4,0.2,0.9c0.5-0.6,1.2-0.9,2-0.9
				C484.3,395.1,484.9,395.3,485.3,395.7z"/>
			<path class="st2" d="M506.1,396c0.6,0.6,0.9,1.4,0.9,2.4h-4.9c-0.1,0.9,0.1,1.6,0.6,2.2c0.4,0.6,1,0.9,1.7,0.9
				c0.6,0,1.1-0.2,1.4-0.6c0.4-0.4,0.7-0.9,0.9-1.6h0.2c-0.2,0.9-0.6,1.6-1.2,2.1c-0.6,0.5-1.3,0.8-2.1,0.8c-0.9,0-1.7-0.3-2.3-1
				c-0.6-0.7-0.9-1.5-0.9-2.5c0-1,0.3-1.9,0.9-2.6c0.6-0.7,1.4-1.1,2.4-1.1C504.8,395.1,505.6,395.4,506.1,396z M503.1,395.7
				c-0.2,0.2-0.4,0.4-0.5,0.7c-0.1,0.3-0.2,0.6-0.3,0.8c-0.1,0.3-0.1,0.5-0.1,0.8h3.1c0-0.3,0-0.7-0.1-1.1c-0.1-0.4-0.2-0.7-0.5-1.1
				c-0.2-0.3-0.6-0.5-0.9-0.5C503.5,395.4,503.3,395.5,503.1,395.7z"/>
			<path class="st2" d="M514.2,400.4c0,0.9,0.3,1.4,0.9,1.4v0.2h-3.5v-0.2c0.6,0,1-0.5,1-1.4v-6.9c0-0.8-0.3-1.1-1-1v-0.2l2.6-0.4
				v3.2V400.4z"/>
			<path class="st2" d="M531.2,401.5c-0.3-0.2-0.6-0.3-0.8-0.1c-0.3,0.1-0.4,0.4-0.5,0.9h-0.2v-8.8c0-0.8-0.3-1.1-0.9-1v-0.2
				l2.5-0.4v4c0.6-0.5,1.2-0.8,1.9-0.8c0.9,0,1.6,0.3,2.2,0.9c0.6,0.6,0.8,1.4,0.8,2.5c0,1.1-0.3,2-0.9,2.6c-0.6,0.7-1.3,1-2.2,1
				C532.4,402.2,531.8,402,531.2,401.5z M531.8,395.9c-0.3,0.2-0.5,0.3-0.6,0.5v3.6c0,0.5,0.2,0.9,0.5,1.2c0.3,0.3,0.6,0.5,1,0.5
				c0.5,0,1-0.3,1.4-0.9c0.4-0.6,0.5-1.3,0.5-2.3c0-0.9-0.2-1.6-0.5-2.2c-0.3-0.5-0.8-0.8-1.3-0.8
				C532.4,395.6,532.1,395.7,531.8,395.9z"/>
			<path class="st2" d="M546.2,396.2c0.2,0.4,0.3,0.8,0.3,1.4v3.4c0,0.4,0.1,0.7,0.3,0.7c0.3,0.1,0.6,0,0.9-0.3l0.1,0.2
				c-0.5,0.3-1,0.5-1.5,0.5c-0.9,0-1.4-0.3-1.4-1c-0.2,0.3-0.5,0.5-0.8,0.7c-0.4,0.2-0.8,0.3-1.3,0.3c-0.6,0-1.1-0.2-1.4-0.5
				c-0.4-0.3-0.6-0.8-0.6-1.4c0-0.9,0.5-1.6,1.6-1.9c1.7-0.6,2.6-1.3,2.6-2.1c0-0.6-0.5-0.9-1.3-0.9c-0.4,0-0.6,0.1-0.8,0.2
				c0,0-0.1,0.2-0.3,0.6c-0.1,0.2-0.2,0.3-0.3,0.4c-0.1,0.1-0.2,0.2-0.4,0.2c-0.1,0-0.3,0-0.4-0.1c-0.1-0.1-0.2-0.2-0.2-0.4
				c0-0.2,0.1-0.5,0.4-0.7c0.5-0.4,1.1-0.6,2-0.6C545,395.1,545.9,395.5,546.2,396.2z M543.4,398.5c-0.3,0.2-0.6,0.4-0.7,0.7
				c-0.2,0.3-0.2,0.6-0.2,1c0,0.4,0.1,0.7,0.3,1c0.2,0.3,0.5,0.4,0.8,0.4c0.4,0,0.8-0.2,1-0.7c0.2-0.4,0.4-1,0.4-1.7v-1.7
				C544.7,397.8,544.1,398.1,543.4,398.5z"/>
			<path class="st2" d="M554.7,396.1c0.4-0.6,1-1,1.7-1c0.5,0,0.9,0.1,1.2,0.3c0.3,0.2,0.5,0.4,0.5,0.7c0,0.2,0,0.3-0.1,0.4
				c-0.1,0.1-0.2,0.2-0.4,0.2c-0.2,0-0.3,0-0.4-0.1c-0.1-0.1-0.2-0.2-0.3-0.4c-0.1-0.2-0.2-0.4-0.4-0.5c-0.2-0.1-0.3-0.2-0.5-0.1
				c-0.3,0-0.5,0.3-0.8,0.7c-0.3,0.4-0.4,0.9-0.4,1.5v2.7c0,0.9,0.3,1.4,0.9,1.4v0.2h-3.4v-0.2c0.6,0,0.9-0.5,0.9-1.4v-3.6
				c0-0.8-0.3-1.1-0.9-1v-0.2l2.3-0.4C554.7,395.3,554.7,395.6,554.7,396.1z"/>
			<path class="st2" d="M565,396.1c0.4-0.6,1-1,1.7-1c0.5,0,0.9,0.1,1.2,0.3c0.3,0.2,0.5,0.4,0.5,0.7c0,0.2,0,0.3-0.1,0.4
				c-0.1,0.1-0.2,0.2-0.4,0.2c-0.2,0-0.3,0-0.4-0.1c-0.1-0.1-0.2-0.2-0.3-0.4c-0.1-0.2-0.2-0.4-0.4-0.5c-0.2-0.1-0.3-0.2-0.5-0.1
				c-0.3,0-0.5,0.3-0.8,0.7c-0.3,0.4-0.4,0.9-0.4,1.5v2.7c0,0.9,0.3,1.4,0.9,1.4v0.2h-3.4v-0.2c0.6,0,0.9-0.5,0.9-1.4v-3.6
				c0-0.8-0.3-1.1-0.9-1v-0.2l2.3-0.4C565,395.3,565,395.6,565,396.1z"/>
			<path class="st2" d="M578.3,396.1c0.6,0.6,0.9,1.5,0.9,2.5c0,1-0.3,1.9-1,2.6c-0.7,0.7-1.5,1-2.4,1c-0.9,0-1.7-0.3-2.4-1
				c-0.6-0.7-1-1.5-1-2.5c0-1,0.3-1.9,1-2.6c0.6-0.7,1.5-1.1,2.5-1.1C576.9,395.1,577.7,395.4,578.3,396.1z M574.8,396.4
				c-0.3,0.6-0.5,1.4-0.5,2.3c0,0.9,0.2,1.6,0.5,2.2c0.3,0.6,0.7,0.9,1.1,0.9c0.5,0,0.8-0.3,1.2-0.9c0.3-0.6,0.5-1.4,0.5-2.3
				c0-0.9-0.1-1.7-0.4-2.3c-0.3-0.6-0.7-0.9-1.2-0.9C575.5,395.4,575.1,395.8,574.8,396.4z"/>
			<path class="st2" d="M589.5,395.7c0.3,0.2,0.4,0.5,0.4,0.8c0,0.2-0.1,0.3-0.3,0.4c-0.1,0.1-0.3,0.1-0.4,0.1
				c-0.1,0-0.3-0.1-0.4-0.2c-0.1-0.1-0.2-0.3-0.3-0.5c-0.1-0.3-0.2-0.5-0.2-0.6c-0.2-0.1-0.4-0.2-0.8-0.2c-0.4,0-0.7,0.2-1,0.5
				c-0.3,0.3-0.5,0.8-0.6,1.2c-0.1,0.5-0.2,1-0.2,1.5c0,0.8,0.2,1.4,0.7,2c0.4,0.5,0.9,0.8,1.6,0.8c1,0,1.7-0.8,2.1-2.2h0.2
				c-0.2,0.9-0.5,1.6-1,2.1c-0.5,0.5-1.1,0.7-1.9,0.7c-0.9,0-1.7-0.3-2.3-1c-0.6-0.7-1-1.5-1-2.5c0-1,0.3-1.9,0.9-2.6
				c0.6-0.7,1.4-1.1,2.5-1.1C588.3,395.1,589,395.3,589.5,395.7z"/>
			<path class="st2" d="M600.7,396.1c0.6,0.6,0.9,1.5,0.9,2.5c0,1-0.3,1.9-1,2.6c-0.7,0.7-1.5,1-2.4,1c-0.9,0-1.7-0.3-2.4-1
				c-0.6-0.7-1-1.5-1-2.5c0-1,0.3-1.9,1-2.6c0.6-0.7,1.5-1.1,2.5-1.1C599.3,395.1,600.1,395.4,600.7,396.1z M597.2,396.4
				c-0.3,0.6-0.5,1.4-0.5,2.3c0,0.9,0.2,1.6,0.5,2.2c0.3,0.6,0.7,0.9,1.1,0.9c0.5,0,0.8-0.3,1.2-0.9c0.3-0.6,0.5-1.4,0.5-2.3
				c0-0.9-0.1-1.7-0.4-2.3c-0.3-0.6-0.7-0.9-1.2-0.9C597.9,395.4,597.5,395.8,597.2,396.4z"/>
		</g>
	</g>
	<g>
		<path class="st4" d="M478.4,358.5c0-0.7,0.6-1.2,1.2-1.2l56.7,0.8c0.2,0,0.8,0.1,0.8,0.4c0,0.3-0.7,0.4-0.8,0.4l-56.7,0.8
			C479,359.8,478.4,359.2,478.4,358.5L478.4,358.5z"/>
	</g>
</g>
</svg>
