<?xml version="1.0" encoding="utf-8"?>
<!-- Generator: Adobe Illustrator 19.2.0, SVG Export Plug-In . SVG Version: 6.00 Build 0)  -->
<svg version="1.1" id="Capa_1" xmlns="http://www.w3.org/2000/svg" xmlns:xlink="http://www.w3.org/1999/xlink" x="0px" y="0px"
	 viewBox="0 0 517.6 417.8" style="enable-background:new 0 0 517.6 417.8;" xml:space="preserve">
<style type="text/css">
	.st0{clip-path:url(#SVGID_2_);fill:none;stroke:#E13222;stroke-width:0.8858;}
	.st1{clip-path:url(#SVGID_2_);}
	.st2{fill:#E13222;}
	.st3{fill:none;stroke:#E13222;stroke-width:1.8186;}
	.st4{fill:#FFFFFF;}
</style>
<g>
	<g>
		<g>
			<defs>
				<circle id="SVGID_1_" cx="111.7" cy="251.2" r="91.5"/>
			</defs>
			<clipPath id="SVGID_2_">
				<use xlink:href="#SVGID_1_"  style="overflow:visible;"/>
			</clipPath>
			<path class="st0" d="M99.9,285.7c0,0-37.4-6.4-22.6-49.7c14.7-34.4,46-37.2,54.1-36.2c9.6,0.8,55.1,11.2,53.4,66.7
				C172,330.1,107.8,332.9,81.1,321C54.4,309,8.2,269.5,47.1,198.3"/>
			<g class="st1">
				<path class="st2" d="M35.9,271.8c13.5,33.8,68.9,58.5,102.8,40.9c12.6,29.8,16,98.2-50.7,77.9c-0.2,0.1-2.9-1-5.5-3.1
					c15,3.5,29.9-8,29.9-23.8c0-13.4-11-24.4-24.4-24.4c-34.8,0-31,53.9,5.8,58.8c15.3,2,26.9,0,35.7-4.8c31.4-17,21-54.3,14.2-82.1
					c5.1-3.6,29.6-14.6,34.5-39.3c5.8-43.6-22.6-60.8-56.6-57.4l-9.6-43.8c10.9-9.3,21.7-19.2,29.6-31.3
					c24-36.7,19.2-83.9-7.8-118.5c-2.7-3.4-7.3-3.4-10.1,0C93.7,58,93,87.9,96.4,111.2c1.5,9,3.7,18,4.8,27.1
					C92.5,145.8,83,154,74,163.1C46.9,191.4,21.9,231.1,35.9,271.8z M141.5,305c-5.3-24.2-10.1-45.9-15.3-69.7
					C169.6,234.8,174.1,285.8,141.5,305z M113.9,61.6c4.9-10.1,10.9-21.8,20.8-19.3c14.2,3.6,17.4,26.2,10,46.1
					c-6.9,18.6-20.8,29.7-23.7,33.4c-5.6,7-11.2,12.4-16.4,13.9C101.7,120.1,103.1,83.8,113.9,61.6z M107.4,174.4l8.8,40
					c-36,6.3-53.8,55-19.4,71.5c3.9,1.9,4.3,0.9,1.5-2.4c-14.7-17.2-3.8-46.6,22.5-48.1c5.5,24.9,10.4,47.2,15.9,72.1
					c-32.5,15.1-73.9,2.1-84.8-34.5c-1.4-2.1-1.5-4.3-1.5-6.6C43.1,221.6,78.1,198.9,107.4,174.4z"/>
			</g>
		</g>
		<circle class="st3" cx="111.9" cy="250.7" r="91.5"/>
	</g>
	<g>
		<path class="st4" d="M353,159.1v0.4c-1.2,0-1.8,0.6-1.8,1.8v9.9c0,1.2,0.6,1.8,1.8,1.8v0.4H347V173c1.2,0,1.8-0.6,1.8-1.8v-9.9
			c0-1.2-0.6-1.8-1.8-1.8v-0.4H353z"/>
		<path class="st4" d="M362.1,159.1v0.4c-1.2,0-1.8,0.6-1.8,1.8v9.3c0,1.6,1.1,2.4,3.2,2.4c0.8,0,1.5-0.1,2.1-0.3
			c0.6-0.2,1.2-0.6,1.7-1.2c0.5-0.6,0.8-1.3,0.9-2.2l0.4,0l-0.2,4.1H356l0-0.4c1.2,0,1.8-0.6,1.8-1.8v-9.9c0-1.2-0.6-1.8-1.8-1.8
			v-0.4H362.1z"/>
		<path class="st4" d="M239.1,186.6l0.3,5.1l-0.6,0c-0.2-3-1.8-4.5-4.7-4.5h-3.4v17.5c0,1.8,0.9,2.7,2.7,2.7v0.6h-9.1v-0.6
			c1.8,0,2.7-0.9,2.7-2.7v-17.5h-3.4c-3,0-4.5,1.5-4.7,4.5l-0.6-0.1l0.3-5.1H239.1z"/>
		<path class="st4" d="M267,186.6l0.3,5.1l-0.6,0.1c-0.2-3-1.9-4.5-5.1-4.5h-5.4v8.9h2.7c2.1,0,3.1-1.1,3.1-3.2h0.6v7.1h-0.6
			c0-2.2-1-3.3-3.1-3.3h-2.7v7c0,2.4,1.6,3.6,4.8,3.6c4.5,0,6.9-1.9,7.1-5.6l0.5,0l-0.4,6.1h-18.5v-0.6c1.8,0,2.7-0.9,2.7-2.7v-14.9
			c0-1.8-0.9-2.7-2.7-2.7v-0.6H267z"/>
		<path class="st4" d="M288.3,186.6v0.6c-1.8,0-2.7,0.9-2.7,2.7v14c0,2.4,1.6,3.6,4.8,3.6c1.2,0,2.3-0.2,3.2-0.5
			c0.9-0.3,1.8-0.9,2.5-1.8c0.7-0.9,1.2-2,1.4-3.3l0.6,0l-0.4,6.1h-18.5l0-0.5c1.8,0,2.6-0.9,2.6-2.7v-14.9c0-1.8-0.9-2.7-2.7-2.7
			v-0.6H288.3z"/>
		<path class="st4" d="M325.8,186.6l0.3,5.1l-0.6,0.1c-0.2-3-1.9-4.5-5.1-4.5h-5.4v8.9h2.7c2.1,0,3.1-1.1,3.1-3.2h0.6v7.1h-0.6
			c0-2.2-1-3.3-3.1-3.3h-2.7v7c0,2.4,1.6,3.6,4.8,3.6c4.5,0,6.9-1.9,7.1-5.6l0.5,0l-0.4,6.1h-18.5v-0.6c1.8,0,2.7-0.9,2.7-2.7v-14.9
			c0-1.8-0.9-2.7-2.7-2.7v-0.6H325.8z"/>
		<path class="st4" d="M348.6,187c1.4,0.6,2.1,0.5,2.1-0.4h0.6l0.5,6l-0.5,0.1c-0.4-1.7-1-3-1.8-3.9c-1-1.2-2.3-1.8-4-1.7
			c-1.2,0-2.1,0.3-2.8,1c-0.5,0.4-0.8,0.8-0.9,1.4c-0.2,0.6-0.2,1.2-0.1,1.8c0.1,0.5,0.4,1,0.8,1.4c0.5,0.5,1.8,1.2,3.7,1.9
			c1.9,0.7,3.2,1.3,3.9,1.7c1,0.6,1.8,1.3,2.4,2.2c0.5,0.9,0.8,2,0.7,3.3c-0.1,1.9-0.8,3.4-2.2,4.8c-1.5,1.3-3.3,2-5.7,1.8
			c-1.4-0.1-2.7-0.5-4.1-1.3c-0.5-0.3-1-0.5-1.3-0.6c-0.3-0.1-0.6,0-0.9,0.2c-0.3,0.3-0.4,0.7-0.5,1.3H338v-6.6h0.5
			c0.4,1.8,1.1,3.2,2.1,4.2c1.2,1.2,2.7,1.8,4.5,1.8c1.5,0.1,2.6-0.2,3.5-0.9c0.6-0.4,1-0.9,1.2-1.6c0.2-0.5,0.3-1.2,0.2-2
			c-0.1-0.6-0.3-1.2-0.6-1.7c-0.3-0.4-0.9-0.8-1.6-1.3c-0.7-0.4-1.6-0.8-2.7-1.2c-1-0.4-1.8-0.7-2.3-1c-3-1.5-4.5-3.4-4.5-5.7
			c0-1.6,0.6-3,1.7-4.1c1.3-1.2,3-1.7,5.1-1.7C346.4,186.3,347.5,186.5,348.6,187z"/>
		<path class="st4" d="M380,187.2c1.3,0.5,2,0.2,2-0.6h0.6l0.4,6.2l-0.6,0.1c-1-3.9-3.3-5.8-7.1-5.8c-2.1,0-3.9,1.1-5.2,3.1
			c-1.3,2-2,4.4-2,7.3c0,6.7,2.5,10,7.6,10c3.5,0,5.9-1.4,7.4-4.2l0.6,0.2c-1.4,3.2-4.1,4.8-8.1,4.8c-2.4,0-4.5-0.5-6.2-1.4
			c-1.7-0.9-3-2.2-4-3.9c-1-1.7-1.5-3.5-1.5-5.5c0-2,0.5-3.9,1.4-5.6c0.9-1.7,2.3-3,4.1-4.1c1.8-1,3.8-1.5,6.1-1.5
			C376.6,186.3,378.1,186.6,380,187.2z"/>
		<path class="st4" d="M413.6,189.2c1.9,2,2.9,4.6,2.9,7.9c0,2.1-0.5,4-1.5,5.8c-1,1.7-2.4,3.1-4.1,4c-1.8,1-3.7,1.5-5.7,1.5
			c-3.1,0-5.8-1-7.9-3.1c-2.1-2.1-3.2-4.7-3.2-7.7c0-2.1,0.5-4,1.4-5.7c1-1.7,2.3-3.1,4.1-4.1c1.8-1,3.8-1.5,6-1.6
			C409,186.2,411.7,187.2,413.6,189.2z M401.7,188.5c-1.1,1-1.9,2.2-2.5,3.8c-0.6,1.6-0.9,3.3-0.9,5.2c0,2.8,0.7,5.2,2,7.2
			c1.3,1.9,2.9,2.9,4.8,2.9c1.2,0,2.4-0.5,3.5-1.4c1.1-0.9,1.9-2.1,2.6-3.8c0.6-1.6,1-3.4,1-5.3c0-3.1-0.6-5.5-1.8-7.3
			c-1.2-1.9-2.9-2.8-5-2.8C404.1,187,402.8,187.5,401.7,188.5z"/>
		<path class="st4" d="M438.6,186.6c1.7,0,3.2,0.6,4.4,1.8c1.2,1.2,1.8,2.6,1.8,4.3c0,1.7-0.6,3.1-1.8,4.3c-1.2,1.2-2.7,1.8-4.4,1.8
			h-5.2v5.9c0,1.8,0.9,2.7,2.7,2.7v0.6H427v-0.6c1.8,0,2.7-0.9,2.7-2.7v-14.8c0-1.8-0.9-2.7-2.7-2.7v-0.6H438.6z M433.4,198.1h2.5
			c1.4,0,2.6-0.5,3.6-1.6c1-1.1,1.5-2.3,1.5-3.9c0-1.5-0.5-2.8-1.5-3.9c-1-1-2.2-1.5-3.6-1.5h-2.5V198.1z"/>
		<path class="st4" d="M464.5,186.6v0.6c-1.8,0-2.7,0.9-2.7,2.7v14.8c0,1.8,0.9,2.7,2.7,2.7v0.6h-9.1v-0.6c1.8,0,2.7-0.9,2.7-2.7
			v-14.8c0-1.8-0.9-2.7-2.7-2.7v-0.6H464.5z"/>
		<path class="st4" d="M494.5,189.2c1.9,2,2.9,4.6,2.9,7.9c0,2.1-0.5,4-1.5,5.8c-1,1.7-2.4,3.1-4.1,4c-1.8,1-3.7,1.5-5.7,1.5
			c-3.1,0-5.8-1-7.9-3.1c-2.1-2.1-3.2-4.7-3.2-7.7c0-2.1,0.5-4,1.4-5.7c1-1.7,2.3-3.1,4.1-4.1c1.8-1,3.8-1.5,6-1.6
			C489.9,186.2,492.6,187.2,494.5,189.2z M482.7,188.5c-1.1,1-1.9,2.2-2.5,3.8c-0.6,1.6-0.9,3.3-0.9,5.2c0,2.8,0.7,5.2,2,7.2
			c1.3,1.9,2.9,2.9,4.8,2.9c1.2,0,2.4-0.5,3.5-1.4c1.1-0.9,1.9-2.1,2.6-3.8c0.6-1.6,1-3.4,1-5.3c0-3.1-0.6-5.5-1.8-7.3
			c-1.2-1.9-2.9-2.8-5-2.8C485,187,483.8,187.5,482.7,188.5z"/>
	</g>
	<g>
		<path class="st2" d="M353.2,225.4c1,0,2,0.2,3,0.6c0.9,0.4,1.8,0.9,2.4,1.5c0.7,0.7,1.2,1.4,1.6,2.2c0.4,0.9,0.6,1.8,0.6,2.8
			c0.1,2-0.6,3.6-1.9,5c-1.3,1.4-2.9,2.1-4.9,2.1h-8.3v-0.4c1.2,0,1.8-0.6,1.8-1.8v-9.9c0-1.2-0.6-1.8-1.8-1.8v-0.4H353.2z
			 M349.9,236.9c0,1.5,0.9,2.3,2.8,2.3c0.7,0,1.4-0.1,2-0.3c0.6-0.2,1.2-0.6,1.8-1.2c0.6-0.6,1-1.3,1.3-2.2c0.3-0.9,0.4-1.9,0.4-3
			c-0.1-1.9-0.7-3.4-1.8-4.7c-0.6-0.6-1.3-1.1-2.1-1.5c-0.9-0.3-1.7-0.5-2.5-0.5h-1.7V236.9z"/>
		<path class="st2" d="M369.9,225.4v0.4c-1.2,0-1.8,0.6-1.8,1.8v9.9c0,1.2,0.6,1.8,1.8,1.8v0.4h-6.1v-0.4c1.2,0,1.8-0.6,1.8-1.8
			v-9.9c0-1.2-0.6-1.8-1.8-1.8v-0.4H369.9z"/>
		<path class="st2" d="M276.1,255.2c1.3,0.5,2,0.2,2.1-0.6h0.6l0.3,6.2l-0.5,0.1c-1-3.9-3.3-5.8-7.2-5.8c-2.1,0-3.9,1.1-5.2,3.1
			c-1.3,2-2,4.5-2,7.3c0,1.9,0.2,3.6,0.7,5.1c0.4,1.4,1.2,2.6,2.3,3.5c1,0.9,2.3,1.4,3.9,1.4c1.4,0,2.6-0.3,3.4-1.1
			c0.8-0.7,1.2-1.7,1.2-3v-0.8c0-1.8-1-2.9-2.9-3.4v-0.6h9.6v0.6c-1.9,0.4-2.9,1.6-2.9,3.4v2.5c-1,0.9-2.2,1.6-3.5,2.1
			c-1.5,0.6-3.1,0.9-4.9,1c-3.2,0.1-5.9-0.9-8-3c-2.1-2.1-3.2-4.7-3.2-7.8c0-2,0.5-3.8,1.5-5.6c0.9-1.7,2.3-3.1,4.1-4.1
			c1.8-1,3.8-1.5,6.2-1.5C272.7,254.2,274.3,254.5,276.1,255.2z"/>
		<path class="st2" d="M304.1,254.5l7.7,18.4c0.6,1.5,1.7,2.3,3.1,2.3v0.6H306v-0.6c1.7,0,2.2-0.8,1.6-2.3l-1.7-4.1h-7.6l-1.6,4.1
			c-0.6,1.5-0.1,2.3,1.6,2.3v0.6h-5.4v-0.6c1.5,0,2.6-0.7,3.2-2.3l7-18.4H304.1z M298.6,268.2h7.1c-0.3-0.6-1.5-3.6-3.6-9
			C299.9,264.8,298.7,267.8,298.6,268.2z"/>
		<path class="st2" d="M333.7,254.5v0.6c-1.8,0-2.7,0.9-2.7,2.7v14c0,2.4,1.6,3.6,4.8,3.6c1.2,0,2.3-0.2,3.2-0.5
			c0.9-0.3,1.8-0.9,2.5-1.8c0.7-0.9,1.2-2,1.4-3.3l0.6,0l-0.4,6.1h-18.5l0-0.5c1.8,0,2.6-0.9,2.6-2.7v-14.9c0-1.8-0.9-2.7-2.7-2.7
			v-0.6H333.7z"/>
		<path class="st2" d="M363.1,254.5v0.6c-1.8,0-2.7,0.9-2.7,2.7v14.8c0,1.8,0.9,2.7,2.7,2.7v0.6H354v-0.6c1.8,0,2.7-0.9,2.7-2.7
			v-14.8c0-1.8-0.9-2.7-2.7-2.7v-0.6H363.1z"/>
		<path class="st2" d="M382.7,254.5v0.6c-1.8,0-2.7,0.9-2.7,2.7v14c0,2.4,1.6,3.6,4.8,3.6c1.2,0,2.3-0.2,3.2-0.5
			c0.9-0.3,1.8-0.9,2.5-1.8c0.7-0.9,1.2-2,1.4-3.3l0.6,0l-0.4,6.1h-18.5l0-0.5c1.8,0,2.6-0.9,2.6-2.7v-14.9c0-1.8-0.9-2.7-2.7-2.7
			v-0.6H382.7z"/>
		<path class="st2" d="M420.1,254.5l0.3,5.1l-0.6,0.1c-0.2-3-1.9-4.5-5.1-4.5h-5.4v8.9h2.7c2.1,0,3.1-1.1,3.1-3.2h0.6v7.1h-0.6
			c0-2.2-1-3.3-3.1-3.3h-2.7v7c0,2.4,1.6,3.6,4.8,3.6c4.5,0,6.9-1.9,7.1-5.6l0.5,0l-0.4,6.1h-18.5v-0.6c1.8,0,2.7-0.9,2.7-2.7v-14.9
			c0-1.8-0.9-2.7-2.7-2.7v-0.6H420.1z"/>
		<path class="st2" d="M452.8,257.2c1.9,2,2.9,4.6,2.9,7.9c0,2.1-0.5,4-1.5,5.8c-1,1.7-2.4,3.1-4.1,4c-1.8,1-3.7,1.5-5.7,1.5
			c-3.1,0-5.8-1-7.9-3.1c-2.1-2.1-3.2-4.7-3.2-7.7c0-2.1,0.5-4,1.4-5.7c1-1.7,2.3-3.1,4.1-4.1c1.8-1,3.8-1.5,6-1.6
			C448.2,254.2,450.9,255.2,452.8,257.2z M441,256.4c-1.1,1-1.9,2.2-2.5,3.8c-0.6,1.6-0.9,3.3-0.9,5.2c0,2.8,0.7,5.2,2,7.2
			c1.3,1.9,2.9,2.9,4.8,2.9c1.2,0,2.4-0.5,3.5-1.4c1.1-0.9,1.9-2.1,2.6-3.8c0.6-1.6,1-3.4,1-5.3c0-3.1-0.6-5.5-1.8-7.3
			c-1.2-1.9-2.9-2.8-5-2.8C443.3,255,442.1,255.5,441,256.4z"/>
	</g>
	<g>
		<g>
			<path class="st2" d="M284.4,312.1c0,0.2,0.1,0.4,0.2,0.7l3.1,7l3.1-7.7l2.8,0v0.3c-0.8,0-1.2,0.4-1.2,1.2v6.8
				c0,0.8,0.4,1.2,1.2,1.2v0.3h-4.2v-0.3c0.8,0,1.2-0.4,1.2-1.2v-7.2l-3.6,8.7h-0.5l-3.9-8.7v7.2c0,0.8,0.4,1.3,1.2,1.3v0.2h-2.7
				v-0.2c0.8,0,1.2-0.4,1.2-1.3v-6.8c0-0.8-0.4-1.2-1.2-1.2v-0.3L284.4,312.1z"/>
			<path class="st2" d="M299.6,321.4c-0.4-0.4-0.6-1-0.6-1.7v-3c0-0.9-0.3-1.4-0.9-1.4v-0.2h2.5v4.8c0,0.4,0.1,0.7,0.4,1.1
				c0.2,0.3,0.6,0.4,1,0.4c0.4,0,0.7-0.2,0.9-0.4c0.2-0.3,0.4-0.6,0.4-1l0-3.2c0-0.9-0.3-1.4-0.9-1.4v-0.2l2.6,0v5.2
				c0,0.8,0.3,1.1,0.9,1v0.2l-2.4,0.4c-0.1-0.1-0.2-0.4-0.2-0.9c-0.5,0.6-1.2,0.9-2,0.9C300.5,322,300,321.8,299.6,321.4z
				 M302.2,312.2l-1.3,2l0.4,0.3l2.4-2.3H302.2z"/>
			<path class="st2" d="M313.7,315.1c0.3,0.1,0.5,0.2,0.6,0.1c0.1,0,0.1-0.1,0.1-0.2h0.2l0.2,2h-0.2c-0.1-0.6-0.3-1-0.7-1.3
				c-0.1-0.1-0.3-0.3-0.6-0.3c-0.2-0.1-0.4-0.1-0.7-0.1c-0.3,0-0.6,0.1-0.9,0.3c-0.2,0.2-0.3,0.4-0.3,0.6c0,0.2,0.1,0.5,0.2,0.6
				c0.2,0.1,0.6,0.3,1.2,0.6c0.6,0.2,1,0.4,1.3,0.5c0.7,0.4,1,1,1,1.9c0,0.6-0.3,1.2-0.7,1.6c-0.4,0.4-1.1,0.6-1.9,0.5
				c-0.3,0-0.6-0.1-0.8-0.2c-0.5-0.2-0.9-0.3-1-0.2c-0.1,0-0.2,0.1-0.2,0.3h-0.2l0-2.1h0.2c0,0.2,0.1,0.4,0.2,0.6
				c0.1,0.2,0.2,0.3,0.4,0.5c0.4,0.4,0.9,0.6,1.5,0.7c0.5,0.1,0.9,0,1.2-0.2c0.3-0.2,0.4-0.4,0.5-0.7c0-0.3,0-0.6-0.2-0.8
				c-0.1-0.2-0.3-0.3-0.6-0.4c-0.4-0.2-0.7-0.3-1-0.4c-0.4-0.1-0.7-0.3-0.9-0.3c-0.8-0.4-1.2-1-1.2-1.9c0-0.6,0.2-1,0.6-1.4
				c0.4-0.4,0.9-0.6,1.6-0.6C313,314.9,313.3,315,313.7,315.1z"/>
			<path class="st2" d="M319.8,315.3l2.6-0.4v5.3c0,0.9,0.3,1.3,0.9,1.4v0.2h-3.5v-0.2c0.6,0,0.9-0.5,0.9-1.4v-3.8
				c0-0.7-0.3-1.1-0.9-0.9V315.3z M322.5,312.9c0,0.3-0.1,0.5-0.3,0.7c-0.2,0.2-0.4,0.3-0.7,0.3c-0.3,0-0.5-0.1-0.7-0.3
				c-0.2-0.2-0.3-0.4-0.3-0.7c0-0.3,0.1-0.5,0.3-0.7c0.2-0.2,0.4-0.3,0.7-0.3c0.3,0,0.5,0.1,0.7,0.3
				C322.4,312.4,322.5,312.6,322.5,312.9z"/>
			<path class="st2" d="M333.3,315.6c0.3,0.2,0.4,0.5,0.4,0.8c0,0.2-0.1,0.3-0.3,0.4c-0.1,0.1-0.3,0.1-0.4,0.1
				c-0.1,0-0.3-0.1-0.4-0.2c-0.1-0.1-0.2-0.3-0.3-0.5c-0.1-0.3-0.2-0.5-0.2-0.6c-0.2-0.1-0.4-0.2-0.8-0.2c-0.4,0-0.7,0.2-1,0.5
				c-0.3,0.3-0.5,0.8-0.6,1.2c-0.1,0.5-0.2,1-0.2,1.5c0,0.8,0.2,1.4,0.7,2c0.4,0.6,0.9,0.8,1.6,0.8c1,0,1.7-0.8,2.1-2.2h0.2
				c-0.2,0.9-0.5,1.6-1,2.1c-0.5,0.5-1.1,0.7-1.9,0.7c-0.9,0-1.7-0.3-2.3-1c-0.6-0.7-1-1.5-1-2.5c0-1,0.3-1.9,0.9-2.6
				c0.6-0.7,1.4-1.1,2.5-1.1C332.1,314.9,332.8,315.1,333.3,315.6z"/>
			<path class="st2" d="M344.2,316c0.2,0.4,0.3,0.9,0.3,1.4v3.4c0,0.4,0.1,0.7,0.3,0.7c0.3,0.1,0.6,0,0.9-0.3l0.1,0.2
				c-0.5,0.3-1,0.5-1.5,0.5c-0.9,0-1.4-0.3-1.4-1c-0.2,0.3-0.5,0.5-0.8,0.7c-0.4,0.2-0.8,0.3-1.3,0.3c-0.6,0-1.1-0.2-1.4-0.5
				c-0.4-0.3-0.6-0.8-0.6-1.4c0-0.9,0.5-1.6,1.6-1.9c1.7-0.6,2.6-1.3,2.6-2.1c0-0.6-0.5-0.9-1.3-0.9c-0.4,0-0.6,0.1-0.8,0.2
				c0,0-0.1,0.3-0.3,0.6c-0.1,0.2-0.2,0.3-0.3,0.4c-0.1,0.1-0.2,0.2-0.4,0.2c-0.1,0-0.3,0-0.4-0.1c-0.1-0.1-0.2-0.2-0.2-0.4
				c0-0.3,0.1-0.5,0.4-0.7c0.5-0.4,1.1-0.6,2-0.6C342.9,314.9,343.8,315.3,344.2,316z M341.3,318.4c-0.3,0.2-0.6,0.4-0.7,0.7
				c-0.2,0.3-0.2,0.6-0.2,1c0,0.4,0.1,0.7,0.3,1c0.2,0.3,0.5,0.4,0.8,0.4c0.4,0,0.8-0.2,1-0.7c0.2-0.4,0.4-1,0.4-1.7v-1.7
				C342.6,317.6,342.1,318,341.3,318.4z"/>
			<path class="st2" d="M361.7,321.4c-0.3-0.2-0.6-0.3-0.8-0.1c-0.3,0.1-0.4,0.4-0.5,0.9h-0.2v-8.8c0-0.8-0.3-1.1-0.9-1v-0.2
				l2.5-0.4v4c0.6-0.5,1.2-0.8,1.9-0.8c0.9,0,1.6,0.3,2.2,0.9c0.6,0.6,0.8,1.4,0.8,2.5c0,1.1-0.3,2-0.9,2.6c-0.6,0.7-1.3,1-2.2,1
				C362.9,322,362.3,321.8,361.7,321.4z M362.3,315.7c-0.3,0.2-0.5,0.3-0.6,0.5v3.6c0,0.5,0.2,0.9,0.5,1.2c0.3,0.3,0.6,0.5,1,0.5
				c0.5,0,1-0.3,1.4-0.9c0.4-0.6,0.5-1.3,0.5-2.3c0-0.9-0.2-1.6-0.5-2.2c-0.3-0.6-0.8-0.8-1.3-0.8
				C362.9,315.5,362.6,315.5,362.3,315.7z"/>
			<path class="st2" d="M376.8,316c0.2,0.4,0.3,0.9,0.3,1.4v3.4c0,0.4,0.1,0.7,0.3,0.7c0.3,0.1,0.6,0,0.9-0.3l0.1,0.2
				c-0.5,0.3-1,0.5-1.5,0.5c-0.9,0-1.4-0.3-1.4-1c-0.2,0.3-0.5,0.5-0.8,0.7c-0.4,0.2-0.8,0.3-1.3,0.3c-0.6,0-1.1-0.2-1.4-0.5
				c-0.4-0.3-0.6-0.8-0.6-1.4c0-0.9,0.5-1.6,1.6-1.9c1.7-0.6,2.6-1.3,2.6-2.1c0-0.6-0.5-0.9-1.3-0.9c-0.4,0-0.6,0.1-0.8,0.2
				c0,0-0.1,0.3-0.3,0.6c-0.1,0.2-0.2,0.3-0.3,0.4c-0.1,0.1-0.2,0.2-0.4,0.2c-0.1,0-0.3,0-0.4-0.1c-0.1-0.1-0.2-0.2-0.2-0.4
				c0-0.3,0.1-0.5,0.4-0.7c0.5-0.4,1.1-0.6,2-0.6C375.5,314.9,376.4,315.3,376.8,316z M373.9,318.4c-0.3,0.2-0.6,0.4-0.7,0.7
				c-0.2,0.3-0.2,0.6-0.2,1c0,0.4,0.1,0.7,0.3,1c0.2,0.3,0.5,0.4,0.8,0.4c0.4,0,0.8-0.2,1-0.7c0.2-0.4,0.4-1,0.4-1.7v-1.7
				C375.2,317.6,374.7,318,373.9,318.4z"/>
			<path class="st2" d="M385.2,315.9c0.4-0.6,1-1,1.7-1c0.5,0,0.9,0.1,1.2,0.3c0.3,0.2,0.5,0.4,0.5,0.7c0,0.2,0,0.3-0.1,0.4
				c-0.1,0.1-0.2,0.2-0.4,0.2c-0.2,0-0.3,0-0.4-0.1c-0.1-0.1-0.2-0.2-0.3-0.4c-0.1-0.2-0.2-0.4-0.4-0.5c-0.2-0.1-0.3-0.2-0.5-0.1
				c-0.3,0-0.5,0.3-0.8,0.7c-0.3,0.4-0.4,0.9-0.4,1.5v2.7c0,0.9,0.3,1.4,0.9,1.4v0.2h-3.4v-0.2c0.6,0,0.9-0.5,0.9-1.4v-3.6
				c0-0.8-0.3-1.1-0.9-1v-0.2l2.3-0.4C385.2,315.1,385.2,315.4,385.2,315.9z"/>
			<path class="st2" d="M395.6,315.9c0.4-0.6,1-1,1.7-1c0.5,0,0.9,0.1,1.2,0.3c0.3,0.2,0.5,0.4,0.5,0.7c0,0.2,0,0.3-0.1,0.4
				c-0.1,0.1-0.2,0.2-0.4,0.2c-0.2,0-0.3,0-0.4-0.1c-0.1-0.1-0.2-0.2-0.3-0.4c-0.1-0.2-0.2-0.4-0.4-0.5c-0.2-0.1-0.3-0.2-0.5-0.1
				c-0.3,0-0.5,0.3-0.8,0.7c-0.3,0.4-0.4,0.9-0.4,1.5v2.7c0,0.9,0.3,1.4,0.9,1.4v0.2h-3.4v-0.2c0.6,0,0.9-0.5,0.9-1.4v-3.6
				c0-0.8-0.3-1.1-0.9-1v-0.2l2.3-0.4C395.5,315.1,395.6,315.4,395.6,315.9z"/>
			<path class="st2" d="M408.8,315.9c0.6,0.6,0.9,1.5,0.9,2.5c0,1-0.3,1.9-1,2.6c-0.7,0.7-1.5,1-2.4,1c-0.9,0-1.7-0.3-2.4-1
				c-0.6-0.7-1-1.5-1-2.5c0-1,0.3-1.9,1-2.6c0.6-0.7,1.5-1.1,2.5-1.1C407.5,314.9,408.2,315.3,408.8,315.9z M405.3,316.2
				c-0.3,0.6-0.5,1.4-0.5,2.3c0,0.9,0.2,1.6,0.5,2.2c0.3,0.6,0.7,0.9,1.1,0.9c0.5,0,0.8-0.3,1.2-0.9c0.3-0.6,0.5-1.4,0.5-2.3
				c0-0.9-0.1-1.7-0.4-2.3c-0.3-0.6-0.7-0.9-1.2-0.9C406,315.3,405.6,315.6,405.3,316.2z"/>
			<path class="st2" d="M420,315.6c0.3,0.2,0.4,0.5,0.4,0.8c0,0.2-0.1,0.3-0.3,0.4c-0.1,0.1-0.3,0.1-0.4,0.1c-0.1,0-0.3-0.1-0.4-0.2
				c-0.1-0.1-0.2-0.3-0.3-0.5c-0.1-0.3-0.2-0.5-0.2-0.6c-0.2-0.1-0.4-0.2-0.8-0.2c-0.4,0-0.7,0.2-1,0.5c-0.3,0.3-0.5,0.8-0.6,1.2
				c-0.1,0.5-0.2,1-0.2,1.5c0,0.8,0.2,1.4,0.7,2c0.4,0.6,0.9,0.8,1.6,0.8c1,0,1.7-0.8,2.1-2.2h0.2c-0.2,0.9-0.5,1.6-1,2.1
				c-0.5,0.5-1.1,0.7-1.9,0.7c-0.9,0-1.7-0.3-2.3-1c-0.6-0.7-1-1.5-1-2.5c0-1,0.3-1.9,0.9-2.6c0.6-0.7,1.4-1.1,2.5-1.1
				C418.8,314.9,419.5,315.1,420,315.6z"/>
			<path class="st2" d="M430.9,316c0.2,0.4,0.3,0.9,0.3,1.4v3.4c0,0.4,0.1,0.7,0.3,0.7c0.3,0.1,0.6,0,0.9-0.3l0.1,0.2
				c-0.5,0.3-1,0.5-1.5,0.5c-0.9,0-1.4-0.3-1.4-1c-0.2,0.3-0.5,0.5-0.8,0.7c-0.4,0.2-0.8,0.3-1.3,0.3c-0.6,0-1.1-0.2-1.4-0.5
				c-0.4-0.3-0.6-0.8-0.6-1.4c0-0.9,0.5-1.6,1.6-1.9c1.7-0.6,2.6-1.3,2.6-2.1c0-0.6-0.5-0.9-1.3-0.9c-0.4,0-0.6,0.1-0.8,0.2
				c0,0-0.1,0.3-0.3,0.6c-0.1,0.2-0.2,0.3-0.3,0.4c-0.1,0.1-0.2,0.2-0.4,0.2c-0.1,0-0.3,0-0.4-0.1c-0.1-0.1-0.2-0.2-0.2-0.4
				c0-0.3,0.1-0.5,0.4-0.7c0.5-0.4,1.1-0.6,2-0.6C429.6,314.9,430.5,315.3,430.9,316z M428,318.4c-0.3,0.2-0.6,0.4-0.7,0.7
				c-0.2,0.3-0.2,0.6-0.2,1c0,0.4,0.1,0.7,0.3,1c0.2,0.3,0.5,0.4,0.8,0.4c0.4,0,0.8-0.2,1-0.7c0.2-0.4,0.4-1,0.4-1.7v-1.7
				C429.3,317.6,428.8,318,428,318.4z"/>
			<path class="st2" d="M266.2,332c0.3,0.2,0.4,0.5,0.4,0.8c0,0.2-0.1,0.3-0.3,0.4c-0.1,0.1-0.3,0.1-0.4,0.1c-0.1,0-0.3-0.1-0.4-0.2
				c-0.1-0.1-0.2-0.3-0.3-0.5c-0.1-0.3-0.2-0.5-0.2-0.6c-0.2-0.1-0.4-0.2-0.8-0.2c-0.4,0-0.7,0.2-1,0.5c-0.3,0.3-0.5,0.8-0.6,1.2
				c-0.1,0.5-0.2,1-0.2,1.5c0,0.8,0.2,1.4,0.7,2c0.4,0.5,0.9,0.8,1.6,0.8c1,0,1.7-0.8,2.1-2.2h0.2c-0.2,0.9-0.5,1.6-1,2.1
				c-0.5,0.5-1.1,0.7-1.9,0.7c-0.9,0-1.7-0.3-2.3-1c-0.6-0.7-1-1.5-1-2.5c0-1,0.3-1.9,0.9-2.6c0.6-0.7,1.4-1.1,2.5-1.1
				C264.9,331.4,265.6,331.6,266.2,332z"/>
			<path class="st2" d="M277.4,332.4c0.6,0.6,0.9,1.5,0.9,2.5c0,1-0.3,1.9-1,2.6c-0.7,0.7-1.5,1-2.4,1c-0.9,0-1.7-0.3-2.4-1
				c-0.6-0.7-1-1.5-1-2.5c0-1,0.3-1.9,1-2.6c0.6-0.7,1.5-1.1,2.5-1.1C276,331.4,276.8,331.7,277.4,332.4z M273.8,332.7
				c-0.3,0.6-0.5,1.4-0.5,2.3c0,0.9,0.2,1.6,0.5,2.2c0.3,0.6,0.7,0.9,1.1,0.9c0.5,0,0.8-0.3,1.2-0.9c0.3-0.6,0.5-1.4,0.5-2.3
				c0-0.9-0.1-1.7-0.4-2.3c-0.3-0.6-0.7-0.9-1.2-0.9C274.5,331.7,274.1,332.1,273.8,332.7z"/>
			<path class="st2" d="M288.8,332c0.2,0.2,0.3,0.4,0.4,0.6c0.5-0.8,1.2-1.2,2-1.2c0.7,0,1.2,0.2,1.6,0.6c0.4,0.4,0.6,0.9,0.6,1.7v3
				c0,0.9,0.3,1.4,0.9,1.4v0.2h-3.5v-0.2c0.6,0,0.9-0.5,0.9-1.4v-3.2c0-0.4-0.1-0.8-0.3-1c-0.2-0.3-0.5-0.4-0.9-0.4
				c-0.3,0-0.6,0.1-0.8,0.4c-0.2,0.3-0.3,0.6-0.3,1v3.2c0,0.9,0.3,1.4,0.9,1.4v0.2h-3.5v-0.2c0.6,0,1-0.5,0.9-1.4v-3.2
				c0-0.4-0.1-0.8-0.4-1.1c-0.2-0.3-0.5-0.4-0.9-0.4c-0.3,0-0.6,0.1-0.8,0.4c-0.2,0.3-0.4,0.7-0.4,1v3.2c0,0.9,0.3,1.4,0.9,1.4v0.2
				h-3.5v-0.2c0.6,0,0.9-0.5,0.9-1.4V333c0-0.8-0.3-1.1-0.9-1v-0.2l2.4-0.4c0.1,0.1,0.2,0.4,0.2,0.9c0.5-0.6,1.1-0.9,1.9-0.9
				C287.9,331.4,288.4,331.6,288.8,332z"/>
			<path class="st2" d="M304.7,332.4c0.6,0.6,0.9,1.5,0.9,2.5c0,1-0.3,1.9-1,2.6c-0.7,0.7-1.5,1-2.4,1c-0.9,0-1.7-0.3-2.4-1
				c-0.6-0.7-1-1.5-1-2.5c0-1,0.3-1.9,1-2.6c0.6-0.7,1.5-1.1,2.5-1.1C303.3,331.4,304.1,331.7,304.7,332.4z M301.1,332.7
				c-0.3,0.6-0.5,1.4-0.5,2.3c0,0.9,0.2,1.6,0.5,2.2c0.3,0.6,0.7,0.9,1.1,0.9c0.5,0,0.8-0.3,1.2-0.9c0.3-0.6,0.5-1.4,0.5-2.3
				c0-0.9-0.1-1.7-0.4-2.3c-0.3-0.6-0.7-0.9-1.2-0.9C301.8,331.7,301.4,332.1,301.1,332.7z"/>
			<path class="st2" d="M324.9,332.3c0.6,0.6,0.9,1.4,0.9,2.4H321c-0.1,0.9,0.1,1.6,0.6,2.2c0.4,0.6,1,0.9,1.7,0.9
				c0.6,0,1.1-0.2,1.4-0.6c0.4-0.4,0.7-0.9,0.9-1.6h0.2c-0.2,0.9-0.6,1.6-1.2,2.1c-0.6,0.5-1.3,0.8-2.1,0.8c-0.9,0-1.7-0.3-2.3-1
				c-0.6-0.7-0.9-1.5-0.9-2.5c0-1,0.3-1.9,0.9-2.6c0.6-0.7,1.4-1.1,2.4-1.1C323.6,331.4,324.4,331.7,324.9,332.3z M321.8,332
				c-0.2,0.2-0.4,0.4-0.5,0.7c-0.1,0.3-0.2,0.6-0.3,0.8c-0.1,0.3-0.1,0.5-0.1,0.8h3.1c0-0.3,0-0.7-0.1-1.1c-0.1-0.4-0.2-0.7-0.5-1.1
				c-0.2-0.3-0.6-0.5-0.9-0.5C322.3,331.7,322.1,331.8,321.8,332z"/>
			<path class="st2" d="M336.5,332c0.4,0.4,0.6,1,0.6,1.7v3c0,0.9,0.3,1.4,0.9,1.4v0.2h-3.4v-0.2c0.6,0,0.9-0.5,0.9-1.4v-3.2
				c0-0.4-0.1-0.8-0.4-1.1c-0.2-0.3-0.6-0.4-1-0.4c-0.4,0-0.7,0.1-0.9,0.4c-0.2,0.3-0.4,0.6-0.4,1v3.2c0,0.9,0.3,1.4,0.9,1.4v0.2
				h-3.5v-0.2c0.6,0,0.9-0.5,0.9-1.4V333c0-0.8-0.3-1.1-0.9-1v-0.2l2.4-0.4c0.1,0.1,0.2,0.4,0.2,0.9c0.5-0.6,1.2-0.9,2-0.9
				C335.6,331.4,336.1,331.6,336.5,332z"/>
			<path class="st2" d="M357.4,332.3c0.6,0.6,0.9,1.4,0.9,2.4h-4.9c-0.1,0.9,0.1,1.6,0.6,2.2c0.4,0.6,1,0.9,1.7,0.9
				c0.6,0,1.1-0.2,1.4-0.6c0.4-0.4,0.7-0.9,0.9-1.6h0.2c-0.2,0.9-0.6,1.6-1.2,2.1c-0.6,0.5-1.3,0.8-2.1,0.8c-0.9,0-1.7-0.3-2.3-1
				c-0.6-0.7-0.9-1.5-0.9-2.5c0-1,0.3-1.9,0.9-2.6c0.6-0.7,1.4-1.1,2.4-1.1C356.1,331.4,356.8,331.7,357.4,332.3z M354.3,332
				c-0.2,0.2-0.4,0.4-0.5,0.7c-0.1,0.3-0.2,0.6-0.3,0.8c-0.1,0.3-0.1,0.5-0.1,0.8h3.1c0-0.3,0-0.7-0.1-1.1c-0.1-0.4-0.2-0.7-0.5-1.1
				c-0.2-0.3-0.6-0.5-0.9-0.5C354.8,331.7,354.5,331.8,354.3,332z"/>
			<path class="st2" d="M365.4,336.7c0,0.9,0.3,1.4,0.9,1.4v0.2h-3.5v-0.2c0.6,0,1-0.5,1-1.4v-6.9c0-0.8-0.3-1.1-1-1v-0.2l2.6-0.4
				v3.2V336.7z"/>
			<path class="st2" d="M382.4,337.8c-0.3-0.2-0.6-0.3-0.8-0.1c-0.3,0.1-0.4,0.4-0.5,0.9h-0.2v-8.8c0-0.8-0.3-1.1-0.9-1v-0.2
				l2.5-0.4v4c0.6-0.5,1.2-0.8,1.9-0.8c0.9,0,1.6,0.3,2.2,0.9c0.6,0.6,0.8,1.4,0.8,2.5c0,1.1-0.3,2-0.9,2.6c-0.6,0.7-1.3,1-2.2,1
				C383.7,338.5,383,338.3,382.4,337.8z M383.1,332.2c-0.3,0.2-0.5,0.3-0.6,0.5v3.6c0,0.5,0.2,0.9,0.5,1.2c0.3,0.3,0.6,0.5,1,0.5
				c0.5,0,1-0.3,1.4-0.9c0.4-0.6,0.5-1.3,0.5-2.3c0-0.9-0.2-1.6-0.5-2.2c-0.3-0.5-0.8-0.8-1.3-0.8C383.6,332,383.3,332,383.1,332.2z
				"/>
			<path class="st2" d="M397.5,332.5c0.2,0.4,0.3,0.8,0.3,1.4v3.4c0,0.4,0.1,0.7,0.3,0.7c0.3,0.1,0.6,0,0.9-0.3l0.1,0.2
				c-0.5,0.3-1,0.5-1.5,0.5c-0.9,0-1.4-0.3-1.4-1c-0.2,0.3-0.5,0.5-0.8,0.7c-0.4,0.2-0.8,0.3-1.3,0.3c-0.6,0-1.1-0.2-1.4-0.5
				c-0.4-0.3-0.6-0.8-0.6-1.4c0-0.9,0.5-1.6,1.6-1.9c1.7-0.6,2.6-1.3,2.6-2.1c0-0.6-0.5-0.9-1.3-0.9c-0.4,0-0.6,0.1-0.8,0.2
				c0,0-0.1,0.2-0.3,0.6c-0.1,0.2-0.2,0.3-0.3,0.4c-0.1,0.1-0.2,0.2-0.4,0.2c-0.1,0-0.3,0-0.4-0.1c-0.1-0.1-0.2-0.2-0.2-0.4
				c0-0.2,0.1-0.5,0.4-0.7c0.5-0.4,1.1-0.6,2-0.6C396.2,331.4,397.1,331.8,397.5,332.5z M394.6,334.8c-0.3,0.2-0.6,0.4-0.7,0.7
				c-0.2,0.3-0.2,0.6-0.2,1c0,0.4,0.1,0.7,0.3,1c0.2,0.3,0.5,0.4,0.8,0.4c0.4,0,0.8-0.2,1-0.7c0.2-0.4,0.4-1,0.4-1.7v-1.7
				C395.9,334.1,395.4,334.4,394.6,334.8z"/>
			<path class="st2" d="M406,332.4c0.4-0.6,1-1,1.7-1c0.5,0,0.9,0.1,1.2,0.3c0.3,0.2,0.5,0.4,0.5,0.7c0,0.2,0,0.3-0.1,0.4
				c-0.1,0.1-0.2,0.2-0.4,0.2c-0.2,0-0.3,0-0.4-0.1c-0.1-0.1-0.2-0.2-0.3-0.4c-0.1-0.2-0.2-0.4-0.4-0.5c-0.2-0.1-0.3-0.2-0.5-0.1
				c-0.3,0-0.5,0.3-0.8,0.7c-0.3,0.4-0.4,0.9-0.4,1.5v2.7c0,0.9,0.3,1.4,0.9,1.4v0.2h-3.4v-0.2c0.6,0,0.9-0.5,0.9-1.4v-3.6
				c0-0.8-0.3-1.1-0.9-1v-0.2l2.3-0.4C405.9,331.6,406,331.9,406,332.4z"/>
			<path class="st2" d="M416.3,332.4c0.4-0.6,1-1,1.7-1c0.5,0,0.9,0.1,1.2,0.3c0.3,0.2,0.5,0.4,0.5,0.7c0,0.2,0,0.3-0.1,0.4
				c-0.1,0.1-0.2,0.2-0.4,0.2c-0.2,0-0.3,0-0.4-0.1c-0.1-0.1-0.2-0.2-0.3-0.4c-0.1-0.2-0.2-0.4-0.4-0.5c-0.2-0.1-0.3-0.2-0.5-0.1
				c-0.3,0-0.5,0.3-0.8,0.7c-0.3,0.4-0.4,0.9-0.4,1.5v2.7c0,0.9,0.3,1.4,0.9,1.4v0.2h-3.4v-0.2c0.6,0,0.9-0.5,0.9-1.4v-3.6
				c0-0.8-0.3-1.1-0.9-1v-0.2l2.3-0.4C416.2,331.6,416.3,331.9,416.3,332.4z"/>
			<path class="st2" d="M429.6,332.4c0.6,0.6,0.9,1.5,0.9,2.5c0,1-0.3,1.9-1,2.6c-0.7,0.7-1.5,1-2.4,1c-0.9,0-1.7-0.3-2.4-1
				c-0.6-0.7-1-1.5-1-2.5c0-1,0.3-1.9,1-2.6c0.6-0.7,1.5-1.1,2.5-1.1C428.2,331.4,429,331.7,429.6,332.4z M426,332.7
				c-0.3,0.6-0.5,1.4-0.5,2.3c0,0.9,0.2,1.6,0.5,2.2c0.3,0.6,0.7,0.9,1.1,0.9c0.5,0,0.8-0.3,1.2-0.9c0.3-0.6,0.5-1.4,0.5-2.3
				c0-0.9-0.1-1.7-0.4-2.3c-0.3-0.6-0.7-0.9-1.2-0.9C426.7,331.7,426.3,332.1,426,332.7z"/>
			<path class="st2" d="M440.8,332c0.3,0.2,0.4,0.5,0.4,0.8c0,0.2-0.1,0.3-0.3,0.4c-0.1,0.1-0.3,0.1-0.4,0.1c-0.1,0-0.3-0.1-0.4-0.2
				c-0.1-0.1-0.2-0.3-0.3-0.5c-0.1-0.3-0.2-0.5-0.2-0.6c-0.2-0.1-0.4-0.2-0.8-0.2c-0.4,0-0.7,0.2-1,0.5c-0.3,0.3-0.5,0.8-0.6,1.2
				c-0.1,0.5-0.2,1-0.2,1.5c0,0.8,0.2,1.4,0.7,2c0.4,0.5,0.9,0.8,1.6,0.8c1,0,1.7-0.8,2.1-2.2h0.2c-0.2,0.9-0.5,1.6-1,2.1
				c-0.5,0.5-1.1,0.7-1.9,0.7c-0.9,0-1.7-0.3-2.3-1c-0.6-0.7-1-1.5-1-2.5c0-1,0.3-1.9,0.9-2.6c0.6-0.7,1.4-1.1,2.5-1.1
				C439.6,331.4,440.2,331.6,440.8,332z"/>
			<path class="st2" d="M452,332.4c0.6,0.6,0.9,1.5,0.9,2.5c0,1-0.3,1.9-1,2.6c-0.7,0.7-1.5,1-2.4,1c-0.9,0-1.7-0.3-2.4-1
				c-0.6-0.7-1-1.5-1-2.5c0-1,0.3-1.9,1-2.6c0.6-0.7,1.5-1.1,2.5-1.1C450.6,331.4,451.4,331.7,452,332.4z M448.4,332.7
				c-0.3,0.6-0.5,1.4-0.5,2.3c0,0.9,0.2,1.6,0.5,2.2c0.3,0.6,0.7,0.9,1.1,0.9c0.5,0,0.8-0.3,1.2-0.9c0.3-0.6,0.5-1.4,0.5-2.3
				c0-0.9-0.1-1.7-0.4-2.3c-0.3-0.6-0.7-0.9-1.2-0.9C449.1,331.7,448.7,332.1,448.4,332.7z"/>
		</g>
	</g>
	<g>
		<path class="st4" d="M329.7,294.8c0-0.7,0.6-1.2,1.2-1.2l56.7,0.8c0.2,0,0.8,0.1,0.8,0.4c0,0.3-0.7,0.4-0.8,0.4l-56.7,0.8
			C330.2,296.1,329.7,295.5,329.7,294.8L329.7,294.8z"/>
	</g>
</g>
</svg>
