<?xml version="1.0" encoding="utf-8"?>
<!-- Generator: Adobe Illustrator 19.2.0, SVG Export Plug-In . SVG Version: 6.00 Build 0)  -->
<svg version="1.1" id="Capa_1" xmlns="http://www.w3.org/2000/svg" xmlns:xlink="http://www.w3.org/1999/xlink" x="0px" y="0px"
	 viewBox="0 0 517.6 208" style="enable-background:new 0 0 517.6 208;" xml:space="preserve">
<style type="text/css">
	.st0{clip-path:url(#SVGID_2_);fill:none;stroke:#E13222;stroke-width:0.8858;}
	.st1{clip-path:url(#SVGID_4_);}
	.st2{fill:#E13222;}
	.st3{fill:none;stroke:#E13222;stroke-width:1.8186;}
	.st4{fill:#FFFFFF;}
</style>
<g>
	<g>
		<g>
			<g>
				<defs>
					<circle id="SVGID_1_" cx="111.7" cy="106.2" r="91.5"/>
				</defs>
				<clipPath id="SVGID_2_">
					<use xlink:href="#SVGID_1_"  style="overflow:visible;"/>
				</clipPath>
				<path class="st0" d="M99.9,140.7c0,0-37.4-6.4-22.6-49.7c14.7-34.4,46-37.2,54.1-36.2c9.6,0.8,55.1,11.2,53.4,66.7
					c-12.8,63.6-77,66.4-103.7,54.5c-26.7-12-72.9-51.5-34-122.7"/>
			</g>
			<g>
				<defs>
					<circle id="SVGID_3_" cx="111.7" cy="106.2" r="91.5"/>
				</defs>
				<clipPath id="SVGID_4_">
					<use xlink:href="#SVGID_3_"  style="overflow:visible;"/>
				</clipPath>
				<g class="st1">
					<path class="st2" d="M35.9,126.8c13.5,33.8,68.9,58.5,102.8,40.9c12.6,29.8,16,98.2-50.7,77.9c-0.2,0.1-2.9-1-5.5-3.1
						c15,3.5,29.9-8,29.9-23.8c0-13.4-11-24.4-24.4-24.4c-34.8,0-31,53.9,5.8,58.8c15.3,2,26.9,0,35.7-4.8
						c31.4-17,21-54.3,14.2-82.1c5.1-3.6,29.6-14.6,34.5-39.3c5.8-43.6-22.6-60.8-56.6-57.4L112,25.7c10.9-9.3,21.7-19.2,29.6-31.3
						c24-36.7,19.2-83.9-7.8-118.5c-2.7-3.4-7.3-3.4-10.1,0C93.7-87,93-57.1,96.4-33.8c1.5,9,3.7,18,4.8,27.1C92.5,0.8,83,9,74,18.1
						C46.9,46.4,21.9,86.1,35.9,126.8z M141.5,160c-5.3-24.2-10.1-45.9-15.3-69.7C169.6,89.8,174.1,140.8,141.5,160z M113.9-83.4
						c4.9-10.1,10.9-21.8,20.8-19.3c14.2,3.6,17.4,26.2,10,46.1C137.8-38,123.9-26.9,121-23.2c-5.6,7-11.2,12.4-16.4,13.9
						C101.7-24.9,103.1-61.2,113.9-83.4z M107.4,29.4l8.8,40c-36,6.3-53.8,55-19.4,71.5c3.9,1.9,4.3,0.9,1.5-2.4
						c-14.7-17.2-3.8-46.6,22.5-48.1c5.5,24.9,10.4,47.2,15.9,72.1c-32.5,15.1-73.9,2.1-84.8-34.5c-1.4-2.1-1.5-4.3-1.5-6.6
						C43.1,76.6,78.1,53.9,107.4,29.4z"/>
				</g>
			</g>
		</g>
		<circle class="st3" cx="111.9" cy="105.7" r="91.5"/>
	</g>
	<g>
		<path class="st4" d="M353,14.1v0.4c-1.2,0-1.8,0.6-1.8,1.8v9.9c0,1.2,0.6,1.8,1.8,1.8v0.4h-6V28c1.2,0,1.8-0.6,1.8-1.8v-9.9
			c0-1.2-0.6-1.8-1.8-1.8v-0.4H353z"/>
		<path class="st4" d="M362.1,14.1v0.4c-1.2,0-1.8,0.6-1.8,1.8v9.3c0,1.6,1.1,2.4,3.2,2.4c0.8,0,1.5-0.1,2.1-0.3s1.2-0.6,1.7-1.2
			c0.5-0.6,0.8-1.3,0.9-2.2h0.4l-0.2,4.1H356V28c1.2,0,1.8-0.6,1.8-1.8v-9.9c0-1.2-0.6-1.8-1.8-1.8v-0.4L362.1,14.1L362.1,14.1z"/>
		<path class="st4" d="M239.1,41.6l0.3,5.1h-0.6c-0.2-3-1.8-4.5-4.7-4.5h-3.4v17.5c0,1.8,0.9,2.7,2.7,2.7V63h-9.1v-0.6
			c1.8,0,2.7-0.9,2.7-2.7V42.2h-3.4c-3,0-4.5,1.5-4.7,4.5l-0.6-0.1l0.3-5.1h20.5V41.6z"/>
		<path class="st4" d="M267,41.6l0.3,5.1l-0.6,0.1c-0.2-3-1.9-4.5-5.1-4.5h-5.4v8.9h2.7c2.1,0,3.1-1.1,3.1-3.2h0.6v7.1H262
			c0-2.2-1-3.3-3.1-3.3h-2.7v7c0,2.4,1.6,3.6,4.8,3.6c4.5,0,6.9-1.9,7.1-5.6h0.5l-0.4,6.1h-18.5v-0.6c1.8,0,2.7-0.9,2.7-2.7V44.7
			c0-1.8-0.9-2.7-2.7-2.7v-0.6H267V41.6z"/>
		<path class="st4" d="M288.3,41.6v0.6c-1.8,0-2.7,0.9-2.7,2.7v14c0,2.4,1.6,3.6,4.8,3.6c1.2,0,2.3-0.2,3.2-0.5
			c0.9-0.3,1.8-0.9,2.5-1.8c0.7-0.9,1.2-2,1.4-3.3h0.6l-0.4,6.1h-18.5v-0.5c1.8,0,2.6-0.9,2.6-2.7V44.9c0-1.8-0.9-2.7-2.7-2.7v-0.6
			L288.3,41.6L288.3,41.6z"/>
		<path class="st4" d="M325.8,41.6l0.3,5.1l-0.6,0.1c-0.2-3-1.9-4.5-5.1-4.5H315v8.9h2.7c2.1,0,3.1-1.1,3.1-3.2h0.6v7.1h-0.6
			c0-2.2-1-3.3-3.1-3.3H315v7c0,2.4,1.6,3.6,4.8,3.6c4.5,0,6.9-1.9,7.1-5.6h0.5l-0.4,6.1h-18.5v-0.6c1.8,0,2.7-0.9,2.7-2.7V44.7
			c0-1.8-0.9-2.7-2.7-2.7v-0.6h17.3V41.6z"/>
		<path class="st4" d="M348.6,42c1.4,0.6,2.1,0.5,2.1-0.4h0.6l0.5,6l-0.5,0.1c-0.4-1.7-1-3-1.8-3.9c-1-1.2-2.3-1.8-4-1.7
			c-1.2,0-2.1,0.3-2.8,1c-0.5,0.4-0.8,0.8-0.9,1.4c-0.2,0.6-0.2,1.2-0.1,1.8c0.1,0.5,0.4,1,0.8,1.4c0.5,0.5,1.8,1.2,3.7,1.9
			c1.9,0.7,3.2,1.3,3.9,1.7c1,0.6,1.8,1.3,2.4,2.2c0.5,0.9,0.8,2,0.7,3.3c-0.1,1.9-0.8,3.4-2.2,4.8c-1.5,1.3-3.3,2-5.7,1.8
			c-1.4-0.1-2.7-0.5-4.1-1.3c-0.5-0.3-1-0.5-1.3-0.6s-0.6,0-0.9,0.2c-0.3,0.3-0.4,0.7-0.5,1.3H338v-6.6h0.5c0.4,1.8,1.1,3.2,2.1,4.2
			c1.2,1.2,2.7,1.8,4.5,1.8c1.5,0.1,2.6-0.2,3.5-0.9c0.6-0.4,1-0.9,1.2-1.6c0.2-0.5,0.3-1.2,0.2-2c-0.1-0.6-0.3-1.2-0.6-1.7
			c-0.3-0.4-0.9-0.8-1.6-1.3c-0.7-0.4-1.6-0.8-2.7-1.2c-1-0.4-1.8-0.7-2.3-1c-3-1.5-4.5-3.4-4.5-5.7c0-1.6,0.6-3,1.7-4.1
			c1.3-1.2,3-1.7,5.1-1.7C346.4,41.3,347.5,41.5,348.6,42z"/>
		<path class="st4" d="M380,42.2c1.3,0.5,2,0.2,2-0.6h0.6l0.4,6.2l-0.6,0.1c-1-3.9-3.3-5.8-7.1-5.8c-2.1,0-3.9,1.1-5.2,3.1
			c-1.3,2-2,4.4-2,7.3c0,6.7,2.5,10,7.6,10c3.5,0,5.9-1.4,7.4-4.2l0.6,0.2c-1.4,3.2-4.1,4.8-8.1,4.8c-2.4,0-4.5-0.5-6.2-1.4
			s-3-2.2-4-3.9s-1.5-3.5-1.5-5.5s0.5-3.9,1.4-5.6c0.9-1.7,2.3-3,4.1-4.1c1.8-1,3.8-1.5,6.1-1.5C376.6,41.3,378.1,41.6,380,42.2z"/>
		<path class="st4" d="M413.6,44.2c1.9,2,2.9,4.6,2.9,7.9c0,2.1-0.5,4-1.5,5.8c-1,1.7-2.4,3.1-4.1,4c-1.8,1-3.7,1.5-5.7,1.5
			c-3.1,0-5.8-1-7.9-3.1s-3.2-4.7-3.2-7.7c0-2.1,0.5-4,1.4-5.7c1-1.7,2.3-3.1,4.1-4.1c1.8-1,3.8-1.5,6-1.6
			C409,41.2,411.7,42.2,413.6,44.2z M401.7,43.5c-1.1,1-1.9,2.2-2.5,3.8s-0.9,3.3-0.9,5.2c0,2.8,0.7,5.2,2,7.2
			c1.3,1.9,2.9,2.9,4.8,2.9c1.2,0,2.4-0.5,3.5-1.4s1.9-2.1,2.6-3.8c0.6-1.6,1-3.4,1-5.3c0-3.1-0.6-5.5-1.8-7.3
			c-1.2-1.9-2.9-2.8-5-2.8C404.1,42,402.8,42.5,401.7,43.5z"/>
		<path class="st4" d="M438.6,41.6c1.7,0,3.2,0.6,4.4,1.8c1.2,1.2,1.8,2.6,1.8,4.3s-0.6,3.1-1.8,4.3c-1.2,1.2-2.7,1.8-4.4,1.8h-5.2
			v5.9c0,1.8,0.9,2.7,2.7,2.7V63H427v-0.6c1.8,0,2.7-0.9,2.7-2.7V44.9c0-1.8-0.9-2.7-2.7-2.7v-0.6H438.6z M433.4,53.1h2.5
			c1.4,0,2.6-0.5,3.6-1.6s1.5-2.3,1.5-3.9c0-1.5-0.5-2.8-1.5-3.9c-1-1-2.2-1.5-3.6-1.5h-2.5V53.1z"/>
		<path class="st4" d="M464.5,41.6v0.6c-1.8,0-2.7,0.9-2.7,2.7v14.8c0,1.8,0.9,2.7,2.7,2.7V63h-9.1v-0.6c1.8,0,2.7-0.9,2.7-2.7V44.9
			c0-1.8-0.9-2.7-2.7-2.7v-0.6H464.5z"/>
		<path class="st4" d="M494.5,44.2c1.9,2,2.9,4.6,2.9,7.9c0,2.1-0.5,4-1.5,5.8c-1,1.7-2.4,3.1-4.1,4c-1.8,1-3.7,1.5-5.7,1.5
			c-3.1,0-5.8-1-7.9-3.1s-3.2-4.7-3.2-7.7c0-2.1,0.5-4,1.4-5.7c1-1.7,2.3-3.1,4.1-4.1c1.8-1,3.8-1.5,6-1.6
			C489.9,41.2,492.6,42.2,494.5,44.2z M482.7,43.5c-1.1,1-1.9,2.2-2.5,3.8s-0.9,3.3-0.9,5.2c0,2.8,0.7,5.2,2,7.2
			c1.3,1.9,2.9,2.9,4.8,2.9c1.2,0,2.4-0.5,3.5-1.4s1.9-2.1,2.6-3.8c0.6-1.6,1-3.4,1-5.3c0-3.1-0.6-5.5-1.8-7.3
			c-1.2-1.9-2.9-2.8-5-2.8C485,42,483.8,42.5,482.7,43.5z"/>
	</g>
	<g>
		<path class="st2" d="M353.2,80.4c1,0,2,0.2,3,0.6c0.9,0.4,1.8,0.9,2.4,1.5c0.7,0.7,1.2,1.4,1.6,2.2c0.4,0.9,0.6,1.8,0.6,2.8
			c0.1,2-0.6,3.6-1.9,5s-2.9,2.1-4.9,2.1h-8.3v-0.4c1.2,0,1.8-0.6,1.8-1.8v-9.9c0-1.2-0.6-1.8-1.8-1.8v-0.4L353.2,80.4L353.2,80.4z
			 M349.9,91.9c0,1.5,0.9,2.3,2.8,2.3c0.7,0,1.4-0.1,2-0.3s1.2-0.6,1.8-1.2c0.6-0.6,1-1.3,1.3-2.2s0.4-1.9,0.4-3
			c-0.1-1.9-0.7-3.4-1.8-4.7c-0.6-0.6-1.3-1.1-2.1-1.5c-0.9-0.3-1.7-0.5-2.5-0.5h-1.7v11.1H349.9z"/>
		<path class="st2" d="M369.9,80.4v0.4c-1.2,0-1.8,0.6-1.8,1.8v9.9c0,1.2,0.6,1.8,1.8,1.8v0.4h-6.1v-0.4c1.2,0,1.8-0.6,1.8-1.8v-9.9
			c0-1.2-0.6-1.8-1.8-1.8v-0.4H369.9z"/>
		<path class="st2" d="M276.1,110.2c1.3,0.5,2,0.2,2.1-0.6h0.6l0.3,6.2l-0.5,0.1c-1-3.9-3.3-5.8-7.2-5.8c-2.1,0-3.9,1.1-5.2,3.1
			c-1.3,2-2,4.5-2,7.3c0,1.9,0.2,3.6,0.7,5.1c0.4,1.4,1.2,2.6,2.3,3.5c1,0.9,2.3,1.4,3.9,1.4c1.4,0,2.6-0.3,3.4-1.1
			c0.8-0.7,1.2-1.7,1.2-3v-0.8c0-1.8-1-2.9-2.9-3.4v-0.6h9.6v0.6c-1.9,0.4-2.9,1.6-2.9,3.4v2.5c-1,0.9-2.2,1.6-3.5,2.1
			c-1.5,0.6-3.1,0.9-4.9,1c-3.2,0.1-5.9-0.9-8-3s-3.2-4.7-3.2-7.8c0-2,0.5-3.8,1.5-5.6c0.9-1.7,2.3-3.1,4.1-4.1
			c1.8-1,3.8-1.5,6.2-1.5C272.7,109.2,274.3,109.5,276.1,110.2z"/>
		<path class="st2" d="M304.1,109.5l7.7,18.4c0.6,1.5,1.7,2.3,3.1,2.3v0.6H306v-0.6c1.7,0,2.2-0.8,1.6-2.3l-1.7-4.1h-7.6l-1.6,4.1
			c-0.6,1.5-0.1,2.3,1.6,2.3v0.6h-5.4v-0.6c1.5,0,2.6-0.7,3.2-2.3l7-18.4H304.1z M298.6,123.2h7.1c-0.3-0.6-1.5-3.6-3.6-9
			C299.9,119.8,298.7,122.8,298.6,123.2z"/>
		<path class="st2" d="M333.7,109.5v0.6c-1.8,0-2.7,0.9-2.7,2.7v14c0,2.4,1.6,3.6,4.8,3.6c1.2,0,2.3-0.2,3.2-0.5
			c0.9-0.3,1.8-0.9,2.5-1.8s1.2-2,1.4-3.3h0.6l-0.4,6.1h-18.5v-0.5c1.8,0,2.6-0.9,2.6-2.7v-14.9c0-1.8-0.9-2.7-2.7-2.7v-0.6
			L333.7,109.5L333.7,109.5z"/>
		<path class="st2" d="M363.1,109.5v0.6c-1.8,0-2.7,0.9-2.7,2.7v14.8c0,1.8,0.9,2.7,2.7,2.7v0.6H354v-0.6c1.8,0,2.7-0.9,2.7-2.7
			v-14.8c0-1.8-0.9-2.7-2.7-2.7v-0.6L363.1,109.5L363.1,109.5z"/>
		<path class="st2" d="M382.7,109.5v0.6c-1.8,0-2.7,0.9-2.7,2.7v14c0,2.4,1.6,3.6,4.8,3.6c1.2,0,2.3-0.2,3.2-0.5
			c0.9-0.3,1.8-0.9,2.5-1.8s1.2-2,1.4-3.3h0.6l-0.4,6.1h-18.5v-0.5c1.8,0,2.6-0.9,2.6-2.7v-14.9c0-1.8-0.9-2.7-2.7-2.7v-0.6
			L382.7,109.5L382.7,109.5z"/>
		<path class="st2" d="M420.1,109.5l0.3,5.1l-0.6,0.1c-0.2-3-1.9-4.5-5.1-4.5h-5.4v8.9h2.7c2.1,0,3.1-1.1,3.1-3.2h0.6v7.1h-0.6
			c0-2.2-1-3.3-3.1-3.3h-2.7v7c0,2.4,1.6,3.6,4.8,3.6c4.5,0,6.9-1.9,7.1-5.6h0.5l-0.4,6.1h-18.5v-0.6c1.8,0,2.7-0.9,2.7-2.7v-14.9
			c0-1.8-0.9-2.7-2.7-2.7v-0.6h17.3V109.5z"/>
		<path class="st2" d="M452.8,112.2c1.9,2,2.9,4.6,2.9,7.9c0,2.1-0.5,4-1.5,5.8c-1,1.7-2.4,3.1-4.1,4c-1.8,1-3.7,1.5-5.7,1.5
			c-3.1,0-5.8-1-7.9-3.1s-3.2-4.7-3.2-7.7c0-2.1,0.5-4,1.4-5.7c1-1.7,2.3-3.1,4.1-4.1c1.8-1,3.8-1.5,6-1.6
			C448.2,109.2,450.9,110.2,452.8,112.2z M441,111.4c-1.1,1-1.9,2.2-2.5,3.8c-0.6,1.6-0.9,3.3-0.9,5.2c0,2.8,0.7,5.2,2,7.2
			c1.3,1.9,2.9,2.9,4.8,2.9c1.2,0,2.4-0.5,3.5-1.4s1.9-2.1,2.6-3.8c0.6-1.6,1-3.4,1-5.3c0-3.1-0.6-5.5-1.8-7.3
			c-1.2-1.9-2.9-2.8-5-2.8C443.3,110,442.1,110.5,441,111.4z"/>
	</g>
	<g>
		<g>
			<path class="st2" d="M284.4,167.1c0,0.2,0.1,0.4,0.2,0.7l3.1,7l3.1-7.7h2.8v0.3c-0.8,0-1.2,0.4-1.2,1.2v6.8
				c0,0.8,0.4,1.2,1.2,1.2v0.3h-4.2v-0.3c0.8,0,1.2-0.4,1.2-1.2v-7.2l-3.6,8.7h-0.5l-3.9-8.7v7.2c0,0.8,0.4,1.3,1.2,1.3v0.2h-2.7
				v-0.2c0.8,0,1.2-0.4,1.2-1.3v-6.8c0-0.8-0.4-1.2-1.2-1.2v-0.3H284.4z"/>
			<path class="st2" d="M299.6,176.4c-0.4-0.4-0.6-1-0.6-1.7v-3c0-0.9-0.3-1.4-0.9-1.4v-0.2h2.5v4.8c0,0.4,0.1,0.7,0.4,1.1
				c0.2,0.3,0.6,0.4,1,0.4s0.7-0.2,0.9-0.4c0.2-0.3,0.4-0.6,0.4-1v-3.2c0-0.9-0.3-1.4-0.9-1.4v-0.2h2.6v5.2c0,0.8,0.3,1.1,0.9,1v0.2
				l-2.4,0.4c-0.1-0.1-0.2-0.4-0.2-0.9c-0.5,0.6-1.2,0.9-2,0.9C300.5,177,300,176.8,299.6,176.4z M302.2,167.2l-1.3,2l0.4,0.3
				l2.4-2.3H302.2z"/>
			<path class="st2" d="M313.7,170.1c0.3,0.1,0.5,0.2,0.6,0.1c0.1,0,0.1-0.1,0.1-0.2h0.2l0.2,2h-0.2c-0.1-0.6-0.3-1-0.7-1.3
				c-0.1-0.1-0.3-0.3-0.6-0.3c-0.2-0.1-0.4-0.1-0.7-0.1c-0.3,0-0.6,0.1-0.9,0.3c-0.2,0.2-0.3,0.4-0.3,0.6s0.1,0.5,0.2,0.6
				c0.2,0.1,0.6,0.3,1.2,0.6c0.6,0.2,1,0.4,1.3,0.5c0.7,0.4,1,1,1,1.9c0,0.6-0.3,1.2-0.7,1.6c-0.4,0.4-1.1,0.6-1.9,0.5
				c-0.3,0-0.6-0.1-0.8-0.2c-0.5-0.2-0.9-0.3-1-0.2c-0.1,0-0.2,0.1-0.2,0.3h-0.2v-2.1h0.2c0,0.2,0.1,0.4,0.2,0.6s0.2,0.3,0.4,0.5
				c0.4,0.4,0.9,0.6,1.5,0.7c0.5,0.1,0.9,0,1.2-0.2c0.3-0.2,0.4-0.4,0.5-0.7c0-0.3,0-0.6-0.2-0.8c-0.1-0.2-0.3-0.3-0.6-0.4
				c-0.4-0.2-0.7-0.3-1-0.4c-0.4-0.1-0.7-0.3-0.9-0.3c-0.8-0.4-1.2-1-1.2-1.9c0-0.6,0.2-1,0.6-1.4s0.9-0.6,1.6-0.6
				C313,169.9,313.3,170,313.7,170.1z"/>
			<path class="st2" d="M319.8,170.3l2.6-0.4v5.3c0,0.9,0.3,1.3,0.9,1.4v0.2h-3.5v-0.2c0.6,0,0.9-0.5,0.9-1.4v-3.8
				c0-0.7-0.3-1.1-0.9-0.9V170.3z M322.5,167.9c0,0.3-0.1,0.5-0.3,0.7c-0.2,0.2-0.4,0.3-0.7,0.3c-0.3,0-0.5-0.1-0.7-0.3
				c-0.2-0.2-0.3-0.4-0.3-0.7c0-0.3,0.1-0.5,0.3-0.7c0.2-0.2,0.4-0.3,0.7-0.3c0.3,0,0.5,0.1,0.7,0.3
				C322.4,167.4,322.5,167.6,322.5,167.9z"/>
			<path class="st2" d="M333.3,170.6c0.3,0.2,0.4,0.5,0.4,0.8c0,0.2-0.1,0.3-0.3,0.4c-0.1,0.1-0.3,0.1-0.4,0.1s-0.3-0.1-0.4-0.2
				s-0.2-0.3-0.3-0.5c-0.1-0.3-0.2-0.5-0.2-0.6c-0.2-0.1-0.4-0.2-0.8-0.2s-0.7,0.2-1,0.5s-0.5,0.8-0.6,1.2c-0.1,0.5-0.2,1-0.2,1.5
				c0,0.8,0.2,1.4,0.7,2c0.4,0.6,0.9,0.8,1.6,0.8c1,0,1.7-0.8,2.1-2.2h0.2c-0.2,0.9-0.5,1.6-1,2.1s-1.1,0.7-1.9,0.7
				c-0.9,0-1.7-0.3-2.3-1c-0.6-0.7-1-1.5-1-2.5s0.3-1.9,0.9-2.6s1.4-1.1,2.5-1.1C332.1,169.9,332.8,170.1,333.3,170.6z"/>
			<path class="st2" d="M344.2,171c0.2,0.4,0.3,0.9,0.3,1.4v3.4c0,0.4,0.1,0.7,0.3,0.7c0.3,0.1,0.6,0,0.9-0.3l0.1,0.2
				c-0.5,0.3-1,0.5-1.5,0.5c-0.9,0-1.4-0.3-1.4-1c-0.2,0.3-0.5,0.5-0.8,0.7c-0.4,0.2-0.8,0.3-1.3,0.3c-0.6,0-1.1-0.2-1.4-0.5
				c-0.4-0.3-0.6-0.8-0.6-1.4c0-0.9,0.5-1.6,1.6-1.9c1.7-0.6,2.6-1.3,2.6-2.1c0-0.6-0.5-0.9-1.3-0.9c-0.4,0-0.6,0.1-0.8,0.2
				c0,0-0.1,0.3-0.3,0.6c-0.1,0.2-0.2,0.3-0.3,0.4c-0.1,0.1-0.2,0.2-0.4,0.2c-0.1,0-0.3,0-0.4-0.1s-0.2-0.2-0.2-0.4
				c0-0.3,0.1-0.5,0.4-0.7c0.5-0.4,1.1-0.6,2-0.6C342.9,169.9,343.8,170.3,344.2,171z M341.3,173.4c-0.3,0.2-0.6,0.4-0.7,0.7
				c-0.2,0.3-0.2,0.6-0.2,1s0.1,0.7,0.3,1c0.2,0.3,0.5,0.4,0.8,0.4c0.4,0,0.8-0.2,1-0.7c0.2-0.4,0.4-1,0.4-1.7v-1.7
				C342.6,172.6,342.1,173,341.3,173.4z"/>
			<path class="st2" d="M361.7,176.4c-0.3-0.2-0.6-0.3-0.8-0.1c-0.3,0.1-0.4,0.4-0.5,0.9h-0.2v-8.8c0-0.8-0.3-1.1-0.9-1v-0.2
				l2.5-0.4v4c0.6-0.5,1.2-0.8,1.9-0.8c0.9,0,1.6,0.3,2.2,0.9s0.8,1.4,0.8,2.5s-0.3,2-0.9,2.6c-0.6,0.7-1.3,1-2.2,1
				C362.9,177,362.3,176.8,361.7,176.4z M362.3,170.7c-0.3,0.2-0.5,0.3-0.6,0.5v3.6c0,0.5,0.2,0.9,0.5,1.2c0.3,0.3,0.6,0.5,1,0.5
				c0.5,0,1-0.3,1.4-0.9s0.5-1.3,0.5-2.3c0-0.9-0.2-1.6-0.5-2.2s-0.8-0.8-1.3-0.8C362.9,170.5,362.6,170.5,362.3,170.7z"/>
			<path class="st2" d="M376.8,171c0.2,0.4,0.3,0.9,0.3,1.4v3.4c0,0.4,0.1,0.7,0.3,0.7c0.3,0.1,0.6,0,0.9-0.3l0.1,0.2
				c-0.5,0.3-1,0.5-1.5,0.5c-0.9,0-1.4-0.3-1.4-1c-0.2,0.3-0.5,0.5-0.8,0.7c-0.4,0.2-0.8,0.3-1.3,0.3c-0.6,0-1.1-0.2-1.4-0.5
				c-0.4-0.3-0.6-0.8-0.6-1.4c0-0.9,0.5-1.6,1.6-1.9c1.7-0.6,2.6-1.3,2.6-2.1c0-0.6-0.5-0.9-1.3-0.9c-0.4,0-0.6,0.1-0.8,0.2
				c0,0-0.1,0.3-0.3,0.6c-0.1,0.2-0.2,0.3-0.3,0.4c-0.1,0.1-0.2,0.2-0.4,0.2c-0.1,0-0.3,0-0.4-0.1s-0.2-0.2-0.2-0.4
				c0-0.3,0.1-0.5,0.4-0.7c0.5-0.4,1.1-0.6,2-0.6C375.5,169.9,376.4,170.3,376.8,171z M373.9,173.4c-0.3,0.2-0.6,0.4-0.7,0.7
				c-0.2,0.3-0.2,0.6-0.2,1s0.1,0.7,0.3,1c0.2,0.3,0.5,0.4,0.8,0.4c0.4,0,0.8-0.2,1-0.7c0.2-0.4,0.4-1,0.4-1.7v-1.7
				C375.2,172.6,374.7,173,373.9,173.4z"/>
			<path class="st2" d="M385.2,170.9c0.4-0.6,1-1,1.7-1c0.5,0,0.9,0.1,1.2,0.3c0.3,0.2,0.5,0.4,0.5,0.7c0,0.2,0,0.3-0.1,0.4
				s-0.2,0.2-0.4,0.2c-0.2,0-0.3,0-0.4-0.1s-0.2-0.2-0.3-0.4c-0.1-0.2-0.2-0.4-0.4-0.5c-0.2-0.1-0.3-0.2-0.5-0.1
				c-0.3,0-0.5,0.3-0.8,0.7c-0.3,0.4-0.4,0.9-0.4,1.5v2.7c0,0.9,0.3,1.4,0.9,1.4v0.2h-3.4v-0.2c0.6,0,0.9-0.5,0.9-1.4v-3.6
				c0-0.8-0.3-1.1-0.9-1v-0.2l2.3-0.4C385.2,170.1,385.2,170.4,385.2,170.9z"/>
			<path class="st2" d="M395.6,170.9c0.4-0.6,1-1,1.7-1c0.5,0,0.9,0.1,1.2,0.3c0.3,0.2,0.5,0.4,0.5,0.7c0,0.2,0,0.3-0.1,0.4
				s-0.2,0.2-0.4,0.2c-0.2,0-0.3,0-0.4-0.1s-0.2-0.2-0.3-0.4c-0.1-0.2-0.2-0.4-0.4-0.5c-0.2-0.1-0.3-0.2-0.5-0.1
				c-0.3,0-0.5,0.3-0.8,0.7c-0.3,0.4-0.4,0.9-0.4,1.5v2.7c0,0.9,0.3,1.4,0.9,1.4v0.2h-3.4v-0.2c0.6,0,0.9-0.5,0.9-1.4v-3.6
				c0-0.8-0.3-1.1-0.9-1v-0.2l2.3-0.4C395.5,170.1,395.6,170.4,395.6,170.9z"/>
			<path class="st2" d="M408.8,170.9c0.6,0.6,0.9,1.5,0.9,2.5s-0.3,1.9-1,2.6s-1.5,1-2.4,1s-1.7-0.3-2.4-1c-0.6-0.7-1-1.5-1-2.5
				s0.3-1.9,1-2.6c0.6-0.7,1.5-1.1,2.5-1.1C407.5,169.9,408.2,170.3,408.8,170.9z M405.3,171.2c-0.3,0.6-0.5,1.4-0.5,2.3
				s0.2,1.6,0.5,2.2s0.7,0.9,1.1,0.9c0.5,0,0.8-0.3,1.2-0.9c0.3-0.6,0.5-1.4,0.5-2.3s-0.1-1.7-0.4-2.3c-0.3-0.6-0.7-0.9-1.2-0.9
				C406,170.3,405.6,170.6,405.3,171.2z"/>
			<path class="st2" d="M420,170.6c0.3,0.2,0.4,0.5,0.4,0.8c0,0.2-0.1,0.3-0.3,0.4c-0.1,0.1-0.3,0.1-0.4,0.1s-0.3-0.1-0.4-0.2
				s-0.2-0.3-0.3-0.5c-0.1-0.3-0.2-0.5-0.2-0.6c-0.2-0.1-0.4-0.2-0.8-0.2s-0.7,0.2-1,0.5s-0.5,0.8-0.6,1.2c-0.1,0.5-0.2,1-0.2,1.5
				c0,0.8,0.2,1.4,0.7,2c0.4,0.6,0.9,0.8,1.6,0.8c1,0,1.7-0.8,2.1-2.2h0.2c-0.2,0.9-0.5,1.6-1,2.1s-1.1,0.7-1.9,0.7
				c-0.9,0-1.7-0.3-2.3-1c-0.6-0.7-1-1.5-1-2.5s0.3-1.9,0.9-2.6s1.4-1.1,2.5-1.1C418.8,169.9,419.5,170.1,420,170.6z"/>
			<path class="st2" d="M430.9,171c0.2,0.4,0.3,0.9,0.3,1.4v3.4c0,0.4,0.1,0.7,0.3,0.7c0.3,0.1,0.6,0,0.9-0.3l0.1,0.2
				c-0.5,0.3-1,0.5-1.5,0.5c-0.9,0-1.4-0.3-1.4-1c-0.2,0.3-0.5,0.5-0.8,0.7c-0.4,0.2-0.8,0.3-1.3,0.3c-0.6,0-1.1-0.2-1.4-0.5
				c-0.4-0.3-0.6-0.8-0.6-1.4c0-0.9,0.5-1.6,1.6-1.9c1.7-0.6,2.6-1.3,2.6-2.1c0-0.6-0.5-0.9-1.3-0.9c-0.4,0-0.6,0.1-0.8,0.2
				c0,0-0.1,0.3-0.3,0.6c-0.1,0.2-0.2,0.3-0.3,0.4c-0.1,0.1-0.2,0.2-0.4,0.2c-0.1,0-0.3,0-0.4-0.1s-0.2-0.2-0.2-0.4
				c0-0.3,0.1-0.5,0.4-0.7c0.5-0.4,1.1-0.6,2-0.6C429.6,169.9,430.5,170.3,430.9,171z M428,173.4c-0.3,0.2-0.6,0.4-0.7,0.7
				c-0.2,0.3-0.2,0.6-0.2,1s0.1,0.7,0.3,1c0.2,0.3,0.5,0.4,0.8,0.4c0.4,0,0.8-0.2,1-0.7c0.2-0.4,0.4-1,0.4-1.7v-1.7
				C429.3,172.6,428.8,173,428,173.4z"/>
			<path class="st2" d="M266.2,187c0.3,0.2,0.4,0.5,0.4,0.8c0,0.2-0.1,0.3-0.3,0.4c-0.1,0.1-0.3,0.1-0.4,0.1s-0.3-0.1-0.4-0.2
				s-0.2-0.3-0.3-0.5c-0.1-0.3-0.2-0.5-0.2-0.6c-0.2-0.1-0.4-0.2-0.8-0.2s-0.7,0.2-1,0.5s-0.5,0.8-0.6,1.2c-0.1,0.5-0.2,1-0.2,1.5
				c0,0.8,0.2,1.4,0.7,2c0.4,0.5,0.9,0.8,1.6,0.8c1,0,1.7-0.8,2.1-2.2h0.2c-0.2,0.9-0.5,1.6-1,2.1s-1.1,0.7-1.9,0.7
				c-0.9,0-1.7-0.3-2.3-1c-0.6-0.7-1-1.5-1-2.5s0.3-1.9,0.9-2.6s1.4-1.1,2.5-1.1C264.9,186.4,265.6,186.6,266.2,187z"/>
			<path class="st2" d="M277.4,187.4c0.6,0.6,0.9,1.5,0.9,2.5s-0.3,1.9-1,2.6s-1.5,1-2.4,1s-1.7-0.3-2.4-1c-0.6-0.7-1-1.5-1-2.5
				s0.3-1.9,1-2.6c0.6-0.7,1.5-1.1,2.5-1.1C276,186.4,276.8,186.7,277.4,187.4z M273.8,187.7c-0.3,0.6-0.5,1.4-0.5,2.3
				s0.2,1.6,0.5,2.2s0.7,0.9,1.1,0.9c0.5,0,0.8-0.3,1.2-0.9c0.3-0.6,0.5-1.4,0.5-2.3s-0.1-1.7-0.4-2.3c-0.3-0.6-0.7-0.9-1.2-0.9
				C274.5,186.7,274.1,187.1,273.8,187.7z"/>
			<path class="st2" d="M288.8,187c0.2,0.2,0.3,0.4,0.4,0.6c0.5-0.8,1.2-1.2,2-1.2c0.7,0,1.2,0.2,1.6,0.6s0.6,0.9,0.6,1.7v3
				c0,0.9,0.3,1.4,0.9,1.4v0.2h-3.5v-0.2c0.6,0,0.9-0.5,0.9-1.4v-3.2c0-0.4-0.1-0.8-0.3-1c-0.2-0.3-0.5-0.4-0.9-0.4
				c-0.3,0-0.6,0.1-0.8,0.4c-0.2,0.3-0.3,0.6-0.3,1v3.2c0,0.9,0.3,1.4,0.9,1.4v0.2h-3.5v-0.2c0.6,0,1-0.5,0.9-1.4v-3.2
				c0-0.4-0.1-0.8-0.4-1.1c-0.2-0.3-0.5-0.4-0.9-0.4c-0.3,0-0.6,0.1-0.8,0.4c-0.2,0.3-0.4,0.7-0.4,1v3.2c0,0.9,0.3,1.4,0.9,1.4v0.2
				h-3.5V193c0.6,0,0.9-0.5,0.9-1.4V188c0-0.8-0.3-1.1-0.9-1v-0.2l2.4-0.4c0.1,0.1,0.2,0.4,0.2,0.9c0.5-0.6,1.1-0.9,1.9-0.9
				C287.9,186.4,288.4,186.6,288.8,187z"/>
			<path class="st2" d="M304.7,187.4c0.6,0.6,0.9,1.5,0.9,2.5s-0.3,1.9-1,2.6s-1.5,1-2.4,1s-1.7-0.3-2.4-1c-0.6-0.7-1-1.5-1-2.5
				s0.3-1.9,1-2.6c0.6-0.7,1.5-1.1,2.5-1.1C303.3,186.4,304.1,186.7,304.7,187.4z M301.1,187.7c-0.3,0.6-0.5,1.4-0.5,2.3
				s0.2,1.6,0.5,2.2s0.7,0.9,1.1,0.9c0.5,0,0.8-0.3,1.2-0.9c0.3-0.6,0.5-1.4,0.5-2.3s-0.1-1.7-0.4-2.3c-0.3-0.6-0.7-0.9-1.2-0.9
				C301.8,186.7,301.4,187.1,301.1,187.7z"/>
			<path class="st2" d="M324.9,187.3c0.6,0.6,0.9,1.4,0.9,2.4H321c-0.1,0.9,0.1,1.6,0.6,2.2c0.4,0.6,1,0.9,1.7,0.9
				c0.6,0,1.1-0.2,1.4-0.6c0.4-0.4,0.7-0.9,0.9-1.6h0.2c-0.2,0.9-0.6,1.6-1.2,2.1s-1.3,0.8-2.1,0.8c-0.9,0-1.7-0.3-2.3-1
				c-0.6-0.7-0.9-1.5-0.9-2.5s0.3-1.9,0.9-2.6s1.4-1.1,2.4-1.1C323.6,186.4,324.4,186.7,324.9,187.3z M321.8,187
				c-0.2,0.2-0.4,0.4-0.5,0.7c-0.1,0.3-0.2,0.6-0.3,0.8c-0.1,0.3-0.1,0.5-0.1,0.8h3.1c0-0.3,0-0.7-0.1-1.1s-0.2-0.7-0.5-1.1
				c-0.2-0.3-0.6-0.5-0.9-0.5C322.3,186.7,322.1,186.8,321.8,187z"/>
			<path class="st2" d="M336.5,187c0.4,0.4,0.6,1,0.6,1.7v3c0,0.9,0.3,1.4,0.9,1.4v0.2h-3.4v-0.2c0.6,0,0.9-0.5,0.9-1.4v-3.2
				c0-0.4-0.1-0.8-0.4-1.1c-0.2-0.3-0.6-0.4-1-0.4s-0.7,0.1-0.9,0.4c-0.2,0.3-0.4,0.6-0.4,1v3.2c0,0.9,0.3,1.4,0.9,1.4v0.2h-3.5V193
				c0.6,0,0.9-0.5,0.9-1.4V188c0-0.8-0.3-1.1-0.9-1v-0.2l2.4-0.4c0.1,0.1,0.2,0.4,0.2,0.9c0.5-0.6,1.2-0.9,2-0.9
				S336.1,186.6,336.5,187z"/>
			<path class="st2" d="M357.4,187.3c0.6,0.6,0.9,1.4,0.9,2.4h-4.9c-0.1,0.9,0.1,1.6,0.6,2.2c0.4,0.6,1,0.9,1.7,0.9
				c0.6,0,1.1-0.2,1.4-0.6c0.4-0.4,0.7-0.9,0.9-1.6h0.2c-0.2,0.9-0.6,1.6-1.2,2.1s-1.3,0.8-2.1,0.8c-0.9,0-1.7-0.3-2.3-1
				c-0.6-0.7-0.9-1.5-0.9-2.5s0.3-1.9,0.9-2.6s1.4-1.1,2.4-1.1C356.1,186.4,356.8,186.7,357.4,187.3z M354.3,187
				c-0.2,0.2-0.4,0.4-0.5,0.7c-0.1,0.3-0.2,0.6-0.3,0.8c-0.1,0.3-0.1,0.5-0.1,0.8h3.1c0-0.3,0-0.7-0.1-1.1s-0.2-0.7-0.5-1.1
				c-0.2-0.3-0.6-0.5-0.9-0.5C354.8,186.7,354.5,186.8,354.3,187z"/>
			<path class="st2" d="M365.4,191.7c0,0.9,0.3,1.4,0.9,1.4v0.2h-3.5v-0.2c0.6,0,1-0.5,1-1.4v-6.9c0-0.8-0.3-1.1-1-1v-0.2l2.6-0.4
				v3.2V191.7z"/>
			<path class="st2" d="M382.4,192.8c-0.3-0.2-0.6-0.3-0.8-0.1c-0.3,0.1-0.4,0.4-0.5,0.9h-0.2v-8.8c0-0.8-0.3-1.1-0.9-1v-0.2
				l2.5-0.4v4c0.6-0.5,1.2-0.8,1.9-0.8c0.9,0,1.6,0.3,2.2,0.9s0.8,1.4,0.8,2.5s-0.3,2-0.9,2.6c-0.6,0.7-1.3,1-2.2,1
				C383.7,193.5,383,193.3,382.4,192.8z M383.1,187.2c-0.3,0.2-0.5,0.3-0.6,0.5v3.6c0,0.5,0.2,0.9,0.5,1.2c0.3,0.3,0.6,0.5,1,0.5
				c0.5,0,1-0.3,1.4-0.9s0.5-1.3,0.5-2.3c0-0.9-0.2-1.6-0.5-2.2c-0.3-0.5-0.8-0.8-1.3-0.8C383.6,187,383.3,187,383.1,187.2z"/>
			<path class="st2" d="M397.5,187.5c0.2,0.4,0.3,0.8,0.3,1.4v3.4c0,0.4,0.1,0.7,0.3,0.7c0.3,0.1,0.6,0,0.9-0.3l0.1,0.2
				c-0.5,0.3-1,0.5-1.5,0.5c-0.9,0-1.4-0.3-1.4-1c-0.2,0.3-0.5,0.5-0.8,0.7c-0.4,0.2-0.8,0.3-1.3,0.3c-0.6,0-1.1-0.2-1.4-0.5
				c-0.4-0.3-0.6-0.8-0.6-1.4c0-0.9,0.5-1.6,1.6-1.9c1.7-0.6,2.6-1.3,2.6-2.1c0-0.6-0.5-0.9-1.3-0.9c-0.4,0-0.6,0.1-0.8,0.2
				c0,0-0.1,0.2-0.3,0.6c-0.1,0.2-0.2,0.3-0.3,0.4c-0.1,0.1-0.2,0.2-0.4,0.2c-0.1,0-0.3,0-0.4-0.1s-0.2-0.2-0.2-0.4
				c0-0.2,0.1-0.5,0.4-0.7c0.5-0.4,1.1-0.6,2-0.6C396.2,186.4,397.1,186.8,397.5,187.5z M394.6,189.8c-0.3,0.2-0.6,0.4-0.7,0.7
				c-0.2,0.3-0.2,0.6-0.2,1s0.1,0.7,0.3,1c0.2,0.3,0.5,0.4,0.8,0.4c0.4,0,0.8-0.2,1-0.7c0.2-0.4,0.4-1,0.4-1.7v-1.7
				C395.9,189.1,395.4,189.4,394.6,189.8z"/>
			<path class="st2" d="M406,187.4c0.4-0.6,1-1,1.7-1c0.5,0,0.9,0.1,1.2,0.3c0.3,0.2,0.5,0.4,0.5,0.7c0,0.2,0,0.3-0.1,0.4
				s-0.2,0.2-0.4,0.2c-0.2,0-0.3,0-0.4-0.1s-0.2-0.2-0.3-0.4c-0.1-0.2-0.2-0.4-0.4-0.5c-0.2-0.1-0.3-0.2-0.5-0.1
				c-0.3,0-0.5,0.3-0.8,0.7c-0.3,0.4-0.4,0.9-0.4,1.5v2.7c0,0.9,0.3,1.4,0.9,1.4v0.2h-3.4v-0.2c0.6,0,0.9-0.5,0.9-1.4v-3.6
				c0-0.8-0.3-1.1-0.9-1V187l2.3-0.4C405.9,186.6,406,186.9,406,187.4z"/>
			<path class="st2" d="M416.3,187.4c0.4-0.6,1-1,1.7-1c0.5,0,0.9,0.1,1.2,0.3c0.3,0.2,0.5,0.4,0.5,0.7c0,0.2,0,0.3-0.1,0.4
				s-0.2,0.2-0.4,0.2c-0.2,0-0.3,0-0.4-0.1s-0.2-0.2-0.3-0.4c-0.1-0.2-0.2-0.4-0.4-0.5c-0.2-0.1-0.3-0.2-0.5-0.1
				c-0.3,0-0.5,0.3-0.8,0.7c-0.3,0.4-0.4,0.9-0.4,1.5v2.7c0,0.9,0.3,1.4,0.9,1.4v0.2h-3.4v-0.2c0.6,0,0.9-0.5,0.9-1.4v-3.6
				c0-0.8-0.3-1.1-0.9-1V187l2.3-0.4C416.2,186.6,416.3,186.9,416.3,187.4z"/>
			<path class="st2" d="M429.6,187.4c0.6,0.6,0.9,1.5,0.9,2.5s-0.3,1.9-1,2.6s-1.5,1-2.4,1s-1.7-0.3-2.4-1c-0.6-0.7-1-1.5-1-2.5
				s0.3-1.9,1-2.6c0.6-0.7,1.5-1.1,2.5-1.1C428.2,186.4,429,186.7,429.6,187.4z M426,187.7c-0.3,0.6-0.5,1.4-0.5,2.3
				s0.2,1.6,0.5,2.2s0.7,0.9,1.1,0.9c0.5,0,0.8-0.3,1.2-0.9c0.3-0.6,0.5-1.4,0.5-2.3s-0.1-1.7-0.4-2.3c-0.3-0.6-0.7-0.9-1.2-0.9
				C426.7,186.7,426.3,187.1,426,187.7z"/>
			<path class="st2" d="M440.8,187c0.3,0.2,0.4,0.5,0.4,0.8c0,0.2-0.1,0.3-0.3,0.4c-0.1,0.1-0.3,0.1-0.4,0.1s-0.3-0.1-0.4-0.2
				s-0.2-0.3-0.3-0.5c-0.1-0.3-0.2-0.5-0.2-0.6c-0.2-0.1-0.4-0.2-0.8-0.2s-0.7,0.2-1,0.5s-0.5,0.8-0.6,1.2c-0.1,0.5-0.2,1-0.2,1.5
				c0,0.8,0.2,1.4,0.7,2c0.4,0.5,0.9,0.8,1.6,0.8c1,0,1.7-0.8,2.1-2.2h0.2c-0.2,0.9-0.5,1.6-1,2.1s-1.1,0.7-1.9,0.7
				c-0.9,0-1.7-0.3-2.3-1c-0.6-0.7-1-1.5-1-2.5s0.3-1.9,0.9-2.6s1.4-1.1,2.5-1.1C439.6,186.4,440.2,186.6,440.8,187z"/>
			<path class="st2" d="M452,187.4c0.6,0.6,0.9,1.5,0.9,2.5s-0.3,1.9-1,2.6s-1.5,1-2.4,1s-1.7-0.3-2.4-1c-0.6-0.7-1-1.5-1-2.5
				s0.3-1.9,1-2.6c0.6-0.7,1.5-1.1,2.5-1.1C450.6,186.4,451.4,186.7,452,187.4z M448.4,187.7c-0.3,0.6-0.5,1.4-0.5,2.3
				s0.2,1.6,0.5,2.2s0.7,0.9,1.1,0.9c0.5,0,0.8-0.3,1.2-0.9c0.3-0.6,0.5-1.4,0.5-2.3s-0.1-1.7-0.4-2.3c-0.3-0.6-0.7-0.9-1.2-0.9
				C449.1,186.7,448.7,187.1,448.4,187.7z"/>
		</g>
	</g>
	<g>
		<path class="st4" d="M329.7,149.8c0-0.7,0.6-1.2,1.2-1.2l56.7,0.8c0.2,0,0.8,0.1,0.8,0.4s-0.7,0.4-0.8,0.4l-56.7,0.8
			C330.2,151.1,329.7,150.5,329.7,149.8L329.7,149.8z"/>
	</g>
</g>
</svg>
