<?xml version="1.0" encoding="utf-8"?>
<!-- Generator: Adobe Illustrator 16.0.0, SVG Export Plug-In . SVG Version: 6.00 Build 0)  -->
<!DOCTYPE svg PUBLIC "-//W3C//DTD SVG 1.1//EN" "http://www.w3.org/Graphics/SVG/1.1/DTD/svg11.dtd">
<svg version="1.1" id="Isolation_Mode" xmlns="http://www.w3.org/2000/svg" xmlns:xlink="http://www.w3.org/1999/xlink" x="0px"
	 y="0px" width="300px" height="300px" viewBox="0 0 300 300" enable-background="new 0 0 300 300" xml:space="preserve">
<rect x="2.5" y="64.694" fill="none" stroke="#000000" stroke-miterlimit="10" width="297.5" height="171.806"/>
<g>
	<path d="M74.8,125.175h5.676v39.214h18.791v4.763H74.8V125.175z"/>
	<path d="M140.635,146.706c0,15.138-9.2,23.163-20.422,23.163c-11.614,0-19.77-9.004-19.77-22.314
		c0-13.963,8.678-23.098,20.422-23.098C132.87,124.457,140.635,133.657,140.635,146.706z M106.511,147.424
		c0,9.396,5.089,17.812,14.028,17.812c9.004,0,14.093-8.286,14.093-18.269c0-8.743-4.567-17.878-14.028-17.878
		C111.208,129.09,106.511,137.768,106.511,147.424z"/>
	<path d="M181.48,167.194c-2.544,0.913-7.568,2.414-13.506,2.414c-6.654,0-12.136-1.696-16.441-5.808
		c-3.785-3.653-6.134-9.525-6.134-16.377c0.065-13.114,9.069-22.705,23.815-22.705c5.089,0,9.069,1.108,10.961,2.022l-1.37,4.633
		c-2.349-1.044-5.284-1.893-9.722-1.893c-10.7,0-17.682,6.655-17.682,17.682c0,11.157,6.721,17.747,16.964,17.747
		c3.72,0,6.264-0.521,7.569-1.174v-13.115h-8.939v-4.567h14.484V167.194z"/>
	<path d="M227.743,146.706c0,15.138-9.2,23.163-20.423,23.163c-11.613,0-19.77-9.004-19.77-22.314
		c0-13.963,8.678-23.098,20.422-23.098C219.979,124.457,227.743,133.657,227.743,146.706z M193.619,147.424
		c0,9.396,5.089,17.812,14.027,17.812c9.004,0,14.094-8.286,14.094-18.269c0-8.743-4.567-17.878-14.027-17.878
		C198.316,129.09,193.619,137.768,193.619,147.424z"/>
</g>
</svg>
